<?xml version="1.0" encoding="UTF-8" standalone="no"?>
<!DOCTYPE svg PUBLIC "-//W3C//DTD SVG 1.1//EN"
 "http://www.w3.org/Graphics/SVG/1.1/DTD/svg11.dtd">
<!-- Generated by graphviz version 2.40.1 (20161225.0304)
 -->
<!-- Title: WFST Pages: 1 -->
<svg width="278pt" height="75pt"
 viewBox="0.00 0.00 278.00 75.00" xmlns="http://www.w3.org/2000/svg" xmlns:xlink="http://www.w3.org/1999/xlink">
<g id="graph0" class="graph" transform="scale(1 1) rotate(0) translate(4 71)">
<title>WFST</title>
<polygon fill="#ffffff" stroke="transparent" points="-4,4 -4,-71 274,-71 274,4 -4,4"/>
<text text-anchor="middle" x="135" y="-7.8" font-family="Times,serif" font-size="14.00" fill="#000000">after invert</text>
<!-- 0 -->
<g id="node1" class="node">
<title>0</title>
<ellipse fill="none" stroke="#000000" stroke-width="2" cx="18" cy="-45" rx="18" ry="18"/>
<text text-anchor="middle" x="18" y="-41.3" font-family="Times,serif" font-size="14.00" fill="#000000">0</text>
</g>
<!-- 1 -->
<g id="node2" class="node">
<title>1</title>
<ellipse fill="none" stroke="#000000" stroke-width="2" cx="130" cy="-45" rx="18" ry="18"/>
<text text-anchor="middle" x="130" y="-41.3" font-family="Times,serif" font-size="14.00" fill="#000000">1</text>
</g>
<!-- 0&#45;&gt;1 -->
<g id="edge1" class="edge">
<title>0&#45;&gt;1</title>
<path fill="none" stroke="#000000" d="M36.4945,-45C54.2718,-45 81.3816,-45 101.8413,-45"/>
<polygon fill="#000000" stroke="#000000" points="101.8497,-48.5001 111.8496,-45 101.8496,-41.5001 101.8497,-48.5001"/>
<text text-anchor="middle" x="74" y="-48.8" font-family="Times,serif" font-size="14.00" fill="#000000">10:2/0.1</text>
</g>
<!-- 2 -->
<g id="node3" class="node">
<title>2</title>
<ellipse fill="none" stroke="#000000" stroke-width="2" cx="248" cy="-45" rx="18" ry="18"/>
<ellipse fill="none" stroke="#000000" stroke-width="2" cx="248" cy="-45" rx="22" ry="22"/>
<text text-anchor="middle" x="248" y="-41.3" font-family="Times,serif" font-size="14.00" fill="#000000">2</text>
</g>
<!-- 1&#45;&gt;2 -->
<g id="edge2" class="edge">
<title>1&#45;&gt;2</title>
<path fill="none" stroke="#000000" d="M148.1789,-45C166.1794,-45 194.1232,-45 215.8719,-45"/>
<polygon fill="#000000" stroke="#000000" points="215.9803,-48.5001 225.9802,-45 215.9802,-41.5001 215.9803,-48.5001"/>
<text text-anchor="middle" x="187" y="-48.8" font-family="Times,serif" font-size="14.00" fill="#000000">&#45;1:&#45;1/0.2</text>
</g>
</g>
</svg>
