<?xml version="1.0" encoding="UTF-8" standalone="no"?>
<!DOCTYPE svg PUBLIC "-//W3C//DTD SVG 1.1//EN"
 "http://www.w3.org/Graphics/SVG/1.1/DTD/svg11.dtd">
<!-- Generated by graphviz version 2.40.1 (20161225.0304)
 -->
<!-- Title: WFST Pages: 1 -->
<svg width="295pt" height="75pt"
 viewBox="0.00 0.00 295.00 75.00" xmlns="http://www.w3.org/2000/svg" xmlns:xlink="http://www.w3.org/1999/xlink">
<g id="graph0" class="graph" transform="scale(1 1) rotate(0) translate(4 71)">
<title>WFST</title>
<polygon fill="#ffffff" stroke="transparent" points="-4,4 -4,-71 291,-71 291,4 -4,4"/>
<text text-anchor="middle" x="143.5" y="-7.8" font-family="Times,serif" font-size="14.00" fill="#000000">before invert with ragged tensors as aux_labels</text>
<!-- 0 -->
<g id="node1" class="node">
<title>0</title>
<ellipse fill="none" stroke="#000000" stroke-width="2" cx="18" cy="-45" rx="18" ry="18"/>
<text text-anchor="middle" x="18" y="-41.3" font-family="Times,serif" font-size="14.00" fill="#000000">0</text>
</g>
<!-- 1 -->
<g id="node2" class="node">
<title>1</title>
<ellipse fill="none" stroke="#000000" stroke-width="2" cx="147" cy="-45" rx="18" ry="18"/>
<text text-anchor="middle" x="147" y="-41.3" font-family="Times,serif" font-size="14.00" fill="#000000">1</text>
</g>
<!-- 0&#45;&gt;1 -->
<g id="edge1" class="edge">
<title>0&#45;&gt;1</title>
<path fill="none" stroke="#000000" d="M36.2089,-45C57.7214,-45 93.7543,-45 118.8649,-45"/>
<polygon fill="#000000" stroke="#000000" points="118.8837,-48.5001 128.8837,-45 118.8836,-41.5001 118.8837,-48.5001"/>
<text text-anchor="middle" x="82.5" y="-48.8" font-family="Times,serif" font-size="14.00" fill="#000000">2:10 20/0.1</text>
</g>
<!-- 2 -->
<g id="node3" class="node">
<title>2</title>
<ellipse fill="none" stroke="#000000" stroke-width="2" cx="265" cy="-45" rx="18" ry="18"/>
<ellipse fill="none" stroke="#000000" stroke-width="2" cx="265" cy="-45" rx="22" ry="22"/>
<text text-anchor="middle" x="265" y="-41.3" font-family="Times,serif" font-size="14.00" fill="#000000">2</text>
</g>
<!-- 1&#45;&gt;2 -->
<g id="edge2" class="edge">
<title>1&#45;&gt;2</title>
<path fill="none" stroke="#000000" d="M165.1789,-45C183.1794,-45 211.1232,-45 232.8719,-45"/>
<polygon fill="#000000" stroke="#000000" points="232.9803,-48.5001 242.9802,-45 232.9802,-41.5001 232.9803,-48.5001"/>
<text text-anchor="middle" x="204" y="-48.8" font-family="Times,serif" font-size="14.00" fill="#000000">&#45;1:&#45;1/0.2</text>
</g>
</g>
</svg>
