<?xml version="1.0" encoding="UTF-8" standalone="no"?>
<!DOCTYPE svg PUBLIC "-//W3C//DTD SVG 1.1//EN"
 "http://www.w3.org/Graphics/SVG/1.1/DTD/svg11.dtd">
<!-- Generated by graphviz version 2.40.1 (20161225.0304)
 -->
<!-- Title: WFSA Pages: 1 -->
<svg width="339pt" height="106pt"
 viewBox="0.00 0.00 339.00 106.00" xmlns="http://www.w3.org/2000/svg" xmlns:xlink="http://www.w3.org/1999/xlink">
<g id="graph0" class="graph" transform="scale(1 1) rotate(0) translate(4 102)">
<title>WFSA</title>
<polygon fill="#ffffff" stroke="transparent" points="-4,4 -4,-102 335,-102 335,4 -4,4"/>
<text text-anchor="middle" x="165.5" y="-7.8" font-family="Times,serif" font-size="14.00" fill="#000000">c_fsa</text>
<!-- 0 -->
<g id="node1" class="node">
<title>0</title>
<ellipse fill="none" stroke="#000000" stroke-width="2" cx="18" cy="-45" rx="18" ry="18"/>
<text text-anchor="middle" x="18" y="-41.3" font-family="Times,serif" font-size="14.00" fill="#000000">0</text>
</g>
<!-- 1 -->
<g id="node2" class="node">
<title>1</title>
<ellipse fill="none" stroke="#000000" stroke-width="2" cx="112" cy="-80" rx="18" ry="18"/>
<text text-anchor="middle" x="112" y="-76.3" font-family="Times,serif" font-size="14.00" fill="#000000">1</text>
</g>
<!-- 0&#45;&gt;1 -->
<g id="edge1" class="edge">
<title>0&#45;&gt;1</title>
<path fill="none" stroke="#000000" d="M35.241,-51.4195C49.2866,-56.6493 69.3555,-64.1217 85.4501,-70.1144"/>
<polygon fill="#000000" stroke="#000000" points="84.2755,-73.4117 94.8683,-73.6212 86.7181,-66.8517 84.2755,-73.4117"/>
<text text-anchor="middle" x="65" y="-70.8" font-family="Times,serif" font-size="14.00" fill="#000000">0/0.1</text>
</g>
<!-- 2 -->
<g id="node3" class="node">
<title>2</title>
<ellipse fill="none" stroke="#000000" stroke-width="2" cx="206" cy="-45" rx="18" ry="18"/>
<text text-anchor="middle" x="206" y="-41.3" font-family="Times,serif" font-size="14.00" fill="#000000">2</text>
</g>
<!-- 0&#45;&gt;2 -->
<g id="edge2" class="edge">
<title>0&#45;&gt;2</title>
<path fill="none" stroke="#000000" d="M36.0876,-42.8628C51.4655,-41.1589 74.1455,-38.9124 94,-38 109.9831,-37.2655 114.0169,-37.2655 130,-38 145.8215,-38.7271 163.4373,-40.3013 177.7225,-41.773"/>
<polygon fill="#000000" stroke="#000000" points="177.5969,-45.2795 187.9124,-42.8628 178.3413,-38.3191 177.5969,-45.2795"/>
<text text-anchor="middle" x="112" y="-41.8" font-family="Times,serif" font-size="14.00" fill="#000000">1/1.2</text>
</g>
<!-- 1&#45;&gt;2 -->
<g id="edge3" class="edge">
<title>1&#45;&gt;2</title>
<path fill="none" stroke="#000000" d="M129.241,-73.5805C143.2866,-68.3507 163.3555,-60.8783 179.4501,-54.8856"/>
<polygon fill="#000000" stroke="#000000" points="180.7181,-58.1483 188.8683,-51.3788 178.2755,-51.5883 180.7181,-58.1483"/>
<text text-anchor="middle" x="159" y="-70.8" font-family="Times,serif" font-size="14.00" fill="#000000">2/2.3</text>
</g>
<!-- 3 -->
<g id="node4" class="node">
<title>3</title>
<ellipse fill="none" stroke="#000000" stroke-width="2" cx="309" cy="-45" rx="18" ry="18"/>
<ellipse fill="none" stroke="#000000" stroke-width="2" cx="309" cy="-45" rx="22" ry="22"/>
<text text-anchor="middle" x="309" y="-41.3" font-family="Times,serif" font-size="14.00" fill="#000000">3</text>
</g>
<!-- 2&#45;&gt;3 -->
<g id="edge4" class="edge">
<title>2&#45;&gt;3</title>
<path fill="none" stroke="#000000" d="M224.4143,-45C238.8858,-45 259.4016,-45 276.604,-45"/>
<polygon fill="#000000" stroke="#000000" points="276.8031,-48.5001 286.8031,-45 276.803,-41.5001 276.8031,-48.5001"/>
<text text-anchor="middle" x="255.5" y="-48.8" font-family="Times,serif" font-size="14.00" fill="#000000">&#45;1/3.4</text>
</g>
</g>
</svg>
