<?xml version="1.0" encoding="UTF-8" standalone="no"?>
<!DOCTYPE svg PUBLIC "-//W3C//DTD SVG 1.1//EN"
 "http://www.w3.org/Graphics/SVG/1.1/DTD/svg11.dtd">
<!-- Generated by graphviz version 2.40.1 (20161225.0304)
 -->
<!-- Title: WFSA Pages: 1 -->
<svg width="353pt" height="109pt"
 viewBox="0.00 0.00 353.00 109.00" xmlns="http://www.w3.org/2000/svg" xmlns:xlink="http://www.w3.org/1999/xlink">
<g id="graph0" class="graph" transform="scale(1 1) rotate(0) translate(4 105)">
<title>WFSA</title>
<polygon fill="#ffffff" stroke="transparent" points="-4,4 -4,-105 349,-105 349,4 -4,4"/>
<text text-anchor="middle" x="172.5" y="-7.8" font-family="Times,serif" font-size="14.00" fill="#000000">My first FSA in k2</text>
<!-- 0 -->
<g id="node1" class="node">
<title>0</title>
<ellipse fill="none" stroke="#000000" stroke-width="2" cx="18" cy="-48" rx="18" ry="18"/>
<text text-anchor="middle" x="18" y="-44.3" font-family="Times,serif" font-size="14.00" fill="#000000">0</text>
</g>
<!-- 1 -->
<g id="node2" class="node">
<title>1</title>
<ellipse fill="none" stroke="#000000" stroke-width="2" cx="119" cy="-83" rx="18" ry="18"/>
<text text-anchor="middle" x="119" y="-79.3" font-family="Times,serif" font-size="14.00" fill="#000000">1</text>
</g>
<!-- 0&#45;&gt;1 -->
<g id="edge1" class="edge">
<title>0&#45;&gt;1</title>
<path fill="none" stroke="#000000" d="M35.1333,-53.9373C50.7314,-59.3426 74.0168,-67.4117 92.0966,-73.677"/>
<polygon fill="#000000" stroke="#000000" points="91.1879,-77.0663 101.7827,-77.0336 93.48,-70.4522 91.1879,-77.0663"/>
<text text-anchor="middle" x="68.5" y="-73.8" font-family="Times,serif" font-size="14.00" fill="#000000">10/0.1</text>
</g>
<!-- 2 -->
<g id="node3" class="node">
<title>2</title>
<ellipse fill="none" stroke="#000000" stroke-width="2" cx="220" cy="-41" rx="18" ry="18"/>
<text text-anchor="middle" x="220" y="-37.3" font-family="Times,serif" font-size="14.00" fill="#000000">2</text>
</g>
<!-- 0&#45;&gt;2 -->
<g id="edge2" class="edge">
<title>0&#45;&gt;2</title>
<path fill="none" stroke="#000000" d="M36.1064,-46.0312C52.9021,-44.31 78.6055,-41.9427 101,-41 131.967,-39.6965 167.5071,-39.9208 191.6253,-40.3298"/>
<polygon fill="#000000" stroke="#000000" points="191.7801,-43.8334 201.8454,-40.526 191.9145,-36.8346 191.7801,-43.8334"/>
<text text-anchor="middle" x="119" y="-44.8" font-family="Times,serif" font-size="14.00" fill="#000000">20/0.2</text>
</g>
<!-- 1&#45;&gt;2 -->
<g id="edge3" class="edge">
<title>1&#45;&gt;2</title>
<path fill="none" stroke="#000000" d="M134.9208,-74.2955C140.2791,-71.5017 146.3358,-68.4888 152,-66 165.3571,-60.1309 180.5702,-54.448 193.2152,-49.9874"/>
<polygon fill="#000000" stroke="#000000" points="194.4193,-53.2744 202.7212,-46.6919 192.1264,-46.6605 194.4193,-53.2744"/>
<text text-anchor="middle" x="169.5" y="-69.8" font-family="Times,serif" font-size="14.00" fill="#000000">30/0.3</text>
</g>
<!-- 3 -->
<g id="node4" class="node">
<title>3</title>
<ellipse fill="none" stroke="#000000" stroke-width="2" cx="323" cy="-68" rx="18" ry="18"/>
<ellipse fill="none" stroke="#000000" stroke-width="2" cx="323" cy="-68" rx="22" ry="22"/>
<text text-anchor="middle" x="323" y="-64.3" font-family="Times,serif" font-size="14.00" fill="#000000">3</text>
</g>
<!-- 1&#45;&gt;3 -->
<g id="edge4" class="edge">
<title>1&#45;&gt;3</title>
<path fill="none" stroke="#000000" d="M137.1322,-83.3016C167.8927,-83.5765 232.2053,-83.126 286,-76 287.7469,-75.7686 289.5337,-75.4979 291.3329,-75.1987"/>
<polygon fill="#000000" stroke="#000000" points="292.4127,-78.5561 301.582,-73.2482 291.104,-71.6795 292.4127,-78.5561"/>
<text text-anchor="middle" x="220" y="-85.8" font-family="Times,serif" font-size="14.00" fill="#000000">&#45;1/0.4</text>
</g>
<!-- 2&#45;&gt;3 -->
<g id="edge5" class="edge">
<title>2&#45;&gt;3</title>
<path fill="none" stroke="#000000" d="M237.4725,-45.5802C252.25,-49.4539 273.7932,-55.1011 291.5606,-59.7586"/>
<polygon fill="#000000" stroke="#000000" points="290.9451,-63.2154 301.5058,-62.3656 292.7201,-56.4442 290.9451,-63.2154"/>
<text text-anchor="middle" x="269.5" y="-60.8" font-family="Times,serif" font-size="14.00" fill="#000000">&#45;1/0.5</text>
</g>
</g>
</svg>
