<?xml version="1.0" encoding="UTF-8" standalone="no"?>
<!DOCTYPE svg PUBLIC "-//W3C//DTD SVG 1.1//EN"
 "http://www.w3.org/Graphics/SVG/1.1/DTD/svg11.dtd">
<!-- Generated by graphviz version 2.40.1 (20161225.0304)
 -->
<!-- Title: WFST Pages: 1 -->
<svg width="393pt" height="109pt"
 viewBox="0.00 0.00 393.00 109.00" xmlns="http://www.w3.org/2000/svg" xmlns:xlink="http://www.w3.org/1999/xlink">
<g id="graph0" class="graph" transform="scale(1 1) rotate(0) translate(4 105)">
<title>WFST</title>
<polygon fill="#ffffff" stroke="transparent" points="-4,4 -4,-105 389,-105 389,4 -4,4"/>
<text text-anchor="middle" x="192.5" y="-7.8" font-family="Times,serif" font-size="14.00" fill="#000000">An FSA with aux_symbols</text>
<!-- 0 -->
<g id="node1" class="node">
<title>0</title>
<ellipse fill="none" stroke="#000000" stroke-width="2" cx="18" cy="-48" rx="18" ry="18"/>
<text text-anchor="middle" x="18" y="-44.3" font-family="Times,serif" font-size="14.00" fill="#000000">0</text>
</g>
<!-- 1 -->
<g id="node2" class="node">
<title>1</title>
<ellipse fill="none" stroke="#000000" stroke-width="2" cx="126" cy="-83" rx="18" ry="18"/>
<text text-anchor="middle" x="126" y="-79.3" font-family="Times,serif" font-size="14.00" fill="#000000">1</text>
</g>
<!-- 0&#45;&gt;1 -->
<g id="edge1" class="edge">
<title>0&#45;&gt;1</title>
<path fill="none" stroke="#000000" d="M35.3521,-53.6234C52.5144,-59.1852 79.028,-67.7776 98.9552,-74.2355"/>
<polygon fill="#000000" stroke="#000000" points="98.099,-77.6372 108.691,-77.3906 100.2571,-70.9781 98.099,-77.6372"/>
<text text-anchor="middle" x="71.5" y="-74.8" font-family="Times,serif" font-size="14.00" fill="#000000">a:A/0.1</text>
</g>
<!-- 2 -->
<g id="node3" class="node">
<title>2</title>
<ellipse fill="none" stroke="#000000" stroke-width="2" cx="239" cy="-41" rx="18" ry="18"/>
<text text-anchor="middle" x="239" y="-37.3" font-family="Times,serif" font-size="14.00" fill="#000000">2</text>
</g>
<!-- 0&#45;&gt;2 -->
<g id="edge2" class="edge">
<title>0&#45;&gt;2</title>
<path fill="none" stroke="#000000" d="M36.044,-46.1631C54.0068,-44.433 82.3754,-41.9669 107,-41 142.6232,-39.6012 183.6958,-39.9025 210.44,-40.3541"/>
<polygon fill="#000000" stroke="#000000" points="210.5626,-43.857 220.6265,-40.5453 210.694,-36.8582 210.5626,-43.857"/>
<text text-anchor="middle" x="126" y="-44.8" font-family="Times,serif" font-size="14.00" fill="#000000">b:ε/0.2</text>
</g>
<!-- 1&#45;&gt;2 -->
<g id="edge3" class="edge">
<title>1&#45;&gt;2</title>
<path fill="none" stroke="#000000" d="M142.0175,-74.3426C147.6187,-71.49 154.0061,-68.4293 160,-66 176.7903,-59.1949 196.1795,-53.0351 211.5472,-48.5325"/>
<polygon fill="#000000" stroke="#000000" points="212.8128,-51.8108 221.4625,-45.6925 210.8853,-45.0814 212.8128,-51.8108"/>
<text text-anchor="middle" x="180" y="-69.8" font-family="Times,serif" font-size="14.00" fill="#000000">c:B/0.3</text>
</g>
<!-- 3 -->
<g id="node4" class="node">
<title>3</title>
<ellipse fill="none" stroke="#000000" stroke-width="2" cx="363" cy="-68" rx="18" ry="18"/>
<ellipse fill="none" stroke="#000000" stroke-width="2" cx="363" cy="-68" rx="22" ry="22"/>
<text text-anchor="middle" x="363" y="-64.3" font-family="Times,serif" font-size="14.00" fill="#000000">3</text>
</g>
<!-- 1&#45;&gt;3 -->
<g id="edge4" class="edge">
<title>1&#45;&gt;3</title>
<path fill="none" stroke="#000000" d="M144.0494,-83.9817C179.2606,-85.5815 259.4918,-87.6765 326,-78 327.926,-77.7198 329.895,-77.373 331.8719,-76.9786"/>
<polygon fill="#000000" stroke="#000000" points="332.7165,-80.3757 341.6608,-74.6969 331.1273,-73.5584 332.7165,-80.3757"/>
<text text-anchor="middle" x="239" y="-88.8" font-family="Times,serif" font-size="14.00" fill="#000000">&#45;1:&#45;1/0.4</text>
</g>
<!-- 2&#45;&gt;3 -->
<g id="edge5" class="edge">
<title>2&#45;&gt;3</title>
<path fill="none" stroke="#000000" d="M256.7662,-44.8684C276.1332,-49.0855 307.5158,-55.9188 331.1608,-61.0673"/>
<polygon fill="#000000" stroke="#000000" points="330.5698,-64.5205 341.0856,-63.2283 332.0592,-57.6808 330.5698,-64.5205"/>
<text text-anchor="middle" x="302" y="-62.8" font-family="Times,serif" font-size="14.00" fill="#000000">&#45;1:&#45;1/0.5</text>
</g>
</g>
</svg>
