<?xml version="1.0" encoding="UTF-8" standalone="no"?>
<!DOCTYPE svg PUBLIC "-//W3C//DTD SVG 1.1//EN"
 "http://www.w3.org/Graphics/SVG/1.1/DTD/svg11.dtd">
<!-- Generated by graphviz version 2.40.1 (20161225.0304)
 -->
<!-- Title: WFST Pages: 1 -->
<svg width="403pt" height="109pt"
 viewBox="0.00 0.00 403.00 109.00" xmlns="http://www.w3.org/2000/svg" xmlns:xlink="http://www.w3.org/1999/xlink">
<g id="graph0" class="graph" transform="scale(1 1) rotate(0) translate(4 105)">
<title>WFST</title>
<polygon fill="#ffffff" stroke="transparent" points="-4,4 -4,-105 399,-105 399,4 -4,4"/>
<text text-anchor="middle" x="197.5" y="-7.8" font-family="Times,serif" font-size="14.00" fill="#000000">An FSA with aux_labels</text>
<!-- 0 -->
<g id="node1" class="node">
<title>0</title>
<ellipse fill="none" stroke="#000000" stroke-width="2" cx="18" cy="-48" rx="18" ry="18"/>
<text text-anchor="middle" x="18" y="-44.3" font-family="Times,serif" font-size="14.00" fill="#000000">0</text>
</g>
<!-- 1 -->
<g id="node2" class="node">
<title>1</title>
<ellipse fill="none" stroke="#000000" stroke-width="2" cx="130.5" cy="-83" rx="18" ry="18"/>
<text text-anchor="middle" x="130.5" y="-79.3" font-family="Times,serif" font-size="14.00" fill="#000000">1</text>
</g>
<!-- 0&#45;&gt;1 -->
<g id="edge1" class="edge">
<title>0&#45;&gt;1</title>
<path fill="none" stroke="#000000" d="M35.5781,-53.4688C53.741,-59.1194 82.3299,-68.0138 103.3901,-74.5658"/>
<polygon fill="#000000" stroke="#000000" points="102.457,-77.9409 113.0453,-77.5697 104.5365,-71.2569 102.457,-77.9409"/>
<text text-anchor="middle" x="73.5" y="-74.8" font-family="Times,serif" font-size="14.00" fill="#000000">a:10/0.1</text>
</g>
<!-- 2 -->
<g id="node3" class="node">
<title>2</title>
<ellipse fill="none" stroke="#000000" stroke-width="2" cx="249" cy="-41" rx="18" ry="18"/>
<text text-anchor="middle" x="249" y="-37.3" font-family="Times,serif" font-size="14.00" fill="#000000">2</text>
</g>
<!-- 0&#45;&gt;2 -->
<g id="edge2" class="edge">
<title>0&#45;&gt;2</title>
<path fill="none" stroke="#000000" d="M36.1539,-46.228C54.8824,-44.4953 84.9501,-41.979 111,-41 148.8331,-39.5782 192.5416,-39.9117 220.4564,-40.3752"/>
<polygon fill="#000000" stroke="#000000" points="220.6248,-43.8788 230.6873,-40.5629 220.7532,-36.88 220.6248,-43.8788"/>
<text text-anchor="middle" x="130.5" y="-44.8" font-family="Times,serif" font-size="14.00" fill="#000000">b:0/0.2</text>
</g>
<!-- 1&#45;&gt;2 -->
<g id="edge3" class="edge">
<title>1&#45;&gt;2</title>
<path fill="none" stroke="#000000" d="M146.3943,-74.4699C152.159,-71.5637 158.7832,-68.4367 165,-66 183.3607,-58.8034 204.6613,-52.4857 221.2185,-48.0017"/>
<polygon fill="#000000" stroke="#000000" points="222.5611,-51.2672 231.3355,-45.329 220.7732,-44.4993 222.5611,-51.2672"/>
<text text-anchor="middle" x="187.5" y="-69.8" font-family="Times,serif" font-size="14.00" fill="#000000">c:30/0.3</text>
</g>
<!-- 3 -->
<g id="node4" class="node">
<title>3</title>
<ellipse fill="none" stroke="#000000" stroke-width="2" cx="373" cy="-68" rx="18" ry="18"/>
<ellipse fill="none" stroke="#000000" stroke-width="2" cx="373" cy="-68" rx="22" ry="22"/>
<text text-anchor="middle" x="373" y="-64.3" font-family="Times,serif" font-size="14.00" fill="#000000">3</text>
</g>
<!-- 1&#45;&gt;3 -->
<g id="edge4" class="edge">
<title>1&#45;&gt;3</title>
<path fill="none" stroke="#000000" d="M148.4882,-83.9993C184.3718,-85.6769 267.3074,-87.9708 336,-78 337.9261,-77.7204 339.8951,-77.3742 341.8721,-76.9802"/>
<polygon fill="#000000" stroke="#000000" points="342.7163,-80.3773 351.6612,-74.6993 341.1278,-73.5599 342.7163,-80.3773"/>
<text text-anchor="middle" x="249" y="-88.8" font-family="Times,serif" font-size="14.00" fill="#000000">&#45;1:&#45;1/0.4</text>
</g>
<!-- 2&#45;&gt;3 -->
<g id="edge5" class="edge">
<title>2&#45;&gt;3</title>
<path fill="none" stroke="#000000" d="M266.7662,-44.8684C286.1332,-49.0855 317.5158,-55.9188 341.1608,-61.0673"/>
<polygon fill="#000000" stroke="#000000" points="340.5698,-64.5205 351.0856,-63.2283 342.0592,-57.6808 340.5698,-64.5205"/>
<text text-anchor="middle" x="312" y="-62.8" font-family="Times,serif" font-size="14.00" fill="#000000">&#45;1:&#45;1/0.5</text>
</g>
</g>
</svg>
