<?xml version="1.0" encoding="UTF-8" standalone="no"?>
<!DOCTYPE svg PUBLIC "-//W3C//DTD SVG 1.1//EN"
 "http://www.w3.org/Graphics/SVG/1.1/DTD/svg11.dtd">
<!-- Generated by graphviz version 2.40.1 (20161225.0304)
 -->
<!-- Title: WFST Pages: 1 -->
<svg width="393pt" height="86pt"
 viewBox="0.00 0.00 393.00 86.00" xmlns="http://www.w3.org/2000/svg" xmlns:xlink="http://www.w3.org/1999/xlink">
<g id="graph0" class="graph" transform="scale(1 1) rotate(0) translate(4 82)">
<title>WFST</title>
<polygon fill="#ffffff" stroke="transparent" points="-4,4 -4,-82 389,-82 389,4 -4,4"/>
<!-- 0 -->
<g id="node1" class="node">
<title>0</title>
<ellipse fill="none" stroke="#000000" stroke-width="2" cx="18" cy="-25" rx="18" ry="18"/>
<text text-anchor="middle" x="18" y="-21.3" font-family="Times,serif" font-size="14.00" fill="#000000">0</text>
</g>
<!-- 1 -->
<g id="node2" class="node">
<title>1</title>
<ellipse fill="none" stroke="#000000" stroke-width="2" cx="126" cy="-60" rx="18" ry="18"/>
<text text-anchor="middle" x="126" y="-56.3" font-family="Times,serif" font-size="14.00" fill="#000000">1</text>
</g>
<!-- 0&#45;&gt;1 -->
<g id="edge1" class="edge">
<title>0&#45;&gt;1</title>
<path fill="none" stroke="#000000" d="M35.3521,-30.6234C52.5144,-36.1852 79.028,-44.7776 98.9552,-51.2355"/>
<polygon fill="#000000" stroke="#000000" points="98.099,-54.6372 108.691,-54.3906 100.2571,-47.9781 98.099,-54.6372"/>
<text text-anchor="middle" x="71.5" y="-51.8" font-family="Times,serif" font-size="14.00" fill="#000000">A:a/0.1</text>
</g>
<!-- 2 -->
<g id="node3" class="node">
<title>2</title>
<ellipse fill="none" stroke="#000000" stroke-width="2" cx="239" cy="-18" rx="18" ry="18"/>
<text text-anchor="middle" x="239" y="-14.3" font-family="Times,serif" font-size="14.00" fill="#000000">2</text>
</g>
<!-- 0&#45;&gt;2 -->
<g id="edge2" class="edge">
<title>0&#45;&gt;2</title>
<path fill="none" stroke="#000000" d="M36.044,-23.1631C54.0068,-21.433 82.3754,-18.9669 107,-18 142.6232,-16.6012 183.6958,-16.9025 210.44,-17.3541"/>
<polygon fill="#000000" stroke="#000000" points="210.5626,-20.857 220.6265,-17.5453 210.694,-13.8582 210.5626,-20.857"/>
<text text-anchor="middle" x="126" y="-21.8" font-family="Times,serif" font-size="14.00" fill="#000000">ε:b/0.2</text>
</g>
<!-- 1&#45;&gt;2 -->
<g id="edge3" class="edge">
<title>1&#45;&gt;2</title>
<path fill="none" stroke="#000000" d="M142.0175,-51.3426C147.6187,-48.49 154.0061,-45.4293 160,-43 176.7903,-36.1949 196.1795,-30.0351 211.5472,-25.5325"/>
<polygon fill="#000000" stroke="#000000" points="212.8128,-28.8108 221.4625,-22.6925 210.8853,-22.0814 212.8128,-28.8108"/>
<text text-anchor="middle" x="180" y="-46.8" font-family="Times,serif" font-size="14.00" fill="#000000">B:c/0.3</text>
</g>
<!-- 3 -->
<g id="node4" class="node">
<title>3</title>
<ellipse fill="none" stroke="#000000" stroke-width="2" cx="363" cy="-45" rx="18" ry="18"/>
<ellipse fill="none" stroke="#000000" stroke-width="2" cx="363" cy="-45" rx="22" ry="22"/>
<text text-anchor="middle" x="363" y="-41.3" font-family="Times,serif" font-size="14.00" fill="#000000">3</text>
</g>
<!-- 1&#45;&gt;3 -->
<g id="edge4" class="edge">
<title>1&#45;&gt;3</title>
<path fill="none" stroke="#000000" d="M144.0494,-60.9817C179.2606,-62.5815 259.4918,-64.6765 326,-55 327.926,-54.7198 329.895,-54.373 331.8719,-53.9786"/>
<polygon fill="#000000" stroke="#000000" points="332.7165,-57.3757 341.6608,-51.6969 331.1273,-50.5584 332.7165,-57.3757"/>
<text text-anchor="middle" x="239" y="-65.8" font-family="Times,serif" font-size="14.00" fill="#000000">&#45;1:&#45;1/0.4</text>
</g>
<!-- 2&#45;&gt;3 -->
<g id="edge5" class="edge">
<title>2&#45;&gt;3</title>
<path fill="none" stroke="#000000" d="M256.7662,-21.8684C276.1332,-26.0855 307.5158,-32.9188 331.1608,-38.0673"/>
<polygon fill="#000000" stroke="#000000" points="330.5698,-41.5205 341.0856,-40.2283 332.0592,-34.6808 330.5698,-41.5205"/>
<text text-anchor="middle" x="302" y="-39.8" font-family="Times,serif" font-size="14.00" fill="#000000">&#45;1:&#45;1/0.5</text>
</g>
</g>
</svg>
