<?xml version="1.0" encoding="UTF-8" standalone="no"?>
<!DOCTYPE svg PUBLIC "-//W3C//DTD SVG 1.1//EN"
 "http://www.w3.org/Graphics/SVG/1.1/DTD/svg11.dtd">
<!-- Generated by graphviz version 2.40.1 (20161225.0304)
 -->
<!-- Title: WFSA Pages: 1 -->
<svg width="339pt" height="109pt"
 viewBox="0.00 0.00 339.00 109.00" xmlns="http://www.w3.org/2000/svg" xmlns:xlink="http://www.w3.org/1999/xlink">
<g id="graph0" class="graph" transform="scale(1 1) rotate(0) translate(4 105)">
<title>WFSA</title>
<polygon fill="#ffffff" stroke="transparent" points="-4,4 -4,-105 335,-105 335,4 -4,4"/>
<text text-anchor="middle" x="165.5" y="-7.8" font-family="Times,serif" font-size="14.00" fill="#000000">An FSA with symbol table</text>
<!-- 0 -->
<g id="node1" class="node">
<title>0</title>
<ellipse fill="none" stroke="#000000" stroke-width="2" cx="18" cy="-48" rx="18" ry="18"/>
<text text-anchor="middle" x="18" y="-44.3" font-family="Times,serif" font-size="14.00" fill="#000000">0</text>
</g>
<!-- 1 -->
<g id="node2" class="node">
<title>1</title>
<ellipse fill="none" stroke="#000000" stroke-width="2" cx="112" cy="-83" rx="18" ry="18"/>
<text text-anchor="middle" x="112" y="-79.3" font-family="Times,serif" font-size="14.00" fill="#000000">1</text>
</g>
<!-- 0&#45;&gt;1 -->
<g id="edge1" class="edge">
<title>0&#45;&gt;1</title>
<path fill="none" stroke="#000000" d="M35.241,-54.4195C49.2866,-59.6493 69.3555,-67.1217 85.4501,-73.1144"/>
<polygon fill="#000000" stroke="#000000" points="84.2755,-76.4117 94.8683,-76.6212 86.7181,-69.8517 84.2755,-76.4117"/>
<text text-anchor="middle" x="65" y="-73.8" font-family="Times,serif" font-size="14.00" fill="#000000">a/0.1</text>
</g>
<!-- 2 -->
<g id="node3" class="node">
<title>2</title>
<ellipse fill="none" stroke="#000000" stroke-width="2" cx="206" cy="-41" rx="18" ry="18"/>
<text text-anchor="middle" x="206" y="-37.3" font-family="Times,serif" font-size="14.00" fill="#000000">2</text>
</g>
<!-- 0&#45;&gt;2 -->
<g id="edge2" class="edge">
<title>0&#45;&gt;2</title>
<path fill="none" stroke="#000000" d="M36.0876,-45.8628C51.4655,-44.1589 74.1455,-41.9124 94,-41 122.3772,-39.6959 154.8414,-39.8803 177.4861,-40.2789"/>
<polygon fill="#000000" stroke="#000000" points="177.6842,-43.7835 187.7529,-40.4862 177.8256,-36.785 177.6842,-43.7835"/>
<text text-anchor="middle" x="112" y="-44.8" font-family="Times,serif" font-size="14.00" fill="#000000">b/0.2</text>
</g>
<!-- 1&#45;&gt;2 -->
<g id="edge3" class="edge">
<title>1&#45;&gt;2</title>
<path fill="none" stroke="#000000" d="M127.9754,-74.4167C133.3373,-71.6309 139.3823,-68.5922 145,-66 156.2186,-60.8233 168.8229,-55.5669 179.6493,-51.2186"/>
<polygon fill="#000000" stroke="#000000" points="180.9964,-54.4496 189.0013,-47.5089 178.4153,-47.9429 180.9964,-54.4496"/>
<text text-anchor="middle" x="159" y="-69.8" font-family="Times,serif" font-size="14.00" fill="#000000">c/0.3</text>
</g>
<!-- 3 -->
<g id="node4" class="node">
<title>3</title>
<ellipse fill="none" stroke="#000000" stroke-width="2" cx="309" cy="-68" rx="18" ry="18"/>
<ellipse fill="none" stroke="#000000" stroke-width="2" cx="309" cy="-68" rx="22" ry="22"/>
<text text-anchor="middle" x="309" y="-64.3" font-family="Times,serif" font-size="14.00" fill="#000000">3</text>
</g>
<!-- 1&#45;&gt;3 -->
<g id="edge4" class="edge">
<title>1&#45;&gt;3</title>
<path fill="none" stroke="#000000" d="M130.3278,-83.2421C160.1579,-83.4024 221.0074,-82.7548 272,-76 273.7469,-75.7686 275.5337,-75.4979 277.3329,-75.1987"/>
<polygon fill="#000000" stroke="#000000" points="278.4127,-78.5561 287.582,-73.2482 277.104,-71.6795 278.4127,-78.5561"/>
<text text-anchor="middle" x="206" y="-85.8" font-family="Times,serif" font-size="14.00" fill="#000000">&#45;1/0.4</text>
</g>
<!-- 2&#45;&gt;3 -->
<g id="edge5" class="edge">
<title>2&#45;&gt;3</title>
<path fill="none" stroke="#000000" d="M223.4725,-45.5802C238.25,-49.4539 259.7932,-55.1011 277.5606,-59.7586"/>
<polygon fill="#000000" stroke="#000000" points="276.9451,-63.2154 287.5058,-62.3656 278.7201,-56.4442 276.9451,-63.2154"/>
<text text-anchor="middle" x="255.5" y="-60.8" font-family="Times,serif" font-size="14.00" fill="#000000">&#45;1/0.5</text>
</g>
</g>
</svg>
