<?xml version="1.0" encoding="UTF-8" standalone="no"?>
<!DOCTYPE svg PUBLIC "-//W3C//DTD SVG 1.1//EN"
 "http://www.w3.org/Graphics/SVG/1.1/DTD/svg11.dtd">
<!-- Generated by graphviz version 2.40.1 (20161225.0304)
 -->
<!-- Title: WFSA Pages: 1 -->
<svg width="245pt" height="52pt"
 viewBox="0.00 0.00 245.00 52.00" xmlns="http://www.w3.org/2000/svg" xmlns:xlink="http://www.w3.org/1999/xlink">
<g id="graph0" class="graph" transform="scale(1 1) rotate(0) translate(4 48)">
<title>WFSA</title>
<polygon fill="#ffffff" stroke="transparent" points="-4,4 -4,-48 241,-48 241,4 -4,4"/>
<!-- 0 -->
<g id="node1" class="node">
<title>0</title>
<ellipse fill="none" stroke="#000000" stroke-width="2" cx="18" cy="-22" rx="18" ry="18"/>
<text text-anchor="middle" x="18" y="-18.3" font-family="Times,serif" font-size="14.00" fill="#000000">0</text>
</g>
<!-- 1 -->
<g id="node2" class="node">
<title>1</title>
<ellipse fill="none" stroke="#000000" stroke-width="2" cx="112" cy="-22" rx="18" ry="18"/>
<text text-anchor="middle" x="112" y="-18.3" font-family="Times,serif" font-size="14.00" fill="#000000">1</text>
</g>
<!-- 0&#45;&gt;1 -->
<g id="edge1" class="edge">
<title>0&#45;&gt;1</title>
<path fill="none" stroke="#000000" d="M36.1241,-22C49.6484,-22 68.3808,-22 83.8486,-22"/>
<polygon fill="#000000" stroke="#000000" points="83.9315,-25.5001 93.9315,-22 83.9315,-18.5001 83.9315,-25.5001"/>
<text text-anchor="middle" x="65" y="-25.8" font-family="Times,serif" font-size="14.00" fill="#000000">1/0.1</text>
</g>
<!-- 0&#45;&gt;1 -->
<g id="edge2" class="edge">
<title>0&#45;&gt;1</title>
<path fill="none" stroke="#000000" d="M32.7129,-11.3344C38.1808,-7.9798 44.6133,-4.7072 51,-3 63.0223,.2137 66.9777,.2137 79,-3 82.1933,-3.8536 85.3981,-5.0986 88.4881,-6.5494"/>
<polygon fill="#000000" stroke="#000000" points="86.83,-9.6318 97.2871,-11.3344 90.1742,-3.4822 86.83,-9.6318"/>
<text text-anchor="middle" x="65" y="-6.8" font-family="Times,serif" font-size="14.00" fill="#000000">2/0.2</text>
</g>
<!-- 2 -->
<g id="node3" class="node">
<title>2</title>
<ellipse fill="none" stroke="#000000" stroke-width="2" cx="215" cy="-22" rx="18" ry="18"/>
<ellipse fill="none" stroke="#000000" stroke-width="2" cx="215" cy="-22" rx="22" ry="22"/>
<text text-anchor="middle" x="215" y="-18.3" font-family="Times,serif" font-size="14.00" fill="#000000">2</text>
</g>
<!-- 1&#45;&gt;2 -->
<g id="edge3" class="edge">
<title>1&#45;&gt;2</title>
<path fill="none" stroke="#000000" d="M130.4143,-22C144.8858,-22 165.4016,-22 182.604,-22"/>
<polygon fill="#000000" stroke="#000000" points="182.8031,-25.5001 192.8031,-22 182.803,-18.5001 182.8031,-25.5001"/>
<text text-anchor="middle" x="161.5" y="-25.8" font-family="Times,serif" font-size="14.00" fill="#000000">&#45;1/0.3</text>
</g>
</g>
</svg>
