<?xml version="1.0" encoding="UTF-8" standalone="no"?>
<!DOCTYPE svg PUBLIC "-//W3C//DTD SVG 1.1//EN"
 "http://www.w3.org/Graphics/SVG/1.1/DTD/svg11.dtd">
<!-- Generated by graphviz version 2.40.1 (20161225.0304)
 -->
<!-- Title: WFSA Pages: 1 -->
<svg width="245pt" height="104pt"
 viewBox="0.00 0.00 245.00 104.00" xmlns="http://www.w3.org/2000/svg" xmlns:xlink="http://www.w3.org/1999/xlink">
<g id="graph0" class="graph" transform="scale(1 1) rotate(0) translate(4 100)">
<title>WFSA</title>
<polygon fill="#ffffff" stroke="transparent" points="-4,4 -4,-100 241,-100 241,4 -4,4"/>
<text text-anchor="middle" x="118.5" y="-7.8" font-family="Times,serif" font-size="14.00" fill="#000000">a_fsa</text>
<!-- 0 -->
<g id="node1" class="node">
<title>0</title>
<ellipse fill="none" stroke="#000000" stroke-width="2" cx="18" cy="-45" rx="18" ry="18"/>
<text text-anchor="middle" x="18" y="-41.3" font-family="Times,serif" font-size="14.00" fill="#000000">0</text>
</g>
<!-- 0&#45;&gt;0 -->
<g id="edge1" class="edge">
<title>0&#45;&gt;0</title>
<path fill="none" stroke="#000000" d="M9.9836,-61.2903C8.0505,-71.3892 10.7227,-81 18,-81 22.662,-81 25.4341,-77.0557 26.3162,-71.5656"/>
<polygon fill="#000000" stroke="#000000" points="29.8067,-71.1839 26.0164,-61.2903 22.8097,-71.3881 29.8067,-71.1839"/>
<text text-anchor="middle" x="18" y="-84.8" font-family="Times,serif" font-size="14.00" fill="#000000">1/0.1</text>
</g>
<!-- 1 -->
<g id="node2" class="node">
<title>1</title>
<ellipse fill="none" stroke="#000000" stroke-width="2" cx="112" cy="-45" rx="18" ry="18"/>
<text text-anchor="middle" x="112" y="-41.3" font-family="Times,serif" font-size="14.00" fill="#000000">1</text>
</g>
<!-- 0&#45;&gt;1 -->
<g id="edge2" class="edge">
<title>0&#45;&gt;1</title>
<path fill="none" stroke="#000000" d="M36.1241,-45C49.6484,-45 68.3808,-45 83.8486,-45"/>
<polygon fill="#000000" stroke="#000000" points="83.9315,-48.5001 93.9315,-45 83.9315,-41.5001 83.9315,-48.5001"/>
<text text-anchor="middle" x="65" y="-48.8" font-family="Times,serif" font-size="14.00" fill="#000000">2/0.2</text>
</g>
<!-- 2 -->
<g id="node3" class="node">
<title>2</title>
<ellipse fill="none" stroke="#000000" stroke-width="2" cx="215" cy="-45" rx="18" ry="18"/>
<ellipse fill="none" stroke="#000000" stroke-width="2" cx="215" cy="-45" rx="22" ry="22"/>
<text text-anchor="middle" x="215" y="-41.3" font-family="Times,serif" font-size="14.00" fill="#000000">2</text>
</g>
<!-- 1&#45;&gt;2 -->
<g id="edge3" class="edge">
<title>1&#45;&gt;2</title>
<path fill="none" stroke="#000000" d="M130.4143,-45C144.8858,-45 165.4016,-45 182.604,-45"/>
<polygon fill="#000000" stroke="#000000" points="182.8031,-48.5001 192.8031,-45 182.803,-41.5001 182.8031,-48.5001"/>
<text text-anchor="middle" x="161.5" y="-48.8" font-family="Times,serif" font-size="14.00" fill="#000000">&#45;1/0.3</text>
</g>
</g>
</svg>
