<?xml version="1.0" encoding="UTF-8" standalone="no"?>
<!DOCTYPE svg PUBLIC "-//W3C//DTD SVG 1.1//EN"
 "http://www.w3.org/Graphics/SVG/1.1/DTD/svg11.dtd">
<!-- Generated by graphviz version 2.43.0 (0)
 -->
<!-- Title: WFST Pages: 1 -->
<svg width="423pt" height="154pt"
 viewBox="0.00 0.00 423.00 153.95" xmlns="http://www.w3.org/2000/svg" xmlns:xlink="http://www.w3.org/1999/xlink">
<g id="graph0" class="graph" transform="scale(1 1) rotate(0) translate(4 149.95)">
<title>WFST</title>
<polygon fill="white" stroke="transparent" points="-4,4 -4,-149.95 419,-149.95 419,4 -4,4"/>
<text text-anchor="middle" x="207.5" y="-7.8" font-family="Times,serif" font-size="14.00">Before k2.arc_sort</text>
<!-- 0 -->
<g id="node1" class="node">
<title>0</title>
<ellipse fill="none" stroke="black" stroke-width="2" cx="18" cy="-70.95" rx="18" ry="18"/>
<text text-anchor="middle" x="18" y="-67.25" font-family="Times,serif" font-size="14.00">0</text>
</g>
<!-- 1 -->
<g id="node2" class="node">
<title>1</title>
<ellipse fill="none" stroke="black" stroke-width="2" cx="141" cy="-108.95" rx="18" ry="18"/>
<text text-anchor="middle" x="141" y="-105.25" font-family="Times,serif" font-size="14.00">1</text>
</g>
<!-- 0&#45;&gt;1 -->
<g id="edge1" class="edge">
<title>0&#45;&gt;1</title>
<path fill="none" stroke="black" d="M23.99,-87.93C28.71,-100.62 37.18,-117.08 51,-124.95 70.77,-136.22 96.69,-129.6 115.45,-121.73"/>
<polygon fill="black" stroke="black" points="117.15,-124.8 124.79,-117.47 114.24,-118.44 117.15,-124.8"/>
<text text-anchor="middle" x="76" y="-134.75" font-family="Times,serif" font-size="14.00">1:4/0.1</text>
</g>
<!-- 0&#45;&gt;1 -->
<g id="edge2" class="edge">
<title>0&#45;&gt;1</title>
<path fill="none" stroke="black" d="M33.99,-79.31C39.26,-82.01 45.29,-84.85 51,-86.95 71.26,-94.42 95.03,-100.15 112.91,-103.89"/>
<polygon fill="black" stroke="black" points="112.44,-107.36 122.94,-105.9 113.82,-100.5 112.44,-107.36"/>
<text text-anchor="middle" x="76" y="-103.75" font-family="Times,serif" font-size="14.00">3:5/0.2</text>
</g>
<!-- 0&#45;&gt;1 -->
<g id="edge3" class="edge">
<title>0&#45;&gt;1</title>
<path fill="none" stroke="black" d="M35.47,-66.36C52.59,-62.47 79.79,-58.86 101,-67.95 109.83,-71.74 117.6,-78.61 123.83,-85.66"/>
<polygon fill="black" stroke="black" points="121.42,-88.25 130.42,-93.84 126.88,-83.86 121.42,-88.25"/>
<text text-anchor="middle" x="76" y="-71.75" font-family="Times,serif" font-size="14.00">2:3/0.3</text>
</g>
<!-- 2 -->
<g id="node3" class="node">
<title>2</title>
<ellipse fill="none" stroke="black" stroke-width="2" cx="264" cy="-70.95" rx="18" ry="18"/>
<text text-anchor="middle" x="264" y="-67.25" font-family="Times,serif" font-size="14.00">2</text>
</g>
<!-- 0&#45;&gt;2 -->
<g id="edge4" class="edge">
<title>0&#45;&gt;2</title>
<path fill="none" stroke="black" d="M34.58,-63.22C39.68,-61.07 45.47,-59.03 51,-57.95 129.52,-42.61 152.48,-42.61 231,-57.95 233.25,-58.39 235.54,-58.99 237.8,-59.69"/>
<polygon fill="black" stroke="black" points="236.83,-63.06 247.42,-63.22 239.24,-56.49 236.83,-63.06"/>
<text text-anchor="middle" x="141" y="-50.75" font-family="Times,serif" font-size="14.00">5:2/0.4</text>
</g>
<!-- 0&#45;&gt;2 -->
<g id="edge5" class="edge">
<title>0&#45;&gt;2</title>
<path fill="none" stroke="black" d="M31.52,-58.75C37.11,-53.87 44,-48.56 51,-44.95 77.64,-31.21 86.3,-30.99 116,-26.95 167.26,-19.99 185.02,-21.24 231,-44.95 234.94,-46.98 238.84,-49.55 242.49,-52.28"/>
<polygon fill="black" stroke="black" points="240.5,-55.17 250.48,-58.75 244.91,-49.73 240.5,-55.17"/>
<text text-anchor="middle" x="141" y="-30.75" font-family="Times,serif" font-size="14.00">4:1/0.5</text>
</g>
<!-- 1&#45;&gt;2 -->
<g id="edge6" class="edge">
<title>1&#45;&gt;2</title>
<path fill="none" stroke="black" d="M157.21,-117.47C175.8,-126.64 207.68,-138.24 231,-124.95 241.58,-118.92 249.03,-107.86 254.05,-97.32"/>
<polygon fill="black" stroke="black" points="257.35,-98.51 258.01,-87.93 250.9,-95.79 257.35,-98.51"/>
<text text-anchor="middle" x="206" y="-134.75" font-family="Times,serif" font-size="14.00">2:3/0.6</text>
</g>
<!-- 1&#45;&gt;2 -->
<g id="edge7" class="edge">
<title>1&#45;&gt;2</title>
<path fill="none" stroke="black" d="M159.06,-105.9C177.23,-102.39 206.66,-95.92 231,-86.95 233.59,-86 236.24,-84.9 238.86,-83.72"/>
<polygon fill="black" stroke="black" points="240.52,-86.81 248.01,-79.31 237.48,-80.5 240.52,-86.81"/>
<text text-anchor="middle" x="206" y="-103.75" font-family="Times,serif" font-size="14.00">3:1/0.7</text>
</g>
<!-- 1&#45;&gt;2 -->
<g id="edge8" class="edge">
<title>1&#45;&gt;2</title>
<path fill="none" stroke="black" d="M151.58,-93.84C158.48,-84.46 168.72,-73.22 181,-67.95 198.4,-60.49 219.83,-61.58 236.42,-64.36"/>
<polygon fill="black" stroke="black" points="236.04,-67.86 246.53,-66.36 237.4,-60.99 236.04,-67.86"/>
<text text-anchor="middle" x="206" y="-71.75" font-family="Times,serif" font-size="14.00">1:2/0.8</text>
</g>
<!-- 3 -->
<g id="node4" class="node">
<title>3</title>
<ellipse fill="none" stroke="black" stroke-width="2" cx="393" cy="-70.95" rx="18" ry="18"/>
<ellipse fill="none" stroke="black" stroke-width="2" cx="393" cy="-70.95" rx="22" ry="22"/>
<text text-anchor="middle" x="393" y="-67.25" font-family="Times,serif" font-size="14.00">3</text>
</g>
<!-- 2&#45;&gt;3 -->
<g id="edge9" class="edge">
<title>2&#45;&gt;3</title>
<path fill="none" stroke="black" d="M282.13,-70.95C302.27,-70.95 336.1,-70.95 360.91,-70.95"/>
<polygon fill="black" stroke="black" points="360.93,-74.45 370.93,-70.95 360.93,-67.45 360.93,-74.45"/>
<text text-anchor="middle" x="326.5" y="-74.75" font-family="Times,serif" font-size="14.00">&#45;1:&#45;1/0.9</text>
</g>
</g>
</svg>
