<?xml version="1.0" encoding="UTF-8" standalone="no"?>
<!DOCTYPE svg PUBLIC "-//W3C//DTD SVG 1.1//EN"
 "http://www.w3.org/Graphics/SVG/1.1/DTD/svg11.dtd">
<!-- Generated by graphviz version 2.43.0 (0)
 -->
<!-- Title: WFST Pages: 1 -->
<svg width="423pt" height="176pt"
 viewBox="0.00 0.00 423.00 176.45" xmlns="http://www.w3.org/2000/svg" xmlns:xlink="http://www.w3.org/1999/xlink">
<g id="graph0" class="graph" transform="scale(1 1) rotate(0) translate(4 172.45)">
<title>WFST</title>
<polygon fill="white" stroke="transparent" points="-4,4 -4,-172.45 419,-172.45 419,4 -4,4"/>
<text text-anchor="middle" x="207.5" y="-7.8" font-family="Times,serif" font-size="14.00">After k2.arc_sort by aux_labels</text>
<!-- 0 -->
<g id="node1" class="node">
<title>0</title>
<ellipse fill="none" stroke="black" stroke-width="2" cx="18" cy="-98.45" rx="18" ry="18"/>
<text text-anchor="middle" x="18" y="-94.75" font-family="Times,serif" font-size="14.00">0</text>
</g>
<!-- 2 -->
<g id="node2" class="node">
<title>2</title>
<ellipse fill="none" stroke="black" stroke-width="2" cx="264" cy="-98.45" rx="18" ry="18"/>
<text text-anchor="middle" x="264" y="-94.75" font-family="Times,serif" font-size="14.00">2</text>
</g>
<!-- 0&#45;&gt;2 -->
<g id="edge1" class="edge">
<title>0&#45;&gt;2</title>
<path fill="none" stroke="black" d="M26.35,-114.69C31.7,-124.51 39.95,-136.27 51,-142.45 95.66,-167.39 114.88,-149.41 166,-147.45 194.95,-146.33 205.7,-156.57 231,-142.45 238.94,-138.01 245.44,-130.68 250.45,-123.27"/>
<polygon fill="black" stroke="black" points="253.46,-125.06 255.65,-114.69 247.47,-121.43 253.46,-125.06"/>
<text text-anchor="middle" x="141" y="-157.25" font-family="Times,serif" font-size="14.00">4:1/0.5</text>
</g>
<!-- 0&#45;&gt;2 -->
<g id="edge2" class="edge">
<title>0&#45;&gt;2</title>
<path fill="none" stroke="black" d="M35.01,-105.11C40.04,-106.88 45.67,-108.55 51,-109.45 129.91,-122.63 152.09,-122.63 231,-109.45 233.08,-109.1 235.21,-108.63 237.33,-108.08"/>
<polygon fill="black" stroke="black" points="238.47,-111.4 246.99,-105.11 236.4,-104.71 238.47,-111.4"/>
<text text-anchor="middle" x="141" y="-122.25" font-family="Times,serif" font-size="14.00">5:2/0.4</text>
</g>
<!-- 1 -->
<g id="node3" class="node">
<title>1</title>
<ellipse fill="none" stroke="black" stroke-width="2" cx="141" cy="-60.45" rx="18" ry="18"/>
<text text-anchor="middle" x="141" y="-56.75" font-family="Times,serif" font-size="14.00">1</text>
</g>
<!-- 0&#45;&gt;1 -->
<g id="edge3" class="edge">
<title>0&#45;&gt;1</title>
<path fill="none" stroke="black" d="M35.83,-94.59C52.54,-90.62 78.8,-83.94 101,-76.45 105.49,-74.93 110.2,-73.16 114.74,-71.35"/>
<polygon fill="black" stroke="black" points="116.32,-74.49 124.23,-67.45 113.65,-68.02 116.32,-74.49"/>
<text text-anchor="middle" x="76" y="-94.25" font-family="Times,serif" font-size="14.00">2:3/0.3</text>
</g>
<!-- 0&#45;&gt;1 -->
<g id="edge4" class="edge">
<title>0&#45;&gt;1</title>
<path fill="none" stroke="black" d="M26.71,-82.59C32.12,-73.41 40.29,-62.67 51,-57.45 70.49,-47.94 95.34,-49.75 113.82,-53.33"/>
<polygon fill="black" stroke="black" points="113.1,-56.75 123.62,-55.5 114.62,-49.92 113.1,-56.75"/>
<text text-anchor="middle" x="76" y="-61.25" font-family="Times,serif" font-size="14.00">1:4/0.1</text>
</g>
<!-- 0&#45;&gt;1 -->
<g id="edge5" class="edge">
<title>0&#45;&gt;1</title>
<path fill="none" stroke="black" d="M21.9,-80.73C25.59,-64.51 33.7,-41.42 51,-30.45 69.76,-18.54 79.96,-23.29 101,-30.45 107.85,-32.77 114.43,-36.84 120.17,-41.25"/>
<polygon fill="black" stroke="black" points="118.02,-44.01 127.93,-47.78 122.53,-38.66 118.02,-44.01"/>
<text text-anchor="middle" x="76" y="-34.25" font-family="Times,serif" font-size="14.00">3:5/0.2</text>
</g>
<!-- 3 -->
<g id="node4" class="node">
<title>3</title>
<ellipse fill="none" stroke="black" stroke-width="2" cx="393" cy="-98.45" rx="18" ry="18"/>
<ellipse fill="none" stroke="black" stroke-width="2" cx="393" cy="-98.45" rx="22" ry="22"/>
<text text-anchor="middle" x="393" y="-94.75" font-family="Times,serif" font-size="14.00">3</text>
</g>
<!-- 2&#45;&gt;3 -->
<g id="edge9" class="edge">
<title>2&#45;&gt;3</title>
<path fill="none" stroke="black" d="M282.13,-98.45C302.27,-98.45 336.1,-98.45 360.91,-98.45"/>
<polygon fill="black" stroke="black" points="360.93,-101.95 370.93,-98.45 360.93,-94.95 360.93,-101.95"/>
<text text-anchor="middle" x="326.5" y="-102.25" font-family="Times,serif" font-size="14.00">&#45;1:&#45;1/0.9</text>
</g>
<!-- 1&#45;&gt;2 -->
<g id="edge6" class="edge">
<title>1&#45;&gt;2</title>
<path fill="none" stroke="black" d="M157.77,-67.45C164.8,-70.43 173.23,-73.82 181,-76.45 199.21,-82.6 220.15,-88.19 236.31,-92.2"/>
<polygon fill="black" stroke="black" points="235.62,-95.63 246.17,-94.59 237.28,-88.83 235.62,-95.63"/>
<text text-anchor="middle" x="206" y="-94.25" font-family="Times,serif" font-size="14.00">3:1/0.7</text>
</g>
<!-- 1&#45;&gt;2 -->
<g id="edge7" class="edge">
<title>1&#45;&gt;2</title>
<path fill="none" stroke="black" d="M158.38,-55.5C176.99,-50.85 207.8,-46.12 231,-57.45 238.53,-61.12 244.81,-67.52 249.75,-74.19"/>
<polygon fill="black" stroke="black" points="246.86,-76.16 255.29,-82.59 252.71,-72.31 246.86,-76.16"/>
<text text-anchor="middle" x="206" y="-61.25" font-family="Times,serif" font-size="14.00">1:2/0.8</text>
</g>
<!-- 1&#45;&gt;2 -->
<g id="edge8" class="edge">
<title>1&#45;&gt;2</title>
<path fill="none" stroke="black" d="M154.07,-47.78C161.2,-41.23 170.81,-33.91 181,-30.45 202.04,-23.29 212.24,-18.54 231,-30.45 245.05,-39.36 253.05,-56.28 257.53,-71.01"/>
<polygon fill="black" stroke="black" points="254.16,-71.96 260.1,-80.73 260.93,-70.16 254.16,-71.96"/>
<text text-anchor="middle" x="206" y="-34.25" font-family="Times,serif" font-size="14.00">2:3/0.6</text>
</g>
</g>
</svg>
