<?xml version="1.0" encoding="UTF-8" standalone="no"?>
<!DOCTYPE svg PUBLIC "-//W3C//DTD SVG 1.1//EN"
 "http://www.w3.org/Graphics/SVG/1.1/DTD/svg11.dtd">
<!-- Generated by graphviz version 2.40.1 (20161225.0304)
 -->
<!-- Title: WFST Pages: 1 -->
<svg width="423pt" height="153pt"
 viewBox="0.00 0.00 423.00 152.88" xmlns="http://www.w3.org/2000/svg" xmlns:xlink="http://www.w3.org/1999/xlink">
<g id="graph0" class="graph" transform="scale(1 1) rotate(0) translate(4 148.878)">
<title>WFST</title>
<polygon fill="#ffffff" stroke="transparent" points="-4,4 -4,-148.878 419,-148.878 419,4 -4,4"/>
<text text-anchor="middle" x="207.5" y="-7.8" font-family="Times,serif" font-size="14.00" fill="#000000">Before k2.arc_sort</text>
<!-- 0 -->
<g id="node1" class="node">
<title>0</title>
<ellipse fill="none" stroke="#000000" stroke-width="2" cx="18" cy="-70.878" rx="18" ry="18"/>
<text text-anchor="middle" x="18" y="-67.178" font-family="Times,serif" font-size="14.00" fill="#000000">0</text>
</g>
<!-- 1 -->
<g id="node2" class="node">
<title>1</title>
<ellipse fill="none" stroke="#000000" stroke-width="2" cx="141" cy="-108.878" rx="18" ry="18"/>
<text text-anchor="middle" x="141" y="-105.178" font-family="Times,serif" font-size="14.00" fill="#000000">1</text>
</g>
<!-- 0&#45;&gt;1 -->
<g id="edge1" class="edge">
<title>0&#45;&gt;1</title>
<path fill="none" stroke="#000000" d="M23.3953,-88.1355C28.3634,-100.7961 37.1049,-117.0852 51,-124.878 70.9202,-136.05 96.8861,-129.6045 115.8051,-121.8187"/>
<polygon fill="#000000" stroke="#000000" points="117.2877,-124.9898 124.9867,-117.7113 114.4292,-118.6 117.2877,-124.9898"/>
<text text-anchor="middle" x="76" y="-133.678" font-family="Times,serif" font-size="14.00" fill="#000000">1:4/0.1</text>
</g>
<!-- 0&#45;&gt;1 -->
<g id="edge2" class="edge">
<title>0&#45;&gt;1</title>
<path fill="none" stroke="#000000" d="M34.1546,-79.5548C39.4238,-82.1547 45.3688,-84.8505 51,-86.878 71.3682,-94.2115 95.1952,-99.9148 113.2146,-103.6749"/>
<polygon fill="#000000" stroke="#000000" points="112.5889,-107.1191 123.083,-105.662 113.9707,-100.2569 112.5889,-107.1191"/>
<text text-anchor="middle" x="76" y="-103.678" font-family="Times,serif" font-size="14.00" fill="#000000">3:5/0.2</text>
</g>
<!-- 0&#45;&gt;1 -->
<g id="edge3" class="edge">
<title>0&#45;&gt;1</title>
<path fill="none" stroke="#000000" d="M35.6191,-66.0772C52.9721,-62.2876 79.8733,-58.9739 101,-67.878 110.1524,-71.7354 118.2516,-78.8234 124.7265,-86.0342"/>
<polygon fill="#000000" stroke="#000000" points="122.0293,-88.2648 131.0878,-93.7598 127.4331,-83.8152 122.0293,-88.2648"/>
<text text-anchor="middle" x="76" y="-71.678" font-family="Times,serif" font-size="14.00" fill="#000000">2:3/0.3</text>
</g>
<!-- 2 -->
<g id="node3" class="node">
<title>2</title>
<ellipse fill="none" stroke="#000000" stroke-width="2" cx="264" cy="-70.878" rx="18" ry="18"/>
<text text-anchor="middle" x="264" y="-67.178" font-family="Times,serif" font-size="14.00" fill="#000000">2</text>
</g>
<!-- 0&#45;&gt;2 -->
<g id="edge4" class="edge">
<title>0&#45;&gt;2</title>
<path fill="none" stroke="#000000" d="M34.425,-63.0092C39.6071,-60.9109 45.4344,-58.9348 51,-57.878 129.5958,-42.9551 152.4042,-42.9551 231,-57.878 233.348,-58.3238 235.7426,-58.9333 238.1156,-59.6465"/>
<polygon fill="#000000" stroke="#000000" points="236.9803,-62.9574 247.575,-63.0092 239.325,-56.3618 236.9803,-62.9574"/>
<text text-anchor="middle" x="141" y="-50.678" font-family="Times,serif" font-size="14.00" fill="#000000">5:2/0.4</text>
</g>
<!-- 0&#45;&gt;2 -->
<g id="edge5" class="edge">
<title>0&#45;&gt;2</title>
<path fill="none" stroke="#000000" d="M31.2892,-58.4241C37.001,-53.62 43.9724,-48.4366 51,-44.878 77.743,-31.3362 86.2969,-30.9148 116,-26.878 167.2622,-19.9113 184.8464,-21.5073 231,-44.878 234.953,-46.8797 238.8883,-49.3955 242.5915,-52.0687"/>
<polygon fill="#000000" stroke="#000000" points="240.6789,-55.0163 250.7108,-58.4241 244.9936,-49.5042 240.6789,-55.0163"/>
<text text-anchor="middle" x="141" y="-30.678" font-family="Times,serif" font-size="14.00" fill="#000000">4:1/0.5</text>
</g>
<!-- 1&#45;&gt;2 -->
<g id="edge6" class="edge">
<title>1&#45;&gt;2</title>
<path fill="none" stroke="#000000" d="M157.0133,-117.7113C175.8778,-126.8222 207.6075,-137.9974 231,-124.878 241.6384,-118.9116 249.2559,-107.9649 254.4719,-97.4793"/>
<polygon fill="#000000" stroke="#000000" points="257.7605,-98.6966 258.6047,-88.1355 251.3588,-95.8651 257.7605,-98.6966"/>
<text text-anchor="middle" x="206" y="-133.678" font-family="Times,serif" font-size="14.00" fill="#000000">2:3/0.6</text>
</g>
<!-- 1&#45;&gt;2 -->
<g id="edge7" class="edge">
<title>1&#45;&gt;2</title>
<path fill="none" stroke="#000000" d="M158.917,-105.662C177.319,-102.0906 206.6343,-95.6508 231,-86.878 233.5516,-85.9593 236.1677,-84.9034 238.7561,-83.7813"/>
<polygon fill="#000000" stroke="#000000" points="240.2536,-86.945 247.8454,-79.5548 237.302,-80.5977 240.2536,-86.945"/>
<text text-anchor="middle" x="206" y="-103.678" font-family="Times,serif" font-size="14.00" fill="#000000">3:1/0.7</text>
</g>
<!-- 1&#45;&gt;2 -->
<g id="edge8" class="edge">
<title>1&#45;&gt;2</title>
<path fill="none" stroke="#000000" d="M150.9122,-93.7598C158.0271,-84.3736 168.5372,-73.1306 181,-67.878 198.3305,-60.5738 219.5467,-61.4912 236.1906,-64.1486"/>
<polygon fill="#000000" stroke="#000000" points="235.9044,-67.6565 246.3809,-66.0772 237.2062,-60.7786 235.9044,-67.6565"/>
<text text-anchor="middle" x="206" y="-71.678" font-family="Times,serif" font-size="14.00" fill="#000000">1:2/0.8</text>
</g>
<!-- 3 -->
<g id="node4" class="node">
<title>3</title>
<ellipse fill="none" stroke="#000000" stroke-width="2" cx="393" cy="-70.878" rx="18" ry="18"/>
<ellipse fill="none" stroke="#000000" stroke-width="2" cx="393" cy="-70.878" rx="22" ry="22"/>
<text text-anchor="middle" x="393" y="-67.178" font-family="Times,serif" font-size="14.00" fill="#000000">3</text>
</g>
<!-- 2&#45;&gt;3 -->
<g id="edge9" class="edge">
<title>2&#45;&gt;3</title>
<path fill="none" stroke="#000000" d="M282.2089,-70.878C302.6276,-70.878 336.1275,-70.878 360.9531,-70.878"/>
<polygon fill="#000000" stroke="#000000" points="360.9982,-74.3781 370.9981,-70.878 360.9981,-67.3781 360.9982,-74.3781"/>
<text text-anchor="middle" x="326.5" y="-74.678" font-family="Times,serif" font-size="14.00" fill="#000000">&#45;1:&#45;1/0.9</text>
</g>
</g>
</svg>
