<?xml version="1.0" encoding="UTF-8" standalone="no"?>
<!DOCTYPE svg PUBLIC "-//W3C//DTD SVG 1.1//EN"
 "http://www.w3.org/Graphics/SVG/1.1/DTD/svg11.dtd">
<!-- Generated by graphviz version 2.40.1 (20161225.0304)
 -->
<!-- Title: WFST Pages: 1 -->
<svg width="423pt" height="175pt"
 viewBox="0.00 0.00 423.00 175.28" xmlns="http://www.w3.org/2000/svg" xmlns:xlink="http://www.w3.org/1999/xlink">
<g id="graph0" class="graph" transform="scale(1 1) rotate(0) translate(4 171.2786)">
<title>WFST</title>
<polygon fill="#ffffff" stroke="transparent" points="-4,4 -4,-171.2786 419,-171.2786 419,4 -4,4"/>
<text text-anchor="middle" x="207.5" y="-7.8" font-family="Times,serif" font-size="14.00" fill="#000000">After k2.arc_sort by aux_labels</text>
<!-- 0 -->
<g id="node1" class="node">
<title>0</title>
<ellipse fill="none" stroke="#000000" stroke-width="2" cx="18" cy="-97.2786" rx="18" ry="18"/>
<text text-anchor="middle" x="18" y="-93.5786" font-family="Times,serif" font-size="14.00" fill="#000000">0</text>
</g>
<!-- 2 -->
<g id="node2" class="node">
<title>2</title>
<ellipse fill="none" stroke="#000000" stroke-width="2" cx="264" cy="-97.2786" rx="18" ry="18"/>
<text text-anchor="middle" x="264" y="-93.5786" font-family="Times,serif" font-size="14.00" fill="#000000">2</text>
</g>
<!-- 0&#45;&gt;2 -->
<g id="edge1" class="edge">
<title>0&#45;&gt;2</title>
<path fill="none" stroke="#000000" d="M25.95,-113.9786C31.5227,-123.7047 39.9511,-135.2134 51,-141.2786 76.399,-155.2213 87.0471,-145.1667 116,-146.2786 167.1217,-148.2419 186.1534,-165.897 231,-141.2786 238.9414,-136.9192 245.529,-129.7477 250.6756,-122.4473"/>
<polygon fill="#000000" stroke="#000000" points="253.6468,-124.2973 256.05,-113.9786 247.7365,-120.5465 253.6468,-124.2973"/>
<text text-anchor="middle" x="141" y="-156.0786" font-family="Times,serif" font-size="14.00" fill="#000000">4:1/0.5</text>
</g>
<!-- 0&#45;&gt;2 -->
<g id="edge2" class="edge">
<title>0&#45;&gt;2</title>
<path fill="none" stroke="#000000" d="M35.2498,-103.5484C40.2609,-105.0834 45.7888,-106.5064 51,-107.2786 130.1358,-119.0056 151.8642,-119.0056 231,-107.2786 232.9542,-106.989 234.9529,-106.6079 236.9522,-106.1637"/>
<polygon fill="#000000" stroke="#000000" points="237.9911,-109.5091 246.7502,-103.5484 236.1858,-102.7459 237.9911,-109.5091"/>
<text text-anchor="middle" x="141" y="-119.0786" font-family="Times,serif" font-size="14.00" fill="#000000">5:2/0.4</text>
</g>
<!-- 1 -->
<g id="node3" class="node">
<title>1</title>
<ellipse fill="none" stroke="#000000" stroke-width="2" cx="141" cy="-59.2786" rx="18" ry="18"/>
<text text-anchor="middle" x="141" y="-55.5786" font-family="Times,serif" font-size="14.00" fill="#000000">1</text>
</g>
<!-- 0&#45;&gt;1 -->
<g id="edge3" class="edge">
<title>0&#45;&gt;1</title>
<path fill="none" stroke="#000000" d="M35.6697,-93.2541C52.5985,-89.244 78.7822,-82.6365 101,-75.2786 105.5153,-73.7833 110.2556,-72.0435 114.8305,-70.2731"/>
<polygon fill="#000000" stroke="#000000" points="116.4464,-73.3963 124.43,-66.4312 113.8454,-66.8975 116.4464,-73.3963"/>
<text text-anchor="middle" x="76" y="-92.0786" font-family="Times,serif" font-size="14.00" fill="#000000">2:3/0.3</text>
</g>
<!-- 0&#45;&gt;1 -->
<g id="edge4" class="edge">
<title>0&#45;&gt;1</title>
<path fill="none" stroke="#000000" d="M26.3272,-80.9871C31.9438,-71.901 40.2863,-61.4084 51,-56.2786 70.4215,-46.9796 94.9969,-48.5552 113.5584,-51.9956"/>
<polygon fill="#000000" stroke="#000000" points="112.9335,-55.441 123.4437,-54.1048 114.3942,-48.5951 112.9335,-55.441"/>
<text text-anchor="middle" x="76" y="-60.0786" font-family="Times,serif" font-size="14.00" fill="#000000">1:4/0.1</text>
</g>
<!-- 0&#45;&gt;1 -->
<g id="edge5" class="edge">
<title>0&#45;&gt;1</title>
<path fill="none" stroke="#000000" d="M21.3104,-79.487C25.3282,-63.5064 33.8254,-40.9643 51,-30.2786 69.8683,-18.5392 79.8619,-23.4223 101,-30.2786 107.5323,-32.3975 113.8911,-36.0274 119.546,-40.0161"/>
<polygon fill="#000000" stroke="#000000" points="117.7332,-43.0401 127.7766,-46.4137 122.0292,-37.5133 117.7332,-43.0401"/>
<text text-anchor="middle" x="76" y="-34.0786" font-family="Times,serif" font-size="14.00" fill="#000000">3:5/0.2</text>
</g>
<!-- 3 -->
<g id="node4" class="node">
<title>3</title>
<ellipse fill="none" stroke="#000000" stroke-width="2" cx="393" cy="-97.2786" rx="18" ry="18"/>
<ellipse fill="none" stroke="#000000" stroke-width="2" cx="393" cy="-97.2786" rx="22" ry="22"/>
<text text-anchor="middle" x="393" y="-93.5786" font-family="Times,serif" font-size="14.00" fill="#000000">3</text>
</g>
<!-- 2&#45;&gt;3 -->
<g id="edge9" class="edge">
<title>2&#45;&gt;3</title>
<path fill="none" stroke="#000000" d="M282.2089,-97.2786C302.6276,-97.2786 336.1275,-97.2786 360.9531,-97.2786"/>
<polygon fill="#000000" stroke="#000000" points="360.9982,-100.7787 370.9981,-97.2786 360.9981,-93.7787 360.9982,-100.7787"/>
<text text-anchor="middle" x="326.5" y="-101.0786" font-family="Times,serif" font-size="14.00" fill="#000000">&#45;1:&#45;1/0.9</text>
</g>
<!-- 1&#45;&gt;2 -->
<g id="edge6" class="edge">
<title>1&#45;&gt;2</title>
<path fill="none" stroke="#000000" d="M157.57,-66.4312C164.7063,-69.3743 173.1898,-72.6921 181,-75.2786 199.2256,-81.3144 220.1198,-86.8452 236.3849,-90.8515"/>
<polygon fill="#000000" stroke="#000000" points="235.788,-94.308 246.3303,-93.2541 237.4318,-87.5037 235.788,-94.308"/>
<text text-anchor="middle" x="206" y="-92.0786" font-family="Times,serif" font-size="14.00" fill="#000000">3:1/0.7</text>
</g>
<!-- 1&#45;&gt;2 -->
<g id="edge7" class="edge">
<title>1&#45;&gt;2</title>
<path fill="none" stroke="#000000" d="M158.5563,-54.1048C177.4427,-49.5516 207.8748,-45.2063 231,-56.2786 238.5331,-59.8855 244.8938,-66.1437 249.9591,-72.7"/>
<polygon fill="#000000" stroke="#000000" points="247.1149,-74.741 255.6728,-80.9871 252.8779,-70.7675 247.1149,-74.741"/>
<text text-anchor="middle" x="206" y="-60.0786" font-family="Times,serif" font-size="14.00" fill="#000000">1:2/0.8</text>
</g>
<!-- 1&#45;&gt;2 -->
<g id="edge8" class="edge">
<title>1&#45;&gt;2</title>
<path fill="none" stroke="#000000" d="M154.2234,-46.4137C161.4949,-40.2449 171.046,-33.5073 181,-30.2786 202.1381,-23.4223 212.1317,-18.5392 231,-30.2786 244.8202,-38.8773 253.0216,-55.1532 257.7915,-69.5097"/>
<polygon fill="#000000" stroke="#000000" points="254.5391,-70.8602 260.6896,-79.487 261.2612,-68.9076 254.5391,-70.8602"/>
<text text-anchor="middle" x="206" y="-34.0786" font-family="Times,serif" font-size="14.00" fill="#000000">2:3/0.6</text>
</g>
</g>
</svg>
