<?xml version="1.0" encoding="UTF-8" standalone="no"?>
<!DOCTYPE svg PUBLIC "-//W3C//DTD SVG 1.1//EN"
 "http://www.w3.org/Graphics/SVG/1.1/DTD/svg11.dtd">
<!-- Generated by graphviz version 2.43.0 (0)
 -->
<!-- Title: WFST Pages: 1 -->
<svg width="542pt" height="319pt"
 viewBox="0.00 0.00 542.00 319.23" xmlns="http://www.w3.org/2000/svg" xmlns:xlink="http://www.w3.org/1999/xlink">
<g id="graph0" class="graph" transform="scale(1 1) rotate(0) translate(4 315.23)">
<title>WFST</title>
<polygon fill="white" stroke="transparent" points="-4,4 -4,-315.23 538,-315.23 538,4 -4,4"/>
<text text-anchor="middle" x="267" y="-7.8" font-family="Times,serif" font-size="14.00">CTC topology with max_token=3 (modified=False)</text>
<!-- 0 -->
<g id="node1" class="node">
<title>0</title>
<ellipse fill="none" stroke="black" stroke-width="2" cx="24" cy="-153.23" rx="18" ry="18"/>
<text text-anchor="middle" x="24" y="-149.53" font-family="Times,serif" font-size="14.00">0</text>
</g>
<!-- 0&#45;&gt;0 -->
<g id="edge1" class="edge">
<title>0&#45;&gt;0</title>
<path fill="none" stroke="black" d="M14.43,-168.78C11.73,-179.14 14.92,-189.23 24,-189.23 29.96,-189.23 33.38,-184.89 34.27,-178.97"/>
<polygon fill="black" stroke="black" points="37.74,-178.52 33.57,-168.78 30.76,-178.99 37.74,-178.52"/>
<text text-anchor="middle" x="24" y="-193.03" font-family="Times,serif" font-size="14.00">blk:ε/0</text>
</g>
<!-- 1 -->
<g id="node2" class="node">
<title>1</title>
<ellipse fill="none" stroke="black" stroke-width="2" cx="144" cy="-115.23" rx="18" ry="18"/>
<text text-anchor="middle" x="144" y="-111.53" font-family="Times,serif" font-size="14.00">1</text>
</g>
<!-- 0&#45;&gt;1 -->
<g id="edge2" class="edge">
<title>0&#45;&gt;1</title>
<path fill="none" stroke="black" d="M41.74,-149.31C58.06,-145.32 83.49,-138.68 105,-131.23 109.19,-129.79 113.57,-128.1 117.81,-126.38"/>
<polygon fill="black" stroke="black" points="119.42,-129.5 127.28,-122.4 116.7,-123.05 119.42,-129.5"/>
<text text-anchor="middle" x="81" y="-149.03" font-family="Times,serif" font-size="14.00">a:a/0</text>
</g>
<!-- 2 -->
<g id="node3" class="node">
<title>2</title>
<ellipse fill="none" stroke="black" stroke-width="2" cx="269" cy="-140.23" rx="18" ry="18"/>
<text text-anchor="middle" x="269" y="-136.53" font-family="Times,serif" font-size="14.00">2</text>
</g>
<!-- 0&#45;&gt;2 -->
<g id="edge3" class="edge">
<title>0&#45;&gt;2</title>
<path fill="none" stroke="black" d="M28.88,-170.84C33.13,-185.6 41.51,-205.86 57,-216.23 121.3,-259.29 166,-264.22 231,-222.23 249.49,-210.3 258.83,-186.66 263.5,-167.81"/>
<polygon fill="black" stroke="black" points="266.94,-168.46 265.64,-157.95 260.1,-166.98 266.94,-168.46"/>
<text text-anchor="middle" x="144" y="-255.03" font-family="Times,serif" font-size="14.00">b:b/0</text>
</g>
<!-- 3 -->
<g id="node4" class="node">
<title>3</title>
<ellipse fill="none" stroke="black" stroke-width="2" cx="391" cy="-75.23" rx="18" ry="18"/>
<text text-anchor="middle" x="391" y="-71.53" font-family="Times,serif" font-size="14.00">3</text>
</g>
<!-- 0&#45;&gt;3 -->
<g id="edge4" class="edge">
<title>0&#45;&gt;3</title>
<path fill="none" stroke="black" d="M31.78,-136.78C37.16,-125.47 45.67,-110.82 57,-101.23 103.13,-62.23 123.7,-61.78 183,-50.23 220.86,-42.86 331.76,-54.02 353,-59.23 357.01,-60.22 361.15,-61.6 365.13,-63.15"/>
<polygon fill="black" stroke="black" points="363.99,-66.47 374.56,-67.18 366.74,-60.03 363.99,-66.47"/>
<text text-anchor="middle" x="207" y="-54.03" font-family="Times,serif" font-size="14.00">c:c/0</text>
</g>
<!-- 4 -->
<g id="node5" class="node">
<title>4</title>
<ellipse fill="none" stroke="black" stroke-width="2" cx="512" cy="-197.23" rx="18" ry="18"/>
<ellipse fill="none" stroke="black" stroke-width="2" cx="512" cy="-197.23" rx="22" ry="22"/>
<text text-anchor="middle" x="512" y="-193.53" font-family="Times,serif" font-size="14.00">4</text>
</g>
<!-- 0&#45;&gt;4 -->
<g id="edge5" class="edge">
<title>0&#45;&gt;4</title>
<path fill="none" stroke="black" d="M27.82,-170.98C31.63,-190.26 40.01,-221.13 57,-242.23 85.3,-277.4 97.87,-296.23 143,-296.23 143,-296.23 143,-296.23 392,-296.23 437.06,-296.23 474.14,-253.77 494.36,-224.47"/>
<polygon fill="black" stroke="black" points="497.47,-226.12 500.09,-215.86 491.64,-222.24 497.47,-226.12"/>
<text text-anchor="middle" x="269" y="-300.03" font-family="Times,serif" font-size="14.00">&#45;1:&#45;1/0</text>
</g>
<!-- 1&#45;&gt;0 -->
<g id="edge6" class="edge">
<title>1&#45;&gt;0</title>
<path fill="none" stroke="black" d="M126.52,-110.27C108.48,-105.79 79.15,-101.42 57,-112.23 49.47,-115.91 43.19,-122.31 38.25,-128.98"/>
<polygon fill="black" stroke="black" points="35.29,-127.1 32.71,-137.37 41.14,-130.95 35.29,-127.1"/>
<text text-anchor="middle" x="81" y="-116.03" font-family="Times,serif" font-size="14.00">blk:ε/0</text>
</g>
<!-- 1&#45;&gt;1 -->
<g id="edge7" class="edge">
<title>1&#45;&gt;1</title>
<path fill="none" stroke="black" d="M133.63,-130.03C130.25,-140.65 133.71,-151.23 144,-151.23 150.92,-151.23 154.75,-146.46 155.49,-140.1"/>
<polygon fill="black" stroke="black" points="158.95,-139.58 154.37,-130.03 152,-140.35 158.95,-139.58"/>
<text text-anchor="middle" x="144" y="-155.03" font-family="Times,serif" font-size="14.00">a:ε/0</text>
</g>
<!-- 1&#45;&gt;2 -->
<g id="edge8" class="edge">
<title>1&#45;&gt;2</title>
<path fill="none" stroke="black" d="M160.54,-123C167.29,-126.04 175.37,-129.27 183,-131.23 201.86,-136.09 223.73,-138.33 240.56,-139.37"/>
<polygon fill="black" stroke="black" points="240.64,-142.87 250.81,-139.88 241,-135.88 240.64,-142.87"/>
<text text-anchor="middle" x="207" y="-142.03" font-family="Times,serif" font-size="14.00">b:b/0</text>
</g>
<!-- 1&#45;&gt;3 -->
<g id="edge9" class="edge">
<title>1&#45;&gt;3</title>
<path fill="none" stroke="black" d="M161.11,-109.48C167.81,-107.26 175.71,-104.87 183,-103.23 246.7,-88.98 323.16,-80.93 362.94,-77.4"/>
<polygon fill="black" stroke="black" points="363.26,-80.89 372.92,-76.55 362.66,-73.92 363.26,-80.89"/>
<text text-anchor="middle" x="269" y="-94.03" font-family="Times,serif" font-size="14.00">c:c/0</text>
</g>
<!-- 1&#45;&gt;4 -->
<g id="edge10" class="edge">
<title>1&#45;&gt;4</title>
<path fill="none" stroke="black" d="M155.47,-129.27C171.97,-149.97 206.25,-187.6 246,-200.23 327.47,-226.12 430.26,-212.85 480.52,-203.63"/>
<polygon fill="black" stroke="black" points="481.25,-207.05 490.42,-201.74 479.94,-200.18 481.25,-207.05"/>
<text text-anchor="middle" x="330" y="-219.03" font-family="Times,serif" font-size="14.00">&#45;1:&#45;1/0</text>
</g>
<!-- 2&#45;&gt;0 -->
<g id="edge11" class="edge">
<title>2&#45;&gt;0</title>
<path fill="none" stroke="black" d="M252.38,-148.05C245.86,-151.15 238.16,-154.58 231,-157.23 203.69,-167.34 196.84,-171.2 168,-175.23 118.9,-182.11 105.01,-176.59 57,-164.23 54.96,-163.71 52.85,-163.11 50.75,-162.48"/>
<polygon fill="black" stroke="black" points="51.72,-159.11 41.13,-159.34 49.55,-165.77 51.72,-159.11"/>
<text text-anchor="middle" x="144" y="-181.03" font-family="Times,serif" font-size="14.00">blk:ε/0</text>
</g>
<!-- 2&#45;&gt;1 -->
<g id="edge12" class="edge">
<title>2&#45;&gt;1</title>
<path fill="none" stroke="black" d="M255.86,-127.82C249.16,-121.87 240.32,-115.36 231,-112.23 211.88,-105.82 189.02,-107 171.67,-109.55"/>
<polygon fill="black" stroke="black" points="170.93,-106.13 161.66,-111.27 172.11,-113.03 170.93,-106.13"/>
<text text-anchor="middle" x="207" y="-116.03" font-family="Times,serif" font-size="14.00">a:a/0</text>
</g>
<!-- 2&#45;&gt;2 -->
<g id="edge13" class="edge">
<title>2&#45;&gt;2</title>
<path fill="none" stroke="black" d="M258.85,-155.4C255.77,-165.9 259.16,-176.23 269,-176.23 275.46,-176.23 279.14,-171.78 280.03,-165.76"/>
<polygon fill="black" stroke="black" points="283.49,-165.07 279.15,-155.4 276.51,-165.66 283.49,-165.07"/>
<text text-anchor="middle" x="269" y="-180.03" font-family="Times,serif" font-size="14.00">b:ε/0</text>
</g>
<!-- 2&#45;&gt;3 -->
<g id="edge14" class="edge">
<title>2&#45;&gt;3</title>
<path fill="none" stroke="black" d="M287.19,-140.43C304.94,-139.88 332.82,-136.81 353,-124.23 362.64,-118.23 370.66,-108.74 376.74,-99.71"/>
<polygon fill="black" stroke="black" points="379.86,-101.31 382.17,-90.97 373.92,-97.62 379.86,-101.31"/>
<text text-anchor="middle" x="330" y="-142.03" font-family="Times,serif" font-size="14.00">c:c/0</text>
</g>
<!-- 2&#45;&gt;4 -->
<g id="edge15" class="edge">
<title>2&#45;&gt;4</title>
<path fill="none" stroke="black" d="M285.16,-148.19C291.73,-151.37 299.6,-154.85 307,-157.23 366.75,-176.52 439.49,-188.06 479.98,-193.48"/>
<polygon fill="black" stroke="black" points="479.66,-196.97 490.03,-194.79 480.57,-190.03 479.66,-196.97"/>
<text text-anchor="middle" x="391" y="-186.03" font-family="Times,serif" font-size="14.00">&#45;1:&#45;1/0</text>
</g>
<!-- 3&#45;&gt;0 -->
<g id="edge16" class="edge">
<title>3&#45;&gt;0</title>
<path fill="none" stroke="black" d="M376.81,-63.77C370.11,-58.53 361.58,-52.74 353,-49.23 282.56,-20.49 258.34,-18.68 183,-29.23 125.32,-37.31 99.61,-25.53 57,-65.23 40.24,-80.85 32.24,-105.94 28.43,-125.34"/>
<polygon fill="black" stroke="black" points="24.94,-124.99 26.71,-135.43 31.84,-126.16 24.94,-124.99"/>
<text text-anchor="middle" x="207" y="-33.03" font-family="Times,serif" font-size="14.00">blk:ε/0</text>
</g>
<!-- 3&#45;&gt;1 -->
<g id="edge17" class="edge">
<title>3&#45;&gt;1</title>
<path fill="none" stroke="black" d="M373.01,-71.6C345.92,-66.37 291.39,-58.21 246,-66.23 216.65,-71.43 209.51,-75.6 183,-89.23 177.76,-91.93 172.38,-95.23 167.38,-98.56"/>
<polygon fill="black" stroke="black" points="165.11,-95.88 158.91,-104.48 169.11,-101.63 165.11,-95.88"/>
<text text-anchor="middle" x="269" y="-70.03" font-family="Times,serif" font-size="14.00">a:a/0</text>
</g>
<!-- 3&#45;&gt;2 -->
<g id="edge18" class="edge">
<title>3&#45;&gt;2</title>
<path fill="none" stroke="black" d="M373.4,-80.34C352.61,-86.9 318.35,-98.24 307,-105.23 300.63,-109.16 294.42,-114.32 288.97,-119.46"/>
<polygon fill="black" stroke="black" points="286.19,-117.3 281.6,-126.85 291.14,-122.25 286.19,-117.3"/>
<text text-anchor="middle" x="330" y="-109.03" font-family="Times,serif" font-size="14.00">b:b/0</text>
</g>
<!-- 3&#45;&gt;3 -->
<g id="edge19" class="edge">
<title>3&#45;&gt;3</title>
<path fill="none" stroke="black" d="M380.85,-90.4C377.77,-100.9 381.16,-111.23 391,-111.23 397.46,-111.23 401.14,-106.78 402.03,-100.76"/>
<polygon fill="black" stroke="black" points="405.49,-100.07 401.15,-90.4 398.51,-100.66 405.49,-100.07"/>
<text text-anchor="middle" x="391" y="-115.03" font-family="Times,serif" font-size="14.00">c:ε/0</text>
</g>
<!-- 3&#45;&gt;4 -->
<g id="edge20" class="edge">
<title>3&#45;&gt;4</title>
<path fill="none" stroke="black" d="M405.8,-85.58C423.01,-98.83 452.87,-123.01 475,-147.23 481.5,-154.35 487.88,-162.65 493.43,-170.42"/>
<polygon fill="black" stroke="black" points="490.72,-172.65 499.29,-178.87 496.47,-168.66 490.72,-172.65"/>
<text text-anchor="middle" x="452" y="-151.03" font-family="Times,serif" font-size="14.00">&#45;1:&#45;1/0</text>
</g>
</g>
</svg>
