<?xml version="1.0" encoding="UTF-8" standalone="no"?>
<!DOCTYPE svg PUBLIC "-//W3C//DTD SVG 1.1//EN"
 "http://www.w3.org/Graphics/SVG/1.1/DTD/svg11.dtd">
<!-- Generated by graphviz version 2.40.1 (20161225.0304)
 -->
<!-- Title: WFST Pages: 1 -->
<svg width="546pt" height="319pt"
 viewBox="0.00 0.00 545.50 319.45" xmlns="http://www.w3.org/2000/svg" xmlns:xlink="http://www.w3.org/1999/xlink">
<g id="graph0" class="graph" transform="scale(1 1) rotate(0) translate(4 315.4478)">
<title>WFST</title>
<polygon fill="#ffffff" stroke="transparent" points="-4,4 -4,-315.4478 541.5,-315.4478 541.5,4 -4,4"/>
<text text-anchor="middle" x="268.75" y="-7.8" font-family="Times,serif" font-size="14.00" fill="#000000">CTC topology with max_token=3 (modified=False)</text>
<!-- 0 -->
<g id="node1" class="node">
<title>0</title>
<ellipse fill="none" stroke="#000000" stroke-width="2" cx="24.5" cy="-153.4478" rx="18" ry="18"/>
<text text-anchor="middle" x="24.5" y="-149.7478" font-family="Times,serif" font-size="14.00" fill="#000000">0</text>
</g>
<!-- 0&#45;&gt;0 -->
<g id="edge1" class="edge">
<title>0&#45;&gt;0</title>
<path fill="none" stroke="#000000" d="M14.9254,-168.9893C12.2303,-179.3565 15.4219,-189.4478 24.5,-189.4478 30.4575,-189.4478 33.8799,-185.1019 34.7671,-179.184"/>
<polygon fill="#000000" stroke="#000000" points="38.2444,-178.729 34.0746,-168.9893 31.2605,-179.2035 38.2444,-178.729"/>
<text text-anchor="middle" x="24.5" y="-193.2478" font-family="Times,serif" font-size="14.00" fill="#000000">blk:ε/0</text>
</g>
<!-- 1 -->
<g id="node2" class="node">
<title>1</title>
<ellipse fill="none" stroke="#000000" stroke-width="2" cx="146" cy="-115.4478" rx="18" ry="18"/>
<text text-anchor="middle" x="146" y="-111.7478" font-family="Times,serif" font-size="14.00" fill="#000000">1</text>
</g>
<!-- 0&#45;&gt;1 -->
<g id="edge2" class="edge">
<title>0&#45;&gt;1</title>
<path fill="none" stroke="#000000" d="M42.2817,-149.3455C59.0182,-145.3276 84.6989,-138.7571 106.5,-131.4478 110.8801,-129.9793 115.4732,-128.2754 119.915,-126.5382"/>
<polygon fill="#000000" stroke="#000000" points="121.2972,-129.7547 129.2554,-122.7607 118.6726,-123.2653 121.2972,-129.7547"/>
<text text-anchor="middle" x="82" y="-148.2478" font-family="Times,serif" font-size="14.00" fill="#000000">a:a/0</text>
</g>
<!-- 2 -->
<g id="node3" class="node">
<title>2</title>
<ellipse fill="none" stroke="#000000" stroke-width="2" cx="272.5" cy="-140.4478" rx="18" ry="18"/>
<text text-anchor="middle" x="272.5" y="-136.7478" font-family="Times,serif" font-size="14.00" fill="#000000">2</text>
</g>
<!-- 0&#45;&gt;2 -->
<g id="edge3" class="edge">
<title>0&#45;&gt;2</title>
<path fill="none" stroke="#000000" d="M28.6571,-171.0757C33.1374,-185.8414 41.8338,-206.1137 57.5,-216.4478 123.2044,-259.7893 168.1654,-264.8186 234.5,-222.4478 253.0207,-210.6179 262.6502,-187.1869 267.5737,-168.3903"/>
<polygon fill="#000000" stroke="#000000" points="271.0113,-169.0588 269.8513,-158.5277 264.1909,-167.4837 271.0113,-169.0588"/>
<text text-anchor="middle" x="146" y="-255.2478" font-family="Times,serif" font-size="14.00" fill="#000000">b:b/0</text>
</g>
<!-- 3 -->
<g id="node4" class="node">
<title>3</title>
<ellipse fill="none" stroke="#000000" stroke-width="2" cx="394.5" cy="-75.4478" rx="18" ry="18"/>
<text text-anchor="middle" x="394.5" y="-71.7478" font-family="Times,serif" font-size="14.00" fill="#000000">3</text>
</g>
<!-- 0&#45;&gt;3 -->
<g id="edge4" class="edge">
<title>0&#45;&gt;3</title>
<path fill="none" stroke="#000000" d="M31.8303,-136.4913C37.4391,-125.2404 46.1411,-110.8655 57.5,-101.4478 104.6425,-62.3619 125.3589,-61.9879 185.5,-50.4478 222.3203,-43.3826 334.1709,-52.9108 356.5,-58.4478 360.7615,-59.5046 365.1404,-61.0171 369.341,-62.7096"/>
<polygon fill="#000000" stroke="#000000" points="368.1195,-65.9967 378.6795,-66.8556 370.96,-59.5989 368.1195,-65.9967"/>
<text text-anchor="middle" x="210" y="-54.2478" font-family="Times,serif" font-size="14.00" fill="#000000">c:c/0</text>
</g>
<!-- 4 -->
<g id="node5" class="node">
<title>4</title>
<ellipse fill="none" stroke="#000000" stroke-width="2" cx="515.5" cy="-197.4478" rx="18" ry="18"/>
<ellipse fill="none" stroke="#000000" stroke-width="2" cx="515.5" cy="-197.4478" rx="22" ry="22"/>
<text text-anchor="middle" x="515.5" y="-193.7478" font-family="Times,serif" font-size="14.00" fill="#000000">4</text>
</g>
<!-- 0&#45;&gt;4 -->
<g id="edge5" class="edge">
<title>0&#45;&gt;4</title>
<path fill="none" stroke="#000000" d="M27.4084,-171.4603C31.3446,-191.0201 39.9928,-222.2929 57.5,-243.4478 86.7304,-278.7686 100.1527,-296.4478 146,-296.4478 146,-296.4478 146,-296.4478 394.5,-296.4478 439.7597,-296.4478 477.3958,-254.4442 498.1371,-225.1565"/>
<polygon fill="#000000" stroke="#000000" points="501.2744,-226.7686 504.0214,-216.536 495.4928,-222.8221 501.2744,-226.7686"/>
<text text-anchor="middle" x="272.5" y="-300.2478" font-family="Times,serif" font-size="14.00" fill="#000000">&#45;1:&#45;1/0</text>
</g>
<!-- 1&#45;&gt;0 -->
<g id="edge6" class="edge">
<title>1&#45;&gt;0</title>
<path fill="none" stroke="#000000" d="M128.7365,-110.3454C110.1649,-105.8533 80.2402,-101.5598 57.5,-112.4478 49.9669,-116.0547 43.6062,-122.3129 38.5409,-128.8692"/>
<polygon fill="#000000" stroke="#000000" points="35.6221,-126.9367 32.8272,-137.1563 41.3851,-130.9102 35.6221,-126.9367"/>
<text text-anchor="middle" x="82" y="-116.2478" font-family="Times,serif" font-size="14.00" fill="#000000">blk:ε/0</text>
</g>
<!-- 1&#45;&gt;1 -->
<g id="edge7" class="edge">
<title>1&#45;&gt;1</title>
<path fill="none" stroke="#000000" d="M135.292,-130.2395C131.8057,-140.8643 135.375,-151.4478 146,-151.4478 153.1387,-151.4478 157.0923,-146.6703 157.8609,-140.3125"/>
<polygon fill="#000000" stroke="#000000" points="161.3225,-139.7766 156.708,-130.2395 154.3679,-140.5727 161.3225,-139.7766"/>
<text text-anchor="middle" x="146" y="-155.2478" font-family="Times,serif" font-size="14.00" fill="#000000">a:ε/0</text>
</g>
<!-- 1&#45;&gt;2 -->
<g id="edge8" class="edge">
<title>1&#45;&gt;2</title>
<path fill="none" stroke="#000000" d="M162.5663,-123.3721C169.5041,-126.3683 177.7459,-129.5176 185.5,-131.4478 204.5981,-136.2019 226.6583,-138.4491 243.786,-139.5092"/>
<polygon fill="#000000" stroke="#000000" points="244.0813,-143.029 254.2483,-140.0488 244.4419,-136.0383 244.0813,-143.029"/>
<text text-anchor="middle" x="210" y="-142.2478" font-family="Times,serif" font-size="14.00" fill="#000000">b:b/0</text>
</g>
<!-- 1&#45;&gt;3 -->
<g id="edge9" class="edge">
<title>1&#45;&gt;3</title>
<path fill="none" stroke="#000000" d="M163.1454,-109.5784C170.0281,-107.3964 178.0763,-105.0617 185.5,-103.4478 249.3995,-89.5568 325.8793,-81.4188 366.2743,-77.7684"/>
<polygon fill="#000000" stroke="#000000" points="366.7818,-81.2374 376.4376,-76.8765 366.1698,-74.2642 366.7818,-81.2374"/>
<text text-anchor="middle" x="272.5" y="-94.2478" font-family="Times,serif" font-size="14.00" fill="#000000">c:c/0</text>
</g>
<!-- 1&#45;&gt;4 -->
<g id="edge10" class="edge">
<title>1&#45;&gt;4</title>
<path fill="none" stroke="#000000" d="M157.0966,-129.8443C174.2121,-150.6397 209.3098,-187.9599 249.5,-200.4478 330.8201,-225.7158 432.9894,-213.0288 483.7886,-203.9531"/>
<polygon fill="#000000" stroke="#000000" points="484.6318,-207.3564 493.8229,-202.0862 483.3514,-200.4744 484.6318,-207.3564"/>
<text text-anchor="middle" x="333.5" y="-218.2478" font-family="Times,serif" font-size="14.00" fill="#000000">&#45;1:&#45;1/0</text>
</g>
<!-- 2&#45;&gt;0 -->
<g id="edge11" class="edge">
<title>2&#45;&gt;0</title>
<path fill="none" stroke="#000000" d="M256.0689,-148.4312C249.4563,-151.4766 241.7033,-154.8395 234.5,-157.4478 206.7173,-167.508 199.7708,-171.41 170.5,-175.4478 128.8874,-181.1882 80.7231,-170.5643 51.447,-162.1746"/>
<polygon fill="#000000" stroke="#000000" points="52.1463,-158.7306 41.5627,-159.2192 50.1409,-165.4373 52.1463,-158.7306"/>
<text text-anchor="middle" x="146" y="-180.2478" font-family="Times,serif" font-size="14.00" fill="#000000">blk:ε/0</text>
</g>
<!-- 2&#45;&gt;1 -->
<g id="edge12" class="edge">
<title>2&#45;&gt;1</title>
<path fill="none" stroke="#000000" d="M259.6309,-127.7365C252.7756,-121.8622 243.8421,-115.518 234.5,-112.4478 214.9356,-106.0184 191.6139,-107.139 173.8239,-109.6688"/>
<polygon fill="#000000" stroke="#000000" points="173.0991,-106.2409 163.8025,-111.3226 174.2389,-113.1475 173.0991,-106.2409"/>
<text text-anchor="middle" x="210" y="-116.2478" font-family="Times,serif" font-size="14.00" fill="#000000">a:a/0</text>
</g>
<!-- 2&#45;&gt;2 -->
<g id="edge13" class="edge">
<title>2&#45;&gt;2</title>
<path fill="none" stroke="#000000" d="M262.3486,-155.6145C259.2725,-166.1119 262.6563,-176.4478 272.5,-176.4478 278.96,-176.4478 282.6378,-171.9965 283.5337,-165.9694"/>
<polygon fill="#000000" stroke="#000000" points="286.9878,-165.2812 282.6514,-155.6145 280.0131,-165.8755 286.9878,-165.2812"/>
<text text-anchor="middle" x="272.5" y="-180.2478" font-family="Times,serif" font-size="14.00" fill="#000000">b:ε/0</text>
</g>
<!-- 2&#45;&gt;3 -->
<g id="edge14" class="edge">
<title>2&#45;&gt;3</title>
<path fill="none" stroke="#000000" d="M290.5336,-140.6204C308.4972,-140.0047 336.2463,-136.857 356.5,-124.4478 366.1384,-118.5426 374.2629,-109.2383 380.494,-100.3167"/>
<polygon fill="#000000" stroke="#000000" points="383.5974,-101.9626 386.0799,-91.6627 377.7161,-98.1664 383.5974,-101.9626"/>
<text text-anchor="middle" x="333.5" y="-142.2478" font-family="Times,serif" font-size="14.00" fill="#000000">c:c/0</text>
</g>
<!-- 2&#45;&gt;4 -->
<g id="edge15" class="edge">
<title>2&#45;&gt;4</title>
<path fill="none" stroke="#000000" d="M288.8278,-148.7355C295.4262,-151.8229 303.1965,-155.135 310.5,-157.4478 370.1594,-176.3404 442.5455,-187.939 483.3867,-193.492"/>
<polygon fill="#000000" stroke="#000000" points="483.1755,-196.9945 493.5483,-194.8367 484.0939,-190.055 483.1755,-196.9945"/>
<text text-anchor="middle" x="394.5" y="-186.2478" font-family="Times,serif" font-size="14.00" fill="#000000">&#45;1:&#45;1/0</text>
</g>
<!-- 3&#45;&gt;0 -->
<g id="edge16" class="edge">
<title>3&#45;&gt;0</title>
<path fill="none" stroke="#000000" d="M380.9901,-63.5043C374.1113,-58.0618 365.3466,-52.0443 356.5,-48.4478 285.6622,-19.6499 261.2503,-18.9982 185.5,-29.4478 126.9583,-37.5236 101.017,-25.4651 57.5,-65.4478 40.6712,-80.9099 32.3789,-105.7946 28.3197,-125.163"/>
<polygon fill="#000000" stroke="#000000" points="24.8291,-124.7942 26.4727,-135.2608 31.7149,-126.0537 24.8291,-124.7942"/>
<text text-anchor="middle" x="210" y="-33.2478" font-family="Times,serif" font-size="14.00" fill="#000000">blk:ε/0</text>
</g>
<!-- 3&#45;&gt;1 -->
<g id="edge17" class="edge">
<title>3&#45;&gt;1</title>
<path fill="none" stroke="#000000" d="M376.4793,-71.5734C348.9001,-66.2616 294.6675,-58.2574 249.5,-66.4478 219.6088,-71.8681 212.7004,-76.9199 185.5,-90.4478 180.2317,-93.068 174.7793,-96.2092 169.6697,-99.3661"/>
<polygon fill="#000000" stroke="#000000" points="167.4829,-96.6106 160.9563,-104.9565 171.263,-102.5023 167.4829,-96.6106"/>
<text text-anchor="middle" x="272.5" y="-70.2478" font-family="Times,serif" font-size="14.00" fill="#000000">a:a/0</text>
</g>
<!-- 3&#45;&gt;2 -->
<g id="edge18" class="edge">
<title>3&#45;&gt;2</title>
<path fill="none" stroke="#000000" d="M376.9846,-80.793C355.8984,-87.3845 321.8973,-98.5589 310.5,-105.4478 304.105,-109.3132 297.8477,-114.3696 292.3159,-119.4323"/>
<polygon fill="#000000" stroke="#000000" points="289.5446,-117.2441 284.7986,-126.7165 294.4158,-122.2712 289.5446,-117.2441"/>
<text text-anchor="middle" x="333.5" y="-109.2478" font-family="Times,serif" font-size="14.00" fill="#000000">b:b/0</text>
</g>
<!-- 3&#45;&gt;3 -->
<g id="edge19" class="edge">
<title>3&#45;&gt;3</title>
<path fill="none" stroke="#000000" d="M384.3486,-90.6145C381.2725,-101.1119 384.6563,-111.4478 394.5,-111.4478 400.96,-111.4478 404.6378,-106.9965 405.5337,-100.9694"/>
<polygon fill="#000000" stroke="#000000" points="408.9878,-100.2812 404.6514,-90.6145 402.0131,-100.8755 408.9878,-100.2812"/>
<text text-anchor="middle" x="394.5" y="-115.2478" font-family="Times,serif" font-size="14.00" fill="#000000">c:ε/0</text>
</g>
<!-- 3&#45;&gt;4 -->
<g id="edge20" class="edge">
<title>3&#45;&gt;4</title>
<path fill="none" stroke="#000000" d="M409.0376,-86.2734C426.5098,-99.6396 456.2518,-123.5479 478.5,-147.4478 484.952,-154.3788 491.325,-162.428 496.9163,-170.0161"/>
<polygon fill="#000000" stroke="#000000" points="494.4095,-172.5269 503.0786,-178.6176 500.0998,-168.4501 494.4095,-172.5269"/>
<text text-anchor="middle" x="455.5" y="-151.2478" font-family="Times,serif" font-size="14.00" fill="#000000">&#45;1:&#45;1/0</text>
</g>
</g>
</svg>
