<?xml version="1.0" encoding="UTF-8" standalone="no"?>
<!DOCTYPE svg PUBLIC "-//W3C//DTD SVG 1.1//EN"
 "http://www.w3.org/Graphics/SVG/1.1/DTD/svg11.dtd">
<!-- Generated by graphviz version 2.40.1 (20161225.0304)
 -->
<!-- Title: WFST Pages: 1 -->
<svg width="612pt" height="81pt"
 viewBox="0.00 0.00 612.00 81.06" xmlns="http://www.w3.org/2000/svg" xmlns:xlink="http://www.w3.org/1999/xlink">
<g id="graph0" class="graph" transform="scale(.5831 .5831) rotate(0) translate(4 135)">
<title>WFST</title>
<polygon fill="#ffffff" stroke="transparent" points="-4,4 -4,-135 1045.5,-135 1045.5,4 -4,4"/>
<text text-anchor="middle" x="520.75" y="-7.8" font-family="Times,serif" font-size="14.00" fill="#000000">CTC graph for the string &quot;abbc&quot; (modified=False)</text>
<!-- 0 -->
<g id="node1" class="node">
<title>0</title>
<ellipse fill="none" stroke="#000000" stroke-width="2" cx="24.5" cy="-45" rx="18" ry="18"/>
<text text-anchor="middle" x="24.5" y="-41.3" font-family="Times,serif" font-size="14.00" fill="#000000">0</text>
</g>
<!-- 0&#45;&gt;0 -->
<g id="edge1" class="edge">
<title>0&#45;&gt;0</title>
<path fill="none" stroke="#000000" d="M15.8666,-60.916C13.6144,-71.1504 16.4922,-81 24.5,-81 29.7551,-81 32.8009,-76.7581 33.6375,-70.9494"/>
<polygon fill="#000000" stroke="#000000" points="37.1308,-70.7278 33.1334,-60.916 30.1396,-71.0791 37.1308,-70.7278"/>
<text text-anchor="middle" x="24.5" y="-84.8" font-family="Times,serif" font-size="14.00" fill="#000000">blk:ε/0</text>
</g>
<!-- 1 -->
<g id="node2" class="node">
<title>1</title>
<ellipse fill="none" stroke="#000000" stroke-width="2" cx="125.5" cy="-45" rx="18" ry="18"/>
<text text-anchor="middle" x="125.5" y="-41.3" font-family="Times,serif" font-size="14.00" fill="#000000">1</text>
</g>
<!-- 0&#45;&gt;1 -->
<g id="edge2" class="edge">
<title>0&#45;&gt;1</title>
<path fill="none" stroke="#000000" d="M42.5568,-45C57.687,-45 79.5552,-45 97.039,-45"/>
<polygon fill="#000000" stroke="#000000" points="97.2591,-48.5001 107.259,-45 97.259,-41.5001 97.2591,-48.5001"/>
<text text-anchor="middle" x="75" y="-48.8" font-family="Times,serif" font-size="14.00" fill="#000000">a:a/0</text>
</g>
<!-- 1&#45;&gt;1 -->
<g id="edge4" class="edge">
<title>1&#45;&gt;1</title>
<path fill="none" stroke="#000000" d="M116.8666,-60.916C114.6144,-71.1504 117.4922,-81 125.5,-81 130.7551,-81 133.8009,-76.7581 134.6375,-70.9494"/>
<polygon fill="#000000" stroke="#000000" points="138.1308,-70.7278 134.1334,-60.916 131.1396,-71.0791 138.1308,-70.7278"/>
<text text-anchor="middle" x="125.5" y="-84.8" font-family="Times,serif" font-size="14.00" fill="#000000">a:ε/0</text>
</g>
<!-- 2 -->
<g id="node3" class="node">
<title>2</title>
<ellipse fill="none" stroke="#000000" stroke-width="2" cx="241" cy="-80" rx="18" ry="18"/>
<text text-anchor="middle" x="241" y="-76.3" font-family="Times,serif" font-size="14.00" fill="#000000">2</text>
</g>
<!-- 1&#45;&gt;2 -->
<g id="edge3" class="edge">
<title>1&#45;&gt;2</title>
<path fill="none" stroke="#000000" d="M143.042,-50.3157C161.8917,-56.0278 192.0873,-65.178 213.9753,-71.8107"/>
<polygon fill="#000000" stroke="#000000" points="213.0861,-75.1983 223.6714,-74.7489 215.1162,-68.4992 213.0861,-75.1983"/>
<text text-anchor="middle" x="183" y="-72.8" font-family="Times,serif" font-size="14.00" fill="#000000">blk:ε/0</text>
</g>
<!-- 3 -->
<g id="node4" class="node">
<title>3</title>
<ellipse fill="none" stroke="#000000" stroke-width="2" cx="344.5" cy="-45" rx="18" ry="18"/>
<text text-anchor="middle" x="344.5" y="-41.3" font-family="Times,serif" font-size="14.00" fill="#000000">3</text>
</g>
<!-- 1&#45;&gt;3 -->
<g id="edge5" class="edge">
<title>1&#45;&gt;3</title>
<path fill="none" stroke="#000000" d="M143.7002,-42.9722C169.4693,-40.3464 218.0688,-36.2969 259.5,-38 278.4322,-38.7782 299.6765,-40.5276 316.1905,-42.0827"/>
<polygon fill="#000000" stroke="#000000" points="315.9959,-45.5802 326.2877,-43.0644 316.6734,-38.613 315.9959,-45.5802"/>
<text text-anchor="middle" x="241" y="-41.8" font-family="Times,serif" font-size="14.00" fill="#000000">b:b/0</text>
</g>
<!-- 2&#45;&gt;2 -->
<g id="edge6" class="edge">
<title>2&#45;&gt;2</title>
<path fill="none" stroke="#000000" d="M232.0212,-95.916C229.679,-106.1504 232.6719,-116 241,-116 246.4653,-116 249.633,-111.7581 250.503,-105.9494"/>
<polygon fill="#000000" stroke="#000000" points="253.9958,-105.7198 249.9788,-95.916 247.0054,-106.0851 253.9958,-105.7198"/>
<text text-anchor="middle" x="241" y="-119.8" font-family="Times,serif" font-size="14.00" fill="#000000">blk:ε/0</text>
</g>
<!-- 2&#45;&gt;3 -->
<g id="edge7" class="edge">
<title>2&#45;&gt;3</title>
<path fill="none" stroke="#000000" d="M258.0909,-74.2205C274.3463,-68.7235 299.0456,-60.371 317.8801,-54.0019"/>
<polygon fill="#000000" stroke="#000000" points="319.0319,-57.3072 327.3837,-50.7881 316.7894,-50.6761 319.0319,-57.3072"/>
<text text-anchor="middle" x="293" y="-70.8" font-family="Times,serif" font-size="14.00" fill="#000000">b:b/0</text>
</g>
<!-- 3&#45;&gt;3 -->
<g id="edge9" class="edge">
<title>3&#45;&gt;3</title>
<path fill="none" stroke="#000000" d="M335.8666,-60.916C333.6144,-71.1504 336.4922,-81 344.5,-81 349.7551,-81 352.8009,-76.7581 353.6375,-70.9494"/>
<polygon fill="#000000" stroke="#000000" points="357.1308,-70.7278 353.1334,-60.916 350.1396,-71.0791 357.1308,-70.7278"/>
<text text-anchor="middle" x="344.5" y="-84.8" font-family="Times,serif" font-size="14.00" fill="#000000">b:ε/0</text>
</g>
<!-- 4 -->
<g id="node5" class="node">
<title>4</title>
<ellipse fill="none" stroke="#000000" stroke-width="2" cx="459.5" cy="-45" rx="18" ry="18"/>
<text text-anchor="middle" x="459.5" y="-41.3" font-family="Times,serif" font-size="14.00" fill="#000000">4</text>
</g>
<!-- 3&#45;&gt;4 -->
<g id="edge8" class="edge">
<title>3&#45;&gt;4</title>
<path fill="none" stroke="#000000" d="M362.7221,-45C381.1433,-45 409.8671,-45 431.2431,-45"/>
<polygon fill="#000000" stroke="#000000" points="431.3632,-48.5001 441.3632,-45 431.3631,-41.5001 431.3632,-48.5001"/>
<text text-anchor="middle" x="402" y="-48.8" font-family="Times,serif" font-size="14.00" fill="#000000">blk:ε/0</text>
</g>
<!-- 4&#45;&gt;4 -->
<g id="edge10" class="edge">
<title>4&#45;&gt;4</title>
<path fill="none" stroke="#000000" d="M450.8666,-60.916C448.6144,-71.1504 451.4922,-81 459.5,-81 464.7551,-81 467.8009,-76.7581 468.6375,-70.9494"/>
<polygon fill="#000000" stroke="#000000" points="472.1308,-70.7278 468.1334,-60.916 465.1396,-71.0791 472.1308,-70.7278"/>
<text text-anchor="middle" x="459.5" y="-84.8" font-family="Times,serif" font-size="14.00" fill="#000000">blk:ε/0</text>
</g>
<!-- 5 -->
<g id="node6" class="node">
<title>5</title>
<ellipse fill="none" stroke="#000000" stroke-width="2" cx="562.5" cy="-45" rx="18" ry="18"/>
<text text-anchor="middle" x="562.5" y="-41.3" font-family="Times,serif" font-size="14.00" fill="#000000">5</text>
</g>
<!-- 4&#45;&gt;5 -->
<g id="edge11" class="edge">
<title>4&#45;&gt;5</title>
<path fill="none" stroke="#000000" d="M477.9143,-45C493.5132,-45 516.135,-45 534.0599,-45"/>
<polygon fill="#000000" stroke="#000000" points="534.2451,-48.5001 544.2451,-45 534.2451,-41.5001 534.2451,-48.5001"/>
<text text-anchor="middle" x="511" y="-48.8" font-family="Times,serif" font-size="14.00" fill="#000000">b:b/0</text>
</g>
<!-- 5&#45;&gt;5 -->
<g id="edge13" class="edge">
<title>5&#45;&gt;5</title>
<path fill="none" stroke="#000000" d="M553.8666,-60.916C551.6144,-71.1504 554.4922,-81 562.5,-81 567.7551,-81 570.8009,-76.7581 571.6375,-70.9494"/>
<polygon fill="#000000" stroke="#000000" points="575.1308,-70.7278 571.1334,-60.916 568.1396,-71.0791 575.1308,-70.7278"/>
<text text-anchor="middle" x="562.5" y="-84.8" font-family="Times,serif" font-size="14.00" fill="#000000">b:ε/0</text>
</g>
<!-- 6 -->
<g id="node7" class="node">
<title>6</title>
<ellipse fill="none" stroke="#000000" stroke-width="2" cx="677.5" cy="-80" rx="18" ry="18"/>
<text text-anchor="middle" x="677.5" y="-76.3" font-family="Times,serif" font-size="14.00" fill="#000000">6</text>
</g>
<!-- 5&#45;&gt;6 -->
<g id="edge12" class="edge">
<title>5&#45;&gt;6</title>
<path fill="none" stroke="#000000" d="M579.966,-50.3157C598.7342,-56.0278 628.7991,-65.178 650.5923,-71.8107"/>
<polygon fill="#000000" stroke="#000000" points="649.6606,-75.1856 660.2464,-74.7489 651.6988,-68.4889 649.6606,-75.1856"/>
<text text-anchor="middle" x="620" y="-72.8" font-family="Times,serif" font-size="14.00" fill="#000000">blk:ε/0</text>
</g>
<!-- 7 -->
<g id="node8" class="node">
<title>7</title>
<ellipse fill="none" stroke="#000000" stroke-width="2" cx="778.5" cy="-45" rx="18" ry="18"/>
<text text-anchor="middle" x="778.5" y="-41.3" font-family="Times,serif" font-size="14.00" fill="#000000">7</text>
</g>
<!-- 5&#45;&gt;7 -->
<g id="edge14" class="edge">
<title>5&#45;&gt;7</title>
<path fill="none" stroke="#000000" d="M580.5646,-42.9644C606.1417,-40.3294 654.3788,-36.269 695.5,-38 713.6956,-38.7659 734.0754,-40.4723 750.087,-42.0085"/>
<polygon fill="#000000" stroke="#000000" points="750.0968,-45.5266 760.3936,-43.0312 750.7881,-38.5608 750.0968,-45.5266"/>
<text text-anchor="middle" x="677.5" y="-41.8" font-family="Times,serif" font-size="14.00" fill="#000000">c:c/0</text>
</g>
<!-- 6&#45;&gt;6 -->
<g id="edge15" class="edge">
<title>6&#45;&gt;6</title>
<path fill="none" stroke="#000000" d="M668.8666,-95.916C666.6144,-106.1504 669.4922,-116 677.5,-116 682.7551,-116 685.8009,-111.7581 686.6375,-105.9494"/>
<polygon fill="#000000" stroke="#000000" points="690.1308,-105.7278 686.1334,-95.916 683.1396,-106.0791 690.1308,-105.7278"/>
<text text-anchor="middle" x="677.5" y="-119.8" font-family="Times,serif" font-size="14.00" fill="#000000">blk:ε/0</text>
</g>
<!-- 6&#45;&gt;7 -->
<g id="edge16" class="edge">
<title>6&#45;&gt;7</title>
<path fill="none" stroke="#000000" d="M694.6333,-74.0627C710.2314,-68.6574 733.5168,-60.5883 751.5966,-54.323"/>
<polygon fill="#000000" stroke="#000000" points="752.98,-57.5478 761.2827,-50.9664 750.6879,-50.9337 752.98,-57.5478"/>
<text text-anchor="middle" x="728" y="-70.8" font-family="Times,serif" font-size="14.00" fill="#000000">c:c/0</text>
</g>
<!-- 7&#45;&gt;7 -->
<g id="edge18" class="edge">
<title>7&#45;&gt;7</title>
<path fill="none" stroke="#000000" d="M769.8666,-60.916C767.6144,-71.1504 770.4922,-81 778.5,-81 783.7551,-81 786.8009,-76.7581 787.6375,-70.9494"/>
<polygon fill="#000000" stroke="#000000" points="791.1308,-70.7278 787.1334,-60.916 784.1396,-71.0791 791.1308,-70.7278"/>
<text text-anchor="middle" x="778.5" y="-84.8" font-family="Times,serif" font-size="14.00" fill="#000000">c:ε/0</text>
</g>
<!-- 8 -->
<g id="node9" class="node">
<title>8</title>
<ellipse fill="none" stroke="#000000" stroke-width="2" cx="898.5" cy="-80" rx="18" ry="18"/>
<text text-anchor="middle" x="898.5" y="-76.3" font-family="Times,serif" font-size="14.00" fill="#000000">8</text>
</g>
<!-- 7&#45;&gt;8 -->
<g id="edge17" class="edge">
<title>7&#45;&gt;8</title>
<path fill="none" stroke="#000000" d="M795.949,-50.0893C815.6786,-55.8437 848.0547,-65.2868 871.1503,-72.023"/>
<polygon fill="#000000" stroke="#000000" points="870.4499,-75.4645 881.0299,-74.9046 872.4099,-68.7445 870.4499,-75.4645"/>
<text text-anchor="middle" x="836" y="-71.8" font-family="Times,serif" font-size="14.00" fill="#000000">blk:ε/0</text>
</g>
<!-- 9 -->
<g id="node10" class="node">
<title>9</title>
<ellipse fill="none" stroke="#000000" stroke-width="2" cx="1019.5" cy="-45" rx="18" ry="18"/>
<ellipse fill="none" stroke="#000000" stroke-width="2" cx="1019.5" cy="-45" rx="22" ry="22"/>
<text text-anchor="middle" x="1019.5" y="-41.3" font-family="Times,serif" font-size="14.00" fill="#000000">9</text>
</g>
<!-- 7&#45;&gt;9 -->
<g id="edge19" class="edge">
<title>7&#45;&gt;9</title>
<path fill="none" stroke="#000000" d="M796.7141,-43.2922C816.1924,-41.558 847.9968,-38.9911 875.5,-38 895.9312,-37.2637 901.0685,-37.2712 921.5,-38 943.5058,-38.7849 968.2383,-40.5583 987.3516,-42.1235"/>
<polygon fill="#000000" stroke="#000000" points="987.0806,-45.613 997.3389,-42.9641 987.6677,-38.6377 987.0806,-45.613"/>
<text text-anchor="middle" x="898.5" y="-41.8" font-family="Times,serif" font-size="14.00" fill="#000000">&#45;1:&#45;1/0</text>
</g>
<!-- 8&#45;&gt;8 -->
<g id="edge20" class="edge">
<title>8&#45;&gt;8</title>
<path fill="none" stroke="#000000" d="M888.3486,-95.1666C885.2725,-105.6641 888.6563,-116 898.5,-116 904.96,-116 908.6378,-111.5487 909.5337,-105.5216"/>
<polygon fill="#000000" stroke="#000000" points="912.9878,-104.8334 908.6514,-95.1666 906.0131,-105.4277 912.9878,-104.8334"/>
<text text-anchor="middle" x="898.5" y="-119.8" font-family="Times,serif" font-size="14.00" fill="#000000">blk:ε/0</text>
</g>
<!-- 8&#45;&gt;9 -->
<g id="edge21" class="edge">
<title>8&#45;&gt;9</title>
<path fill="none" stroke="#000000" d="M915.8363,-74.9854C934.7349,-69.5188 965.3582,-60.6609 988.4311,-53.9869"/>
<polygon fill="#000000" stroke="#000000" points="989.4821,-57.3264 998.1158,-51.1855 987.537,-50.6021 989.4821,-57.3264"/>
<text text-anchor="middle" x="959.5" y="-71.8" font-family="Times,serif" font-size="14.00" fill="#000000">&#45;1:&#45;1/0</text>
</g>
</g>
</svg>
