<?xml version="1.0" encoding="UTF-8" standalone="no"?>
<!DOCTYPE svg PUBLIC "-//W3C//DTD SVG 1.1//EN"
 "http://www.w3.org/Graphics/SVG/1.1/DTD/svg11.dtd">
<!-- Generated by graphviz version 2.43.0 (0)
 -->
<!-- Title: WFST Pages: 1 -->
<svg width="187pt" height="336pt"
 viewBox="0.00 0.00 187.00 336.00" xmlns="http://www.w3.org/2000/svg" xmlns:xlink="http://www.w3.org/1999/xlink">
<g id="graph0" class="graph" transform="scale(1 1) rotate(0) translate(4 332)">
<title>WFST</title>
<polygon fill="white" stroke="transparent" points="-4,4 -4,-332 183,-332 183,4 -4,4"/>
<text text-anchor="middle" x="89.5" y="-7.8" font-family="Times,serif" font-size="14.00">Modified CTC topology</text>
<!-- 0 -->
<g id="node1" class="node">
<title>0</title>
<ellipse fill="none" stroke="black" stroke-width="2" cx="32.5" cy="-163" rx="18" ry="18"/>
<text text-anchor="middle" x="32.5" y="-159.3" font-family="Times,serif" font-size="14.00">0</text>
</g>
<!-- 0&#45;&gt;0 -->
<g id="edge1" class="edge">
<title>0&#45;&gt;0</title>
<path fill="none" stroke="black" d="M29.97,-181.15C29.58,-190.54 30.42,-199 32.5,-199 33.77,-199 34.57,-195.86 34.92,-191.28"/>
<polygon fill="black" stroke="black" points="38.43,-191.19 35.03,-181.15 31.43,-191.11 38.43,-191.19"/>
<text text-anchor="middle" x="32.5" y="-202.8" font-family="Times,serif" font-size="14.00">blk:ε/0</text>
</g>
<!-- 0&#45;&gt;0 -->
<g id="edge2" class="edge">
<title>0&#45;&gt;0</title>
<path fill="none" stroke="black" d="M28.33,-180.7C26.02,-198 27.41,-217 32.5,-217 36.59,-217 38.29,-204.69 37.6,-190.87"/>
<polygon fill="black" stroke="black" points="41.07,-190.34 36.67,-180.7 34.09,-190.98 41.07,-190.34"/>
<text text-anchor="middle" x="32.5" y="-220.8" font-family="Times,serif" font-size="14.00">a:a/0</text>
</g>
<!-- 0&#45;&gt;0 -->
<g id="edge3" class="edge">
<title>0&#45;&gt;0</title>
<path fill="none" stroke="black" d="M27.33,-180.35C22.45,-204.82 24.17,-235 32.5,-235 39.72,-235 41.98,-212.3 39.27,-190.32"/>
<polygon fill="black" stroke="black" points="42.71,-189.67 37.67,-180.35 35.8,-190.78 42.71,-189.67"/>
<text text-anchor="middle" x="32.5" y="-238.8" font-family="Times,serif" font-size="14.00">b:b/0</text>
</g>
<!-- 0&#45;&gt;0 -->
<g id="edge4" class="edge">
<title>0&#45;&gt;0</title>
<path fill="none" stroke="black" d="M26.63,-180.23C18.89,-211.46 20.85,-253 32.5,-253 42.92,-253 45.58,-219.76 40.49,-190.4"/>
<polygon fill="black" stroke="black" points="43.84,-189.3 38.37,-180.23 36.99,-190.73 43.84,-189.3"/>
<text text-anchor="middle" x="32.5" y="-256.8" font-family="Times,serif" font-size="14.00">c:c/0</text>
</g>
<!-- 1 -->
<g id="node2" class="node">
<title>1</title>
<ellipse fill="none" stroke="black" stroke-width="2" cx="148.5" cy="-277" rx="18" ry="18"/>
<text text-anchor="middle" x="148.5" y="-273.3" font-family="Times,serif" font-size="14.00">1</text>
</g>
<!-- 0&#45;&gt;1 -->
<g id="edge5" class="edge">
<title>0&#45;&gt;1</title>
<path fill="none" stroke="black" d="M34.82,-180.91C37.33,-201.68 44.57,-235.54 65.5,-255 80.16,-268.63 102.34,-273.99 119.94,-276.02"/>
<polygon fill="black" stroke="black" points="119.94,-279.53 130.2,-276.9 120.53,-272.56 119.94,-279.53"/>
<text text-anchor="middle" x="88.5" y="-277.8" font-family="Times,serif" font-size="14.00">a:a/0</text>
</g>
<!-- 2 -->
<g id="node3" class="node">
<title>2</title>
<ellipse fill="none" stroke="black" stroke-width="2" cx="148.5" cy="-190" rx="18" ry="18"/>
<text text-anchor="middle" x="148.5" y="-186.3" font-family="Times,serif" font-size="14.00">2</text>
</g>
<!-- 0&#45;&gt;2 -->
<g id="edge6" class="edge">
<title>0&#45;&gt;2</title>
<path fill="none" stroke="black" d="M48.37,-171.72C53.63,-174.45 59.68,-177.21 65.5,-179 83.24,-184.46 103.95,-187.21 120.13,-188.59"/>
<polygon fill="black" stroke="black" points="120.28,-192.11 130.5,-189.35 120.79,-185.13 120.28,-192.11"/>
<text text-anchor="middle" x="88.5" y="-190.8" font-family="Times,serif" font-size="14.00">b:b/0</text>
</g>
<!-- 3 -->
<g id="node4" class="node">
<title>3</title>
<ellipse fill="none" stroke="black" stroke-width="2" cx="148.5" cy="-103" rx="18" ry="18"/>
<text text-anchor="middle" x="148.5" y="-99.3" font-family="Times,serif" font-size="14.00">3</text>
</g>
<!-- 0&#45;&gt;3 -->
<g id="edge7" class="edge">
<title>0&#45;&gt;3</title>
<path fill="none" stroke="black" d="M46.17,-150.69C51.78,-145.69 58.65,-140.12 65.5,-136 83.14,-125.38 104.81,-116.83 121.44,-111.1"/>
<polygon fill="black" stroke="black" points="122.68,-114.37 131.07,-107.9 120.47,-107.73 122.68,-114.37"/>
<text text-anchor="middle" x="88.5" y="-139.8" font-family="Times,serif" font-size="14.00">c:c/0</text>
</g>
<!-- 4 -->
<g id="node5" class="node">
<title>4</title>
<ellipse fill="none" stroke="black" stroke-width="2" cx="148.5" cy="-45" rx="18" ry="18"/>
<ellipse fill="none" stroke="black" stroke-width="2" cx="148.5" cy="-45" rx="22" ry="22"/>
<text text-anchor="middle" x="148.5" y="-41.3" font-family="Times,serif" font-size="14.00">4</text>
</g>
<!-- 0&#45;&gt;4 -->
<g id="edge8" class="edge">
<title>0&#45;&gt;4</title>
<path fill="none" stroke="black" d="M34.64,-144.94C36.98,-123.58 44.05,-88.38 65.5,-68 79.08,-55.1 99.31,-49.33 116.27,-46.8"/>
<polygon fill="black" stroke="black" points="116.81,-50.26 126.32,-45.61 115.98,-43.31 116.81,-50.26"/>
<text text-anchor="middle" x="88.5" y="-71.8" font-family="Times,serif" font-size="14.00">&#45;1:&#45;1/0</text>
</g>
<!-- 1&#45;&gt;0 -->
<g id="edge10" class="edge">
<title>1&#45;&gt;0</title>
<path fill="none" stroke="black" d="M136.68,-262.84C129.94,-254.51 120.81,-244.06 111.5,-236 93.05,-220.01 83.28,-222.72 65.5,-206 59.3,-200.17 53.45,-193.03 48.49,-186.24"/>
<polygon fill="black" stroke="black" points="51.31,-184.17 42.72,-177.97 45.57,-188.18 51.31,-184.17"/>
<text text-anchor="middle" x="88.5" y="-239.8" font-family="Times,serif" font-size="14.00">a:ε/0</text>
</g>
<!-- 1&#45;&gt;1 -->
<g id="edge9" class="edge">
<title>1&#45;&gt;1</title>
<path fill="none" stroke="black" d="M138.35,-292.17C135.27,-302.66 138.66,-313 148.5,-313 154.96,-313 158.64,-308.55 159.53,-302.52"/>
<polygon fill="black" stroke="black" points="162.99,-301.83 158.65,-292.17 156.01,-302.43 162.99,-301.83"/>
<text text-anchor="middle" x="148.5" y="-316.8" font-family="Times,serif" font-size="14.00">a:ε/0</text>
</g>
<!-- 2&#45;&gt;0 -->
<g id="edge12" class="edge">
<title>2&#45;&gt;0</title>
<path fill="none" stroke="black" d="M135.91,-176.72C129.45,-170.35 120.83,-163.38 111.5,-160 95.14,-154.08 75.58,-154.85 60.13,-157.09"/>
<polygon fill="black" stroke="black" points="59.44,-153.66 50.19,-158.81 60.64,-160.55 59.44,-153.66"/>
<text text-anchor="middle" x="88.5" y="-163.8" font-family="Times,serif" font-size="14.00">b:ε/0</text>
</g>
<!-- 2&#45;&gt;2 -->
<g id="edge11" class="edge">
<title>2&#45;&gt;2</title>
<path fill="none" stroke="black" d="M138.35,-205.17C135.27,-215.66 138.66,-226 148.5,-226 154.96,-226 158.64,-221.55 159.53,-215.52"/>
<polygon fill="black" stroke="black" points="162.99,-214.83 158.65,-205.17 156.01,-215.43 162.99,-214.83"/>
<text text-anchor="middle" x="148.5" y="-229.8" font-family="Times,serif" font-size="14.00">b:ε/0</text>
</g>
<!-- 3&#45;&gt;0 -->
<g id="edge14" class="edge">
<title>3&#45;&gt;0</title>
<path fill="none" stroke="black" d="M131.65,-96.01C114.07,-89.42 85.55,-82.28 65.5,-95 51.45,-103.92 43.45,-120.83 38.97,-135.56"/>
<polygon fill="black" stroke="black" points="35.57,-134.72 36.4,-145.28 42.34,-136.51 35.57,-134.72"/>
<text text-anchor="middle" x="88.5" y="-98.8" font-family="Times,serif" font-size="14.00">c:ε/0</text>
</g>
<!-- 3&#45;&gt;3 -->
<g id="edge13" class="edge">
<title>3&#45;&gt;3</title>
<path fill="none" stroke="black" d="M138.35,-118.17C135.27,-128.66 138.66,-139 148.5,-139 154.96,-139 158.64,-134.55 159.53,-128.52"/>
<polygon fill="black" stroke="black" points="162.99,-127.83 158.65,-118.17 156.01,-128.43 162.99,-127.83"/>
<text text-anchor="middle" x="148.5" y="-142.8" font-family="Times,serif" font-size="14.00">c:ε/0</text>
</g>
</g>
</svg>
