<?xml version="1.0" encoding="UTF-8" standalone="no"?>
<!DOCTYPE svg PUBLIC "-//W3C//DTD SVG 1.1//EN"
 "http://www.w3.org/Graphics/SVG/1.1/DTD/svg11.dtd">
<!-- Generated by graphviz version 2.40.1 (20161225.0304)
 -->
<!-- Title: WFST Pages: 1 -->
<svg width="190pt" height="336pt"
 viewBox="0.00 0.00 190.00 336.00" xmlns="http://www.w3.org/2000/svg" xmlns:xlink="http://www.w3.org/1999/xlink">
<g id="graph0" class="graph" transform="scale(1 1) rotate(0) translate(4 332)">
<title>WFST</title>
<polygon fill="#ffffff" stroke="transparent" points="-4,4 -4,-332 186,-332 186,4 -4,4"/>
<text text-anchor="middle" x="91" y="-7.8" font-family="Times,serif" font-size="14.00" fill="#000000">Modified CTC topology</text>
<!-- 0 -->
<g id="node1" class="node">
<title>0</title>
<ellipse fill="none" stroke="#000000" stroke-width="2" cx="34.25" cy="-163" rx="18" ry="18"/>
<text text-anchor="middle" x="34.25" y="-159.3" font-family="Times,serif" font-size="14.00" fill="#000000">0</text>
</g>
<!-- 0&#45;&gt;0 -->
<g id="edge1" class="edge">
<title>0&#45;&gt;0</title>
<path fill="none" stroke="#000000" d="M31.7173,-181.1527C31.3276,-190.5391 32.1719,-199 34.25,-199 35.5164,-199 36.3245,-195.8581 36.6745,-191.2796"/>
<polygon fill="#000000" stroke="#000000" points="40.1756,-191.1896 36.7827,-181.1527 33.176,-191.1147 40.1756,-191.1896"/>
<text text-anchor="middle" x="34.25" y="-202.8" font-family="Times,serif" font-size="14.00" fill="#000000">blk:ε/0</text>
</g>
<!-- 0&#45;&gt;0 -->
<g id="edge2" class="edge">
<title>0&#45;&gt;0</title>
<path fill="none" stroke="#000000" d="M30.0779,-180.6991C27.7734,-197.9958 29.1641,-217 34.25,-217 38.3426,-217 40.0424,-204.6944 39.3495,-190.875"/>
<polygon fill="#000000" stroke="#000000" points="42.8154,-190.3401 38.4221,-180.6991 35.8442,-190.9755 42.8154,-190.3401"/>
<text text-anchor="middle" x="34.25" y="-220.8" font-family="Times,serif" font-size="14.00" fill="#000000">a:a/0</text>
</g>
<!-- 0&#45;&gt;0 -->
<g id="edge3" class="edge">
<title>0&#45;&gt;0</title>
<path fill="none" stroke="#000000" d="M29.0787,-180.3534C24.2001,-204.8176 25.9238,-235 34.25,-235 41.4704,-235 43.7256,-212.3024 41.0158,-190.3194"/>
<polygon fill="#000000" stroke="#000000" points="44.4573,-189.6749 39.4213,-180.3534 37.5452,-190.7808 44.4573,-189.6749"/>
<text text-anchor="middle" x="34.25" y="-238.8" font-family="Times,serif" font-size="14.00" fill="#000000">b:b/0</text>
</g>
<!-- 0&#45;&gt;0 -->
<g id="edge4" class="edge">
<title>0&#45;&gt;0</title>
<path fill="none" stroke="#000000" d="M28.3803,-180.2299C20.645,-211.4634 22.6016,-253 34.25,-253 44.6699,-253 47.3345,-219.763 42.2438,-190.3954"/>
<polygon fill="#000000" stroke="#000000" points="45.5911,-189.3026 40.1197,-180.2299 38.7391,-190.7344 45.5911,-189.3026"/>
<text text-anchor="middle" x="34.25" y="-256.8" font-family="Times,serif" font-size="14.00" fill="#000000">c:c/0</text>
</g>
<!-- 1 -->
<g id="node2" class="node">
<title>1</title>
<ellipse fill="none" stroke="#000000" stroke-width="2" cx="150.25" cy="-277" rx="18" ry="18"/>
<text text-anchor="middle" x="150.25" y="-273.3" font-family="Times,serif" font-size="14.00" fill="#000000">1</text>
</g>
<!-- 0&#45;&gt;1 -->
<g id="edge5" class="edge">
<title>0&#45;&gt;1</title>
<path fill="none" stroke="#000000" d="M35.8235,-181.3048C38.6014,-202.1239 46.2511,-235.72 67.25,-255 81.9816,-268.5257 104.067,-273.9169 121.7531,-275.9849"/>
<polygon fill="#000000" stroke="#000000" points="121.8254,-279.5044 132.0916,-276.8861 122.4333,-272.5308 121.8254,-279.5044"/>
<text text-anchor="middle" x="90.25" y="-277.8" font-family="Times,serif" font-size="14.00" fill="#000000">a:a/0</text>
</g>
<!-- 2 -->
<g id="node3" class="node">
<title>2</title>
<ellipse fill="none" stroke="#000000" stroke-width="2" cx="150.25" cy="-190" rx="18" ry="18"/>
<text text-anchor="middle" x="150.25" y="-186.3" font-family="Times,serif" font-size="14.00" fill="#000000">2</text>
</g>
<!-- 0&#45;&gt;2 -->
<g id="edge6" class="edge">
<title>0&#45;&gt;2</title>
<path fill="none" stroke="#000000" d="M49.9481,-171.8782C55.2915,-174.5534 61.3957,-177.2427 67.25,-179 85.0659,-184.3477 105.8101,-187.0977 122.1032,-188.5107"/>
<polygon fill="#000000" stroke="#000000" points="121.858,-192.0021 132.0919,-189.2601 122.3818,-185.0217 121.858,-192.0021"/>
<text text-anchor="middle" x="90.25" y="-190.8" font-family="Times,serif" font-size="14.00" fill="#000000">b:b/0</text>
</g>
<!-- 3 -->
<g id="node4" class="node">
<title>3</title>
<ellipse fill="none" stroke="#000000" stroke-width="2" cx="150.25" cy="-103" rx="18" ry="18"/>
<text text-anchor="middle" x="150.25" y="-99.3" font-family="Times,serif" font-size="14.00" fill="#000000">3</text>
</g>
<!-- 0&#45;&gt;3 -->
<g id="edge7" class="edge">
<title>0&#45;&gt;3</title>
<path fill="none" stroke="#000000" d="M47.6778,-150.4285C53.4108,-145.495 60.3606,-140.0559 67.25,-136 84.8455,-125.6413 106.2983,-117.2084 122.9856,-111.4605"/>
<polygon fill="#000000" stroke="#000000" points="124.2984,-114.7125 132.6829,-108.2355 122.0893,-108.0702 124.2984,-114.7125"/>
<text text-anchor="middle" x="90.25" y="-139.8" font-family="Times,serif" font-size="14.00" fill="#000000">c:c/0</text>
</g>
<!-- 4 -->
<g id="node5" class="node">
<title>4</title>
<ellipse fill="none" stroke="#000000" stroke-width="2" cx="150.25" cy="-45" rx="18" ry="18"/>
<ellipse fill="none" stroke="#000000" stroke-width="2" cx="150.25" cy="-45" rx="22" ry="22"/>
<text text-anchor="middle" x="150.25" y="-41.3" font-family="Times,serif" font-size="14.00" fill="#000000">4</text>
</g>
<!-- 0&#45;&gt;4 -->
<g id="edge8" class="edge">
<title>0&#45;&gt;4</title>
<path fill="none" stroke="#000000" d="M35.7339,-144.7672C38.4313,-123.6143 46.0093,-89.0805 67.25,-69 80.8803,-56.1142 100.9984,-50.0906 118.0139,-47.2998"/>
<polygon fill="#000000" stroke="#000000" points="118.6744,-50.7427 128.1219,-45.9475 117.746,-43.8045 118.6744,-50.7427"/>
<text text-anchor="middle" x="90.25" y="-72.8" font-family="Times,serif" font-size="14.00" fill="#000000">&#45;1:&#45;1/0</text>
</g>
<!-- 1&#45;&gt;0 -->
<g id="edge10" class="edge">
<title>1&#45;&gt;0</title>
<path fill="none" stroke="#000000" d="M139.0692,-262.8662C132.1179,-254.5451 122.7247,-244.0989 113.25,-236 94.6965,-220.1406 85.1579,-222.585 67.25,-206 61.0362,-200.2452 55.1128,-193.2222 50.0436,-186.5338"/>
<polygon fill="#000000" stroke="#000000" points="52.8238,-184.4055 44.122,-178.3616 47.1554,-188.5129 52.8238,-184.4055"/>
<text text-anchor="middle" x="90.25" y="-239.8" font-family="Times,serif" font-size="14.00" fill="#000000">a:ε/0</text>
</g>
<!-- 1&#45;&gt;1 -->
<g id="edge9" class="edge">
<title>1&#45;&gt;1</title>
<path fill="none" stroke="#000000" d="M140.0986,-292.1666C137.0225,-302.6641 140.4063,-313 150.25,-313 156.71,-313 160.3878,-308.5487 161.2837,-302.5216"/>
<polygon fill="#000000" stroke="#000000" points="164.7378,-301.8334 160.4014,-292.1666 157.7631,-302.4277 164.7378,-301.8334"/>
<text text-anchor="middle" x="150.25" y="-316.8" font-family="Times,serif" font-size="14.00" fill="#000000">a:ε/0</text>
</g>
<!-- 2&#45;&gt;0 -->
<g id="edge12" class="edge">
<title>2&#45;&gt;0</title>
<path fill="none" stroke="#000000" d="M137.9373,-176.4028C131.318,-170.1145 122.6035,-163.3155 113.25,-160 96.853,-154.1878 77.3267,-154.8665 61.7895,-157.0333"/>
<polygon fill="#000000" stroke="#000000" points="61.044,-153.6093 51.7577,-158.7097 62.1978,-160.5135 61.044,-153.6093"/>
<text text-anchor="middle" x="90.25" y="-163.8" font-family="Times,serif" font-size="14.00" fill="#000000">b:ε/0</text>
</g>
<!-- 2&#45;&gt;2 -->
<g id="edge11" class="edge">
<title>2&#45;&gt;2</title>
<path fill="none" stroke="#000000" d="M140.0986,-205.1666C137.0225,-215.6641 140.4063,-226 150.25,-226 156.71,-226 160.3878,-221.5487 161.2837,-215.5216"/>
<polygon fill="#000000" stroke="#000000" points="164.7378,-214.8334 160.4014,-205.1666 157.7631,-215.4277 164.7378,-214.8334"/>
<text text-anchor="middle" x="150.25" y="-229.8" font-family="Times,serif" font-size="14.00" fill="#000000">b:ε/0</text>
</g>
<!-- 3&#45;&gt;0 -->
<g id="edge14" class="edge">
<title>3&#45;&gt;0</title>
<path fill="none" stroke="#000000" d="M133.5981,-96.0834C115.7863,-89.8679 87.3865,-83.4715 67.25,-96 53.4298,-104.5986 45.2284,-120.8746 40.4585,-135.2311"/>
<polygon fill="#000000" stroke="#000000" points="36.9888,-134.629 37.5604,-145.2084 43.7109,-136.5816 36.9888,-134.629"/>
<text text-anchor="middle" x="90.25" y="-99.8" font-family="Times,serif" font-size="14.00" fill="#000000">c:ε/0</text>
</g>
<!-- 3&#45;&gt;3 -->
<g id="edge13" class="edge">
<title>3&#45;&gt;3</title>
<path fill="none" stroke="#000000" d="M140.0986,-118.1666C137.0225,-128.6641 140.4063,-139 150.25,-139 156.71,-139 160.3878,-134.5487 161.2837,-128.5216"/>
<polygon fill="#000000" stroke="#000000" points="164.7378,-127.8334 160.4014,-118.1666 157.7631,-128.4277 164.7378,-127.8334"/>
<text text-anchor="middle" x="150.25" y="-142.8" font-family="Times,serif" font-size="14.00" fill="#000000">c:ε/0</text>
</g>
</g>
</svg>
