<?xml version="1.0" encoding="UTF-8" standalone="no"?>
<!DOCTYPE svg PUBLIC "-//W3C//DTD SVG 1.1//EN"
 "http://www.w3.org/Graphics/SVG/1.1/DTD/svg11.dtd">
<!-- Generated by graphviz version 2.43.0 (0)
 -->
<!-- Title: WFST Pages: 1 -->
<svg width="612pt" height="90pt"
 viewBox="0.00 0.00 612.00 89.83" xmlns="http://www.w3.org/2000/svg" xmlns:xlink="http://www.w3.org/1999/xlink">
<g id="graph0" class="graph" transform="scale(1.6 1.6) rotate(0) translate(4 140)">
<title>WFST</title>
<polygon fill="white" stroke="transparent" points="-4,4 -4,-140 977,-140 977,4 -4,4"/>
<text text-anchor="middle" x="486.5" y="-7.8" font-family="Times,serif" font-size="14.00">k2.compose(ctc_topo_modified, linear_fsa)</text>
<!-- 0 -->
<g id="node1" class="node">
<title>0</title>
<ellipse fill="none" stroke="black" stroke-width="2" cx="24" cy="-85" rx="18" ry="18"/>
<text text-anchor="middle" x="24" y="-81.3" font-family="Times,serif" font-size="14.00">0</text>
</g>
<!-- 0&#45;&gt;0 -->
<g id="edge1" class="edge">
<title>0&#45;&gt;0</title>
<path fill="none" stroke="black" d="M15.37,-100.92C13.11,-111.15 15.99,-121 24,-121 29.26,-121 32.3,-116.76 33.14,-110.95"/>
<polygon fill="black" stroke="black" points="36.63,-110.73 32.63,-100.92 29.64,-111.08 36.63,-110.73"/>
<text text-anchor="middle" x="24" y="-124.8" font-family="Times,serif" font-size="14.00">blk:ε/0</text>
</g>
<!-- 1 -->
<g id="node2" class="node">
<title>1</title>
<ellipse fill="none" stroke="black" stroke-width="2" cx="225" cy="-85" rx="18" ry="18"/>
<text text-anchor="middle" x="225" y="-81.3" font-family="Times,serif" font-size="14.00">1</text>
</g>
<!-- 0&#45;&gt;1 -->
<g id="edge2" class="edge">
<title>0&#45;&gt;1</title>
<path fill="none" stroke="black" d="M41.76,-89.75C64.59,-95.65 106.79,-104.54 143,-101 161.31,-99.21 181.63,-95.19 197.33,-91.63"/>
<polygon fill="black" stroke="black" points="198.45,-94.96 207.39,-89.27 196.85,-88.15 198.45,-94.96"/>
<text text-anchor="middle" x="125" y="-104.8" font-family="Times,serif" font-size="14.00">a:a/0</text>
</g>
<!-- 2 -->
<g id="node3" class="node">
<title>2</title>
<ellipse fill="none" stroke="black" stroke-width="2" cx="125" cy="-41" rx="18" ry="18"/>
<text text-anchor="middle" x="125" y="-37.3" font-family="Times,serif" font-size="14.00">2</text>
</g>
<!-- 0&#45;&gt;2 -->
<g id="edge3" class="edge">
<title>0&#45;&gt;2</title>
<path fill="none" stroke="black" d="M40.91,-77.93C56.57,-70.97 80.72,-60.24 98.96,-52.13"/>
<polygon fill="black" stroke="black" points="100.42,-55.31 108.13,-48.05 97.57,-48.91 100.42,-55.31"/>
<text text-anchor="middle" x="74.5" y="-73.8" font-family="Times,serif" font-size="14.00">a:a/0</text>
</g>
<!-- 1&#45;&gt;1 -->
<g id="edge4" class="edge">
<title>1&#45;&gt;1</title>
<path fill="none" stroke="black" d="M216.37,-100.92C214.11,-111.15 216.99,-121 225,-121 230.26,-121 233.3,-116.76 234.14,-110.95"/>
<polygon fill="black" stroke="black" points="237.63,-110.73 233.63,-100.92 230.64,-111.08 237.63,-110.73"/>
<text text-anchor="middle" x="225" y="-124.8" font-family="Times,serif" font-size="14.00">blk:ε/0</text>
</g>
<!-- 3 -->
<g id="node4" class="node">
<title>3</title>
<ellipse fill="none" stroke="black" stroke-width="2" cx="430" cy="-85" rx="18" ry="18"/>
<text text-anchor="middle" x="430" y="-81.3" font-family="Times,serif" font-size="14.00">3</text>
</g>
<!-- 1&#45;&gt;3 -->
<g id="edge5" class="edge">
<title>1&#45;&gt;3</title>
<path fill="none" stroke="black" d="M242.79,-89.66C266.12,-95.58 309.67,-104.61 347,-101 365.65,-99.2 386.36,-95.14 402.3,-91.56"/>
<polygon fill="black" stroke="black" points="403.54,-94.87 412.49,-89.19 401.96,-88.05 403.54,-94.87"/>
<text text-anchor="middle" x="328.5" y="-104.8" font-family="Times,serif" font-size="14.00">b:b/0</text>
</g>
<!-- 4 -->
<g id="node5" class="node">
<title>4</title>
<ellipse fill="none" stroke="black" stroke-width="2" cx="328.5" cy="-41" rx="18" ry="18"/>
<text text-anchor="middle" x="328.5" y="-37.3" font-family="Times,serif" font-size="14.00">4</text>
</g>
<!-- 1&#45;&gt;4 -->
<g id="edge6" class="edge">
<title>1&#45;&gt;4</title>
<path fill="none" stroke="black" d="M241.86,-78.12C258.1,-71.09 283.57,-60.04 302.52,-51.83"/>
<polygon fill="black" stroke="black" points="303.97,-55.02 311.75,-47.83 301.18,-48.59 303.97,-55.02"/>
<text text-anchor="middle" x="276.5" y="-73.8" font-family="Times,serif" font-size="14.00">b:b/0</text>
</g>
<!-- 2&#45;&gt;1 -->
<g id="edge7" class="edge">
<title>2&#45;&gt;1</title>
<path fill="none" stroke="black" d="M141.75,-48.07C157.18,-55 180.94,-65.67 198.96,-73.76"/>
<polygon fill="black" stroke="black" points="197.74,-77.05 208.29,-77.95 200.6,-70.66 197.74,-77.05"/>
<text text-anchor="middle" x="175" y="-72.8" font-family="Times,serif" font-size="14.00">a:ε/0</text>
</g>
<!-- 2&#45;&gt;2 -->
<g id="edge8" class="edge">
<title>2&#45;&gt;2</title>
<path fill="none" stroke="black" d="M116.37,-56.92C114.11,-67.15 116.99,-77 125,-77 130.26,-77 133.3,-72.76 134.14,-66.95"/>
<polygon fill="black" stroke="black" points="137.63,-66.73 133.63,-56.92 130.64,-67.08 137.63,-66.73"/>
<text text-anchor="middle" x="125" y="-80.8" font-family="Times,serif" font-size="14.00">a:ε/0</text>
</g>
<!-- 3&#45;&gt;3 -->
<g id="edge9" class="edge">
<title>3&#45;&gt;3</title>
<path fill="none" stroke="black" d="M421.37,-100.92C419.11,-111.15 421.99,-121 430,-121 435.26,-121 438.3,-116.76 439.14,-110.95"/>
<polygon fill="black" stroke="black" points="442.63,-110.73 438.63,-100.92 435.64,-111.08 442.63,-110.73"/>
<text text-anchor="middle" x="430" y="-124.8" font-family="Times,serif" font-size="14.00">blk:ε/0</text>
</g>
<!-- 5 -->
<g id="node6" class="node">
<title>5</title>
<ellipse fill="none" stroke="black" stroke-width="2" cx="635" cy="-85" rx="18" ry="18"/>
<text text-anchor="middle" x="635" y="-81.3" font-family="Times,serif" font-size="14.00">5</text>
</g>
<!-- 3&#45;&gt;5 -->
<g id="edge10" class="edge">
<title>3&#45;&gt;5</title>
<path fill="none" stroke="black" d="M447.79,-89.66C471.12,-95.58 514.67,-104.61 552,-101 570.65,-99.2 591.36,-95.14 607.3,-91.56"/>
<polygon fill="black" stroke="black" points="608.54,-94.87 617.49,-89.19 606.96,-88.05 608.54,-94.87"/>
<text text-anchor="middle" x="533.5" y="-104.8" font-family="Times,serif" font-size="14.00">b:b/0</text>
</g>
<!-- 6 -->
<g id="node7" class="node">
<title>6</title>
<ellipse fill="none" stroke="black" stroke-width="2" cx="533.5" cy="-41" rx="18" ry="18"/>
<text text-anchor="middle" x="533.5" y="-37.3" font-family="Times,serif" font-size="14.00">6</text>
</g>
<!-- 3&#45;&gt;6 -->
<g id="edge11" class="edge">
<title>3&#45;&gt;6</title>
<path fill="none" stroke="black" d="M446.86,-78.12C463.1,-71.09 488.57,-60.04 507.52,-51.83"/>
<polygon fill="black" stroke="black" points="508.97,-55.02 516.75,-47.83 506.18,-48.59 508.97,-55.02"/>
<text text-anchor="middle" x="481.5" y="-73.8" font-family="Times,serif" font-size="14.00">b:b/0</text>
</g>
<!-- 4&#45;&gt;3 -->
<g id="edge12" class="edge">
<title>4&#45;&gt;3</title>
<path fill="none" stroke="black" d="M345.49,-48.07C361.23,-55.03 385.5,-65.76 403.83,-73.87"/>
<polygon fill="black" stroke="black" points="402.49,-77.1 413.05,-77.95 405.32,-70.7 402.49,-77.1"/>
<text text-anchor="middle" x="379.5" y="-73.8" font-family="Times,serif" font-size="14.00">b:ε/0</text>
</g>
<!-- 4&#45;&gt;4 -->
<g id="edge13" class="edge">
<title>4&#45;&gt;4</title>
<path fill="none" stroke="black" d="M319.87,-56.92C317.61,-67.15 320.49,-77 328.5,-77 333.76,-77 336.8,-72.76 337.64,-66.95"/>
<polygon fill="black" stroke="black" points="341.13,-66.73 337.13,-56.92 334.14,-67.08 341.13,-66.73"/>
<text text-anchor="middle" x="328.5" y="-80.8" font-family="Times,serif" font-size="14.00">b:ε/0</text>
</g>
<!-- 5&#45;&gt;5 -->
<g id="edge14" class="edge">
<title>5&#45;&gt;5</title>
<path fill="none" stroke="black" d="M626.37,-100.92C624.11,-111.15 626.99,-121 635,-121 640.26,-121 643.3,-116.76 644.14,-110.95"/>
<polygon fill="black" stroke="black" points="647.63,-110.73 643.63,-100.92 640.64,-111.08 647.63,-110.73"/>
<text text-anchor="middle" x="635" y="-124.8" font-family="Times,serif" font-size="14.00">blk:ε/0</text>
</g>
<!-- 7 -->
<g id="node8" class="node">
<title>7</title>
<ellipse fill="none" stroke="black" stroke-width="2" cx="835" cy="-85" rx="18" ry="18"/>
<text text-anchor="middle" x="835" y="-81.3" font-family="Times,serif" font-size="14.00">7</text>
</g>
<!-- 5&#45;&gt;7 -->
<g id="edge15" class="edge">
<title>5&#45;&gt;7</title>
<path fill="none" stroke="black" d="M652.61,-89.27C668.89,-93.22 694.46,-98.8 717,-101 748.14,-104.05 783.74,-97.77 807.41,-92.21"/>
<polygon fill="black" stroke="black" points="808.52,-95.54 817.38,-89.74 806.84,-88.75 808.52,-95.54"/>
<text text-anchor="middle" x="735" y="-104.8" font-family="Times,serif" font-size="14.00">c:c/0</text>
</g>
<!-- 8 -->
<g id="node9" class="node">
<title>8</title>
<ellipse fill="none" stroke="black" stroke-width="2" cx="735" cy="-41" rx="18" ry="18"/>
<text text-anchor="middle" x="735" y="-37.3" font-family="Times,serif" font-size="14.00">8</text>
</g>
<!-- 5&#45;&gt;8 -->
<g id="edge16" class="edge">
<title>5&#45;&gt;8</title>
<path fill="none" stroke="black" d="M651.75,-77.93C667.18,-71 690.94,-60.33 708.96,-52.24"/>
<polygon fill="black" stroke="black" points="710.6,-55.34 718.29,-48.05 707.74,-48.95 710.6,-55.34"/>
<text text-anchor="middle" x="685" y="-72.8" font-family="Times,serif" font-size="14.00">c:c/0</text>
</g>
<!-- 6&#45;&gt;5 -->
<g id="edge17" class="edge">
<title>6&#45;&gt;5</title>
<path fill="none" stroke="black" d="M550.49,-48.07C566.23,-55.03 590.5,-65.76 608.83,-73.87"/>
<polygon fill="black" stroke="black" points="607.49,-77.1 618.05,-77.95 610.32,-70.7 607.49,-77.1"/>
<text text-anchor="middle" x="584.5" y="-73.8" font-family="Times,serif" font-size="14.00">b:ε/0</text>
</g>
<!-- 6&#45;&gt;6 -->
<g id="edge18" class="edge">
<title>6&#45;&gt;6</title>
<path fill="none" stroke="black" d="M524.87,-56.92C522.61,-67.15 525.49,-77 533.5,-77 538.76,-77 541.8,-72.76 542.64,-66.95"/>
<polygon fill="black" stroke="black" points="546.13,-66.73 542.13,-56.92 539.14,-67.08 546.13,-66.73"/>
<text text-anchor="middle" x="533.5" y="-80.8" font-family="Times,serif" font-size="14.00">b:ε/0</text>
</g>
<!-- 7&#45;&gt;7 -->
<g id="edge19" class="edge">
<title>7&#45;&gt;7</title>
<path fill="none" stroke="black" d="M826.37,-100.92C824.11,-111.15 826.99,-121 835,-121 840.26,-121 843.3,-116.76 844.14,-110.95"/>
<polygon fill="black" stroke="black" points="847.63,-110.73 843.63,-100.92 840.64,-111.08 847.63,-110.73"/>
<text text-anchor="middle" x="835" y="-124.8" font-family="Times,serif" font-size="14.00">blk:ε/0</text>
</g>
<!-- 9 -->
<g id="node10" class="node">
<title>9</title>
<ellipse fill="none" stroke="black" stroke-width="2" cx="951" cy="-85" rx="18" ry="18"/>
<ellipse fill="none" stroke="black" stroke-width="2" cx="951" cy="-85" rx="22" ry="22"/>
<text text-anchor="middle" x="951" y="-81.3" font-family="Times,serif" font-size="14.00">9</text>
</g>
<!-- 7&#45;&gt;9 -->
<g id="edge20" class="edge">
<title>7&#45;&gt;9</title>
<path fill="none" stroke="black" d="M853.31,-85C870.58,-85 897.49,-85 918.54,-85"/>
<polygon fill="black" stroke="black" points="918.63,-88.5 928.63,-85 918.63,-81.5 918.63,-88.5"/>
<text text-anchor="middle" x="891" y="-88.8" font-family="Times,serif" font-size="14.00">&#45;1:&#45;1/0</text>
</g>
<!-- 8&#45;&gt;7 -->
<g id="edge21" class="edge">
<title>8&#45;&gt;7</title>
<path fill="none" stroke="black" d="M751.75,-48.07C767.18,-55 790.94,-65.67 808.96,-73.76"/>
<polygon fill="black" stroke="black" points="807.74,-77.05 818.29,-77.95 810.6,-70.66 807.74,-77.05"/>
<text text-anchor="middle" x="785" y="-72.8" font-family="Times,serif" font-size="14.00">c:ε/0</text>
</g>
<!-- 8&#45;&gt;8 -->
<g id="edge22" class="edge">
<title>8&#45;&gt;8</title>
<path fill="none" stroke="black" d="M726.37,-56.92C724.11,-67.15 726.99,-77 735,-77 740.26,-77 743.3,-72.76 744.14,-66.95"/>
<polygon fill="black" stroke="black" points="747.63,-66.73 743.63,-56.92 740.64,-67.08 747.63,-66.73"/>
<text text-anchor="middle" x="735" y="-80.8" font-family="Times,serif" font-size="14.00">c:ε/0</text>
</g>
</g>
</svg>
