<?xml version="1.0" encoding="UTF-8" standalone="no"?>
<!DOCTYPE svg PUBLIC "-//W3C//DTD SVG 1.1//EN"
 "http://www.w3.org/Graphics/SVG/1.1/DTD/svg11.dtd">
<!-- Generated by graphviz version 2.40.1 (20161225.0304)
 -->
<!-- Title: WFST Pages: 1 -->
<svg width="612pt" height="90pt"
 viewBox="0.00 0.00 612.00 89.70" xmlns="http://www.w3.org/2000/svg" xmlns:xlink="http://www.w3.org/1999/xlink">
<g id="graph0" class="graph" transform="scale(.6229 .6229) rotate(0) translate(4 140)">
<title>WFST</title>
<polygon fill="#ffffff" stroke="transparent" points="-4,4 -4,-140 978.5,-140 978.5,4 -4,4"/>
<text text-anchor="middle" x="487.25" y="-7.8" font-family="Times,serif" font-size="14.00" fill="#000000">k2.compose(ctc_topo_modified, linear_fsa)</text>
<!-- 0 -->
<g id="node1" class="node">
<title>0</title>
<ellipse fill="none" stroke="#000000" stroke-width="2" cx="24.5" cy="-85" rx="18" ry="18"/>
<text text-anchor="middle" x="24.5" y="-81.3" font-family="Times,serif" font-size="14.00" fill="#000000">0</text>
</g>
<!-- 0&#45;&gt;0 -->
<g id="edge1" class="edge">
<title>0&#45;&gt;0</title>
<path fill="none" stroke="#000000" d="M15.8666,-100.916C13.6144,-111.1504 16.4922,-121 24.5,-121 29.7551,-121 32.8009,-116.7581 33.6375,-110.9494"/>
<polygon fill="#000000" stroke="#000000" points="37.1308,-110.7278 33.1334,-100.916 30.1396,-111.0791 37.1308,-110.7278"/>
<text text-anchor="middle" x="24.5" y="-124.8" font-family="Times,serif" font-size="14.00" fill="#000000">blk:ε/0</text>
</g>
<!-- 1 -->
<g id="node2" class="node">
<title>1</title>
<ellipse fill="none" stroke="#000000" stroke-width="2" cx="225.5" cy="-85" rx="18" ry="18"/>
<text text-anchor="middle" x="225.5" y="-81.3" font-family="Times,serif" font-size="14.00" fill="#000000">1</text>
</g>
<!-- 0&#45;&gt;1 -->
<g id="edge2" class="edge">
<title>0&#45;&gt;1</title>
<path fill="none" stroke="#000000" d="M42.194,-89.9472C65.3964,-95.8438 107.3968,-104.4894 143.5,-101 161.7993,-99.2314 182.0796,-95.2919 197.8933,-91.7647"/>
<polygon fill="#000000" stroke="#000000" points="199.0919,-95.0801 208.0484,-89.4204 197.5174,-88.2595 199.0919,-95.0801"/>
<text text-anchor="middle" x="125.5" y="-104.8" font-family="Times,serif" font-size="14.00" fill="#000000">a:a/0</text>
</g>
<!-- 2 -->
<g id="node3" class="node">
<title>2</title>
<ellipse fill="none" stroke="#000000" stroke-width="2" cx="125.5" cy="-41" rx="18" ry="18"/>
<text text-anchor="middle" x="125.5" y="-37.3" font-family="Times,serif" font-size="14.00" fill="#000000">2</text>
</g>
<!-- 0&#45;&gt;2 -->
<g id="edge3" class="edge">
<title>0&#45;&gt;2</title>
<path fill="none" stroke="#000000" d="M41.1781,-77.7343C57.0409,-70.8238 81.1435,-60.3236 99.5231,-52.3167"/>
<polygon fill="#000000" stroke="#000000" points="101.0272,-55.4792 108.7971,-48.2765 98.2314,-49.0617 101.0272,-55.4792"/>
<text text-anchor="middle" x="75" y="-72.8" font-family="Times,serif" font-size="14.00" fill="#000000">a:a/0</text>
</g>
<!-- 1&#45;&gt;1 -->
<g id="edge4" class="edge">
<title>1&#45;&gt;1</title>
<path fill="none" stroke="#000000" d="M216.8666,-100.916C214.6144,-111.1504 217.4922,-121 225.5,-121 230.7551,-121 233.8009,-116.7581 234.6375,-110.9494"/>
<polygon fill="#000000" stroke="#000000" points="238.1308,-110.7278 234.1334,-100.916 231.1396,-111.0791 238.1308,-110.7278"/>
<text text-anchor="middle" x="225.5" y="-124.8" font-family="Times,serif" font-size="14.00" fill="#000000">blk:ε/0</text>
</g>
<!-- 3 -->
<g id="node4" class="node">
<title>3</title>
<ellipse fill="none" stroke="#000000" stroke-width="2" cx="430.5" cy="-85" rx="18" ry="18"/>
<text text-anchor="middle" x="430.5" y="-81.3" font-family="Times,serif" font-size="14.00" fill="#000000">3</text>
</g>
<!-- 1&#45;&gt;3 -->
<g id="edge5" class="edge">
<title>1&#45;&gt;3</title>
<path fill="none" stroke="#000000" d="M243.2355,-89.8592C266.9398,-95.7723 310.286,-104.5542 347.5,-101 366.1944,-99.2146 386.9388,-95.2161 403.0124,-91.6632"/>
<polygon fill="#000000" stroke="#000000" points="403.8624,-95.0593 412.8321,-89.4205 402.3038,-88.235 403.8624,-95.0593"/>
<text text-anchor="middle" x="329" y="-104.8" font-family="Times,serif" font-size="14.00" fill="#000000">b:b/0</text>
</g>
<!-- 4 -->
<g id="node5" class="node">
<title>4</title>
<ellipse fill="none" stroke="#000000" stroke-width="2" cx="329" cy="-41" rx="18" ry="18"/>
<text text-anchor="middle" x="329" y="-37.3" font-family="Times,serif" font-size="14.00" fill="#000000">4</text>
</g>
<!-- 1&#45;&gt;4 -->
<g id="edge6" class="edge">
<title>1&#45;&gt;4</title>
<path fill="none" stroke="#000000" d="M242.1291,-77.9306C258.5763,-70.9386 283.9852,-60.1367 303.082,-52.0183"/>
<polygon fill="#000000" stroke="#000000" points="304.5786,-55.1852 312.4122,-48.0518 301.8399,-48.7432 304.5786,-55.1852"/>
<text text-anchor="middle" x="277" y="-73.8" font-family="Times,serif" font-size="14.00" fill="#000000">b:b/0</text>
</g>
<!-- 2&#45;&gt;1 -->
<g id="edge7" class="edge">
<title>2&#45;&gt;1</title>
<path fill="none" stroke="#000000" d="M142.013,-48.2657C157.7187,-55.1762 181.5827,-65.6764 199.7803,-73.6833"/>
<polygon fill="#000000" stroke="#000000" points="198.3997,-76.8997 208.9625,-77.7235 201.2189,-70.4924 198.3997,-76.8997"/>
<text text-anchor="middle" x="175.5" y="-72.8" font-family="Times,serif" font-size="14.00" fill="#000000">a:ε/0</text>
</g>
<!-- 2&#45;&gt;2 -->
<g id="edge8" class="edge">
<title>2&#45;&gt;2</title>
<path fill="none" stroke="#000000" d="M116.8666,-56.916C114.6144,-67.1504 117.4922,-77 125.5,-77 130.7551,-77 133.8009,-72.7581 134.6375,-66.9494"/>
<polygon fill="#000000" stroke="#000000" points="138.1308,-66.7278 134.1334,-56.916 131.1396,-67.0791 138.1308,-66.7278"/>
<text text-anchor="middle" x="125.5" y="-80.8" font-family="Times,serif" font-size="14.00" fill="#000000">a:ε/0</text>
</g>
<!-- 3&#45;&gt;3 -->
<g id="edge9" class="edge">
<title>3&#45;&gt;3</title>
<path fill="none" stroke="#000000" d="M421.8666,-100.916C419.6144,-111.1504 422.4922,-121 430.5,-121 435.7551,-121 438.8009,-116.7581 439.6375,-110.9494"/>
<polygon fill="#000000" stroke="#000000" points="443.1308,-110.7278 439.1334,-100.916 436.1396,-111.0791 443.1308,-110.7278"/>
<text text-anchor="middle" x="430.5" y="-124.8" font-family="Times,serif" font-size="14.00" fill="#000000">blk:ε/0</text>
</g>
<!-- 5 -->
<g id="node6" class="node">
<title>5</title>
<ellipse fill="none" stroke="#000000" stroke-width="2" cx="635.5" cy="-85" rx="18" ry="18"/>
<text text-anchor="middle" x="635.5" y="-81.3" font-family="Times,serif" font-size="14.00" fill="#000000">5</text>
</g>
<!-- 3&#45;&gt;5 -->
<g id="edge10" class="edge">
<title>3&#45;&gt;5</title>
<path fill="none" stroke="#000000" d="M448.2355,-89.8592C471.9398,-95.7723 515.286,-104.5542 552.5,-101 571.1944,-99.2146 591.9388,-95.2161 608.0124,-91.6632"/>
<polygon fill="#000000" stroke="#000000" points="608.8624,-95.0593 617.8321,-89.4205 607.3038,-88.235 608.8624,-95.0593"/>
<text text-anchor="middle" x="534" y="-104.8" font-family="Times,serif" font-size="14.00" fill="#000000">b:b/0</text>
</g>
<!-- 6 -->
<g id="node7" class="node">
<title>6</title>
<ellipse fill="none" stroke="#000000" stroke-width="2" cx="534" cy="-41" rx="18" ry="18"/>
<text text-anchor="middle" x="534" y="-37.3" font-family="Times,serif" font-size="14.00" fill="#000000">6</text>
</g>
<!-- 3&#45;&gt;6 -->
<g id="edge11" class="edge">
<title>3&#45;&gt;6</title>
<path fill="none" stroke="#000000" d="M447.1291,-77.9306C463.5763,-70.9386 488.9852,-60.1367 508.082,-52.0183"/>
<polygon fill="#000000" stroke="#000000" points="509.5786,-55.1852 517.4122,-48.0518 506.8399,-48.7432 509.5786,-55.1852"/>
<text text-anchor="middle" x="482" y="-73.8" font-family="Times,serif" font-size="14.00" fill="#000000">b:b/0</text>
</g>
<!-- 4&#45;&gt;3 -->
<g id="edge12" class="edge">
<title>4&#45;&gt;3</title>
<path fill="none" stroke="#000000" d="M345.7607,-48.2657C361.702,-55.1762 385.924,-65.6764 404.3945,-73.6833"/>
<polygon fill="#000000" stroke="#000000" points="403.1473,-76.9574 413.7144,-77.7235 405.9315,-70.5348 403.1473,-76.9574"/>
<text text-anchor="middle" x="380" y="-72.8" font-family="Times,serif" font-size="14.00" fill="#000000">b:ε/0</text>
</g>
<!-- 4&#45;&gt;4 -->
<g id="edge13" class="edge">
<title>4&#45;&gt;4</title>
<path fill="none" stroke="#000000" d="M320.3666,-56.916C318.1144,-67.1504 320.9922,-77 329,-77 334.2551,-77 337.3009,-72.7581 338.1375,-66.9494"/>
<polygon fill="#000000" stroke="#000000" points="341.6308,-66.7278 337.6334,-56.916 334.6396,-67.0791 341.6308,-66.7278"/>
<text text-anchor="middle" x="329" y="-80.8" font-family="Times,serif" font-size="14.00" fill="#000000">b:ε/0</text>
</g>
<!-- 5&#45;&gt;5 -->
<g id="edge14" class="edge">
<title>5&#45;&gt;5</title>
<path fill="none" stroke="#000000" d="M626.8666,-100.916C624.6144,-111.1504 627.4922,-121 635.5,-121 640.7551,-121 643.8009,-116.7581 644.6375,-110.9494"/>
<polygon fill="#000000" stroke="#000000" points="648.1308,-110.7278 644.1334,-100.916 641.1396,-111.0791 648.1308,-110.7278"/>
<text text-anchor="middle" x="635.5" y="-124.8" font-family="Times,serif" font-size="14.00" fill="#000000">blk:ε/0</text>
</g>
<!-- 7 -->
<g id="node8" class="node">
<title>7</title>
<ellipse fill="none" stroke="#000000" stroke-width="2" cx="836.5" cy="-85" rx="18" ry="18"/>
<text text-anchor="middle" x="836.5" y="-81.3" font-family="Times,serif" font-size="14.00" fill="#000000">7</text>
</g>
<!-- 5&#45;&gt;7 -->
<g id="edge15" class="edge">
<title>5&#45;&gt;7</title>
<path fill="none" stroke="#000000" d="M653.194,-89.9472C676.3964,-95.8438 718.3968,-104.4894 754.5,-101 772.7993,-99.2314 793.0796,-95.2919 808.8933,-91.7647"/>
<polygon fill="#000000" stroke="#000000" points="810.0919,-95.0801 819.0484,-89.4204 808.5174,-88.2595 810.0919,-95.0801"/>
<text text-anchor="middle" x="736.5" y="-104.8" font-family="Times,serif" font-size="14.00" fill="#000000">c:c/0</text>
</g>
<!-- 8 -->
<g id="node9" class="node">
<title>8</title>
<ellipse fill="none" stroke="#000000" stroke-width="2" cx="736.5" cy="-41" rx="18" ry="18"/>
<text text-anchor="middle" x="736.5" y="-37.3" font-family="Times,serif" font-size="14.00" fill="#000000">8</text>
</g>
<!-- 5&#45;&gt;8 -->
<g id="edge16" class="edge">
<title>5&#45;&gt;8</title>
<path fill="none" stroke="#000000" d="M652.1781,-77.7343C668.0409,-70.8238 692.1435,-60.3236 710.5231,-52.3167"/>
<polygon fill="#000000" stroke="#000000" points="712.0272,-55.4792 719.7971,-48.2765 709.2314,-49.0617 712.0272,-55.4792"/>
<text text-anchor="middle" x="686" y="-72.8" font-family="Times,serif" font-size="14.00" fill="#000000">c:c/0</text>
</g>
<!-- 6&#45;&gt;5 -->
<g id="edge17" class="edge">
<title>6&#45;&gt;5</title>
<path fill="none" stroke="#000000" d="M550.7607,-48.2657C566.702,-55.1762 590.924,-65.6764 609.3945,-73.6833"/>
<polygon fill="#000000" stroke="#000000" points="608.1473,-76.9574 618.7144,-77.7235 610.9315,-70.5348 608.1473,-76.9574"/>
<text text-anchor="middle" x="585" y="-72.8" font-family="Times,serif" font-size="14.00" fill="#000000">b:ε/0</text>
</g>
<!-- 6&#45;&gt;6 -->
<g id="edge18" class="edge">
<title>6&#45;&gt;6</title>
<path fill="none" stroke="#000000" d="M525.3666,-56.916C523.1144,-67.1504 525.9922,-77 534,-77 539.2551,-77 542.3009,-72.7581 543.1375,-66.9494"/>
<polygon fill="#000000" stroke="#000000" points="546.6308,-66.7278 542.6334,-56.916 539.6396,-67.0791 546.6308,-66.7278"/>
<text text-anchor="middle" x="534" y="-80.8" font-family="Times,serif" font-size="14.00" fill="#000000">b:ε/0</text>
</g>
<!-- 7&#45;&gt;7 -->
<g id="edge19" class="edge">
<title>7&#45;&gt;7</title>
<path fill="none" stroke="#000000" d="M827.8666,-100.916C825.6144,-111.1504 828.4922,-121 836.5,-121 841.7551,-121 844.8009,-116.7581 845.6375,-110.9494"/>
<polygon fill="#000000" stroke="#000000" points="849.1308,-110.7278 845.1334,-100.916 842.1396,-111.0791 849.1308,-110.7278"/>
<text text-anchor="middle" x="836.5" y="-124.8" font-family="Times,serif" font-size="14.00" fill="#000000">blk:ε/0</text>
</g>
<!-- 9 -->
<g id="node10" class="node">
<title>9</title>
<ellipse fill="none" stroke="#000000" stroke-width="2" cx="952.5" cy="-85" rx="18" ry="18"/>
<ellipse fill="none" stroke="#000000" stroke-width="2" cx="952.5" cy="-85" rx="22" ry="22"/>
<text text-anchor="middle" x="952.5" y="-81.3" font-family="Times,serif" font-size="14.00" fill="#000000">9</text>
</g>
<!-- 7&#45;&gt;9 -->
<g id="edge20" class="edge">
<title>7&#45;&gt;9</title>
<path fill="none" stroke="#000000" d="M854.625,-85C872.0685,-85 898.8386,-85 919.9754,-85"/>
<polygon fill="#000000" stroke="#000000" points="920.1341,-88.5001 930.134,-85 920.134,-81.5001 920.1341,-88.5001"/>
<text text-anchor="middle" x="892.5" y="-88.8" font-family="Times,serif" font-size="14.00" fill="#000000">&#45;1:&#45;1/0</text>
</g>
<!-- 8&#45;&gt;7 -->
<g id="edge21" class="edge">
<title>8&#45;&gt;7</title>
<path fill="none" stroke="#000000" d="M753.013,-48.2657C768.7187,-55.1762 792.5827,-65.6764 810.7803,-73.6833"/>
<polygon fill="#000000" stroke="#000000" points="809.3997,-76.8997 819.9625,-77.7235 812.2189,-70.4924 809.3997,-76.8997"/>
<text text-anchor="middle" x="786.5" y="-72.8" font-family="Times,serif" font-size="14.00" fill="#000000">c:ε/0</text>
</g>
<!-- 8&#45;&gt;8 -->
<g id="edge22" class="edge">
<title>8&#45;&gt;8</title>
<path fill="none" stroke="#000000" d="M727.8666,-56.916C725.6144,-67.1504 728.4922,-77 736.5,-77 741.7551,-77 744.8009,-72.7581 745.6375,-66.9494"/>
<polygon fill="#000000" stroke="#000000" points="749.1308,-66.7278 745.1334,-56.916 742.1396,-67.0791 749.1308,-66.7278"/>
<text text-anchor="middle" x="736.5" y="-80.8" font-family="Times,serif" font-size="14.00" fill="#000000">c:ε/0</text>
</g>
</g>
</svg>
