<?xml version="1.0" encoding="UTF-8" standalone="no"?>
<!DOCTYPE svg PUBLIC "-//W3C//DTD SVG 1.1//EN"
 "http://www.w3.org/Graphics/SVG/1.1/DTD/svg11.dtd">
<!-- Generated by graphviz version 2.43.0 (0)
 -->
<!-- Title: WFST Pages: 1 -->
<svg width="612pt" height="81pt"
 viewBox="0.00 0.00 612.00 81.48" xmlns="http://www.w3.org/2000/svg" xmlns:xlink="http://www.w3.org/1999/xlink">
<g id="graph0" class="graph" transform="scale(1.71 1.71) rotate(0) translate(4 135)">
<title>WFST</title>
<polygon fill="white" stroke="transparent" points="-4,4 -4,-135 1040,-135 1040,4 -4,4"/>
<text text-anchor="middle" x="518" y="-7.8" font-family="Times,serif" font-size="14.00">CTC graph for the string &quot;abbc&quot; (modified=False)</text>
<!-- 0 -->
<g id="node1" class="node">
<title>0</title>
<ellipse fill="none" stroke="black" stroke-width="2" cx="24" cy="-45" rx="18" ry="18"/>
<text text-anchor="middle" x="24" y="-41.3" font-family="Times,serif" font-size="14.00">0</text>
</g>
<!-- 0&#45;&gt;0 -->
<g id="edge1" class="edge">
<title>0&#45;&gt;0</title>
<path fill="none" stroke="black" d="M15.37,-60.92C13.11,-71.15 15.99,-81 24,-81 29.26,-81 32.3,-76.76 33.14,-70.95"/>
<polygon fill="black" stroke="black" points="36.63,-70.73 32.63,-60.92 29.64,-71.08 36.63,-70.73"/>
<text text-anchor="middle" x="24" y="-84.8" font-family="Times,serif" font-size="14.00">blk:ε/0</text>
</g>
<!-- 1 -->
<g id="node2" class="node">
<title>1</title>
<ellipse fill="none" stroke="black" stroke-width="2" cx="125" cy="-45" rx="18" ry="18"/>
<text text-anchor="middle" x="125" y="-41.3" font-family="Times,serif" font-size="14.00">1</text>
</g>
<!-- 0&#45;&gt;1 -->
<g id="edge2" class="edge">
<title>0&#45;&gt;1</title>
<path fill="none" stroke="black" d="M42.24,-45C57.29,-45 79.38,-45 96.81,-45"/>
<polygon fill="black" stroke="black" points="96.95,-48.5 106.95,-45 96.95,-41.5 96.95,-48.5"/>
<text text-anchor="middle" x="74.5" y="-48.8" font-family="Times,serif" font-size="14.00">a:a/0</text>
</g>
<!-- 1&#45;&gt;1 -->
<g id="edge4" class="edge">
<title>1&#45;&gt;1</title>
<path fill="none" stroke="black" d="M116.37,-60.92C114.11,-71.15 116.99,-81 125,-81 130.26,-81 133.3,-76.76 134.14,-70.95"/>
<polygon fill="black" stroke="black" points="137.63,-70.73 133.63,-60.92 130.64,-71.08 137.63,-70.73"/>
<text text-anchor="middle" x="125" y="-84.8" font-family="Times,serif" font-size="14.00">a:ε/0</text>
</g>
<!-- 2 -->
<g id="node3" class="node">
<title>2</title>
<ellipse fill="none" stroke="black" stroke-width="2" cx="239.5" cy="-80" rx="18" ry="18"/>
<text text-anchor="middle" x="239.5" y="-76.3" font-family="Times,serif" font-size="14.00">2</text>
</g>
<!-- 1&#45;&gt;2 -->
<g id="edge3" class="edge">
<title>1&#45;&gt;2</title>
<path fill="none" stroke="black" d="M142.6,-50.16C160.98,-55.88 190.86,-65.18 212.39,-71.88"/>
<polygon fill="black" stroke="black" points="211.61,-75.3 222.2,-74.93 213.69,-68.62 211.61,-75.3"/>
<text text-anchor="middle" x="182" y="-72.8" font-family="Times,serif" font-size="14.00">blk:ε/0</text>
</g>
<!-- 3 -->
<g id="node4" class="node">
<title>3</title>
<ellipse fill="none" stroke="black" stroke-width="2" cx="343" cy="-45" rx="18" ry="18"/>
<text text-anchor="middle" x="343" y="-41.3" font-family="Times,serif" font-size="14.00">3</text>
</g>
<!-- 1&#45;&gt;3 -->
<g id="edge5" class="edge">
<title>1&#45;&gt;3</title>
<path fill="none" stroke="black" d="M143.08,-43.06C168.24,-40.44 216.73,-36.28 258,-38 277.07,-38.79 298.51,-40.6 314.96,-42.17"/>
<polygon fill="black" stroke="black" points="314.68,-45.66 324.97,-43.16 315.37,-38.7 314.68,-45.66"/>
<text text-anchor="middle" x="239.5" y="-41.8" font-family="Times,serif" font-size="14.00">b:b/0</text>
</g>
<!-- 2&#45;&gt;2 -->
<g id="edge6" class="edge">
<title>2&#45;&gt;2</title>
<path fill="none" stroke="black" d="M230.52,-95.92C228.18,-106.15 231.17,-116 239.5,-116 244.97,-116 248.13,-111.76 249,-105.95"/>
<polygon fill="black" stroke="black" points="252.5,-105.72 248.48,-95.92 245.51,-106.09 252.5,-105.72"/>
<text text-anchor="middle" x="239.5" y="-119.8" font-family="Times,serif" font-size="14.00">blk:ε/0</text>
</g>
<!-- 2&#45;&gt;3 -->
<g id="edge7" class="edge">
<title>2&#45;&gt;3</title>
<path fill="none" stroke="black" d="M256.81,-74.38C272.79,-68.87 297.4,-60.38 316.07,-53.94"/>
<polygon fill="black" stroke="black" points="317.42,-57.18 325.73,-50.61 315.14,-50.56 317.42,-57.18"/>
<text text-anchor="middle" x="291.5" y="-71.8" font-family="Times,serif" font-size="14.00">b:b/0</text>
</g>
<!-- 3&#45;&gt;3 -->
<g id="edge9" class="edge">
<title>3&#45;&gt;3</title>
<path fill="none" stroke="black" d="M334.37,-60.92C332.11,-71.15 334.99,-81 343,-81 348.26,-81 351.3,-76.76 352.14,-70.95"/>
<polygon fill="black" stroke="black" points="355.63,-70.73 351.63,-60.92 348.64,-71.08 355.63,-70.73"/>
<text text-anchor="middle" x="343" y="-84.8" font-family="Times,serif" font-size="14.00">b:ε/0</text>
</g>
<!-- 4 -->
<g id="node5" class="node">
<title>4</title>
<ellipse fill="none" stroke="black" stroke-width="2" cx="457" cy="-45" rx="18" ry="18"/>
<text text-anchor="middle" x="457" y="-41.3" font-family="Times,serif" font-size="14.00">4</text>
</g>
<!-- 3&#45;&gt;4 -->
<g id="edge8" class="edge">
<title>3&#45;&gt;4</title>
<path fill="none" stroke="black" d="M361.01,-45C378.94,-45 407.44,-45 428.56,-45"/>
<polygon fill="black" stroke="black" points="428.83,-48.5 438.83,-45 428.83,-41.5 428.83,-48.5"/>
<text text-anchor="middle" x="400" y="-48.8" font-family="Times,serif" font-size="14.00">blk:ε/0</text>
</g>
<!-- 4&#45;&gt;4 -->
<g id="edge10" class="edge">
<title>4&#45;&gt;4</title>
<path fill="none" stroke="black" d="M448.37,-60.92C446.11,-71.15 448.99,-81 457,-81 462.26,-81 465.3,-76.76 466.14,-70.95"/>
<polygon fill="black" stroke="black" points="469.63,-70.73 465.63,-60.92 462.64,-71.08 469.63,-70.73"/>
<text text-anchor="middle" x="457" y="-84.8" font-family="Times,serif" font-size="14.00">blk:ε/0</text>
</g>
<!-- 5 -->
<g id="node6" class="node">
<title>5</title>
<ellipse fill="none" stroke="black" stroke-width="2" cx="560" cy="-45" rx="18" ry="18"/>
<text text-anchor="middle" x="560" y="-41.3" font-family="Times,serif" font-size="14.00">5</text>
</g>
<!-- 4&#45;&gt;5 -->
<g id="edge11" class="edge">
<title>4&#45;&gt;5</title>
<path fill="none" stroke="black" d="M475.13,-45C490.59,-45 513.58,-45 531.59,-45"/>
<polygon fill="black" stroke="black" points="531.78,-48.5 541.78,-45 531.78,-41.5 531.78,-48.5"/>
<text text-anchor="middle" x="508.5" y="-48.8" font-family="Times,serif" font-size="14.00">b:b/0</text>
</g>
<!-- 5&#45;&gt;5 -->
<g id="edge13" class="edge">
<title>5&#45;&gt;5</title>
<path fill="none" stroke="black" d="M551.37,-60.92C549.11,-71.15 551.99,-81 560,-81 565.26,-81 568.3,-76.76 569.14,-70.95"/>
<polygon fill="black" stroke="black" points="572.63,-70.73 568.63,-60.92 565.64,-71.08 572.63,-70.73"/>
<text text-anchor="middle" x="560" y="-84.8" font-family="Times,serif" font-size="14.00">b:ε/0</text>
</g>
<!-- 6 -->
<g id="node7" class="node">
<title>6</title>
<ellipse fill="none" stroke="black" stroke-width="2" cx="674" cy="-80" rx="18" ry="18"/>
<text text-anchor="middle" x="674" y="-76.3" font-family="Times,serif" font-size="14.00">6</text>
</g>
<!-- 5&#45;&gt;6 -->
<g id="edge12" class="edge">
<title>5&#45;&gt;6</title>
<path fill="none" stroke="black" d="M577.53,-50.16C595.72,-55.85 625.24,-65.07 646.64,-71.76"/>
<polygon fill="black" stroke="black" points="645.82,-75.17 656.41,-74.81 647.91,-68.49 645.82,-75.17"/>
<text text-anchor="middle" x="617" y="-72.8" font-family="Times,serif" font-size="14.00">blk:ε/0</text>
</g>
<!-- 7 -->
<g id="node8" class="node">
<title>7</title>
<ellipse fill="none" stroke="black" stroke-width="2" cx="774" cy="-45" rx="18" ry="18"/>
<text text-anchor="middle" x="774" y="-41.3" font-family="Times,serif" font-size="14.00">7</text>
</g>
<!-- 5&#45;&gt;7 -->
<g id="edge14" class="edge">
<title>5&#45;&gt;7</title>
<path fill="none" stroke="black" d="M577.95,-43.05C602.92,-40.41 651.04,-36.23 692,-38 709.99,-38.78 730.16,-40.52 745.88,-42.07"/>
<polygon fill="black" stroke="black" points="745.66,-45.56 755.96,-43.1 746.37,-38.6 745.66,-45.56"/>
<text text-anchor="middle" x="674" y="-41.8" font-family="Times,serif" font-size="14.00">c:c/0</text>
</g>
<!-- 6&#45;&gt;6 -->
<g id="edge15" class="edge">
<title>6&#45;&gt;6</title>
<path fill="none" stroke="black" d="M665.37,-95.92C663.11,-106.15 665.99,-116 674,-116 679.26,-116 682.3,-111.76 683.14,-105.95"/>
<polygon fill="black" stroke="black" points="686.63,-105.73 682.63,-95.92 679.64,-106.08 686.63,-105.73"/>
<text text-anchor="middle" x="674" y="-119.8" font-family="Times,serif" font-size="14.00">blk:ε/0</text>
</g>
<!-- 6&#45;&gt;7 -->
<g id="edge16" class="edge">
<title>6&#45;&gt;7</title>
<path fill="none" stroke="black" d="M691.18,-74.22C706.36,-68.8 729.32,-60.6 747.05,-54.27"/>
<polygon fill="black" stroke="black" points="748.55,-57.45 756.79,-50.79 746.2,-50.86 748.55,-57.45"/>
<text text-anchor="middle" x="724" y="-70.8" font-family="Times,serif" font-size="14.00">c:c/0</text>
</g>
<!-- 7&#45;&gt;7 -->
<g id="edge18" class="edge">
<title>7&#45;&gt;7</title>
<path fill="none" stroke="black" d="M765.37,-60.92C763.11,-71.15 765.99,-81 774,-81 779.26,-81 782.3,-76.76 783.14,-70.95"/>
<polygon fill="black" stroke="black" points="786.63,-70.73 782.63,-60.92 779.64,-71.08 786.63,-70.73"/>
<text text-anchor="middle" x="774" y="-84.8" font-family="Times,serif" font-size="14.00">c:ε/0</text>
</g>
<!-- 8 -->
<g id="node9" class="node">
<title>8</title>
<ellipse fill="none" stroke="black" stroke-width="2" cx="893" cy="-80" rx="18" ry="18"/>
<text text-anchor="middle" x="893" y="-76.3" font-family="Times,serif" font-size="14.00">8</text>
</g>
<!-- 7&#45;&gt;8 -->
<g id="edge17" class="edge">
<title>7&#45;&gt;8</title>
<path fill="none" stroke="black" d="M791.52,-49.94C810.85,-55.73 843.12,-65.38 865.87,-72.18"/>
<polygon fill="black" stroke="black" points="864.99,-75.57 875.57,-75.08 866.99,-68.87 864.99,-75.57"/>
<text text-anchor="middle" x="831" y="-71.8" font-family="Times,serif" font-size="14.00">blk:ε/0</text>
</g>
<!-- 9 -->
<g id="node10" class="node">
<title>9</title>
<ellipse fill="none" stroke="black" stroke-width="2" cx="1014" cy="-45" rx="18" ry="18"/>
<ellipse fill="none" stroke="black" stroke-width="2" cx="1014" cy="-45" rx="22" ry="22"/>
<text text-anchor="middle" x="1014" y="-41.3" font-family="Times,serif" font-size="14.00">9</text>
</g>
<!-- 7&#45;&gt;9 -->
<g id="edge19" class="edge">
<title>7&#45;&gt;9</title>
<path fill="none" stroke="black" d="M792.14,-43.36C811.15,-41.62 842.73,-39 870,-38 890.43,-37.25 895.57,-37.26 916,-38 937.96,-38.79 962.67,-40.59 981.65,-42.16"/>
<polygon fill="black" stroke="black" points="981.57,-45.67 991.83,-43.03 982.16,-38.69 981.57,-45.67"/>
<text text-anchor="middle" x="893" y="-41.8" font-family="Times,serif" font-size="14.00">&#45;1:&#45;1/0</text>
</g>
<!-- 8&#45;&gt;8 -->
<g id="edge20" class="edge">
<title>8&#45;&gt;8</title>
<path fill="none" stroke="black" d="M882.85,-95.17C879.77,-105.66 883.16,-116 893,-116 899.46,-116 903.14,-111.55 904.03,-105.52"/>
<polygon fill="black" stroke="black" points="907.49,-104.83 903.15,-95.17 900.51,-105.43 907.49,-104.83"/>
<text text-anchor="middle" x="893" y="-119.8" font-family="Times,serif" font-size="14.00">blk:ε/0</text>
</g>
<!-- 8&#45;&gt;9 -->
<g id="edge21" class="edge">
<title>8&#45;&gt;9</title>
<path fill="none" stroke="black" d="M910.55,-75.13C929.24,-69.64 960.04,-60.58 983,-53.82"/>
<polygon fill="black" stroke="black" points="984,-57.18 992.61,-51 982.03,-50.46 984,-57.18"/>
<text text-anchor="middle" x="954" y="-71.8" font-family="Times,serif" font-size="14.00">&#45;1:&#45;1/0</text>
</g>
</g>
</svg>
