<?xml version="1.0" encoding="UTF-8" standalone="no"?>
<!DOCTYPE svg PUBLIC "-//W3C//DTD SVG 1.1//EN"
 "http://www.w3.org/Graphics/SVG/1.1/DTD/svg11.dtd">
<!-- Generated by graphviz version 2.40.1 (20161225.0304)
 -->
<!-- Title: WFSA Pages: 1 -->
<svg width="500pt" height="75pt"
 viewBox="0.00 0.00 500.00 75.00" xmlns="http://www.w3.org/2000/svg" xmlns:xlink="http://www.w3.org/1999/xlink">
<g id="graph0" class="graph" transform="scale(1 1) rotate(0) translate(4 71)">
<title>WFSA</title>
<polygon fill="#ffffff" stroke="transparent" points="-4,4 -4,-71 496,-71 496,4 -4,4"/>
<text text-anchor="middle" x="246" y="-7.8" font-family="Times,serif" font-size="14.00" fill="#000000">Linear FSA of the string &quot;abbc&quot;</text>
<!-- 0 -->
<g id="node1" class="node">
<title>0</title>
<ellipse fill="none" stroke="#000000" stroke-width="2" cx="18" cy="-45" rx="18" ry="18"/>
<text text-anchor="middle" x="18" y="-41.3" font-family="Times,serif" font-size="14.00" fill="#000000">0</text>
</g>
<!-- 1 -->
<g id="node2" class="node">
<title>1</title>
<ellipse fill="none" stroke="#000000" stroke-width="2" cx="106" cy="-45" rx="18" ry="18"/>
<text text-anchor="middle" x="106" y="-41.3" font-family="Times,serif" font-size="14.00" fill="#000000">1</text>
</g>
<!-- 0&#45;&gt;1 -->
<g id="edge1" class="edge">
<title>0&#45;&gt;1</title>
<path fill="none" stroke="#000000" d="M36.2337,-45C48.1508,-45 63.9616,-45 77.5183,-45"/>
<polygon fill="#000000" stroke="#000000" points="77.7897,-48.5001 87.7897,-45 77.7897,-41.5001 77.7897,-48.5001"/>
<text text-anchor="middle" x="62" y="-48.8" font-family="Times,serif" font-size="14.00" fill="#000000">a/0</text>
</g>
<!-- 2 -->
<g id="node3" class="node">
<title>2</title>
<ellipse fill="none" stroke="#000000" stroke-width="2" cx="195" cy="-45" rx="18" ry="18"/>
<text text-anchor="middle" x="195" y="-41.3" font-family="Times,serif" font-size="14.00" fill="#000000">2</text>
</g>
<!-- 1&#45;&gt;2 -->
<g id="edge2" class="edge">
<title>1&#45;&gt;2</title>
<path fill="none" stroke="#000000" d="M124.0105,-45C136.2342,-45 152.6505,-45 166.6176,-45"/>
<polygon fill="#000000" stroke="#000000" points="166.7109,-48.5001 176.7108,-45 166.7108,-41.5001 166.7109,-48.5001"/>
<text text-anchor="middle" x="150.5" y="-48.8" font-family="Times,serif" font-size="14.00" fill="#000000">b/0</text>
</g>
<!-- 3 -->
<g id="node4" class="node">
<title>3</title>
<ellipse fill="none" stroke="#000000" stroke-width="2" cx="284" cy="-45" rx="18" ry="18"/>
<text text-anchor="middle" x="284" y="-41.3" font-family="Times,serif" font-size="14.00" fill="#000000">3</text>
</g>
<!-- 2&#45;&gt;3 -->
<g id="edge3" class="edge">
<title>2&#45;&gt;3</title>
<path fill="none" stroke="#000000" d="M213.0105,-45C225.2342,-45 241.6505,-45 255.6176,-45"/>
<polygon fill="#000000" stroke="#000000" points="255.7109,-48.5001 265.7108,-45 255.7108,-41.5001 255.7109,-48.5001"/>
<text text-anchor="middle" x="239.5" y="-48.8" font-family="Times,serif" font-size="14.00" fill="#000000">b/0</text>
</g>
<!-- 4 -->
<g id="node5" class="node">
<title>4</title>
<ellipse fill="none" stroke="#000000" stroke-width="2" cx="372" cy="-45" rx="18" ry="18"/>
<text text-anchor="middle" x="372" y="-41.3" font-family="Times,serif" font-size="14.00" fill="#000000">4</text>
</g>
<!-- 3&#45;&gt;4 -->
<g id="edge4" class="edge">
<title>3&#45;&gt;4</title>
<path fill="none" stroke="#000000" d="M302.2337,-45C314.1508,-45 329.9616,-45 343.5183,-45"/>
<polygon fill="#000000" stroke="#000000" points="343.7897,-48.5001 353.7897,-45 343.7897,-41.5001 343.7897,-48.5001"/>
<text text-anchor="middle" x="328" y="-48.8" font-family="Times,serif" font-size="14.00" fill="#000000">c/0</text>
</g>
<!-- 5 -->
<g id="node6" class="node">
<title>5</title>
<ellipse fill="none" stroke="#000000" stroke-width="2" cx="470" cy="-45" rx="18" ry="18"/>
<ellipse fill="none" stroke="#000000" stroke-width="2" cx="470" cy="-45" rx="22" ry="22"/>
<text text-anchor="middle" x="470" y="-41.3" font-family="Times,serif" font-size="14.00" fill="#000000">5</text>
</g>
<!-- 4&#45;&gt;5 -->
<g id="edge5" class="edge">
<title>4&#45;&gt;5</title>
<path fill="none" stroke="#000000" d="M390.4331,-45C403.6776,-45 421.8831,-45 437.5374,-45"/>
<polygon fill="#000000" stroke="#000000" points="437.8752,-48.5001 447.8751,-45 437.8751,-41.5001 437.8752,-48.5001"/>
<text text-anchor="middle" x="419" y="-48.8" font-family="Times,serif" font-size="14.00" fill="#000000">&#45;1/0</text>
</g>
</g>
</svg>
