<?xml version="1.0" encoding="UTF-8" standalone="no"?>
<!DOCTYPE svg PUBLIC "-//W3C//DTD SVG 1.1//EN"
 "http://www.w3.org/Graphics/SVG/1.1/DTD/svg11.dtd">
<!-- Generated by graphviz version 2.43.0 (0)
 -->
<!-- Title: WFSA Pages: 1 -->
<svg width="500pt" height="75pt"
 viewBox="0.00 0.00 500.00 75.00" xmlns="http://www.w3.org/2000/svg" xmlns:xlink="http://www.w3.org/1999/xlink">
<g id="graph0" class="graph" transform="scale(1 1) rotate(0) translate(4 71)">
<title>WFSA</title>
<polygon fill="white" stroke="transparent" points="-4,4 -4,-71 496,-71 496,4 -4,4"/>
<text text-anchor="middle" x="246" y="-7.8" font-family="Times,serif" font-size="14.00">Linear FSA of the string &quot;abbc&quot;</text>
<!-- 0 -->
<g id="node1" class="node">
<title>0</title>
<ellipse fill="none" stroke="black" stroke-width="2" cx="18" cy="-45" rx="18" ry="18"/>
<text text-anchor="middle" x="18" y="-41.3" font-family="Times,serif" font-size="14.00">0</text>
</g>
<!-- 1 -->
<g id="node2" class="node">
<title>1</title>
<ellipse fill="none" stroke="black" stroke-width="2" cx="106" cy="-45" rx="18" ry="18"/>
<text text-anchor="middle" x="106" y="-41.3" font-family="Times,serif" font-size="14.00">1</text>
</g>
<!-- 0&#45;&gt;1 -->
<g id="edge1" class="edge">
<title>0&#45;&gt;1</title>
<path fill="none" stroke="black" d="M36.4,-45C48.25,-45 64.18,-45 77.71,-45"/>
<polygon fill="black" stroke="black" points="77.92,-48.5 87.92,-45 77.92,-41.5 77.92,-48.5"/>
<text text-anchor="middle" x="62" y="-48.8" font-family="Times,serif" font-size="14.00">a/0</text>
</g>
<!-- 2 -->
<g id="node3" class="node">
<title>2</title>
<ellipse fill="none" stroke="black" stroke-width="2" cx="195" cy="-45" rx="18" ry="18"/>
<text text-anchor="middle" x="195" y="-41.3" font-family="Times,serif" font-size="14.00">2</text>
</g>
<!-- 1&#45;&gt;2 -->
<g id="edge2" class="edge">
<title>1&#45;&gt;2</title>
<path fill="none" stroke="black" d="M124.19,-45C136.34,-45 152.89,-45 166.82,-45"/>
<polygon fill="black" stroke="black" points="166.85,-48.5 176.85,-45 166.85,-41.5 166.85,-48.5"/>
<text text-anchor="middle" x="150.5" y="-48.8" font-family="Times,serif" font-size="14.00">b/0</text>
</g>
<!-- 3 -->
<g id="node4" class="node">
<title>3</title>
<ellipse fill="none" stroke="black" stroke-width="2" cx="284" cy="-45" rx="18" ry="18"/>
<text text-anchor="middle" x="284" y="-41.3" font-family="Times,serif" font-size="14.00">3</text>
</g>
<!-- 2&#45;&gt;3 -->
<g id="edge3" class="edge">
<title>2&#45;&gt;3</title>
<path fill="none" stroke="black" d="M213.19,-45C225.34,-45 241.89,-45 255.82,-45"/>
<polygon fill="black" stroke="black" points="255.85,-48.5 265.85,-45 255.85,-41.5 255.85,-48.5"/>
<text text-anchor="middle" x="239.5" y="-48.8" font-family="Times,serif" font-size="14.00">b/0</text>
</g>
<!-- 4 -->
<g id="node5" class="node">
<title>4</title>
<ellipse fill="none" stroke="black" stroke-width="2" cx="372" cy="-45" rx="18" ry="18"/>
<text text-anchor="middle" x="372" y="-41.3" font-family="Times,serif" font-size="14.00">4</text>
</g>
<!-- 3&#45;&gt;4 -->
<g id="edge4" class="edge">
<title>3&#45;&gt;4</title>
<path fill="none" stroke="black" d="M302.4,-45C314.25,-45 330.18,-45 343.71,-45"/>
<polygon fill="black" stroke="black" points="343.92,-48.5 353.92,-45 343.92,-41.5 343.92,-48.5"/>
<text text-anchor="middle" x="328" y="-48.8" font-family="Times,serif" font-size="14.00">c/0</text>
</g>
<!-- 5 -->
<g id="node6" class="node">
<title>5</title>
<ellipse fill="none" stroke="black" stroke-width="2" cx="470" cy="-45" rx="18" ry="18"/>
<ellipse fill="none" stroke="black" stroke-width="2" cx="470" cy="-45" rx="22" ry="22"/>
<text text-anchor="middle" x="470" y="-41.3" font-family="Times,serif" font-size="14.00">5</text>
</g>
<!-- 4&#45;&gt;5 -->
<g id="edge5" class="edge">
<title>4&#45;&gt;5</title>
<path fill="none" stroke="black" d="M390.16,-45C403.31,-45 421.81,-45 437.58,-45"/>
<polygon fill="black" stroke="black" points="437.97,-48.5 447.97,-45 437.97,-41.5 437.97,-48.5"/>
<text text-anchor="middle" x="419" y="-48.8" font-family="Times,serif" font-size="14.00">&#45;1/0</text>
</g>
</g>
</svg>
