<?xml version="1.0" encoding="UTF-8" standalone="no"?>
<!DOCTYPE svg PUBLIC "-//W3C//DTD SVG 1.1//EN"
 "http://www.w3.org/Graphics/SVG/1.1/DTD/svg11.dtd">
<!-- Generated by graphviz version 2.40.1 (20161225.0304)
 -->
<!-- Title: WFST Pages: 1 -->
<svg width="385pt" height="336pt"
 viewBox="0.00 0.00 385.00 336.00" xmlns="http://www.w3.org/2000/svg" xmlns:xlink="http://www.w3.org/1999/xlink">
<g id="graph0" class="graph" transform="scale(1 1) rotate(0) translate(4 332)">
<title>WFST</title>
<polygon fill="#ffffff" stroke="transparent" points="-4,4 -4,-332 381,-332 381,4 -4,4"/>
<text text-anchor="middle" x="188.5" y="-7.8" font-family="Times,serif" font-size="14.00" fill="#000000">CTC topology with max_token=3 (modified=True)</text>
<!-- 0 -->
<g id="node1" class="node">
<title>0</title>
<ellipse fill="none" stroke="#000000" stroke-width="2" cx="131.75" cy="-163" rx="18" ry="18"/>
<text text-anchor="middle" x="131.75" y="-159.3" font-family="Times,serif" font-size="14.00" fill="#000000">0</text>
</g>
<!-- 0&#45;&gt;0 -->
<g id="edge1" class="edge">
<title>0&#45;&gt;0</title>
<path fill="none" stroke="#000000" d="M129.2173,-181.1527C128.8276,-190.5391 129.6719,-199 131.75,-199 133.0164,-199 133.8245,-195.8581 134.1745,-191.2796"/>
<polygon fill="#000000" stroke="#000000" points="137.6756,-191.1896 134.2827,-181.1527 130.676,-191.1147 137.6756,-191.1896"/>
<text text-anchor="middle" x="131.75" y="-202.8" font-family="Times,serif" font-size="14.00" fill="#000000">blk:ε/0</text>
</g>
<!-- 0&#45;&gt;0 -->
<g id="edge2" class="edge">
<title>0&#45;&gt;0</title>
<path fill="none" stroke="#000000" d="M127.5779,-180.6991C125.2734,-197.9958 126.6641,-217 131.75,-217 135.8426,-217 137.5424,-204.6944 136.8495,-190.875"/>
<polygon fill="#000000" stroke="#000000" points="140.3154,-190.3401 135.9221,-180.6991 133.3442,-190.9755 140.3154,-190.3401"/>
<text text-anchor="middle" x="131.75" y="-220.8" font-family="Times,serif" font-size="14.00" fill="#000000">a:a/0</text>
</g>
<!-- 0&#45;&gt;0 -->
<g id="edge3" class="edge">
<title>0&#45;&gt;0</title>
<path fill="none" stroke="#000000" d="M126.5787,-180.3534C121.7001,-204.8176 123.4238,-235 131.75,-235 138.9704,-235 141.2256,-212.3024 138.5158,-190.3194"/>
<polygon fill="#000000" stroke="#000000" points="141.9573,-189.6749 136.9213,-180.3534 135.0452,-190.7808 141.9573,-189.6749"/>
<text text-anchor="middle" x="131.75" y="-238.8" font-family="Times,serif" font-size="14.00" fill="#000000">b:b/0</text>
</g>
<!-- 0&#45;&gt;0 -->
<g id="edge4" class="edge">
<title>0&#45;&gt;0</title>
<path fill="none" stroke="#000000" d="M125.8803,-180.2299C118.145,-211.4634 120.1016,-253 131.75,-253 142.1699,-253 144.8345,-219.763 139.7438,-190.3954"/>
<polygon fill="#000000" stroke="#000000" points="143.0911,-189.3026 137.6197,-180.2299 136.2391,-190.7344 143.0911,-189.3026"/>
<text text-anchor="middle" x="131.75" y="-256.8" font-family="Times,serif" font-size="14.00" fill="#000000">c:c/0</text>
</g>
<!-- 1 -->
<g id="node2" class="node">
<title>1</title>
<ellipse fill="none" stroke="#000000" stroke-width="2" cx="247.75" cy="-277" rx="18" ry="18"/>
<text text-anchor="middle" x="247.75" y="-273.3" font-family="Times,serif" font-size="14.00" fill="#000000">1</text>
</g>
<!-- 0&#45;&gt;1 -->
<g id="edge5" class="edge">
<title>0&#45;&gt;1</title>
<path fill="none" stroke="#000000" d="M133.3235,-181.3048C136.1014,-202.1239 143.7511,-235.72 164.75,-255 179.4816,-268.5257 201.567,-273.9169 219.2531,-275.9849"/>
<polygon fill="#000000" stroke="#000000" points="219.3254,-279.5044 229.5916,-276.8861 219.9333,-272.5308 219.3254,-279.5044"/>
<text text-anchor="middle" x="187.75" y="-277.8" font-family="Times,serif" font-size="14.00" fill="#000000">a:a/0</text>
</g>
<!-- 2 -->
<g id="node3" class="node">
<title>2</title>
<ellipse fill="none" stroke="#000000" stroke-width="2" cx="247.75" cy="-190" rx="18" ry="18"/>
<text text-anchor="middle" x="247.75" y="-186.3" font-family="Times,serif" font-size="14.00" fill="#000000">2</text>
</g>
<!-- 0&#45;&gt;2 -->
<g id="edge6" class="edge">
<title>0&#45;&gt;2</title>
<path fill="none" stroke="#000000" d="M147.4481,-171.8782C152.7915,-174.5534 158.8957,-177.2427 164.75,-179 182.5659,-184.3477 203.3101,-187.0977 219.6032,-188.5107"/>
<polygon fill="#000000" stroke="#000000" points="219.358,-192.0021 229.5919,-189.2601 219.8818,-185.0217 219.358,-192.0021"/>
<text text-anchor="middle" x="187.75" y="-190.8" font-family="Times,serif" font-size="14.00" fill="#000000">b:b/0</text>
</g>
<!-- 3 -->
<g id="node4" class="node">
<title>3</title>
<ellipse fill="none" stroke="#000000" stroke-width="2" cx="247.75" cy="-103" rx="18" ry="18"/>
<text text-anchor="middle" x="247.75" y="-99.3" font-family="Times,serif" font-size="14.00" fill="#000000">3</text>
</g>
<!-- 0&#45;&gt;3 -->
<g id="edge7" class="edge">
<title>0&#45;&gt;3</title>
<path fill="none" stroke="#000000" d="M145.1778,-150.4285C150.9108,-145.495 157.8606,-140.0559 164.75,-136 182.3455,-125.6413 203.7983,-117.2084 220.4856,-111.4605"/>
<polygon fill="#000000" stroke="#000000" points="221.7984,-114.7125 230.1829,-108.2355 219.5893,-108.0702 221.7984,-114.7125"/>
<text text-anchor="middle" x="187.75" y="-139.8" font-family="Times,serif" font-size="14.00" fill="#000000">c:c/0</text>
</g>
<!-- 4 -->
<g id="node5" class="node">
<title>4</title>
<ellipse fill="none" stroke="#000000" stroke-width="2" cx="247.75" cy="-45" rx="18" ry="18"/>
<ellipse fill="none" stroke="#000000" stroke-width="2" cx="247.75" cy="-45" rx="22" ry="22"/>
<text text-anchor="middle" x="247.75" y="-41.3" font-family="Times,serif" font-size="14.00" fill="#000000">4</text>
</g>
<!-- 0&#45;&gt;4 -->
<g id="edge8" class="edge">
<title>0&#45;&gt;4</title>
<path fill="none" stroke="#000000" d="M133.2339,-144.7672C135.9313,-123.6143 143.5093,-89.0805 164.75,-69 178.3803,-56.1142 198.4984,-50.0906 215.5139,-47.2998"/>
<polygon fill="#000000" stroke="#000000" points="216.1744,-50.7427 225.6219,-45.9475 215.246,-43.8045 216.1744,-50.7427"/>
<text text-anchor="middle" x="187.75" y="-72.8" font-family="Times,serif" font-size="14.00" fill="#000000">&#45;1:&#45;1/0</text>
</g>
<!-- 1&#45;&gt;0 -->
<g id="edge10" class="edge">
<title>1&#45;&gt;0</title>
<path fill="none" stroke="#000000" d="M236.5692,-262.8662C229.6179,-254.5451 220.2247,-244.0989 210.75,-236 192.1965,-220.1406 182.6579,-222.585 164.75,-206 158.5362,-200.2452 152.6128,-193.2222 147.5436,-186.5338"/>
<polygon fill="#000000" stroke="#000000" points="150.3238,-184.4055 141.622,-178.3616 144.6554,-188.5129 150.3238,-184.4055"/>
<text text-anchor="middle" x="187.75" y="-239.8" font-family="Times,serif" font-size="14.00" fill="#000000">a:ε/0</text>
</g>
<!-- 1&#45;&gt;1 -->
<g id="edge9" class="edge">
<title>1&#45;&gt;1</title>
<path fill="none" stroke="#000000" d="M237.5986,-292.1666C234.5225,-302.6641 237.9063,-313 247.75,-313 254.21,-313 257.8878,-308.5487 258.7837,-302.5216"/>
<polygon fill="#000000" stroke="#000000" points="262.2378,-301.8334 257.9014,-292.1666 255.2631,-302.4277 262.2378,-301.8334"/>
<text text-anchor="middle" x="247.75" y="-316.8" font-family="Times,serif" font-size="14.00" fill="#000000">a:ε/0</text>
</g>
<!-- 2&#45;&gt;0 -->
<g id="edge12" class="edge">
<title>2&#45;&gt;0</title>
<path fill="none" stroke="#000000" d="M235.4373,-176.4028C228.818,-170.1145 220.1035,-163.3155 210.75,-160 194.353,-154.1878 174.8267,-154.8665 159.2895,-157.0333"/>
<polygon fill="#000000" stroke="#000000" points="158.544,-153.6093 149.2577,-158.7097 159.6978,-160.5135 158.544,-153.6093"/>
<text text-anchor="middle" x="187.75" y="-163.8" font-family="Times,serif" font-size="14.00" fill="#000000">b:ε/0</text>
</g>
<!-- 2&#45;&gt;2 -->
<g id="edge11" class="edge">
<title>2&#45;&gt;2</title>
<path fill="none" stroke="#000000" d="M237.5986,-205.1666C234.5225,-215.6641 237.9063,-226 247.75,-226 254.21,-226 257.8878,-221.5487 258.7837,-215.5216"/>
<polygon fill="#000000" stroke="#000000" points="262.2378,-214.8334 257.9014,-205.1666 255.2631,-215.4277 262.2378,-214.8334"/>
<text text-anchor="middle" x="247.75" y="-229.8" font-family="Times,serif" font-size="14.00" fill="#000000">b:ε/0</text>
</g>
<!-- 3&#45;&gt;0 -->
<g id="edge14" class="edge">
<title>3&#45;&gt;0</title>
<path fill="none" stroke="#000000" d="M231.0981,-96.0834C213.2863,-89.8679 184.8865,-83.4715 164.75,-96 150.9298,-104.5986 142.7284,-120.8746 137.9585,-135.2311"/>
<polygon fill="#000000" stroke="#000000" points="134.4888,-134.629 135.0604,-145.2084 141.2109,-136.5816 134.4888,-134.629"/>
<text text-anchor="middle" x="187.75" y="-99.8" font-family="Times,serif" font-size="14.00" fill="#000000">c:ε/0</text>
</g>
<!-- 3&#45;&gt;3 -->
<g id="edge13" class="edge">
<title>3&#45;&gt;3</title>
<path fill="none" stroke="#000000" d="M237.5986,-118.1666C234.5225,-128.6641 237.9063,-139 247.75,-139 254.21,-139 257.8878,-134.5487 258.7837,-128.5216"/>
<polygon fill="#000000" stroke="#000000" points="262.2378,-127.8334 257.9014,-118.1666 255.2631,-128.4277 262.2378,-127.8334"/>
<text text-anchor="middle" x="247.75" y="-142.8" font-family="Times,serif" font-size="14.00" fill="#000000">c:ε/0</text>
</g>
</g>
</svg>
