<?xml version="1.0" encoding="UTF-8" standalone="no"?>
<!DOCTYPE svg PUBLIC "-//W3C//DTD SVG 1.1//EN"
 "http://www.w3.org/Graphics/SVG/1.1/DTD/svg11.dtd">
<!-- Generated by graphviz version 2.43.0 (0)
 -->
<!-- Title: WFST Pages: 1 -->
<svg width="380pt" height="336pt"
 viewBox="0.00 0.00 380.00 336.00" xmlns="http://www.w3.org/2000/svg" xmlns:xlink="http://www.w3.org/1999/xlink">
<g id="graph0" class="graph" transform="scale(1 1) rotate(0) translate(4 332)">
<title>WFST</title>
<polygon fill="white" stroke="transparent" points="-4,4 -4,-332 376,-332 376,4 -4,4"/>
<text text-anchor="middle" x="186" y="-7.8" font-family="Times,serif" font-size="14.00">CTC topology with max_token=3 (modified=True)</text>
<!-- 0 -->
<g id="node1" class="node">
<title>0</title>
<ellipse fill="none" stroke="black" stroke-width="2" cx="129" cy="-163" rx="18" ry="18"/>
<text text-anchor="middle" x="129" y="-159.3" font-family="Times,serif" font-size="14.00">0</text>
</g>
<!-- 0&#45;&gt;0 -->
<g id="edge1" class="edge">
<title>0&#45;&gt;0</title>
<path fill="none" stroke="black" d="M126.47,-181.15C126.08,-190.54 126.92,-199 129,-199 130.27,-199 131.07,-195.86 131.42,-191.28"/>
<polygon fill="black" stroke="black" points="134.93,-191.19 131.53,-181.15 127.93,-191.11 134.93,-191.19"/>
<text text-anchor="middle" x="129" y="-202.8" font-family="Times,serif" font-size="14.00">blk:ε/0</text>
</g>
<!-- 0&#45;&gt;0 -->
<g id="edge2" class="edge">
<title>0&#45;&gt;0</title>
<path fill="none" stroke="black" d="M124.83,-180.7C122.52,-198 123.91,-217 129,-217 133.09,-217 134.79,-204.69 134.1,-190.87"/>
<polygon fill="black" stroke="black" points="137.57,-190.34 133.17,-180.7 130.59,-190.98 137.57,-190.34"/>
<text text-anchor="middle" x="129" y="-220.8" font-family="Times,serif" font-size="14.00">a:a/0</text>
</g>
<!-- 0&#45;&gt;0 -->
<g id="edge3" class="edge">
<title>0&#45;&gt;0</title>
<path fill="none" stroke="black" d="M123.83,-180.35C118.95,-204.82 120.67,-235 129,-235 136.22,-235 138.48,-212.3 135.77,-190.32"/>
<polygon fill="black" stroke="black" points="139.21,-189.67 134.17,-180.35 132.3,-190.78 139.21,-189.67"/>
<text text-anchor="middle" x="129" y="-238.8" font-family="Times,serif" font-size="14.00">b:b/0</text>
</g>
<!-- 0&#45;&gt;0 -->
<g id="edge4" class="edge">
<title>0&#45;&gt;0</title>
<path fill="none" stroke="black" d="M123.13,-180.23C115.39,-211.46 117.35,-253 129,-253 139.42,-253 142.08,-219.76 136.99,-190.4"/>
<polygon fill="black" stroke="black" points="140.34,-189.3 134.87,-180.23 133.49,-190.73 140.34,-189.3"/>
<text text-anchor="middle" x="129" y="-256.8" font-family="Times,serif" font-size="14.00">c:c/0</text>
</g>
<!-- 1 -->
<g id="node2" class="node">
<title>1</title>
<ellipse fill="none" stroke="black" stroke-width="2" cx="245" cy="-277" rx="18" ry="18"/>
<text text-anchor="middle" x="245" y="-273.3" font-family="Times,serif" font-size="14.00">1</text>
</g>
<!-- 0&#45;&gt;1 -->
<g id="edge5" class="edge">
<title>0&#45;&gt;1</title>
<path fill="none" stroke="black" d="M131.32,-180.91C133.83,-201.68 141.07,-235.54 162,-255 176.66,-268.63 198.84,-273.99 216.44,-276.02"/>
<polygon fill="black" stroke="black" points="216.44,-279.53 226.7,-276.9 217.03,-272.56 216.44,-279.53"/>
<text text-anchor="middle" x="185" y="-277.8" font-family="Times,serif" font-size="14.00">a:a/0</text>
</g>
<!-- 2 -->
<g id="node3" class="node">
<title>2</title>
<ellipse fill="none" stroke="black" stroke-width="2" cx="245" cy="-190" rx="18" ry="18"/>
<text text-anchor="middle" x="245" y="-186.3" font-family="Times,serif" font-size="14.00">2</text>
</g>
<!-- 0&#45;&gt;2 -->
<g id="edge6" class="edge">
<title>0&#45;&gt;2</title>
<path fill="none" stroke="black" d="M144.87,-171.72C150.13,-174.45 156.18,-177.21 162,-179 179.74,-184.46 200.45,-187.21 216.63,-188.59"/>
<polygon fill="black" stroke="black" points="216.78,-192.11 227,-189.35 217.29,-185.13 216.78,-192.11"/>
<text text-anchor="middle" x="185" y="-190.8" font-family="Times,serif" font-size="14.00">b:b/0</text>
</g>
<!-- 3 -->
<g id="node4" class="node">
<title>3</title>
<ellipse fill="none" stroke="black" stroke-width="2" cx="245" cy="-103" rx="18" ry="18"/>
<text text-anchor="middle" x="245" y="-99.3" font-family="Times,serif" font-size="14.00">3</text>
</g>
<!-- 0&#45;&gt;3 -->
<g id="edge7" class="edge">
<title>0&#45;&gt;3</title>
<path fill="none" stroke="black" d="M142.67,-150.69C148.28,-145.69 155.15,-140.12 162,-136 179.64,-125.38 201.31,-116.83 217.94,-111.1"/>
<polygon fill="black" stroke="black" points="219.18,-114.37 227.57,-107.9 216.97,-107.73 219.18,-114.37"/>
<text text-anchor="middle" x="185" y="-139.8" font-family="Times,serif" font-size="14.00">c:c/0</text>
</g>
<!-- 4 -->
<g id="node5" class="node">
<title>4</title>
<ellipse fill="none" stroke="black" stroke-width="2" cx="245" cy="-45" rx="18" ry="18"/>
<ellipse fill="none" stroke="black" stroke-width="2" cx="245" cy="-45" rx="22" ry="22"/>
<text text-anchor="middle" x="245" y="-41.3" font-family="Times,serif" font-size="14.00">4</text>
</g>
<!-- 0&#45;&gt;4 -->
<g id="edge8" class="edge">
<title>0&#45;&gt;4</title>
<path fill="none" stroke="black" d="M131.14,-144.94C133.48,-123.58 140.55,-88.38 162,-68 175.58,-55.1 195.81,-49.33 212.77,-46.8"/>
<polygon fill="black" stroke="black" points="213.31,-50.26 222.82,-45.61 212.48,-43.31 213.31,-50.26"/>
<text text-anchor="middle" x="185" y="-71.8" font-family="Times,serif" font-size="14.00">&#45;1:&#45;1/0</text>
</g>
<!-- 1&#45;&gt;0 -->
<g id="edge10" class="edge">
<title>1&#45;&gt;0</title>
<path fill="none" stroke="black" d="M233.18,-262.84C226.44,-254.51 217.31,-244.06 208,-236 189.55,-220.01 179.78,-222.72 162,-206 155.8,-200.17 149.95,-193.03 144.99,-186.24"/>
<polygon fill="black" stroke="black" points="147.81,-184.17 139.22,-177.97 142.07,-188.18 147.81,-184.17"/>
<text text-anchor="middle" x="185" y="-239.8" font-family="Times,serif" font-size="14.00">a:ε/0</text>
</g>
<!-- 1&#45;&gt;1 -->
<g id="edge9" class="edge">
<title>1&#45;&gt;1</title>
<path fill="none" stroke="black" d="M234.85,-292.17C231.77,-302.66 235.16,-313 245,-313 251.46,-313 255.14,-308.55 256.03,-302.52"/>
<polygon fill="black" stroke="black" points="259.49,-301.83 255.15,-292.17 252.51,-302.43 259.49,-301.83"/>
<text text-anchor="middle" x="245" y="-316.8" font-family="Times,serif" font-size="14.00">a:ε/0</text>
</g>
<!-- 2&#45;&gt;0 -->
<g id="edge12" class="edge">
<title>2&#45;&gt;0</title>
<path fill="none" stroke="black" d="M232.41,-176.72C225.95,-170.35 217.33,-163.38 208,-160 191.64,-154.08 172.08,-154.85 156.63,-157.09"/>
<polygon fill="black" stroke="black" points="155.94,-153.66 146.69,-158.81 157.14,-160.55 155.94,-153.66"/>
<text text-anchor="middle" x="185" y="-163.8" font-family="Times,serif" font-size="14.00">b:ε/0</text>
</g>
<!-- 2&#45;&gt;2 -->
<g id="edge11" class="edge">
<title>2&#45;&gt;2</title>
<path fill="none" stroke="black" d="M234.85,-205.17C231.77,-215.66 235.16,-226 245,-226 251.46,-226 255.14,-221.55 256.03,-215.52"/>
<polygon fill="black" stroke="black" points="259.49,-214.83 255.15,-205.17 252.51,-215.43 259.49,-214.83"/>
<text text-anchor="middle" x="245" y="-229.8" font-family="Times,serif" font-size="14.00">b:ε/0</text>
</g>
<!-- 3&#45;&gt;0 -->
<g id="edge14" class="edge">
<title>3&#45;&gt;0</title>
<path fill="none" stroke="black" d="M228.15,-96.01C210.57,-89.42 182.05,-82.28 162,-95 147.95,-103.92 139.95,-120.83 135.47,-135.56"/>
<polygon fill="black" stroke="black" points="132.07,-134.72 132.9,-145.28 138.84,-136.51 132.07,-134.72"/>
<text text-anchor="middle" x="185" y="-98.8" font-family="Times,serif" font-size="14.00">c:ε/0</text>
</g>
<!-- 3&#45;&gt;3 -->
<g id="edge13" class="edge">
<title>3&#45;&gt;3</title>
<path fill="none" stroke="black" d="M234.85,-118.17C231.77,-128.66 235.16,-139 245,-139 251.46,-139 255.14,-134.55 256.03,-128.52"/>
<polygon fill="black" stroke="black" points="259.49,-127.83 255.15,-118.17 252.51,-128.43 259.49,-127.83"/>
<text text-anchor="middle" x="245" y="-142.8" font-family="Times,serif" font-size="14.00">c:ε/0</text>
</g>
</g>
</svg>
