<?xml version="1.0" encoding="UTF-8" standalone="no"?>
<!DOCTYPE svg PUBLIC "-//W3C//DTD SVG 1.1//EN"
 "http://www.w3.org/Graphics/SVG/1.1/DTD/svg11.dtd">
<!-- Generated by graphviz version 2.43.0 (0)
 -->
<!-- Title: WFST Pages: 1 -->
<svg width="612pt" height="81pt"
 viewBox="0.00 0.00 612.00 81.40" xmlns="http://www.w3.org/2000/svg" xmlns:xlink="http://www.w3.org/1999/xlink">
<g id="graph0" class="graph" transform="scale(1.71 1.71) rotate(0) translate(4 135)">
<title>WFST</title>
<polygon fill="white" stroke="transparent" points="-4,4 -4,-135 1041,-135 1041,4 -4,4"/>
<text text-anchor="middle" x="518.5" y="-7.8" font-family="Times,serif" font-size="14.00">CTC graph for the string &quot;abbc&quot; (modified=True)</text>
<!-- 0 -->
<g id="node1" class="node">
<title>0</title>
<ellipse fill="none" stroke="black" stroke-width="2" cx="24" cy="-45" rx="18" ry="18"/>
<text text-anchor="middle" x="24" y="-41.3" font-family="Times,serif" font-size="14.00">0</text>
</g>
<!-- 0&#45;&gt;0 -->
<g id="edge1" class="edge">
<title>0&#45;&gt;0</title>
<path fill="none" stroke="black" d="M15.37,-60.92C13.11,-71.15 15.99,-81 24,-81 29.26,-81 32.3,-76.76 33.14,-70.95"/>
<polygon fill="black" stroke="black" points="36.63,-70.73 32.63,-60.92 29.64,-71.08 36.63,-70.73"/>
<text text-anchor="middle" x="24" y="-84.8" font-family="Times,serif" font-size="14.00">blk:ε/0</text>
</g>
<!-- 1 -->
<g id="node2" class="node">
<title>1</title>
<ellipse fill="none" stroke="black" stroke-width="2" cx="125" cy="-45" rx="18" ry="18"/>
<text text-anchor="middle" x="125" y="-41.3" font-family="Times,serif" font-size="14.00">1</text>
</g>
<!-- 0&#45;&gt;1 -->
<g id="edge2" class="edge">
<title>0&#45;&gt;1</title>
<path fill="none" stroke="black" d="M42.24,-45C57.29,-45 79.38,-45 96.81,-45"/>
<polygon fill="black" stroke="black" points="96.95,-48.5 106.95,-45 96.95,-41.5 96.95,-48.5"/>
<text text-anchor="middle" x="74.5" y="-48.8" font-family="Times,serif" font-size="14.00">a:a/0</text>
</g>
<!-- 1&#45;&gt;1 -->
<g id="edge4" class="edge">
<title>1&#45;&gt;1</title>
<path fill="none" stroke="black" d="M116.37,-60.92C114.11,-71.15 116.99,-81 125,-81 130.26,-81 133.3,-76.76 134.14,-70.95"/>
<polygon fill="black" stroke="black" points="137.63,-70.73 133.63,-60.92 130.64,-71.08 137.63,-70.73"/>
<text text-anchor="middle" x="125" y="-84.8" font-family="Times,serif" font-size="14.00">a:ε/0</text>
</g>
<!-- 2 -->
<g id="node3" class="node">
<title>2</title>
<ellipse fill="none" stroke="black" stroke-width="2" cx="239.5" cy="-80" rx="18" ry="18"/>
<text text-anchor="middle" x="239.5" y="-76.3" font-family="Times,serif" font-size="14.00">2</text>
</g>
<!-- 1&#45;&gt;2 -->
<g id="edge3" class="edge">
<title>1&#45;&gt;2</title>
<path fill="none" stroke="black" d="M142.6,-50.16C160.98,-55.88 190.86,-65.18 212.39,-71.88"/>
<polygon fill="black" stroke="black" points="211.61,-75.3 222.2,-74.93 213.69,-68.62 211.61,-75.3"/>
<text text-anchor="middle" x="182" y="-72.8" font-family="Times,serif" font-size="14.00">blk:ε/0</text>
</g>
<!-- 3 -->
<g id="node4" class="node">
<title>3</title>
<ellipse fill="none" stroke="black" stroke-width="2" cx="343" cy="-45" rx="18" ry="18"/>
<text text-anchor="middle" x="343" y="-41.3" font-family="Times,serif" font-size="14.00">3</text>
</g>
<!-- 1&#45;&gt;3 -->
<g id="edge5" class="edge">
<title>1&#45;&gt;3</title>
<path fill="none" stroke="black" d="M143.08,-43.06C168.24,-40.44 216.73,-36.28 258,-38 277.07,-38.79 298.51,-40.6 314.96,-42.17"/>
<polygon fill="black" stroke="black" points="314.68,-45.66 324.97,-43.16 315.37,-38.7 314.68,-45.66"/>
<text text-anchor="middle" x="239.5" y="-41.8" font-family="Times,serif" font-size="14.00">b:b/0</text>
</g>
<!-- 2&#45;&gt;2 -->
<g id="edge6" class="edge">
<title>2&#45;&gt;2</title>
<path fill="none" stroke="black" d="M230.52,-95.92C228.18,-106.15 231.17,-116 239.5,-116 244.97,-116 248.13,-111.76 249,-105.95"/>
<polygon fill="black" stroke="black" points="252.5,-105.72 248.48,-95.92 245.51,-106.09 252.5,-105.72"/>
<text text-anchor="middle" x="239.5" y="-119.8" font-family="Times,serif" font-size="14.00">blk:ε/0</text>
</g>
<!-- 2&#45;&gt;3 -->
<g id="edge7" class="edge">
<title>2&#45;&gt;3</title>
<path fill="none" stroke="black" d="M256.81,-74.38C272.79,-68.87 297.4,-60.38 316.07,-53.94"/>
<polygon fill="black" stroke="black" points="317.42,-57.18 325.73,-50.61 315.14,-50.56 317.42,-57.18"/>
<text text-anchor="middle" x="291.5" y="-71.8" font-family="Times,serif" font-size="14.00">b:b/0</text>
</g>
<!-- 3&#45;&gt;3 -->
<g id="edge9" class="edge">
<title>3&#45;&gt;3</title>
<path fill="none" stroke="black" d="M334.37,-60.92C332.11,-71.15 334.99,-81 343,-81 348.26,-81 351.3,-76.76 352.14,-70.95"/>
<polygon fill="black" stroke="black" points="355.63,-70.73 351.63,-60.92 348.64,-71.08 355.63,-70.73"/>
<text text-anchor="middle" x="343" y="-84.8" font-family="Times,serif" font-size="14.00">b:ε/0</text>
</g>
<!-- 4 -->
<g id="node5" class="node">
<title>4</title>
<ellipse fill="none" stroke="black" stroke-width="2" cx="457.5" cy="-80" rx="18" ry="18"/>
<text text-anchor="middle" x="457.5" y="-76.3" font-family="Times,serif" font-size="14.00">4</text>
</g>
<!-- 3&#45;&gt;4 -->
<g id="edge8" class="edge">
<title>3&#45;&gt;4</title>
<path fill="none" stroke="black" d="M360.6,-50.16C378.98,-55.88 408.86,-65.18 430.39,-71.88"/>
<polygon fill="black" stroke="black" points="429.61,-75.3 440.2,-74.93 431.69,-68.62 429.61,-75.3"/>
<text text-anchor="middle" x="400" y="-72.8" font-family="Times,serif" font-size="14.00">blk:ε/0</text>
</g>
<!-- 5 -->
<g id="node6" class="node">
<title>5</title>
<ellipse fill="none" stroke="black" stroke-width="2" cx="561" cy="-45" rx="18" ry="18"/>
<text text-anchor="middle" x="561" y="-41.3" font-family="Times,serif" font-size="14.00">5</text>
</g>
<!-- 3&#45;&gt;5 -->
<g id="edge10" class="edge">
<title>3&#45;&gt;5</title>
<path fill="none" stroke="black" d="M361.08,-43.06C386.24,-40.44 434.73,-36.28 476,-38 495.07,-38.79 516.51,-40.6 532.96,-42.17"/>
<polygon fill="black" stroke="black" points="532.68,-45.66 542.97,-43.16 533.37,-38.7 532.68,-45.66"/>
<text text-anchor="middle" x="457.5" y="-41.8" font-family="Times,serif" font-size="14.00">b:b/0</text>
</g>
<!-- 4&#45;&gt;4 -->
<g id="edge11" class="edge">
<title>4&#45;&gt;4</title>
<path fill="none" stroke="black" d="M448.52,-95.92C446.18,-106.15 449.17,-116 457.5,-116 462.97,-116 466.13,-111.76 467,-105.95"/>
<polygon fill="black" stroke="black" points="470.5,-105.72 466.48,-95.92 463.51,-106.09 470.5,-105.72"/>
<text text-anchor="middle" x="457.5" y="-119.8" font-family="Times,serif" font-size="14.00">blk:ε/0</text>
</g>
<!-- 4&#45;&gt;5 -->
<g id="edge12" class="edge">
<title>4&#45;&gt;5</title>
<path fill="none" stroke="black" d="M474.81,-74.38C490.79,-68.87 515.4,-60.38 534.07,-53.94"/>
<polygon fill="black" stroke="black" points="535.42,-57.18 543.73,-50.61 533.14,-50.56 535.42,-57.18"/>
<text text-anchor="middle" x="509.5" y="-71.8" font-family="Times,serif" font-size="14.00">b:b/0</text>
</g>
<!-- 5&#45;&gt;5 -->
<g id="edge14" class="edge">
<title>5&#45;&gt;5</title>
<path fill="none" stroke="black" d="M552.37,-60.92C550.11,-71.15 552.99,-81 561,-81 566.26,-81 569.3,-76.76 570.14,-70.95"/>
<polygon fill="black" stroke="black" points="573.63,-70.73 569.63,-60.92 566.64,-71.08 573.63,-70.73"/>
<text text-anchor="middle" x="561" y="-84.8" font-family="Times,serif" font-size="14.00">b:ε/0</text>
</g>
<!-- 6 -->
<g id="node7" class="node">
<title>6</title>
<ellipse fill="none" stroke="black" stroke-width="2" cx="675" cy="-80" rx="18" ry="18"/>
<text text-anchor="middle" x="675" y="-76.3" font-family="Times,serif" font-size="14.00">6</text>
</g>
<!-- 5&#45;&gt;6 -->
<g id="edge13" class="edge">
<title>5&#45;&gt;6</title>
<path fill="none" stroke="black" d="M578.53,-50.16C596.72,-55.85 626.24,-65.07 647.64,-71.76"/>
<polygon fill="black" stroke="black" points="646.82,-75.17 657.41,-74.81 648.91,-68.49 646.82,-75.17"/>
<text text-anchor="middle" x="618" y="-72.8" font-family="Times,serif" font-size="14.00">blk:ε/0</text>
</g>
<!-- 7 -->
<g id="node8" class="node">
<title>7</title>
<ellipse fill="none" stroke="black" stroke-width="2" cx="775" cy="-45" rx="18" ry="18"/>
<text text-anchor="middle" x="775" y="-41.3" font-family="Times,serif" font-size="14.00">7</text>
</g>
<!-- 5&#45;&gt;7 -->
<g id="edge15" class="edge">
<title>5&#45;&gt;7</title>
<path fill="none" stroke="black" d="M578.95,-43.05C603.92,-40.41 652.04,-36.23 693,-38 710.99,-38.78 731.16,-40.52 746.88,-42.07"/>
<polygon fill="black" stroke="black" points="746.66,-45.56 756.96,-43.1 747.37,-38.6 746.66,-45.56"/>
<text text-anchor="middle" x="675" y="-41.8" font-family="Times,serif" font-size="14.00">c:c/0</text>
</g>
<!-- 6&#45;&gt;6 -->
<g id="edge16" class="edge">
<title>6&#45;&gt;6</title>
<path fill="none" stroke="black" d="M666.37,-95.92C664.11,-106.15 666.99,-116 675,-116 680.26,-116 683.3,-111.76 684.14,-105.95"/>
<polygon fill="black" stroke="black" points="687.63,-105.73 683.63,-95.92 680.64,-106.08 687.63,-105.73"/>
<text text-anchor="middle" x="675" y="-119.8" font-family="Times,serif" font-size="14.00">blk:ε/0</text>
</g>
<!-- 6&#45;&gt;7 -->
<g id="edge17" class="edge">
<title>6&#45;&gt;7</title>
<path fill="none" stroke="black" d="M692.18,-74.22C707.36,-68.8 730.32,-60.6 748.05,-54.27"/>
<polygon fill="black" stroke="black" points="749.55,-57.45 757.79,-50.79 747.2,-50.86 749.55,-57.45"/>
<text text-anchor="middle" x="725" y="-70.8" font-family="Times,serif" font-size="14.00">c:c/0</text>
</g>
<!-- 7&#45;&gt;7 -->
<g id="edge19" class="edge">
<title>7&#45;&gt;7</title>
<path fill="none" stroke="black" d="M766.37,-60.92C764.11,-71.15 766.99,-81 775,-81 780.26,-81 783.3,-76.76 784.14,-70.95"/>
<polygon fill="black" stroke="black" points="787.63,-70.73 783.63,-60.92 780.64,-71.08 787.63,-70.73"/>
<text text-anchor="middle" x="775" y="-84.8" font-family="Times,serif" font-size="14.00">c:ε/0</text>
</g>
<!-- 8 -->
<g id="node9" class="node">
<title>8</title>
<ellipse fill="none" stroke="black" stroke-width="2" cx="894" cy="-80" rx="18" ry="18"/>
<text text-anchor="middle" x="894" y="-76.3" font-family="Times,serif" font-size="14.00">8</text>
</g>
<!-- 7&#45;&gt;8 -->
<g id="edge18" class="edge">
<title>7&#45;&gt;8</title>
<path fill="none" stroke="black" d="M792.52,-49.94C811.85,-55.73 844.12,-65.38 866.87,-72.18"/>
<polygon fill="black" stroke="black" points="865.99,-75.57 876.57,-75.08 867.99,-68.87 865.99,-75.57"/>
<text text-anchor="middle" x="832" y="-71.8" font-family="Times,serif" font-size="14.00">blk:ε/0</text>
</g>
<!-- 9 -->
<g id="node10" class="node">
<title>9</title>
<ellipse fill="none" stroke="black" stroke-width="2" cx="1015" cy="-45" rx="18" ry="18"/>
<ellipse fill="none" stroke="black" stroke-width="2" cx="1015" cy="-45" rx="22" ry="22"/>
<text text-anchor="middle" x="1015" y="-41.3" font-family="Times,serif" font-size="14.00">9</text>
</g>
<!-- 7&#45;&gt;9 -->
<g id="edge20" class="edge">
<title>7&#45;&gt;9</title>
<path fill="none" stroke="black" d="M793.14,-43.36C812.15,-41.62 843.73,-39 871,-38 891.43,-37.25 896.57,-37.26 917,-38 938.96,-38.79 963.67,-40.59 982.65,-42.16"/>
<polygon fill="black" stroke="black" points="982.57,-45.67 992.83,-43.03 983.16,-38.69 982.57,-45.67"/>
<text text-anchor="middle" x="894" y="-41.8" font-family="Times,serif" font-size="14.00">&#45;1:&#45;1/0</text>
</g>
<!-- 8&#45;&gt;8 -->
<g id="edge21" class="edge">
<title>8&#45;&gt;8</title>
<path fill="none" stroke="black" d="M883.85,-95.17C880.77,-105.66 884.16,-116 894,-116 900.46,-116 904.14,-111.55 905.03,-105.52"/>
<polygon fill="black" stroke="black" points="908.49,-104.83 904.15,-95.17 901.51,-105.43 908.49,-104.83"/>
<text text-anchor="middle" x="894" y="-119.8" font-family="Times,serif" font-size="14.00">blk:ε/0</text>
</g>
<!-- 8&#45;&gt;9 -->
<g id="edge22" class="edge">
<title>8&#45;&gt;9</title>
<path fill="none" stroke="black" d="M911.55,-75.13C930.24,-69.64 961.04,-60.58 984,-53.82"/>
<polygon fill="black" stroke="black" points="985,-57.18 993.61,-51 983.03,-50.46 985,-57.18"/>
<text text-anchor="middle" x="955" y="-71.8" font-family="Times,serif" font-size="14.00">&#45;1:&#45;1/0</text>
</g>
</g>
</svg>
