<?xml version="1.0" encoding="UTF-8" standalone="no"?>
<!DOCTYPE svg PUBLIC "-//W3C//DTD SVG 1.1//EN"
 "http://www.w3.org/Graphics/SVG/1.1/DTD/svg11.dtd">
<!-- Generated by graphviz version 2.40.1 (20161225.0304)
 -->
<!-- Title: WFST Pages: 1 -->
<svg width="612pt" height="81pt"
 viewBox="0.00 0.00 612.00 80.98" xmlns="http://www.w3.org/2000/svg" xmlns:xlink="http://www.w3.org/1999/xlink">
<g id="graph0" class="graph" transform="scale(.5826 .5826) rotate(0) translate(4 135)">
<title>WFST</title>
<polygon fill="#ffffff" stroke="transparent" points="-4,4 -4,-135 1046.5,-135 1046.5,4 -4,4"/>
<text text-anchor="middle" x="521.25" y="-7.8" font-family="Times,serif" font-size="14.00" fill="#000000">CTC graph for the string &quot;abbc&quot; (modified=True)</text>
<!-- 0 -->
<g id="node1" class="node">
<title>0</title>
<ellipse fill="none" stroke="#000000" stroke-width="2" cx="24.5" cy="-45" rx="18" ry="18"/>
<text text-anchor="middle" x="24.5" y="-41.3" font-family="Times,serif" font-size="14.00" fill="#000000">0</text>
</g>
<!-- 0&#45;&gt;0 -->
<g id="edge1" class="edge">
<title>0&#45;&gt;0</title>
<path fill="none" stroke="#000000" d="M15.8666,-60.916C13.6144,-71.1504 16.4922,-81 24.5,-81 29.7551,-81 32.8009,-76.7581 33.6375,-70.9494"/>
<polygon fill="#000000" stroke="#000000" points="37.1308,-70.7278 33.1334,-60.916 30.1396,-71.0791 37.1308,-70.7278"/>
<text text-anchor="middle" x="24.5" y="-84.8" font-family="Times,serif" font-size="14.00" fill="#000000">blk:ε/0</text>
</g>
<!-- 1 -->
<g id="node2" class="node">
<title>1</title>
<ellipse fill="none" stroke="#000000" stroke-width="2" cx="125.5" cy="-45" rx="18" ry="18"/>
<text text-anchor="middle" x="125.5" y="-41.3" font-family="Times,serif" font-size="14.00" fill="#000000">1</text>
</g>
<!-- 0&#45;&gt;1 -->
<g id="edge2" class="edge">
<title>0&#45;&gt;1</title>
<path fill="none" stroke="#000000" d="M42.5568,-45C57.687,-45 79.5552,-45 97.039,-45"/>
<polygon fill="#000000" stroke="#000000" points="97.2591,-48.5001 107.259,-45 97.259,-41.5001 97.2591,-48.5001"/>
<text text-anchor="middle" x="75" y="-48.8" font-family="Times,serif" font-size="14.00" fill="#000000">a:a/0</text>
</g>
<!-- 1&#45;&gt;1 -->
<g id="edge4" class="edge">
<title>1&#45;&gt;1</title>
<path fill="none" stroke="#000000" d="M116.8666,-60.916C114.6144,-71.1504 117.4922,-81 125.5,-81 130.7551,-81 133.8009,-76.7581 134.6375,-70.9494"/>
<polygon fill="#000000" stroke="#000000" points="138.1308,-70.7278 134.1334,-60.916 131.1396,-71.0791 138.1308,-70.7278"/>
<text text-anchor="middle" x="125.5" y="-84.8" font-family="Times,serif" font-size="14.00" fill="#000000">a:ε/0</text>
</g>
<!-- 2 -->
<g id="node3" class="node">
<title>2</title>
<ellipse fill="none" stroke="#000000" stroke-width="2" cx="241" cy="-80" rx="18" ry="18"/>
<text text-anchor="middle" x="241" y="-76.3" font-family="Times,serif" font-size="14.00" fill="#000000">2</text>
</g>
<!-- 1&#45;&gt;2 -->
<g id="edge3" class="edge">
<title>1&#45;&gt;2</title>
<path fill="none" stroke="#000000" d="M143.042,-50.3157C161.8917,-56.0278 192.0873,-65.178 213.9753,-71.8107"/>
<polygon fill="#000000" stroke="#000000" points="213.0861,-75.1983 223.6714,-74.7489 215.1162,-68.4992 213.0861,-75.1983"/>
<text text-anchor="middle" x="183" y="-72.8" font-family="Times,serif" font-size="14.00" fill="#000000">blk:ε/0</text>
</g>
<!-- 3 -->
<g id="node4" class="node">
<title>3</title>
<ellipse fill="none" stroke="#000000" stroke-width="2" cx="344.5" cy="-45" rx="18" ry="18"/>
<text text-anchor="middle" x="344.5" y="-41.3" font-family="Times,serif" font-size="14.00" fill="#000000">3</text>
</g>
<!-- 1&#45;&gt;3 -->
<g id="edge5" class="edge">
<title>1&#45;&gt;3</title>
<path fill="none" stroke="#000000" d="M143.7002,-42.9722C169.4693,-40.3464 218.0688,-36.2969 259.5,-38 278.4322,-38.7782 299.6765,-40.5276 316.1905,-42.0827"/>
<polygon fill="#000000" stroke="#000000" points="315.9959,-45.5802 326.2877,-43.0644 316.6734,-38.613 315.9959,-45.5802"/>
<text text-anchor="middle" x="241" y="-41.8" font-family="Times,serif" font-size="14.00" fill="#000000">b:b/0</text>
</g>
<!-- 2&#45;&gt;2 -->
<g id="edge6" class="edge">
<title>2&#45;&gt;2</title>
<path fill="none" stroke="#000000" d="M232.0212,-95.916C229.679,-106.1504 232.6719,-116 241,-116 246.4653,-116 249.633,-111.7581 250.503,-105.9494"/>
<polygon fill="#000000" stroke="#000000" points="253.9958,-105.7198 249.9788,-95.916 247.0054,-106.0851 253.9958,-105.7198"/>
<text text-anchor="middle" x="241" y="-119.8" font-family="Times,serif" font-size="14.00" fill="#000000">blk:ε/0</text>
</g>
<!-- 2&#45;&gt;3 -->
<g id="edge7" class="edge">
<title>2&#45;&gt;3</title>
<path fill="none" stroke="#000000" d="M258.0909,-74.2205C274.3463,-68.7235 299.0456,-60.371 317.8801,-54.0019"/>
<polygon fill="#000000" stroke="#000000" points="319.0319,-57.3072 327.3837,-50.7881 316.7894,-50.6761 319.0319,-57.3072"/>
<text text-anchor="middle" x="293" y="-70.8" font-family="Times,serif" font-size="14.00" fill="#000000">b:b/0</text>
</g>
<!-- 3&#45;&gt;3 -->
<g id="edge9" class="edge">
<title>3&#45;&gt;3</title>
<path fill="none" stroke="#000000" d="M335.8666,-60.916C333.6144,-71.1504 336.4922,-81 344.5,-81 349.7551,-81 352.8009,-76.7581 353.6375,-70.9494"/>
<polygon fill="#000000" stroke="#000000" points="357.1308,-70.7278 353.1334,-60.916 350.1396,-71.0791 357.1308,-70.7278"/>
<text text-anchor="middle" x="344.5" y="-84.8" font-family="Times,serif" font-size="14.00" fill="#000000">b:ε/0</text>
</g>
<!-- 4 -->
<g id="node5" class="node">
<title>4</title>
<ellipse fill="none" stroke="#000000" stroke-width="2" cx="460" cy="-80" rx="18" ry="18"/>
<text text-anchor="middle" x="460" y="-76.3" font-family="Times,serif" font-size="14.00" fill="#000000">4</text>
</g>
<!-- 3&#45;&gt;4 -->
<g id="edge8" class="edge">
<title>3&#45;&gt;4</title>
<path fill="none" stroke="#000000" d="M362.042,-50.3157C380.8917,-56.0278 411.0873,-65.178 432.9753,-71.8107"/>
<polygon fill="#000000" stroke="#000000" points="432.0861,-75.1983 442.6714,-74.7489 434.1162,-68.4992 432.0861,-75.1983"/>
<text text-anchor="middle" x="402" y="-72.8" font-family="Times,serif" font-size="14.00" fill="#000000">blk:ε/0</text>
</g>
<!-- 5 -->
<g id="node6" class="node">
<title>5</title>
<ellipse fill="none" stroke="#000000" stroke-width="2" cx="563.5" cy="-45" rx="18" ry="18"/>
<text text-anchor="middle" x="563.5" y="-41.3" font-family="Times,serif" font-size="14.00" fill="#000000">5</text>
</g>
<!-- 3&#45;&gt;5 -->
<g id="edge10" class="edge">
<title>3&#45;&gt;5</title>
<path fill="none" stroke="#000000" d="M362.7002,-42.9722C388.4693,-40.3464 437.0688,-36.2969 478.5,-38 497.4322,-38.7782 518.6765,-40.5276 535.1905,-42.0827"/>
<polygon fill="#000000" stroke="#000000" points="534.9959,-45.5802 545.2877,-43.0644 535.6734,-38.613 534.9959,-45.5802"/>
<text text-anchor="middle" x="460" y="-41.8" font-family="Times,serif" font-size="14.00" fill="#000000">b:b/0</text>
</g>
<!-- 4&#45;&gt;4 -->
<g id="edge11" class="edge">
<title>4&#45;&gt;4</title>
<path fill="none" stroke="#000000" d="M451.0212,-95.916C448.679,-106.1504 451.6719,-116 460,-116 465.4653,-116 468.633,-111.7581 469.503,-105.9494"/>
<polygon fill="#000000" stroke="#000000" points="472.9958,-105.7198 468.9788,-95.916 466.0054,-106.0851 472.9958,-105.7198"/>
<text text-anchor="middle" x="460" y="-119.8" font-family="Times,serif" font-size="14.00" fill="#000000">blk:ε/0</text>
</g>
<!-- 4&#45;&gt;5 -->
<g id="edge12" class="edge">
<title>4&#45;&gt;5</title>
<path fill="none" stroke="#000000" d="M477.0909,-74.2205C493.3463,-68.7235 518.0456,-60.371 536.8801,-54.0019"/>
<polygon fill="#000000" stroke="#000000" points="538.0319,-57.3072 546.3837,-50.7881 535.7894,-50.6761 538.0319,-57.3072"/>
<text text-anchor="middle" x="512" y="-70.8" font-family="Times,serif" font-size="14.00" fill="#000000">b:b/0</text>
</g>
<!-- 5&#45;&gt;5 -->
<g id="edge14" class="edge">
<title>5&#45;&gt;5</title>
<path fill="none" stroke="#000000" d="M554.8666,-60.916C552.6144,-71.1504 555.4922,-81 563.5,-81 568.7551,-81 571.8009,-76.7581 572.6375,-70.9494"/>
<polygon fill="#000000" stroke="#000000" points="576.1308,-70.7278 572.1334,-60.916 569.1396,-71.0791 576.1308,-70.7278"/>
<text text-anchor="middle" x="563.5" y="-84.8" font-family="Times,serif" font-size="14.00" fill="#000000">b:ε/0</text>
</g>
<!-- 6 -->
<g id="node7" class="node">
<title>6</title>
<ellipse fill="none" stroke="#000000" stroke-width="2" cx="678.5" cy="-80" rx="18" ry="18"/>
<text text-anchor="middle" x="678.5" y="-76.3" font-family="Times,serif" font-size="14.00" fill="#000000">6</text>
</g>
<!-- 5&#45;&gt;6 -->
<g id="edge13" class="edge">
<title>5&#45;&gt;6</title>
<path fill="none" stroke="#000000" d="M580.966,-50.3157C599.7342,-56.0278 629.7991,-65.178 651.5923,-71.8107"/>
<polygon fill="#000000" stroke="#000000" points="650.6606,-75.1856 661.2464,-74.7489 652.6988,-68.4889 650.6606,-75.1856"/>
<text text-anchor="middle" x="621" y="-72.8" font-family="Times,serif" font-size="14.00" fill="#000000">blk:ε/0</text>
</g>
<!-- 7 -->
<g id="node8" class="node">
<title>7</title>
<ellipse fill="none" stroke="#000000" stroke-width="2" cx="779.5" cy="-45" rx="18" ry="18"/>
<text text-anchor="middle" x="779.5" y="-41.3" font-family="Times,serif" font-size="14.00" fill="#000000">7</text>
</g>
<!-- 5&#45;&gt;7 -->
<g id="edge15" class="edge">
<title>5&#45;&gt;7</title>
<path fill="none" stroke="#000000" d="M581.5646,-42.9644C607.1417,-40.3294 655.3788,-36.269 696.5,-38 714.6956,-38.7659 735.0754,-40.4723 751.087,-42.0085"/>
<polygon fill="#000000" stroke="#000000" points="751.0968,-45.5266 761.3936,-43.0312 751.7881,-38.5608 751.0968,-45.5266"/>
<text text-anchor="middle" x="678.5" y="-41.8" font-family="Times,serif" font-size="14.00" fill="#000000">c:c/0</text>
</g>
<!-- 6&#45;&gt;6 -->
<g id="edge16" class="edge">
<title>6&#45;&gt;6</title>
<path fill="none" stroke="#000000" d="M669.8666,-95.916C667.6144,-106.1504 670.4922,-116 678.5,-116 683.7551,-116 686.8009,-111.7581 687.6375,-105.9494"/>
<polygon fill="#000000" stroke="#000000" points="691.1308,-105.7278 687.1334,-95.916 684.1396,-106.0791 691.1308,-105.7278"/>
<text text-anchor="middle" x="678.5" y="-119.8" font-family="Times,serif" font-size="14.00" fill="#000000">blk:ε/0</text>
</g>
<!-- 6&#45;&gt;7 -->
<g id="edge17" class="edge">
<title>6&#45;&gt;7</title>
<path fill="none" stroke="#000000" d="M695.6333,-74.0627C711.2314,-68.6574 734.5168,-60.5883 752.5966,-54.323"/>
<polygon fill="#000000" stroke="#000000" points="753.98,-57.5478 762.2827,-50.9664 751.6879,-50.9337 753.98,-57.5478"/>
<text text-anchor="middle" x="729" y="-70.8" font-family="Times,serif" font-size="14.00" fill="#000000">c:c/0</text>
</g>
<!-- 7&#45;&gt;7 -->
<g id="edge19" class="edge">
<title>7&#45;&gt;7</title>
<path fill="none" stroke="#000000" d="M770.8666,-60.916C768.6144,-71.1504 771.4922,-81 779.5,-81 784.7551,-81 787.8009,-76.7581 788.6375,-70.9494"/>
<polygon fill="#000000" stroke="#000000" points="792.1308,-70.7278 788.1334,-60.916 785.1396,-71.0791 792.1308,-70.7278"/>
<text text-anchor="middle" x="779.5" y="-84.8" font-family="Times,serif" font-size="14.00" fill="#000000">c:ε/0</text>
</g>
<!-- 8 -->
<g id="node9" class="node">
<title>8</title>
<ellipse fill="none" stroke="#000000" stroke-width="2" cx="899.5" cy="-80" rx="18" ry="18"/>
<text text-anchor="middle" x="899.5" y="-76.3" font-family="Times,serif" font-size="14.00" fill="#000000">8</text>
</g>
<!-- 7&#45;&gt;8 -->
<g id="edge18" class="edge">
<title>7&#45;&gt;8</title>
<path fill="none" stroke="#000000" d="M796.949,-50.0893C816.6786,-55.8437 849.0547,-65.2868 872.1503,-72.023"/>
<polygon fill="#000000" stroke="#000000" points="871.4499,-75.4645 882.0299,-74.9046 873.4099,-68.7445 871.4499,-75.4645"/>
<text text-anchor="middle" x="837" y="-71.8" font-family="Times,serif" font-size="14.00" fill="#000000">blk:ε/0</text>
</g>
<!-- 9 -->
<g id="node10" class="node">
<title>9</title>
<ellipse fill="none" stroke="#000000" stroke-width="2" cx="1020.5" cy="-45" rx="18" ry="18"/>
<ellipse fill="none" stroke="#000000" stroke-width="2" cx="1020.5" cy="-45" rx="22" ry="22"/>
<text text-anchor="middle" x="1020.5" y="-41.3" font-family="Times,serif" font-size="14.00" fill="#000000">9</text>
</g>
<!-- 7&#45;&gt;9 -->
<g id="edge20" class="edge">
<title>7&#45;&gt;9</title>
<path fill="none" stroke="#000000" d="M797.7141,-43.2922C817.1924,-41.558 848.9968,-38.9911 876.5,-38 896.9312,-37.2637 902.0685,-37.2712 922.5,-38 944.5058,-38.7849 969.2383,-40.5583 988.3516,-42.1235"/>
<polygon fill="#000000" stroke="#000000" points="988.0806,-45.613 998.3389,-42.9641 988.6677,-38.6377 988.0806,-45.613"/>
<text text-anchor="middle" x="899.5" y="-41.8" font-family="Times,serif" font-size="14.00" fill="#000000">&#45;1:&#45;1/0</text>
</g>
<!-- 8&#45;&gt;8 -->
<g id="edge21" class="edge">
<title>8&#45;&gt;8</title>
<path fill="none" stroke="#000000" d="M889.3486,-95.1666C886.2725,-105.6641 889.6563,-116 899.5,-116 905.96,-116 909.6378,-111.5487 910.5337,-105.5216"/>
<polygon fill="#000000" stroke="#000000" points="913.9878,-104.8334 909.6514,-95.1666 907.0131,-105.4277 913.9878,-104.8334"/>
<text text-anchor="middle" x="899.5" y="-119.8" font-family="Times,serif" font-size="14.00" fill="#000000">blk:ε/0</text>
</g>
<!-- 8&#45;&gt;9 -->
<g id="edge22" class="edge">
<title>8&#45;&gt;9</title>
<path fill="none" stroke="#000000" d="M916.8363,-74.9854C935.7349,-69.5188 966.3582,-60.6609 989.4311,-53.9869"/>
<polygon fill="#000000" stroke="#000000" points="990.4821,-57.3264 999.1158,-51.1855 988.537,-50.6021 990.4821,-57.3264"/>
<text text-anchor="middle" x="960.5" y="-71.8" font-family="Times,serif" font-size="14.00" fill="#000000">&#45;1:&#45;1/0</text>
</g>
</g>
</svg>
