<?xml version="1.0" encoding="UTF-8" standalone="no"?>
<!DOCTYPE svg PUBLIC "-//W3C//DTD SVG 1.1//EN"
 "http://www.w3.org/Graphics/SVG/1.1/DTD/svg11.dtd">
<!-- Generated by graphviz version 2.40.1 (20161225.0304)
 -->
<!-- Title: WFSA Pages: 1 -->
<svg width="252pt" height="98pt"
 viewBox="0.00 0.00 252.00 98.00" xmlns="http://www.w3.org/2000/svg" xmlns:xlink="http://www.w3.org/1999/xlink">
<g id="graph0" class="graph" transform="scale(1 1) rotate(0) translate(4 94)">
<title>WFSA</title>
<polygon fill="#ffffff" stroke="transparent" points="-4,4 -4,-94 248,-94 248,4 -4,4"/>
<!-- 0 -->
<g id="node1" class="node">
<title>0</title>
<ellipse fill="none" stroke="#000000" stroke-width="2" cx="18" cy="-45" rx="18" ry="18"/>
<text text-anchor="middle" x="18" y="-41.3" font-family="Times,serif" font-size="14.00" fill="#000000">0</text>
</g>
<!-- 1 -->
<g id="node2" class="node">
<title>1</title>
<ellipse fill="none" stroke="#000000" stroke-width="2" cx="119" cy="-72" rx="18" ry="18"/>
<text text-anchor="middle" x="119" y="-68.3" font-family="Times,serif" font-size="14.00" fill="#000000">1</text>
</g>
<!-- 0&#45;&gt;1 -->
<g id="edge1" class="edge">
<title>0&#45;&gt;1</title>
<path fill="none" stroke="#000000" d="M35.5929,-49.703C51.0894,-53.8457 73.9083,-59.9458 91.7628,-64.7188"/>
<polygon fill="#000000" stroke="#000000" points="91.0441,-68.1495 101.6087,-67.3509 92.8519,-61.3869 91.0441,-68.1495"/>
<text text-anchor="middle" x="68.5" y="-65.8" font-family="Times,serif" font-size="14.00" fill="#000000">10/0.1</text>
</g>
<!-- 2 -->
<g id="node3" class="node">
<title>2</title>
<ellipse fill="none" stroke="#000000" stroke-width="2" cx="119" cy="-18" rx="18" ry="18"/>
<text text-anchor="middle" x="119" y="-14.3" font-family="Times,serif" font-size="14.00" fill="#000000">2</text>
</g>
<!-- 0&#45;&gt;2 -->
<g id="edge2" class="edge">
<title>0&#45;&gt;2</title>
<path fill="none" stroke="#000000" d="M35.4222,-39.5454C40.436,-38.0233 45.9222,-36.4032 51,-35 64.2871,-31.3283 79.1301,-27.5773 91.5503,-24.5362"/>
<polygon fill="#000000" stroke="#000000" points="92.4324,-27.9238 101.326,-22.1659 90.7828,-21.1209 92.4324,-27.9238"/>
<text text-anchor="middle" x="68.5" y="-38.8" font-family="Times,serif" font-size="14.00" fill="#000000">20/1</text>
</g>
<!-- 3 -->
<g id="node4" class="node">
<title>3</title>
<ellipse fill="none" stroke="#000000" stroke-width="2" cx="222" cy="-45" rx="18" ry="18"/>
<ellipse fill="none" stroke="#000000" stroke-width="2" cx="222" cy="-45" rx="22" ry="22"/>
<text text-anchor="middle" x="222" y="-41.3" font-family="Times,serif" font-size="14.00" fill="#000000">3</text>
</g>
<!-- 1&#45;&gt;3 -->
<g id="edge3" class="edge">
<title>1&#45;&gt;3</title>
<path fill="none" stroke="#000000" d="M136.4725,-67.4198C151.25,-63.5461 172.7932,-57.8989 190.5606,-53.2414"/>
<polygon fill="#000000" stroke="#000000" points="191.7201,-56.5558 200.5058,-50.6344 189.9451,-49.7846 191.7201,-56.5558"/>
<text text-anchor="middle" x="168.5" y="-66.8" font-family="Times,serif" font-size="14.00" fill="#000000">&#45;1/0.2</text>
</g>
<!-- 2&#45;&gt;3 -->
<g id="edge4" class="edge">
<title>2&#45;&gt;3</title>
<path fill="none" stroke="#000000" d="M136.4725,-22.5802C151.25,-26.4539 172.7932,-32.1011 190.5606,-36.7586"/>
<polygon fill="#000000" stroke="#000000" points="189.9451,-40.2154 200.5058,-39.3656 191.7201,-33.4442 189.9451,-40.2154"/>
<text text-anchor="middle" x="168.5" y="-37.8" font-family="Times,serif" font-size="14.00" fill="#000000">&#45;1/0.5</text>
</g>
</g>
</svg>
