<?xml version="1.0" encoding="UTF-8" standalone="no"?><!DOCTYPE svg PUBLIC "-//W3C//DTD SVG 1.1//EN" "http://www.w3.org/Graphics/SVG/1.1/DTD/svg11.dtd"><!-- Generated by graphviz version 2.40.1 (20161225.0304)
 --><!-- Title: WFSA Pages: 1 --><svg xmlns="http://www.w3.org/2000/svg" xmlns:xlink="http://www.w3.org/1999/xlink" width="231pt" height="98pt" viewBox="0.00 0.00 231.44 98.00">
<g id="graph0" class="graph" transform="scale(1 1) rotate(0) translate(4 94)">
<title>WFSA</title>
<polygon fill="#ffffff" stroke="transparent" points="-4,4 -4,-94 227.4418,-94 227.4418,4 -4,4"/>
<!-- 0 -->
<g id="node1" class="node">
<title>0</title>
<ellipse fill="none" stroke="#000000" stroke-width="2" cx="18" cy="-45" rx="18" ry="18"/>
<text text-anchor="middle" x="18" y="-40.8" font-family="Times,serif" font-size="14.00" fill="#000000">0</text>
</g>
<!-- 1 -->
<g id="node2" class="node">
<title>1</title>
<ellipse fill="none" stroke="#000000" stroke-width="2" cx="108.8906" cy="-72" rx="18" ry="18"/>
<text text-anchor="middle" x="108.8906" y="-67.8" font-family="Times,serif" font-size="14.00" fill="#000000">1</text>
</g>
<!-- 0&#45;&gt;1 -->
<g id="edge1" class="edge">
<title>0-&gt;1</title>
<path fill="none" stroke="#000000" d="M35.5246,-50.2059C48.6015,-54.0905 66.7142,-59.4711 81.6705,-63.914"/>
<polygon fill="#000000" stroke="#000000" points="80.8371,-67.3175 91.4198,-66.8101 82.8305,-60.6073 80.8371,-67.3175"/>
<text text-anchor="middle" x="63.4453" y="-65.2" font-family="Times,serif" font-size="14.00" fill="#000000">10/a</text>
</g>
<!-- 2 -->
<g id="node3" class="node">
<title>2</title>
<ellipse fill="none" stroke="#000000" stroke-width="2" cx="108.8906" cy="-18" rx="18" ry="18"/>
<text text-anchor="middle" x="108.8906" y="-13.8" font-family="Times,serif" font-size="14.00" fill="#000000">2</text>
</g>
<!-- 0&#45;&gt;2 -->
<g id="edge2" class="edge">
<title>0-&gt;2</title>
<path fill="none" stroke="#000000" d="M35.5246,-39.7941C48.6015,-35.9095 66.7142,-30.5289 81.6705,-26.086"/>
<polygon fill="#000000" stroke="#000000" points="82.8305,-29.3927 91.4198,-23.1899 80.8371,-22.6825 82.8305,-29.3927"/>
<text text-anchor="middle" x="63.4453" y="-39.2" font-family="Times,serif" font-size="14.00" fill="#000000">20/b</text>
</g>
<!-- 3 -->
<g id="node4" class="node">
<title>3</title>
<ellipse fill="none" stroke="#000000" stroke-width="2" cx="201.4418" cy="-45" rx="18" ry="18"/>
<ellipse fill="none" stroke="#000000" stroke-width="2" cx="201.4418" cy="-45" rx="22" ry="22"/>
<text text-anchor="middle" x="201.4418" y="-40.8" font-family="Times,serif" font-size="14.00" fill="#000000">3</text>
</g>
<!-- 1&#45;&gt;3 -->
<g id="edge3" class="edge">
<title>1-&gt;3</title>
<path fill="none" stroke="#000000" d="M126.2988,-66.9215C138.7219,-63.2973 155.7665,-58.3249 170.4821,-54.0319"/>
<polygon fill="#000000" stroke="#000000" points="171.5927,-57.3539 180.2123,-51.1933 169.6323,-50.634 171.5927,-57.3539"/>
<text text-anchor="middle" x="153.1662" y="-65.2" font-family="Times,serif" font-size="14.00" fill="#000000">-1/c</text>
</g>
<!-- 2&#45;&gt;3 -->
<g id="edge4" class="edge">
<title>2-&gt;3</title>
<path fill="none" stroke="#000000" d="M126.2988,-23.0785C138.7219,-26.7027 155.7665,-31.6751 170.4821,-35.9681"/>
<polygon fill="#000000" stroke="#000000" points="169.6323,-39.366 180.2123,-38.8067 171.5927,-32.6461 169.6323,-39.366"/>
<text text-anchor="middle" x="153.1662" y="-38.2" font-family="Times,serif" font-size="14.00" fill="#000000">-1/d</text>
</g>
</g>
</svg>