<?xml version="1.0" encoding="UTF-8" standalone="no"?>
<!DOCTYPE svg PUBLIC "-//W3C//DTD SVG 1.1//EN"
 "http://www.w3.org/Graphics/SVG/1.1/DTD/svg11.dtd">
<!-- Generated by graphviz version 2.40.1 (20161225.0304)
 -->
<!-- Title: WFSA Pages: 1 -->
<svg width="251pt" height="69pt"
 viewBox="0.00 0.00 251.00 69.50" xmlns="http://www.w3.org/2000/svg" xmlns:xlink="http://www.w3.org/1999/xlink">
<g id="graph0" class="graph" transform="scale(1 1) rotate(0) translate(4 65.495)">
<title>WFSA</title>
<polygon fill="#ffffff" stroke="transparent" points="-4,4 -4,-65.495 247,-65.495 247,4 -4,4"/>
<!-- 0 -->
<g id="node1" class="node">
<title>0</title>
<ellipse fill="none" stroke="#000000" stroke-width="2" cx="18" cy="-27.495" rx="18" ry="18"/>
<text text-anchor="middle" x="18" y="-23.795" font-family="Times,serif" font-size="14.00" fill="#000000">0</text>
</g>
<!-- 1 -->
<g id="node2" class="node">
<title>1</title>
<ellipse fill="none" stroke="#000000" stroke-width="2" cx="129" cy="-27.495" rx="18" ry="18"/>
<text text-anchor="middle" x="129" y="-23.795" font-family="Times,serif" font-size="14.00" fill="#000000">1</text>
</g>
<!-- 0&#45;&gt;1 -->
<g id="edge1" class="edge">
<title>0&#45;&gt;1</title>
<path fill="none" stroke="#000000" d="M33.5774,-36.8294C38.9127,-39.535 45.0427,-42.127 51,-43.495 70.4926,-47.9713 76.5074,-47.9713 96,-43.495 98.6994,-42.8751 101.4343,-42.0039 104.1146,-40.9847"/>
<polygon fill="#000000" stroke="#000000" points="105.718,-44.1019 113.4226,-36.8294 102.8644,-37.7099 105.718,-44.1019"/>
<text text-anchor="middle" x="73.5" y="-50.295" font-family="Times,serif" font-size="14.00" fill="#000000">⊔/&#45;0.51</text>
</g>
<!-- 0&#45;&gt;1 -->
<g id="edge2" class="edge">
<title>0&#45;&gt;1</title>
<path fill="none" stroke="#000000" d="M36.1352,-25.5486C40.9602,-25.1123 46.1726,-24.714 51,-24.495 70.9795,-23.5887 76.0205,-23.5887 96,-24.495 97.5086,-24.5634 99.0547,-24.6494 100.6149,-24.7485"/>
<polygon fill="#000000" stroke="#000000" points="100.6227,-28.2597 110.8648,-25.5486 101.1675,-21.2809 100.6227,-28.2597"/>
<text text-anchor="middle" x="73.5" y="-28.295" font-family="Times,serif" font-size="14.00" fill="#000000">O/&#45;1.2</text>
</g>
<!-- 0&#45;&gt;1 -->
<g id="edge3" class="edge">
<title>0&#45;&gt;1</title>
<path fill="none" stroke="#000000" d="M31.4382,-15.3441C37.0662,-11.0378 43.9378,-6.7133 51,-4.495 70.0809,1.4983 76.9191,1.4983 96,-4.495 99.8621,-5.7081 103.6673,-7.5512 107.2432,-9.6767"/>
<polygon fill="#000000" stroke="#000000" points="105.3269,-12.6062 115.5618,-15.3441 109.2682,-6.8212 105.3269,-12.6062"/>
<text text-anchor="middle" x="73.5" y="-8.295" font-family="Times,serif" font-size="14.00" fill="#000000">K/&#45;2.3</text>
</g>
<!-- 2 -->
<g id="node3" class="node">
<title>2</title>
<ellipse fill="none" stroke="#000000" stroke-width="2" cx="221" cy="-27.495" rx="18" ry="18"/>
<ellipse fill="none" stroke="#000000" stroke-width="2" cx="221" cy="-27.495" rx="22" ry="22"/>
<text text-anchor="middle" x="221" y="-23.795" font-family="Times,serif" font-size="14.00" fill="#000000">2</text>
</g>
<!-- 1&#45;&gt;2 -->
<g id="edge4" class="edge">
<title>1&#45;&gt;2</title>
<path fill="none" stroke="#000000" d="M147.1762,-27.495C159.0274,-27.495 174.8254,-27.495 188.7655,-27.495"/>
<polygon fill="#000000" stroke="#000000" points="188.9674,-30.9951 198.9674,-27.495 188.9673,-23.9951 188.9674,-30.9951"/>
<text text-anchor="middle" x="173" y="-31.295" font-family="Times,serif" font-size="14.00" fill="#000000">&#45;1/0</text>
</g>
</g>
</svg>
