<?xml version="1.0" encoding="UTF-8" standalone="no"?><!DOCTYPE svg PUBLIC "-//W3C//DTD SVG 1.1//EN" "http://www.w3.org/Graphics/SVG/1.1/DTD/svg11.dtd"><!-- Generated by graphviz version 2.40.1 (20161225.0304)
 --><!-- Title: WFSA Pages: 1 --><svg xmlns="http://www.w3.org/2000/svg" xmlns:xlink="http://www.w3.org/1999/xlink" width="412pt" height="88pt" viewBox="0.00 0.00 412.36 88.00">
<g id="graph0" class="graph" transform="scale(1 1) rotate(0) translate(4 84)">
<title>WFSA</title>
<polygon fill="#ffffff" stroke="transparent" points="-4,4 -4,-84 408.3592,-84 408.3592,4 -4,4"/>
<!-- 0 -->
<g id="node1" class="node">
<title>0</title>
<ellipse fill="none" stroke="#000000" stroke-width="2" cx="18" cy="-40" rx="18" ry="18"/>
<text text-anchor="middle" x="18" y="-35.8" font-family="Times,serif" font-size="14.00" fill="#000000">0</text>
</g>
<!-- 1 -->
<g id="node2" class="node">
<title>1</title>
<ellipse fill="none" stroke="#000000" stroke-width="2" cx="108.0898" cy="-62" rx="18" ry="18"/>
<text text-anchor="middle" x="108.0898" y="-57.8" font-family="Times,serif" font-size="14.00" fill="#000000">1</text>
</g>
<!-- 0&#45;&gt;1 -->
<g id="edge1" class="edge">
<title>0-&gt;1</title>
<path fill="none" stroke="#000000" d="M33.1801,-50.0537C38.5872,-53.1453 44.8619,-56.204 51,-58 60.2148,-60.6962 70.6074,-61.9269 79.9756,-62.4142"/>
<polygon fill="#000000" stroke="#000000" points="79.9085,-65.9136 90.0001,-62.6871 80.099,-58.9162 79.9085,-65.9136"/>
<text text-anchor="middle" x="63.0449" y="-66.2" font-family="Times,serif" font-size="14.00" fill="#000000">arc0</text>
</g>
<!-- 0&#45;&gt;1 -->
<g id="edge2" class="edge">
<title>0-&gt;1</title>
<path fill="none" stroke="#000000" d="M35.6893,-35.8714C47.2015,-33.9682 62.3828,-32.9575 75.0898,-37.2 79.2195,-38.5788 83.2475,-40.6998 86.9896,-43.133"/>
<polygon fill="#000000" stroke="#000000" points="85.0023,-46.0168 95.1154,-49.1751 89.1791,-40.3995 85.0023,-46.0168"/>
<text text-anchor="middle" x="63.0449" y="-41.2" font-family="Times,serif" font-size="14.00" fill="#000000">arc1</text>
</g>
<!-- 3 -->
<g id="node3" class="node">
<title>3</title>
<ellipse fill="none" stroke="#000000" stroke-width="2" cx="288.2694" cy="-18" rx="18" ry="18"/>
<text text-anchor="middle" x="288.2694" y="-13.8" font-family="Times,serif" font-size="14.00" fill="#000000">3</text>
</g>
<!-- 0&#45;&gt;3 -->
<g id="edge3" class="edge">
<title>0-&gt;3</title>
<path fill="none" stroke="#000000" d="M35.2772,-33.9C40.2887,-32.3677 45.81,-30.9036 51,-30 125.7022,-16.9935 215.4754,-16.4792 260.1487,-17.2226"/>
<polygon fill="#000000" stroke="#000000" points="260.1769,-20.7238 270.2454,-17.4259 260.3179,-13.7252 260.1769,-20.7238"/>
<text text-anchor="middle" x="153.1347" y="-23.2" font-family="Times,serif" font-size="14.00" fill="#000000">arc2</text>
</g>
<!-- 2 -->
<g id="node4" class="node">
<title>2</title>
<ellipse fill="none" stroke="#000000" stroke-width="2" cx="198.1796" cy="-62" rx="18" ry="18"/>
<text text-anchor="middle" x="198.1796" y="-57.8" font-family="Times,serif" font-size="14.00" fill="#000000">2</text>
</g>
<!-- 1&#45;&gt;2 -->
<g id="edge4" class="edge">
<title>1-&gt;2</title>
<path fill="none" stroke="#000000" d="M126.3208,-62C138.7761,-62 155.5318,-62 169.7302,-62"/>
<polygon fill="#000000" stroke="#000000" points="169.9757,-65.5001 179.9757,-62 169.9757,-58.5001 169.9757,-65.5001"/>
<text text-anchor="middle" x="153.1347" y="-66.2" font-family="Times,serif" font-size="14.00" fill="#000000">arc3</text>
</g>
<!-- 4 -->
<g id="node5" class="node">
<title>4</title>
<ellipse fill="none" stroke="#000000" stroke-width="2" cx="382.3592" cy="-45" rx="18" ry="18"/>
<ellipse fill="none" stroke="#000000" stroke-width="2" cx="382.3592" cy="-45" rx="22" ry="22"/>
<text text-anchor="middle" x="382.3592" y="-40.8" font-family="Times,serif" font-size="14.00" fill="#000000">4</text>
</g>
<!-- 3&#45;&gt;4 -->
<g id="edge7" class="edge">
<title>3-&gt;4</title>
<path fill="none" stroke="#000000" d="M305.967,-23.0785C318.6831,-26.7275 336.1622,-31.7433 351.1919,-36.0562"/>
<polygon fill="#000000" stroke="#000000" points="350.5396,-39.5103 361.1171,-38.9044 352.4705,-32.7818 350.5396,-39.5103"/>
<text text-anchor="middle" x="333.3143" y="-37.2" font-family="Times,serif" font-size="14.00" fill="#000000">arc6</text>
</g>
<!-- 2&#45;&gt;3 -->
<g id="edge5" class="edge">
<title>2-&gt;3</title>
<path fill="none" stroke="#000000" d="M213.2954,-51.6869C218.8012,-48.1427 225.1546,-44.2924 231.1796,-41.2 240.7869,-36.269 251.6935,-31.6197 261.3811,-27.7966"/>
<polygon fill="#000000" stroke="#000000" points="262.8464,-30.9833 270.9299,-24.1344 260.3397,-24.4475 262.8464,-30.9833"/>
<text text-anchor="middle" x="243.2245" y="-45.2" font-family="Times,serif" font-size="14.00" fill="#000000">arc5</text>
</g>
<!-- 2&#45;&gt;4 -->
<g id="edge6" class="edge">
<title>2-&gt;4</title>
<path fill="none" stroke="#000000" d="M216.414,-62.0848C244.333,-61.9727 299.2845,-60.7966 345.3592,-54 347.1128,-53.7413 348.9049,-53.4381 350.7083,-53.1025"/>
<polygon fill="#000000" stroke="#000000" points="351.921,-56.4225 360.9695,-50.9112 350.4591,-49.5769 351.921,-56.4225"/>
<text text-anchor="middle" x="288.2694" y="-64.2" font-family="Times,serif" font-size="14.00" fill="#000000">arc4</text>
</g>
</g>
</svg>