<?xml version="1.0" encoding="UTF-8" standalone="no"?><!DOCTYPE svg PUBLIC "-//W3C//DTD SVG 1.1//EN" "http://www.w3.org/Graphics/SVG/1.1/DTD/svg11.dtd"><!-- Generated by graphviz version 2.40.1 (20161225.0304)
 --><!-- Title: WFSA Pages: 1 --><svg xmlns="http://www.w3.org/2000/svg" xmlns:xlink="http://www.w3.org/1999/xlink" width="329pt" height="53pt" viewBox="0.00 0.00 329.27 53.03">
<g id="graph0" class="graph" transform="scale(1 1) rotate(0) translate(4 49.0284)">
<title>WFSA</title>
<polygon fill="#ffffff" stroke="transparent" points="-4,4 -4,-49.0284 325.2694,-49.0284 325.2694,4 -4,4"/>
<!-- 0 -->
<g id="node1" class="node">
<title>0</title>
<ellipse fill="none" stroke="#000000" stroke-width="2" cx="18" cy="-23.0284" rx="18" ry="18"/>
<text text-anchor="middle" x="18" y="-18.8284" font-family="Times,serif" font-size="14.00" fill="#000000">0</text>
</g>
<!-- 1 -->
<g id="node2" class="node">
<title>1</title>
<ellipse fill="none" stroke="#000000" stroke-width="2" cx="108.0898" cy="-23.0284" rx="18" ry="18"/>
<text text-anchor="middle" x="108.0898" y="-18.8284" font-family="Times,serif" font-size="14.00" fill="#000000">1</text>
</g>
<!-- 0&#45;&gt;1 -->
<g id="edge1" class="edge">
<title>0-&gt;1</title>
<path fill="none" stroke="#000000" d="M36.231,-23.0284C48.6863,-23.0284 65.442,-23.0284 79.6404,-23.0284"/>
<polygon fill="#000000" stroke="#000000" points="79.8859,-26.5285 89.8859,-23.0284 79.8859,-19.5285 79.8859,-26.5285"/>
<text text-anchor="middle" x="63.0449" y="-27.2284" font-family="Times,serif" font-size="14.00" fill="#000000">arc7</text>
</g>
<!-- 2 -->
<g id="node3" class="node">
<title>2</title>
<ellipse fill="none" stroke="#000000" stroke-width="2" cx="198.1796" cy="-23.0284" rx="18" ry="18"/>
<text text-anchor="middle" x="198.1796" y="-18.8284" font-family="Times,serif" font-size="14.00" fill="#000000">2</text>
</g>
<!-- 1&#45;&gt;2 -->
<g id="edge2" class="edge">
<title>1-&gt;2</title>
<path fill="none" stroke="#000000" d="M126.3208,-23.0284C138.7761,-23.0284 155.5318,-23.0284 169.7302,-23.0284"/>
<polygon fill="#000000" stroke="#000000" points="169.9757,-26.5285 179.9757,-23.0284 169.9757,-19.5285 169.9757,-26.5285"/>
<text text-anchor="middle" x="153.1347" y="-27.2284" font-family="Times,serif" font-size="14.00" fill="#000000">arc8</text>
</g>
<!-- 1&#45;&gt;2 -->
<g id="edge3" class="edge">
<title>1-&gt;2</title>
<path fill="none" stroke="#000000" d="M122.3433,-11.5843C127.8666,-7.8368 134.4534,-4.1454 141.0898,-2.2284 151.3759,.7428 154.8935,.7428 165.1796,-2.2284 168.6015,-3.2168 172.0102,-4.677 175.2667,-6.3735"/>
<polygon fill="#000000" stroke="#000000" points="173.5532,-9.4271 183.9261,-11.5843 177.1624,-3.4293 173.5532,-9.4271"/>
<text text-anchor="middle" x="153.1347" y="-6.2284" font-family="Times,serif" font-size="14.00" fill="#000000">arc9</text>
</g>
<!-- 3 -->
<g id="node4" class="node">
<title>3</title>
<ellipse fill="none" stroke="#000000" stroke-width="2" cx="299.2694" cy="-23.0284" rx="18" ry="18"/>
<ellipse fill="none" stroke="#000000" stroke-width="2" cx="299.2694" cy="-23.0284" rx="22" ry="22"/>
<text text-anchor="middle" x="299.2694" y="-18.8284" font-family="Times,serif" font-size="14.00" fill="#000000">3</text>
</g>
<!-- 2&#45;&gt;3 -->
<g id="edge4" class="edge">
<title>2-&gt;3</title>
<path fill="none" stroke="#000000" d="M216.2524,-23.0284C230.2283,-23.0284 249.9483,-23.0284 266.6616,-23.0284"/>
<polygon fill="#000000" stroke="#000000" points="267.12,-26.5285 277.12,-23.0284 267.1199,-19.5285 267.12,-26.5285"/>
<text text-anchor="middle" x="246.7245" y="-27.2284" font-family="Times,serif" font-size="14.00" fill="#000000">arc10</text>
</g>
</g>
</svg>