<?xml version="1.0" encoding="UTF-8" standalone="no"?>
<!DOCTYPE svg PUBLIC "-//W3C//DTD SVG 1.1//EN"
 "http://www.w3.org/Graphics/SVG/1.1/DTD/svg11.dtd">
<!-- Generated by graphviz version 2.40.1 (20161225.0304)
 -->
<!-- Title: WFST Pages: 1 -->
<svg width="291pt" height="52pt"
 viewBox="0.00 0.00 291.00 52.00" xmlns="http://www.w3.org/2000/svg" xmlns:xlink="http://www.w3.org/1999/xlink">
<g id="graph0" class="graph" transform="scale(1 1) rotate(0) translate(4 48)">
<title>WFST</title>
<polygon fill="#ffffff" stroke="transparent" points="-4,4 -4,-48 287,-48 287,4 -4,4"/>
<!-- 0 -->
<g id="node1" class="node">
<title>0</title>
<ellipse fill="none" stroke="#000000" stroke-width="2" cx="18" cy="-22" rx="18" ry="18"/>
<text text-anchor="middle" x="18" y="-18.3" font-family="Times,serif" font-size="14.00" fill="#000000">0</text>
</g>
<!-- 1 -->
<g id="node2" class="node">
<title>1</title>
<ellipse fill="none" stroke="#000000" stroke-width="2" cx="143" cy="-22" rx="18" ry="18"/>
<text text-anchor="middle" x="143" y="-18.3" font-family="Times,serif" font-size="14.00" fill="#000000">1</text>
</g>
<!-- 0&#45;&gt;1 -->
<g id="edge1" class="edge">
<title>0&#45;&gt;1</title>
<path fill="none" stroke="#000000" d="M36.1761,-22C56.7277,-22 90.4528,-22 114.5107,-22"/>
<polygon fill="#000000" stroke="#000000" points="114.802,-25.5001 124.802,-22 114.802,-18.5001 114.802,-25.5001"/>
<text text-anchor="middle" x="80.5" y="-25.8" font-family="Times,serif" font-size="14.00" fill="#000000">10:100/0.1</text>
</g>
<!-- 2 -->
<g id="node3" class="node">
<title>2</title>
<ellipse fill="none" stroke="#000000" stroke-width="2" cx="261" cy="-22" rx="18" ry="18"/>
<ellipse fill="none" stroke="#000000" stroke-width="2" cx="261" cy="-22" rx="22" ry="22"/>
<text text-anchor="middle" x="261" y="-18.3" font-family="Times,serif" font-size="14.00" fill="#000000">2</text>
</g>
<!-- 1&#45;&gt;2 -->
<g id="edge2" class="edge">
<title>1&#45;&gt;2</title>
<path fill="none" stroke="#000000" d="M161.1789,-22C179.1794,-22 207.1232,-22 228.8719,-22"/>
<polygon fill="#000000" stroke="#000000" points="228.9803,-25.5001 238.9802,-22 228.9802,-18.5001 228.9803,-25.5001"/>
<text text-anchor="middle" x="200" y="-25.8" font-family="Times,serif" font-size="14.00" fill="#000000">&#45;1:&#45;1/0.2</text>
</g>
</g>
</svg>
