<?xml version="1.0" encoding="UTF-8" standalone="no"?>
<!DOCTYPE svg PUBLIC "-//W3C//DTD SVG 1.1//EN"
 "http://www.w3.org/Graphics/SVG/1.1/DTD/svg11.dtd">
<!-- Generated by graphviz version 2.40.1 (20161225.0304)
 -->
<!-- Title: WFSA Pages: 1 -->
<svg width="252pt" height="52pt"
 viewBox="0.00 0.00 252.00 52.00" xmlns="http://www.w3.org/2000/svg" xmlns:xlink="http://www.w3.org/1999/xlink">
<g id="graph0" class="graph" transform="scale(1 1) rotate(0) translate(4 48)">
<title>WFSA</title>
<polygon fill="#ffffff" stroke="transparent" points="-4,4 -4,-48 248,-48 248,4 -4,4"/>
<!-- 0 -->
<g id="node1" class="node">
<title>0</title>
<ellipse fill="none" stroke="#000000" stroke-width="2" cx="18" cy="-22" rx="18" ry="18"/>
<text text-anchor="middle" x="18" y="-18.3" font-family="Times,serif" font-size="14.00" fill="#000000">0</text>
</g>
<!-- 1 -->
<g id="node2" class="node">
<title>1</title>
<ellipse fill="none" stroke="#000000" stroke-width="2" cx="119" cy="-22" rx="18" ry="18"/>
<text text-anchor="middle" x="119" y="-18.3" font-family="Times,serif" font-size="14.00" fill="#000000">1</text>
</g>
<!-- 0&#45;&gt;1 -->
<g id="edge1" class="edge">
<title>0&#45;&gt;1</title>
<path fill="none" stroke="#000000" d="M36.0568,-22C51.187,-22 73.0552,-22 90.539,-22"/>
<polygon fill="#000000" stroke="#000000" points="90.7591,-25.5001 100.759,-22 90.759,-18.5001 90.7591,-25.5001"/>
<text text-anchor="middle" x="68.5" y="-25.8" font-family="Times,serif" font-size="14.00" fill="#000000">10/0.1</text>
</g>
<!-- 2 -->
<g id="node3" class="node">
<title>2</title>
<ellipse fill="none" stroke="#000000" stroke-width="2" cx="222" cy="-22" rx="18" ry="18"/>
<ellipse fill="none" stroke="#000000" stroke-width="2" cx="222" cy="-22" rx="22" ry="22"/>
<text text-anchor="middle" x="222" y="-18.3" font-family="Times,serif" font-size="14.00" fill="#000000">2</text>
</g>
<!-- 1&#45;&gt;2 -->
<g id="edge2" class="edge">
<title>1&#45;&gt;2</title>
<path fill="none" stroke="#000000" d="M137.4143,-22C151.8858,-22 172.4016,-22 189.604,-22"/>
<polygon fill="#000000" stroke="#000000" points="189.8031,-25.5001 199.8031,-22 189.803,-18.5001 189.8031,-25.5001"/>
<text text-anchor="middle" x="168.5" y="-25.8" font-family="Times,serif" font-size="14.00" fill="#000000">&#45;1/0.2</text>
</g>
</g>
</svg>
