<?xml version="1.0" encoding="UTF-8" standalone="no"?>
<!DOCTYPE svg PUBLIC "-//W3C//DTD SVG 1.1//EN"
 "http://www.w3.org/Graphics/SVG/1.1/DTD/svg11.dtd">
<!-- Generated by graphviz version 2.40.1 (20161225.0304)
 -->
<!-- Title: WFST Pages: 1 -->
<svg width="353pt" height="192pt"
 viewBox="0.00 0.00 353.00 192.00" xmlns="http://www.w3.org/2000/svg" xmlns:xlink="http://www.w3.org/1999/xlink">
<g id="graph0" class="graph" transform="scale(1 1) rotate(0) translate(4 188)">
<title>WFST</title>
<polygon fill="#ffffff" stroke="transparent" points="-4,4 -4,-188 349,-188 349,4 -4,4"/>
<text text-anchor="middle" x="172.5" y="-7.8" font-family="Times,serif" font-size="14.00" fill="#000000">a_fsa</text>
<!-- 0 -->
<g id="node1" class="node">
<title>0</title>
<ellipse fill="none" stroke="#000000" stroke-width="2" cx="18" cy="-97" rx="18" ry="18"/>
<text text-anchor="middle" x="18" y="-93.3" font-family="Times,serif" font-size="14.00" fill="#000000">0</text>
</g>
<!-- 0&#45;&gt;0 -->
<g id="edge1" class="edge">
<title>0&#45;&gt;0</title>
<path fill="none" stroke="#000000" d="M9.9836,-113.2903C8.0505,-123.3892 10.7227,-133 18,-133 22.662,-133 25.4341,-129.0557 26.3162,-123.5656"/>
<polygon fill="#000000" stroke="#000000" points="29.8067,-123.1839 26.0164,-113.2903 22.8097,-123.3881 29.8067,-123.1839"/>
<text text-anchor="middle" x="18" y="-136.8" font-family="Times,serif" font-size="14.00" fill="#000000">0:0/0</text>
</g>
<!-- 1 -->
<g id="node2" class="node">
<title>1</title>
<ellipse fill="none" stroke="#000000" stroke-width="2" cx="112" cy="-59" rx="18" ry="18"/>
<text text-anchor="middle" x="112" y="-55.3" font-family="Times,serif" font-size="14.00" fill="#000000">1</text>
</g>
<!-- 0&#45;&gt;1 -->
<g id="edge2" class="edge">
<title>0&#45;&gt;1</title>
<path fill="none" stroke="#000000" d="M27.2584,-81.5597C32.9912,-73.5492 41.1395,-64.5155 51,-60 61.1115,-55.3696 73.1903,-54.3693 83.9216,-54.8003"/>
<polygon fill="#000000" stroke="#000000" points="83.83,-58.3043 94.0809,-55.627 84.3978,-51.3274 83.83,-58.3043"/>
<text text-anchor="middle" x="65" y="-63.8" font-family="Times,serif" font-size="14.00" fill="#000000">1:1/0</text>
</g>
<!-- 2 -->
<g id="node3" class="node">
<title>2</title>
<ellipse fill="none" stroke="#000000" stroke-width="2" cx="215.5" cy="-116" rx="18" ry="18"/>
<text text-anchor="middle" x="215.5" y="-112.3" font-family="Times,serif" font-size="14.00" fill="#000000">2</text>
</g>
<!-- 0&#45;&gt;2 -->
<g id="edge3" class="edge">
<title>0&#45;&gt;2</title>
<path fill="none" stroke="#000000" d="M22.3454,-114.7725C26.9135,-129.4201 35.6336,-149.4416 51,-160 66.8574,-170.8957 74.7923,-163.887 94,-165 133.1086,-167.2661 147.772,-179.0542 182,-160 190.0794,-155.5023 196.8212,-148.1611 202.0882,-140.7524"/>
<polygon fill="#000000" stroke="#000000" points="205.1277,-142.4965 207.5857,-132.1907 199.2374,-138.7143 205.1277,-142.4965"/>
<text text-anchor="middle" x="112" y="-172.8" font-family="Times,serif" font-size="14.00" fill="#000000">2:2/0</text>
</g>
<!-- 3 -->
<g id="node4" class="node">
<title>3</title>
<ellipse fill="none" stroke="#000000" stroke-width="2" cx="323" cy="-45" rx="18" ry="18"/>
<ellipse fill="none" stroke="#000000" stroke-width="2" cx="323" cy="-45" rx="22" ry="22"/>
<text text-anchor="middle" x="323" y="-41.3" font-family="Times,serif" font-size="14.00" fill="#000000">3</text>
</g>
<!-- 0&#45;&gt;3 -->
<g id="edge4" class="edge">
<title>0&#45;&gt;3</title>
<path fill="none" stroke="#000000" d="M26.2487,-80.8574C32.0373,-70.8599 40.591,-58.3751 51,-50 67.1417,-37.0123 73.6877,-36.0799 94,-32 163.3957,-18.0613 246.825,-29.7462 291.344,-38.1918"/>
<polygon fill="#000000" stroke="#000000" points="290.786,-41.6491 301.2736,-40.1457 292.1375,-34.7808 290.786,-41.6491"/>
<text text-anchor="middle" x="163.5" y="-28.8" font-family="Times,serif" font-size="14.00" fill="#000000">&#45;1:&#45;1/0</text>
</g>
<!-- 1&#45;&gt;0 -->
<g id="edge5" class="edge">
<title>1&#45;&gt;0</title>
<path fill="none" stroke="#000000" d="M95.7063,-67.3205C90.4297,-69.9014 84.5154,-72.676 79,-75 67.9932,-79.638 55.6327,-84.2102 44.9309,-87.9747"/>
<polygon fill="#000000" stroke="#000000" points="43.5845,-84.7368 35.277,-91.3122 45.8717,-91.3526 43.5845,-84.7368"/>
<text text-anchor="middle" x="65" y="-88.8" font-family="Times,serif" font-size="14.00" fill="#000000">0:0/0</text>
</g>
<!-- 1&#45;&gt;1 -->
<g id="edge6" class="edge">
<title>1&#45;&gt;1</title>
<path fill="none" stroke="#000000" d="M103.9836,-75.2903C102.0505,-85.3892 104.7227,-95 112,-95 116.662,-95 119.4341,-91.0557 120.3162,-85.5656"/>
<polygon fill="#000000" stroke="#000000" points="123.8067,-85.1839 120.0164,-75.2903 116.8097,-85.3881 123.8067,-85.1839"/>
<text text-anchor="middle" x="112" y="-98.8" font-family="Times,serif" font-size="14.00" fill="#000000">1:0/0</text>
</g>
<!-- 1&#45;&gt;2 -->
<g id="edge7" class="edge">
<title>1&#45;&gt;2</title>
<path fill="none" stroke="#000000" d="M122.8497,-73.6411C128.7197,-80.6657 136.5019,-88.6882 145,-94 157.996,-102.1233 174.2258,-107.457 187.8362,-110.8352"/>
<polygon fill="#000000" stroke="#000000" points="187.111,-114.2595 197.6367,-113.0512 188.6548,-107.4319 187.111,-114.2595"/>
<text text-anchor="middle" x="163.5" y="-112.8" font-family="Times,serif" font-size="14.00" fill="#000000">2:2/0</text>
</g>
<!-- 1&#45;&gt;3 -->
<g id="edge8" class="edge">
<title>1&#45;&gt;3</title>
<path fill="none" stroke="#000000" d="M129.9897,-57.8064C165.6955,-55.4373 245.9406,-50.1129 290.9075,-47.1294"/>
<polygon fill="#000000" stroke="#000000" points="291.2546,-50.6141 301.001,-46.4597 290.7911,-43.6295 291.2546,-50.6141"/>
<text text-anchor="middle" x="215.5" y="-56.8" font-family="Times,serif" font-size="14.00" fill="#000000">&#45;1:&#45;1/0</text>
</g>
<!-- 2&#45;&gt;0 -->
<g id="edge9" class="edge">
<title>2&#45;&gt;0</title>
<path fill="none" stroke="#000000" d="M198.7644,-123.2669C193.5012,-125.2039 187.5998,-127.0273 182,-128 133.3118,-136.4572 76.7109,-119.8885 44.3477,-107.8843"/>
<polygon fill="#000000" stroke="#000000" points="45.3225,-104.5092 34.7326,-104.1847 42.8087,-111.0423 45.3225,-104.5092"/>
<text text-anchor="middle" x="112" y="-131.8" font-family="Times,serif" font-size="14.00" fill="#000000">0:0/0</text>
</g>
<!-- 2&#45;&gt;1 -->
<g id="edge10" class="edge">
<title>2&#45;&gt;1</title>
<path fill="none" stroke="#000000" d="M206.2487,-100.1516C200.3733,-91.4521 191.9983,-81.2021 182,-75 169.5451,-67.2741 153.7659,-63.2699 140.3429,-61.1984"/>
<polygon fill="#000000" stroke="#000000" points="140.551,-57.697 130.1915,-59.9174 139.6746,-64.6419 140.551,-57.697"/>
<text text-anchor="middle" x="163.5" y="-78.8" font-family="Times,serif" font-size="14.00" fill="#000000">1:1/0</text>
</g>
<!-- 2&#45;&gt;2 -->
<g id="edge11" class="edge">
<title>2&#45;&gt;2</title>
<path fill="none" stroke="#000000" d="M206.5212,-131.916C204.179,-142.1504 207.1719,-152 215.5,-152 220.9653,-152 224.133,-147.7581 225.003,-141.9494"/>
<polygon fill="#000000" stroke="#000000" points="228.4958,-141.7198 224.4788,-131.916 221.5054,-142.0851 228.4958,-141.7198"/>
<text text-anchor="middle" x="215.5" y="-155.8" font-family="Times,serif" font-size="14.00" fill="#000000">2:0/0</text>
</g>
<!-- 2&#45;&gt;3 -->
<g id="edge12" class="edge">
<title>2&#45;&gt;3</title>
<path fill="none" stroke="#000000" d="M230.9021,-105.8274C247.7933,-94.6714 275.227,-76.5524 295.7672,-62.9863"/>
<polygon fill="#000000" stroke="#000000" points="297.9612,-65.7318 304.3766,-57.3001 294.1033,-59.8908 297.9612,-65.7318"/>
<text text-anchor="middle" x="267.5" y="-96.8" font-family="Times,serif" font-size="14.00" fill="#000000">&#45;1:&#45;1/0</text>
</g>
</g>
</svg>
