<?xml version="1.0" encoding="UTF-8" standalone="no"?>
<!DOCTYPE svg PUBLIC "-//W3C//DTD SVG 1.1//EN"
 "http://www.w3.org/Graphics/SVG/1.1/DTD/svg11.dtd">
<!-- Generated by graphviz version 2.40.1 (20161225.0304)
 -->
<!-- Title: WFST Pages: 1 -->
<svg width="283pt" height="104pt"
 viewBox="0.00 0.00 283.00 104.00" xmlns="http://www.w3.org/2000/svg" xmlns:xlink="http://www.w3.org/1999/xlink">
<g id="graph0" class="graph" transform="scale(1 1) rotate(0) translate(4 100)">
<title>WFST</title>
<polygon fill="#ffffff" stroke="transparent" points="-4,4 -4,-100 279,-100 279,4 -4,4"/>
<text text-anchor="middle" x="137.5" y="-7.8" font-family="Times,serif" font-size="14.00" fill="#000000">a_fsa</text>
<!-- 0 -->
<g id="node1" class="node">
<title>0</title>
<ellipse fill="none" stroke="#000000" stroke-width="2" cx="23" cy="-45" rx="18" ry="18"/>
<text text-anchor="middle" x="23" y="-41.3" font-family="Times,serif" font-size="14.00" fill="#000000">0</text>
</g>
<!-- 0&#45;&gt;0 -->
<g id="edge2" class="edge">
<title>0&#45;&gt;0</title>
<path fill="none" stroke="#000000" d="M13.4254,-60.5414C10.7303,-70.9087 13.9219,-81 23,-81 28.9575,-81 32.3799,-76.654 33.2671,-70.7362"/>
<polygon fill="#000000" stroke="#000000" points="36.7444,-70.2812 32.5746,-60.5414 29.7605,-70.7557 36.7444,-70.2812"/>
<text text-anchor="middle" x="23" y="-84.8" font-family="Times,serif" font-size="14.00" fill="#000000">1:10/0.2</text>
</g>
<!-- 1 -->
<g id="node2" class="node">
<title>1</title>
<ellipse fill="none" stroke="#000000" stroke-width="2" cx="135" cy="-45" rx="18" ry="18"/>
<text text-anchor="middle" x="135" y="-41.3" font-family="Times,serif" font-size="14.00" fill="#000000">1</text>
</g>
<!-- 0&#45;&gt;1 -->
<g id="edge1" class="edge">
<title>0&#45;&gt;1</title>
<path fill="none" stroke="#000000" d="M41.4945,-45C59.2718,-45 86.3816,-45 106.8413,-45"/>
<polygon fill="#000000" stroke="#000000" points="106.8497,-48.5001 116.8496,-45 106.8496,-41.5001 106.8497,-48.5001"/>
<text text-anchor="middle" x="79" y="-48.8" font-family="Times,serif" font-size="14.00" fill="#000000">2:20/0.1</text>
</g>
<!-- 1&#45;&gt;1 -->
<g id="edge3" class="edge">
<title>1&#45;&gt;1</title>
<path fill="none" stroke="#000000" d="M125.4254,-60.5414C122.7303,-70.9087 125.9219,-81 135,-81 140.9575,-81 144.3799,-76.654 145.2671,-70.7362"/>
<polygon fill="#000000" stroke="#000000" points="148.7444,-70.2812 144.5746,-60.5414 141.7605,-70.7557 148.7444,-70.2812"/>
<text text-anchor="middle" x="135" y="-84.8" font-family="Times,serif" font-size="14.00" fill="#000000">3:30/0.3</text>
</g>
<!-- 2 -->
<g id="node3" class="node">
<title>2</title>
<ellipse fill="none" stroke="#000000" stroke-width="2" cx="253" cy="-45" rx="18" ry="18"/>
<ellipse fill="none" stroke="#000000" stroke-width="2" cx="253" cy="-45" rx="22" ry="22"/>
<text text-anchor="middle" x="253" y="-41.3" font-family="Times,serif" font-size="14.00" fill="#000000">2</text>
</g>
<!-- 1&#45;&gt;2 -->
<g id="edge4" class="edge">
<title>1&#45;&gt;2</title>
<path fill="none" stroke="#000000" d="M153.1789,-45C171.1794,-45 199.1232,-45 220.8719,-45"/>
<polygon fill="#000000" stroke="#000000" points="220.9803,-48.5001 230.9802,-45 220.9802,-41.5001 220.9803,-48.5001"/>
<text text-anchor="middle" x="192" y="-48.8" font-family="Times,serif" font-size="14.00" fill="#000000">&#45;1:&#45;1/0.4</text>
</g>
</g>
</svg>
