<?xml version="1.0" encoding="UTF-8" standalone="no"?>
<!DOCTYPE svg PUBLIC "-//W3C//DTD SVG 1.1//EN"
 "http://www.w3.org/Graphics/SVG/1.1/DTD/svg11.dtd">
<!-- Generated by graphviz version 2.40.1 (20161225.0304)
 -->
<!-- Title: WFST Pages: 1 -->
<svg width="250pt" height="139pt"
 viewBox="0.00 0.00 250.00 139.00" xmlns="http://www.w3.org/2000/svg" xmlns:xlink="http://www.w3.org/1999/xlink">
<g id="graph0" class="graph" transform="scale(1 1) rotate(0) translate(4 135)">
<title>WFST</title>
<polygon fill="#ffffff" stroke="transparent" points="-4,4 -4,-135 246,-135 246,4 -4,4"/>
<text text-anchor="middle" x="121" y="-7.8" font-family="Times,serif" font-size="14.00" fill="#000000">a_fsa</text>
<!-- 0 -->
<g id="node1" class="node">
<title>0</title>
<ellipse fill="none" stroke="#000000" stroke-width="2" cx="18" cy="-62" rx="18" ry="18"/>
<text text-anchor="middle" x="18" y="-58.3" font-family="Times,serif" font-size="14.00" fill="#000000">0</text>
</g>
<!-- 0&#45;&gt;0 -->
<g id="edge1" class="edge">
<title>0&#45;&gt;0</title>
<path fill="none" stroke="#000000" d="M9.9836,-78.2903C8.0505,-88.3892 10.7227,-98 18,-98 22.662,-98 25.4341,-94.0557 26.3162,-88.5656"/>
<polygon fill="#000000" stroke="#000000" points="29.8067,-88.1839 26.0164,-78.2903 22.8097,-88.3881 29.8067,-88.1839"/>
<text text-anchor="middle" x="18" y="-101.8" font-family="Times,serif" font-size="14.00" fill="#000000">0:0/0</text>
</g>
<!-- 1 -->
<g id="node2" class="node">
<title>1</title>
<ellipse fill="none" stroke="#000000" stroke-width="2" cx="112.5" cy="-80" rx="18" ry="18"/>
<text text-anchor="middle" x="112.5" y="-76.3" font-family="Times,serif" font-size="14.00" fill="#000000">1</text>
</g>
<!-- 0&#45;&gt;1 -->
<g id="edge2" class="edge">
<title>0&#45;&gt;1</title>
<path fill="none" stroke="#000000" d="M33.6043,-71.2211C38.9415,-73.9191 45.0657,-76.5353 51,-78 61.7345,-80.6495 73.8417,-81.4835 84.457,-81.537"/>
<polygon fill="#000000" stroke="#000000" points="84.5292,-85.0364 94.4689,-81.3686 84.4115,-78.0373 84.5292,-85.0364"/>
<text text-anchor="middle" x="65" y="-84.8" font-family="Times,serif" font-size="14.00" fill="#000000">1:1/0</text>
</g>
<!-- 2 -->
<g id="node3" class="node">
<title>2</title>
<ellipse fill="none" stroke="#000000" stroke-width="2" cx="220" cy="-45" rx="18" ry="18"/>
<ellipse fill="none" stroke="#000000" stroke-width="2" cx="220" cy="-45" rx="22" ry="22"/>
<text text-anchor="middle" x="220" y="-41.3" font-family="Times,serif" font-size="14.00" fill="#000000">2</text>
</g>
<!-- 0&#45;&gt;2 -->
<g id="edge3" class="edge">
<title>0&#45;&gt;2</title>
<path fill="none" stroke="#000000" d="M34.8476,-55.0372C50.0168,-49.1679 73.0769,-41.2251 94,-38 125.6405,-33.1228 162.2126,-36.0941 187.7776,-39.5431"/>
<polygon fill="#000000" stroke="#000000" points="187.6145,-43.0561 198.0136,-41.029 188.6201,-36.1287 187.6145,-43.0561"/>
<text text-anchor="middle" x="112.5" y="-41.8" font-family="Times,serif" font-size="14.00" fill="#000000">&#45;1:&#45;1/0</text>
</g>
<!-- 1&#45;&gt;0 -->
<g id="edge4" class="edge">
<title>1&#45;&gt;0</title>
<path fill="none" stroke="#000000" d="M98.3504,-68.6678C92.6761,-64.8083 85.8608,-60.9726 79,-59 68.3767,-55.9456 56.2897,-55.8763 45.6929,-56.8675"/>
<polygon fill="#000000" stroke="#000000" points="45.1794,-53.4046 35.7021,-58.1409 46.0644,-60.3484 45.1794,-53.4046"/>
<text text-anchor="middle" x="65" y="-62.8" font-family="Times,serif" font-size="14.00" fill="#000000">0:0/0</text>
</g>
<!-- 1&#45;&gt;1 -->
<g id="edge5" class="edge">
<title>1&#45;&gt;1</title>
<path fill="none" stroke="#000000" d="M104.4836,-96.2903C102.5505,-106.3892 105.2227,-116 112.5,-116 117.162,-116 119.9341,-112.0557 120.8162,-106.5656"/>
<polygon fill="#000000" stroke="#000000" points="124.3067,-106.1839 120.5164,-96.2903 117.3097,-106.3881 124.3067,-106.1839"/>
<text text-anchor="middle" x="112.5" y="-119.8" font-family="Times,serif" font-size="14.00" fill="#000000">1:0/0</text>
</g>
<!-- 1&#45;&gt;2 -->
<g id="edge6" class="edge">
<title>1&#45;&gt;2</title>
<path fill="none" stroke="#000000" d="M129.7717,-74.3766C145.7427,-69.1768 169.8494,-61.3281 189.1283,-55.0512"/>
<polygon fill="#000000" stroke="#000000" points="190.2761,-58.3585 198.7012,-51.9345 188.1089,-51.7024 190.2761,-58.3585"/>
<text text-anchor="middle" x="164.5" y="-71.8" font-family="Times,serif" font-size="14.00" fill="#000000">&#45;1:&#45;1/0</text>
</g>
</g>
</svg>
