<?xml version="1.0" encoding="UTF-8" standalone="no"?>
<!DOCTYPE svg PUBLIC "-//W3C//DTD SVG 1.1//EN"
 "http://www.w3.org/Graphics/SVG/1.1/DTD/svg11.dtd">
<!-- Generated by graphviz version 2.40.1 (20161225.0304)
 -->
<!-- Title: WFSA Pages: 1 -->
<svg width="245pt" height="106pt"
 viewBox="0.00 0.00 245.00 106.00" xmlns="http://www.w3.org/2000/svg" xmlns:xlink="http://www.w3.org/1999/xlink">
<g id="graph0" class="graph" transform="scale(1 1) rotate(0) translate(4 102)">
<title>WFSA</title>
<polygon fill="#ffffff" stroke="transparent" points="-4,4 -4,-102 241,-102 241,4 -4,4"/>
<text text-anchor="middle" x="118.5" y="-7.8" font-family="Times,serif" font-size="14.00" fill="#000000">after sort</text>
<!-- 0 -->
<g id="node1" class="node">
<title>0</title>
<ellipse fill="none" stroke="#000000" stroke-width="2" cx="18" cy="-62" rx="18" ry="18"/>
<text text-anchor="middle" x="18" y="-58.3" font-family="Times,serif" font-size="14.00" fill="#000000">0</text>
</g>
<!-- 1 -->
<g id="node2" class="node">
<title>1</title>
<ellipse fill="none" stroke="#000000" stroke-width="2" cx="112" cy="-80" rx="18" ry="18"/>
<text text-anchor="middle" x="112" y="-76.3" font-family="Times,serif" font-size="14.00" fill="#000000">1</text>
</g>
<!-- 0&#45;&gt;1 -->
<g id="edge1" class="edge">
<title>0&#45;&gt;1</title>
<path fill="none" stroke="#000000" d="M33.6046,-71.2201C38.9418,-73.9182 45.0659,-76.5345 51,-78 61.4597,-80.5831 73.2337,-81.4298 83.6278,-81.5119"/>
<polygon fill="#000000" stroke="#000000" points="83.8998,-85.0084 93.8472,-81.3614 83.7967,-78.0091 83.8998,-85.0084"/>
<text text-anchor="middle" x="65" y="-84.8" font-family="Times,serif" font-size="14.00" fill="#000000">1/0.3</text>
</g>
<!-- 0&#45;&gt;1 -->
<g id="edge2" class="edge">
<title>0&#45;&gt;1</title>
<path fill="none" stroke="#000000" d="M35.7109,-58.1108C48.0818,-56.1179 64.8495,-54.8794 79,-59 82.4291,-59.9986 85.8421,-61.4732 89.1008,-63.1861"/>
<polygon fill="#000000" stroke="#000000" points="87.3979,-66.2468 97.7617,-68.4472 91.0321,-60.2641 87.3979,-66.2468"/>
<text text-anchor="middle" x="65" y="-62.8" font-family="Times,serif" font-size="14.00" fill="#000000">2/0.2</text>
</g>
<!-- 2 -->
<g id="node3" class="node">
<title>2</title>
<ellipse fill="none" stroke="#000000" stroke-width="2" cx="215" cy="-45" rx="18" ry="18"/>
<ellipse fill="none" stroke="#000000" stroke-width="2" cx="215" cy="-45" rx="22" ry="22"/>
<text text-anchor="middle" x="215" y="-41.3" font-family="Times,serif" font-size="14.00" fill="#000000">2</text>
</g>
<!-- 0&#45;&gt;2 -->
<g id="edge3" class="edge">
<title>0&#45;&gt;2</title>
<path fill="none" stroke="#000000" d="M34.8476,-55.0372C50.0168,-49.1679 73.0769,-41.2251 94,-38 123.8908,-33.3925 158.3594,-36.1653 182.8431,-39.4835"/>
<polygon fill="#000000" stroke="#000000" points="182.6081,-42.9863 193.0094,-40.9703 183.6211,-36.06 182.6081,-42.9863"/>
<text text-anchor="middle" x="112" y="-41.8" font-family="Times,serif" font-size="14.00" fill="#000000">&#45;1/0</text>
</g>
<!-- 1&#45;&gt;2 -->
<g id="edge4" class="edge">
<title>1&#45;&gt;2</title>
<path fill="none" stroke="#000000" d="M129.4725,-74.0627C144.485,-68.9614 166.4799,-61.4874 184.4052,-55.3963"/>
<polygon fill="#000000" stroke="#000000" points="185.5326,-58.7098 193.8748,-52.1785 183.2804,-52.082 185.5326,-58.7098"/>
<text text-anchor="middle" x="161.5" y="-71.8" font-family="Times,serif" font-size="14.00" fill="#000000">&#45;1/0.4</text>
</g>
</g>
</svg>
