<?xml version="1.0" encoding="UTF-8" standalone="no"?>
<!DOCTYPE svg PUBLIC "-//W3C//DTD SVG 1.1//EN"
 "http://www.w3.org/Graphics/SVG/1.1/DTD/svg11.dtd">
<!-- Generated by graphviz version 2.40.1 (20161225.0304)
 -->
<!-- Title: WFSA Pages: 1 -->
<svg width="224pt" height="104pt"
 viewBox="0.00 0.00 224.00 104.00" xmlns="http://www.w3.org/2000/svg" xmlns:xlink="http://www.w3.org/1999/xlink">
<g id="graph0" class="graph" transform="scale(1 1) rotate(0) translate(4 100)">
<title>WFSA</title>
<polygon fill="#ffffff" stroke="transparent" points="-4,4 -4,-100 220,-100 220,4 -4,4"/>
<text text-anchor="middle" x="108" y="-7.8" font-family="Times,serif" font-size="14.00" fill="#000000">b_fsa</text>
<!-- 0 -->
<g id="node1" class="node">
<title>0</title>
<ellipse fill="none" stroke="#000000" stroke-width="2" cx="18" cy="-45" rx="18" ry="18"/>
<text text-anchor="middle" x="18" y="-41.3" font-family="Times,serif" font-size="14.00" fill="#000000">0</text>
</g>
<!-- 0&#45;&gt;0 -->
<g id="edge1" class="edge">
<title>0&#45;&gt;0</title>
<path fill="none" stroke="#000000" d="M10.6172,-61.6641C8.9766,-71.625 11.4375,-81 18,-81 22.2041,-81 24.7249,-77.1525 25.5625,-71.7682"/>
<polygon fill="#000000" stroke="#000000" points="29.0601,-71.6002 25.3828,-61.6641 22.0612,-71.7247 29.0601,-71.6002"/>
<text text-anchor="middle" x="18" y="-84.8" font-family="Times,serif" font-size="14.00" fill="#000000">0/0</text>
</g>
<!-- 1 -->
<g id="node2" class="node">
<title>1</title>
<ellipse fill="none" stroke="#000000" stroke-width="2" cx="102" cy="-45" rx="18" ry="18"/>
<text text-anchor="middle" x="102" y="-41.3" font-family="Times,serif" font-size="14.00" fill="#000000">1</text>
</g>
<!-- 0&#45;&gt;1 -->
<g id="edge2" class="edge">
<title>0&#45;&gt;1</title>
<path fill="none" stroke="#000000" d="M36.2267,-45C47.1242,-45 61.2054,-45 73.5413,-45"/>
<polygon fill="#000000" stroke="#000000" points="73.8089,-48.5001 83.8088,-45 73.8088,-41.5001 73.8089,-48.5001"/>
<text text-anchor="middle" x="60" y="-48.8" font-family="Times,serif" font-size="14.00" fill="#000000">1/1</text>
</g>
<!-- 0&#45;&gt;1 -->
<g id="edge3" class="edge">
<title>0&#45;&gt;1</title>
<path fill="none" stroke="#000000" d="M32.7129,-34.3344C38.1808,-30.9798 44.6133,-27.7072 51,-26 58.7286,-23.9341 61.2714,-23.9341 69,-26 72.1933,-26.8536 75.3981,-28.0986 78.4881,-29.5494"/>
<polygon fill="#000000" stroke="#000000" points="76.83,-32.6318 87.2871,-34.3344 80.1742,-26.4822 76.83,-32.6318"/>
<text text-anchor="middle" x="60" y="-29.8" font-family="Times,serif" font-size="14.00" fill="#000000">2/2</text>
</g>
<!-- 1&#45;&gt;1 -->
<g id="edge4" class="edge">
<title>1&#45;&gt;1</title>
<path fill="none" stroke="#000000" d="M94.6172,-61.6641C92.9766,-71.625 95.4375,-81 102,-81 106.2041,-81 108.7249,-77.1525 109.5625,-71.7682"/>
<polygon fill="#000000" stroke="#000000" points="113.0601,-71.6002 109.3828,-61.6641 106.0612,-71.7247 113.0601,-71.6002"/>
<text text-anchor="middle" x="102" y="-84.8" font-family="Times,serif" font-size="14.00" fill="#000000">0/0</text>
</g>
<!-- 2 -->
<g id="node3" class="node">
<title>2</title>
<ellipse fill="none" stroke="#000000" stroke-width="2" cx="194" cy="-45" rx="18" ry="18"/>
<ellipse fill="none" stroke="#000000" stroke-width="2" cx="194" cy="-45" rx="22" ry="22"/>
<text text-anchor="middle" x="194" y="-41.3" font-family="Times,serif" font-size="14.00" fill="#000000">2</text>
</g>
<!-- 1&#45;&gt;2 -->
<g id="edge5" class="edge">
<title>1&#45;&gt;2</title>
<path fill="none" stroke="#000000" d="M120.1762,-45C132.0274,-45 147.8254,-45 161.7655,-45"/>
<polygon fill="#000000" stroke="#000000" points="161.9674,-48.5001 171.9674,-45 161.9673,-41.5001 161.9674,-48.5001"/>
<text text-anchor="middle" x="146" y="-48.8" font-family="Times,serif" font-size="14.00" fill="#000000">&#45;1/3</text>
</g>
</g>
</svg>
