<?xml version="1.0" encoding="UTF-8" standalone="no"?>
<!DOCTYPE svg PUBLIC "-//W3C//DTD SVG 1.1//EN"
 "http://www.w3.org/Graphics/SVG/1.1/DTD/svg11.dtd">
<!-- Generated by graphviz version 2.40.1 (20161225.0304)
 -->
<!-- Title: WFST Pages: 1 -->
<svg width="470pt" height="91pt"
 viewBox="0.00 0.00 470.00 90.90" xmlns="http://www.w3.org/2000/svg" xmlns:xlink="http://www.w3.org/1999/xlink">
<g id="graph0" class="graph" transform="scale(1 1) rotate(0) translate(4 86.8957)">
<title>WFST</title>
<polygon fill="#ffffff" stroke="transparent" points="-4,4 -4,-86.8957 466,-86.8957 466,4 -4,4"/>
<text text-anchor="middle" x="231" y="-7.8" font-family="Times,serif" font-size="14.00" fill="#000000">b_fsa</text>
<!-- 0 -->
<g id="node1" class="node">
<title>0</title>
<ellipse fill="none" stroke="#000000" stroke-width="2" cx="18" cy="-49.8957" rx="18" ry="18"/>
<text text-anchor="middle" x="18" y="-46.1957" font-family="Times,serif" font-size="14.00" fill="#000000">0</text>
</g>
<!-- 1 -->
<g id="node2" class="node">
<title>1</title>
<ellipse fill="none" stroke="#000000" stroke-width="2" cx="123" cy="-49.8957" rx="18" ry="18"/>
<text text-anchor="middle" x="123" y="-46.1957" font-family="Times,serif" font-size="14.00" fill="#000000">1</text>
</g>
<!-- 0&#45;&gt;1 -->
<g id="edge1" class="edge">
<title>0&#45;&gt;1</title>
<path fill="none" stroke="#000000" d="M33.5774,-59.23C38.9127,-61.9356 45.0427,-64.5276 51,-65.8957 67.8936,-69.7751 73.1064,-69.7751 90,-65.8957 92.6994,-65.2758 95.4343,-64.4046 98.1146,-63.3854"/>
<polygon fill="#000000" stroke="#000000" points="99.718,-66.5026 107.4226,-59.23 96.8644,-60.1106 99.718,-66.5026"/>
<text text-anchor="middle" x="70.5" y="-71.6957" font-family="Times,serif" font-size="14.00" fill="#000000">0:0/0.5</text>
</g>
<!-- 0&#45;&gt;1 -->
<g id="edge2" class="edge">
<title>0&#45;&gt;1</title>
<path fill="none" stroke="#000000" d="M36.1352,-47.9493C40.9602,-47.5129 46.1726,-47.1147 51,-46.8957 68.3155,-46.1102 72.6845,-46.1102 90,-46.8957 91.5086,-46.9641 93.0547,-47.0501 94.6149,-47.1492"/>
<polygon fill="#000000" stroke="#000000" points="94.6227,-50.6604 104.8648,-47.9493 95.1675,-43.6816 94.6227,-50.6604"/>
<text text-anchor="middle" x="70.5" y="-50.6957" font-family="Times,serif" font-size="14.00" fill="#000000">1:1/0.2</text>
</g>
<!-- 0&#45;&gt;1 -->
<g id="edge3" class="edge">
<title>0&#45;&gt;1</title>
<path fill="none" stroke="#000000" d="M31.4382,-37.7448C37.0662,-33.4385 43.9378,-29.1139 51,-26.8957 67.5368,-21.7014 73.4632,-21.7014 90,-26.8957 93.8621,-28.1088 97.6673,-29.9518 101.2432,-32.0773"/>
<polygon fill="#000000" stroke="#000000" points="99.3269,-35.0068 109.5618,-37.7448 103.2682,-29.2218 99.3269,-35.0068"/>
<text text-anchor="middle" x="70.5" y="-30.6957" font-family="Times,serif" font-size="14.00" fill="#000000">2:2/0.3</text>
</g>
<!-- 2 -->
<g id="node3" class="node">
<title>2</title>
<ellipse fill="none" stroke="#000000" stroke-width="2" cx="228" cy="-49.8957" rx="18" ry="18"/>
<text text-anchor="middle" x="228" y="-46.1957" font-family="Times,serif" font-size="14.00" fill="#000000">2</text>
</g>
<!-- 1&#45;&gt;2 -->
<g id="edge4" class="edge">
<title>1&#45;&gt;2</title>
<path fill="none" stroke="#000000" d="M138.5774,-59.23C143.9127,-61.9356 150.0427,-64.5276 156,-65.8957 172.8936,-69.7751 178.1064,-69.7751 195,-65.8957 197.6994,-65.2758 200.4343,-64.4046 203.1146,-63.3854"/>
<polygon fill="#000000" stroke="#000000" points="204.718,-66.5026 212.4226,-59.23 201.8644,-60.1106 204.718,-66.5026"/>
<text text-anchor="middle" x="175.5" y="-71.6957" font-family="Times,serif" font-size="14.00" fill="#000000">0:0/0.2</text>
</g>
<!-- 1&#45;&gt;2 -->
<g id="edge5" class="edge">
<title>1&#45;&gt;2</title>
<path fill="none" stroke="#000000" d="M141.1352,-47.9493C145.9602,-47.5129 151.1726,-47.1147 156,-46.8957 173.3155,-46.1102 177.6845,-46.1102 195,-46.8957 196.5086,-46.9641 198.0547,-47.0501 199.6149,-47.1492"/>
<polygon fill="#000000" stroke="#000000" points="199.6227,-50.6604 209.8648,-47.9493 200.1675,-43.6816 199.6227,-50.6604"/>
<text text-anchor="middle" x="175.5" y="-50.6957" font-family="Times,serif" font-size="14.00" fill="#000000">1:1/0.3</text>
</g>
<!-- 1&#45;&gt;2 -->
<g id="edge6" class="edge">
<title>1&#45;&gt;2</title>
<path fill="none" stroke="#000000" d="M136.4382,-37.7448C142.0662,-33.4385 148.9378,-29.1139 156,-26.8957 172.5368,-21.7014 178.4632,-21.7014 195,-26.8957 198.8621,-28.1088 202.6673,-29.9518 206.2432,-32.0773"/>
<polygon fill="#000000" stroke="#000000" points="204.3269,-35.0068 214.5618,-37.7448 208.2682,-29.2218 204.3269,-35.0068"/>
<text text-anchor="middle" x="175.5" y="-30.6957" font-family="Times,serif" font-size="14.00" fill="#000000">2:2/0.5</text>
</g>
<!-- 3 -->
<g id="node4" class="node">
<title>3</title>
<ellipse fill="none" stroke="#000000" stroke-width="2" cx="333" cy="-49.8957" rx="18" ry="18"/>
<text text-anchor="middle" x="333" y="-46.1957" font-family="Times,serif" font-size="14.00" fill="#000000">3</text>
</g>
<!-- 2&#45;&gt;3 -->
<g id="edge7" class="edge">
<title>2&#45;&gt;3</title>
<path fill="none" stroke="#000000" d="M243.5774,-59.23C248.9127,-61.9356 255.0427,-64.5276 261,-65.8957 277.8936,-69.7751 283.1064,-69.7751 300,-65.8957 302.6994,-65.2758 305.4343,-64.4046 308.1146,-63.3854"/>
<polygon fill="#000000" stroke="#000000" points="309.718,-66.5026 317.4226,-59.23 306.8644,-60.1106 309.718,-66.5026"/>
<text text-anchor="middle" x="280.5" y="-71.6957" font-family="Times,serif" font-size="14.00" fill="#000000">0:0/0.2</text>
</g>
<!-- 2&#45;&gt;3 -->
<g id="edge8" class="edge">
<title>2&#45;&gt;3</title>
<path fill="none" stroke="#000000" d="M246.1352,-47.9493C250.9602,-47.5129 256.1726,-47.1147 261,-46.8957 278.3155,-46.1102 282.6845,-46.1102 300,-46.8957 301.5086,-46.9641 303.0547,-47.0501 304.6149,-47.1492"/>
<polygon fill="#000000" stroke="#000000" points="304.6227,-50.6604 314.8648,-47.9493 305.1675,-43.6816 304.6227,-50.6604"/>
<text text-anchor="middle" x="280.5" y="-50.6957" font-family="Times,serif" font-size="14.00" fill="#000000">1:1/0.5</text>
</g>
<!-- 2&#45;&gt;3 -->
<g id="edge9" class="edge">
<title>2&#45;&gt;3</title>
<path fill="none" stroke="#000000" d="M241.4382,-37.7448C247.0662,-33.4385 253.9378,-29.1139 261,-26.8957 277.5368,-21.7014 283.4632,-21.7014 300,-26.8957 303.8621,-28.1088 307.6673,-29.9518 311.2432,-32.0773"/>
<polygon fill="#000000" stroke="#000000" points="309.3269,-35.0068 319.5618,-37.7448 313.2682,-29.2218 309.3269,-35.0068"/>
<text text-anchor="middle" x="280.5" y="-30.6957" font-family="Times,serif" font-size="14.00" fill="#000000">2:2/0.3</text>
</g>
<!-- 4 -->
<g id="node5" class="node">
<title>4</title>
<ellipse fill="none" stroke="#000000" stroke-width="2" cx="440" cy="-49.8957" rx="18" ry="18"/>
<ellipse fill="none" stroke="#000000" stroke-width="2" cx="440" cy="-49.8957" rx="22" ry="22"/>
<text text-anchor="middle" x="440" y="-46.1957" font-family="Times,serif" font-size="14.00" fill="#000000">4</text>
</g>
<!-- 3&#45;&gt;4 -->
<g id="edge10" class="edge">
<title>3&#45;&gt;4</title>
<path fill="none" stroke="#000000" d="M351.1511,-49.8957C366.5742,-49.8957 389.0915,-49.8957 407.5981,-49.8957"/>
<polygon fill="#000000" stroke="#000000" points="407.6711,-53.3958 417.6711,-49.8957 407.671,-46.3958 407.6711,-53.3958"/>
<text text-anchor="middle" x="384.5" y="-53.6957" font-family="Times,serif" font-size="14.00" fill="#000000">&#45;1:&#45;1/1</text>
</g>
</g>
</svg>
