<?xml version="1.0" encoding="UTF-8" standalone="no"?>
<!DOCTYPE svg PUBLIC "-//W3C//DTD SVG 1.1//EN"
 "http://www.w3.org/Graphics/SVG/1.1/DTD/svg11.dtd">
<!-- Generated by graphviz version 2.40.1 (20161225.0304)
 -->
<!-- Title: WFST Pages: 1 -->
<svg width="502pt" height="93pt"
 viewBox="0.00 0.00 502.00 92.59" xmlns="http://www.w3.org/2000/svg" xmlns:xlink="http://www.w3.org/1999/xlink">
<g id="graph0" class="graph" transform="scale(1 1) rotate(0) translate(4 88.5949)">
<title>WFST</title>
<polygon fill="#ffffff" stroke="transparent" points="-4,4 -4,-88.5949 498,-88.5949 498,4 -4,4"/>
<text text-anchor="middle" x="247" y="-7.8" font-family="Times,serif" font-size="14.00" fill="#000000">b_fsa</text>
<!-- 0 -->
<g id="node1" class="node">
<title>0</title>
<ellipse fill="none" stroke="#000000" stroke-width="2" cx="18" cy="-50.5949" rx="18" ry="18"/>
<text text-anchor="middle" x="18" y="-46.8949" font-family="Times,serif" font-size="14.00" fill="#000000">0</text>
</g>
<!-- 1 -->
<g id="node2" class="node">
<title>1</title>
<ellipse fill="none" stroke="#000000" stroke-width="2" cx="130" cy="-50.5949" rx="18" ry="18"/>
<text text-anchor="middle" x="130" y="-46.8949" font-family="Times,serif" font-size="14.00" fill="#000000">1</text>
</g>
<!-- 0&#45;&gt;1 -->
<g id="edge1" class="edge">
<title>0&#45;&gt;1</title>
<path fill="none" stroke="#000000" d="M33.5774,-59.9292C38.9127,-62.6349 45.0427,-65.2269 51,-66.5949 70.9258,-71.1707 77.0742,-71.1707 97,-66.5949 99.6994,-65.975 102.4343,-65.1038 105.1146,-64.0846"/>
<polygon fill="#000000" stroke="#000000" points="106.718,-67.2018 114.4226,-59.9292 103.8644,-60.8098 106.718,-67.2018"/>
<text text-anchor="middle" x="74" y="-73.3949" font-family="Times,serif" font-size="14.00" fill="#000000">10:1/0.1</text>
</g>
<!-- 0&#45;&gt;1 -->
<g id="edge2" class="edge">
<title>0&#45;&gt;1</title>
<path fill="none" stroke="#000000" d="M36.1352,-48.6485C40.9602,-48.2122 46.1726,-47.8139 51,-47.5949 71.4234,-46.6685 76.5766,-46.6685 97,-47.5949 98.5086,-47.6633 100.0547,-47.7493 101.6149,-47.8484"/>
<polygon fill="#000000" stroke="#000000" points="101.6227,-51.3596 111.8648,-48.6485 102.1675,-44.3808 101.6227,-51.3596"/>
<text text-anchor="middle" x="74" y="-51.3949" font-family="Times,serif" font-size="14.00" fill="#000000">10:2/0.2</text>
</g>
<!-- 0&#45;&gt;1 -->
<g id="edge3" class="edge">
<title>0&#45;&gt;1</title>
<path fill="none" stroke="#000000" d="M31.4382,-38.444C37.0662,-34.1377 43.9378,-29.8132 51,-27.5949 70.5049,-21.4684 77.4951,-21.4684 97,-27.5949 100.8621,-28.808 104.6673,-30.6511 108.2432,-32.7766"/>
<polygon fill="#000000" stroke="#000000" points="106.3269,-35.7061 116.5618,-38.444 110.2682,-29.921 106.3269,-35.7061"/>
<text text-anchor="middle" x="74" y="-31.3949" font-family="Times,serif" font-size="14.00" fill="#000000">20:3/0.3</text>
</g>
<!-- 2 -->
<g id="node3" class="node">
<title>2</title>
<ellipse fill="none" stroke="#000000" stroke-width="2" cx="242" cy="-50.5949" rx="18" ry="18"/>
<text text-anchor="middle" x="242" y="-46.8949" font-family="Times,serif" font-size="14.00" fill="#000000">2</text>
</g>
<!-- 1&#45;&gt;2 -->
<g id="edge4" class="edge">
<title>1&#45;&gt;2</title>
<path fill="none" stroke="#000000" d="M145.5774,-59.9292C150.9127,-62.6349 157.0427,-65.2269 163,-66.5949 182.9258,-71.1707 189.0742,-71.1707 209,-66.5949 211.6994,-65.975 214.4343,-65.1038 217.1146,-64.0846"/>
<polygon fill="#000000" stroke="#000000" points="218.718,-67.2018 226.4226,-59.9292 215.8644,-60.8098 218.718,-67.2018"/>
<text text-anchor="middle" x="186" y="-73.3949" font-family="Times,serif" font-size="14.00" fill="#000000">10:1/0.3</text>
</g>
<!-- 1&#45;&gt;2 -->
<g id="edge5" class="edge">
<title>1&#45;&gt;2</title>
<path fill="none" stroke="#000000" d="M148.1352,-48.6485C152.9602,-48.2122 158.1726,-47.8139 163,-47.5949 183.4234,-46.6685 188.5766,-46.6685 209,-47.5949 210.5086,-47.6633 212.0547,-47.7493 213.6149,-47.8484"/>
<polygon fill="#000000" stroke="#000000" points="213.6227,-51.3596 223.8648,-48.6485 214.1675,-44.3808 213.6227,-51.3596"/>
<text text-anchor="middle" x="186" y="-51.3949" font-family="Times,serif" font-size="14.00" fill="#000000">20:2/0.2</text>
</g>
<!-- 1&#45;&gt;2 -->
<g id="edge6" class="edge">
<title>1&#45;&gt;2</title>
<path fill="none" stroke="#000000" d="M143.4382,-38.444C149.0662,-34.1377 155.9378,-29.8132 163,-27.5949 182.5049,-21.4684 189.4951,-21.4684 209,-27.5949 212.8621,-28.808 216.6673,-30.6511 220.2432,-32.7766"/>
<polygon fill="#000000" stroke="#000000" points="218.3269,-35.7061 228.5618,-38.444 222.2682,-29.921 218.3269,-35.7061"/>
<text text-anchor="middle" x="186" y="-31.3949" font-family="Times,serif" font-size="14.00" fill="#000000">30:3/0.1</text>
</g>
<!-- 3 -->
<g id="node4" class="node">
<title>3</title>
<ellipse fill="none" stroke="#000000" stroke-width="2" cx="354" cy="-50.5949" rx="18" ry="18"/>
<text text-anchor="middle" x="354" y="-46.8949" font-family="Times,serif" font-size="14.00" fill="#000000">3</text>
</g>
<!-- 2&#45;&gt;3 -->
<g id="edge7" class="edge">
<title>2&#45;&gt;3</title>
<path fill="none" stroke="#000000" d="M257.5774,-59.9292C262.9127,-62.6349 269.0427,-65.2269 275,-66.5949 294.9258,-71.1707 301.0742,-71.1707 321,-66.5949 323.6994,-65.975 326.4343,-65.1038 329.1146,-64.0846"/>
<polygon fill="#000000" stroke="#000000" points="330.718,-67.2018 338.4226,-59.9292 327.8644,-60.8098 330.718,-67.2018"/>
<text text-anchor="middle" x="298" y="-73.3949" font-family="Times,serif" font-size="14.00" fill="#000000">20:1/0.2</text>
</g>
<!-- 2&#45;&gt;3 -->
<g id="edge8" class="edge">
<title>2&#45;&gt;3</title>
<path fill="none" stroke="#000000" d="M260.1352,-48.6485C264.9602,-48.2122 270.1726,-47.8139 275,-47.5949 295.4234,-46.6685 300.5766,-46.6685 321,-47.5949 322.5086,-47.6633 324.0547,-47.7493 325.6149,-47.8484"/>
<polygon fill="#000000" stroke="#000000" points="325.6227,-51.3596 335.8648,-48.6485 326.1675,-44.3808 325.6227,-51.3596"/>
<text text-anchor="middle" x="298" y="-51.3949" font-family="Times,serif" font-size="14.00" fill="#000000">30:2/0.1</text>
</g>
<!-- 2&#45;&gt;3 -->
<g id="edge9" class="edge">
<title>2&#45;&gt;3</title>
<path fill="none" stroke="#000000" d="M255.4382,-38.444C261.0662,-34.1377 267.9378,-29.8132 275,-27.5949 294.5049,-21.4684 301.4951,-21.4684 321,-27.5949 324.8621,-28.808 328.6673,-30.6511 332.2432,-32.7766"/>
<polygon fill="#000000" stroke="#000000" points="330.3269,-35.7061 340.5618,-38.444 334.2682,-29.921 330.3269,-35.7061"/>
<text text-anchor="middle" x="298" y="-31.3949" font-family="Times,serif" font-size="14.00" fill="#000000">30:3/0.3</text>
</g>
<!-- 4 -->
<g id="node5" class="node">
<title>4</title>
<ellipse fill="none" stroke="#000000" stroke-width="2" cx="472" cy="-50.5949" rx="18" ry="18"/>
<ellipse fill="none" stroke="#000000" stroke-width="2" cx="472" cy="-50.5949" rx="22" ry="22"/>
<text text-anchor="middle" x="472" y="-46.8949" font-family="Times,serif" font-size="14.00" fill="#000000">4</text>
</g>
<!-- 3&#45;&gt;4 -->
<g id="edge10" class="edge">
<title>3&#45;&gt;4</title>
<path fill="none" stroke="#000000" d="M372.1789,-50.5949C390.1794,-50.5949 418.1232,-50.5949 439.8719,-50.5949"/>
<polygon fill="#000000" stroke="#000000" points="439.9803,-54.095 449.9802,-50.5949 439.9802,-47.095 439.9803,-54.095"/>
<text text-anchor="middle" x="411" y="-54.3949" font-family="Times,serif" font-size="14.00" fill="#000000">&#45;1:&#45;1/0.4</text>
</g>
</g>
</svg>
