<?xml version="1.0" encoding="UTF-8" standalone="no"?>
<!DOCTYPE svg PUBLIC "-//W3C//DTD SVG 1.1//EN"
 "http://www.w3.org/Graphics/SVG/1.1/DTD/svg11.dtd">
<!-- Generated by graphviz version 2.40.1 (20161225.0304)
 -->
<!-- Title: WFST Pages: 1 -->
<svg width="343pt" height="104pt"
 viewBox="0.00 0.00 343.00 104.00" xmlns="http://www.w3.org/2000/svg" xmlns:xlink="http://www.w3.org/1999/xlink">
<g id="graph0" class="graph" transform="scale(1 1) rotate(0) translate(4 100)">
<title>WFST</title>
<polygon fill="#ffffff" stroke="transparent" points="-4,4 -4,-100 339,-100 339,4 -4,4"/>
<text text-anchor="middle" x="167.5" y="-7.8" font-family="Times,serif" font-size="14.00" fill="#000000">b_fsa</text>
<!-- 0 -->
<g id="node1" class="node">
<title>0</title>
<ellipse fill="none" stroke="#000000" stroke-width="2" cx="18" cy="-45" rx="18" ry="18"/>
<text text-anchor="middle" x="18" y="-41.3" font-family="Times,serif" font-size="14.00" fill="#000000">0</text>
</g>
<!-- 0&#45;&gt;0 -->
<g id="edge1" class="edge">
<title>0&#45;&gt;0</title>
<path fill="none" stroke="#000000" d="M9.9836,-61.2903C8.0505,-71.3892 10.7227,-81 18,-81 22.662,-81 25.4341,-77.0557 26.3162,-71.5656"/>
<polygon fill="#000000" stroke="#000000" points="29.8067,-71.1839 26.0164,-61.2903 22.8097,-71.3881 29.8067,-71.1839"/>
<text text-anchor="middle" x="18" y="-84.8" font-family="Times,serif" font-size="14.00" fill="#000000">0:0/0</text>
</g>
<!-- 1 -->
<g id="node2" class="node">
<title>1</title>
<ellipse fill="none" stroke="#000000" stroke-width="2" cx="112" cy="-45" rx="18" ry="18"/>
<text text-anchor="middle" x="112" y="-41.3" font-family="Times,serif" font-size="14.00" fill="#000000">1</text>
</g>
<!-- 0&#45;&gt;1 -->
<g id="edge2" class="edge">
<title>0&#45;&gt;1</title>
<path fill="none" stroke="#000000" d="M36.1241,-45C49.6484,-45 68.3808,-45 83.8486,-45"/>
<polygon fill="#000000" stroke="#000000" points="83.9315,-48.5001 93.9315,-45 83.9315,-41.5001 83.9315,-48.5001"/>
<text text-anchor="middle" x="65" y="-48.8" font-family="Times,serif" font-size="14.00" fill="#000000">1:1/0</text>
</g>
<!-- 1&#45;&gt;1 -->
<g id="edge3" class="edge">
<title>1&#45;&gt;1</title>
<path fill="none" stroke="#000000" d="M103.9836,-61.2903C102.0505,-71.3892 104.7227,-81 112,-81 116.662,-81 119.4341,-77.0557 120.3162,-71.5656"/>
<polygon fill="#000000" stroke="#000000" points="123.8067,-71.1839 120.0164,-61.2903 116.8097,-71.3881 123.8067,-71.1839"/>
<text text-anchor="middle" x="112" y="-84.8" font-family="Times,serif" font-size="14.00" fill="#000000">0:0/0</text>
</g>
<!-- 2 -->
<g id="node3" class="node">
<title>2</title>
<ellipse fill="none" stroke="#000000" stroke-width="2" cx="206" cy="-45" rx="18" ry="18"/>
<text text-anchor="middle" x="206" y="-41.3" font-family="Times,serif" font-size="14.00" fill="#000000">2</text>
</g>
<!-- 1&#45;&gt;2 -->
<g id="edge4" class="edge">
<title>1&#45;&gt;2</title>
<path fill="none" stroke="#000000" d="M130.1241,-45C143.6484,-45 162.3808,-45 177.8486,-45"/>
<polygon fill="#000000" stroke="#000000" points="177.9315,-48.5001 187.9315,-45 177.9315,-41.5001 177.9315,-48.5001"/>
<text text-anchor="middle" x="159" y="-48.8" font-family="Times,serif" font-size="14.00" fill="#000000">2:2/0</text>
</g>
<!-- 2&#45;&gt;2 -->
<g id="edge5" class="edge">
<title>2&#45;&gt;2</title>
<path fill="none" stroke="#000000" d="M197.9836,-61.2903C196.0505,-71.3892 198.7227,-81 206,-81 210.662,-81 213.4341,-77.0557 214.3162,-71.5656"/>
<polygon fill="#000000" stroke="#000000" points="217.8067,-71.1839 214.0164,-61.2903 210.8097,-71.3881 217.8067,-71.1839"/>
<text text-anchor="middle" x="206" y="-84.8" font-family="Times,serif" font-size="14.00" fill="#000000">0:0/0</text>
</g>
<!-- 3 -->
<g id="node4" class="node">
<title>3</title>
<ellipse fill="none" stroke="#000000" stroke-width="2" cx="313" cy="-45" rx="18" ry="18"/>
<ellipse fill="none" stroke="#000000" stroke-width="2" cx="313" cy="-45" rx="22" ry="22"/>
<text text-anchor="middle" x="313" y="-41.3" font-family="Times,serif" font-size="14.00" fill="#000000">3</text>
</g>
<!-- 2&#45;&gt;3 -->
<g id="edge6" class="edge">
<title>2&#45;&gt;3</title>
<path fill="none" stroke="#000000" d="M224.1511,-45C239.5742,-45 262.0915,-45 280.5981,-45"/>
<polygon fill="#000000" stroke="#000000" points="280.6711,-48.5001 290.6711,-45 280.671,-41.5001 280.6711,-48.5001"/>
<text text-anchor="middle" x="257.5" y="-48.8" font-family="Times,serif" font-size="14.00" fill="#000000">&#45;1:&#45;1/0</text>
</g>
</g>
</svg>
