<?xml version="1.0" encoding="UTF-8" standalone="no"?>
<!DOCTYPE svg PUBLIC "-//W3C//DTD SVG 1.1//EN"
 "http://www.w3.org/Graphics/SVG/1.1/DTD/svg11.dtd">
<!-- Generated by graphviz version 2.40.1 (20161225.0304)
 -->
<!-- Title: WFSA Pages: 1 -->
<svg width="245pt" height="125pt"
 viewBox="0.00 0.00 245.00 125.00" xmlns="http://www.w3.org/2000/svg" xmlns:xlink="http://www.w3.org/1999/xlink">
<g id="graph0" class="graph" transform="scale(1 1) rotate(0) translate(4 121)">
<title>WFSA</title>
<polygon fill="#ffffff" stroke="transparent" points="-4,4 -4,-121 241,-121 241,4 -4,4"/>
<text text-anchor="middle" x="118.5" y="-7.8" font-family="Times,serif" font-size="14.00" fill="#000000">intersect(a_fsa, b_fsa)</text>
<!-- 0 -->
<g id="node1" class="node">
<title>0</title>
<ellipse fill="none" stroke="#000000" stroke-width="2" cx="18" cy="-72" rx="18" ry="18"/>
<text text-anchor="middle" x="18" y="-68.3" font-family="Times,serif" font-size="14.00" fill="#000000">0</text>
</g>
<!-- 1 -->
<g id="node2" class="node">
<title>1</title>
<ellipse fill="none" stroke="#000000" stroke-width="2" cx="112" cy="-99" rx="18" ry="18"/>
<text text-anchor="middle" x="112" y="-95.3" font-family="Times,serif" font-size="14.00" fill="#000000">1</text>
</g>
<!-- 0&#45;&gt;1 -->
<g id="edge1" class="edge">
<title>0&#45;&gt;1</title>
<path fill="none" stroke="#000000" d="M35.6807,-77.0785C49.4666,-81.0383 68.8559,-86.6076 84.6411,-91.1416"/>
<polygon fill="#000000" stroke="#000000" points="83.8209,-94.5475 94.3986,-93.9443 85.7535,-87.8195 83.8209,-94.5475"/>
<text text-anchor="middle" x="65" y="-92.8" font-family="Times,serif" font-size="14.00" fill="#000000">1/1.1</text>
</g>
<!-- 2 -->
<g id="node3" class="node">
<title>2</title>
<ellipse fill="none" stroke="#000000" stroke-width="2" cx="112" cy="-45" rx="18" ry="18"/>
<text text-anchor="middle" x="112" y="-41.3" font-family="Times,serif" font-size="14.00" fill="#000000">2</text>
</g>
<!-- 0&#45;&gt;2 -->
<g id="edge2" class="edge">
<title>0&#45;&gt;2</title>
<path fill="none" stroke="#000000" d="M35.4471,-66.6332C40.4613,-65.1125 45.9415,-63.4711 51,-62 62.0051,-58.7995 74.163,-55.3865 84.7096,-52.4648"/>
<polygon fill="#000000" stroke="#000000" points="85.907,-55.7653 94.6169,-49.7329 84.0462,-49.0171 85.907,-55.7653"/>
<text text-anchor="middle" x="65" y="-65.8" font-family="Times,serif" font-size="14.00" fill="#000000">2/2.2</text>
</g>
<!-- 3 -->
<g id="node4" class="node">
<title>3</title>
<ellipse fill="none" stroke="#000000" stroke-width="2" cx="215" cy="-45" rx="18" ry="18"/>
<ellipse fill="none" stroke="#000000" stroke-width="2" cx="215" cy="-45" rx="22" ry="22"/>
<text text-anchor="middle" x="215" y="-41.3" font-family="Times,serif" font-size="14.00" fill="#000000">3</text>
</g>
<!-- 2&#45;&gt;3 -->
<g id="edge3" class="edge">
<title>2&#45;&gt;3</title>
<path fill="none" stroke="#000000" d="M130.4143,-45C144.8858,-45 165.4016,-45 182.604,-45"/>
<polygon fill="#000000" stroke="#000000" points="182.8031,-48.5001 192.8031,-45 182.803,-41.5001 182.8031,-48.5001"/>
<text text-anchor="middle" x="161.5" y="-48.8" font-family="Times,serif" font-size="14.00" fill="#000000">&#45;1/3.3</text>
</g>
</g>
</svg>
