<?xml version="1.0" encoding="UTF-8" standalone="no"?>
<!DOCTYPE svg PUBLIC "-//W3C//DTD SVG 1.1//EN"
 "http://www.w3.org/Graphics/SVG/1.1/DTD/svg11.dtd">
<!-- Generated by graphviz version 2.40.1 (20161225.0304)
 -->
<!-- Title: WFSA Pages: 1 -->
<svg width="245pt" height="103pt"
 viewBox="0.00 0.00 245.00 103.00" xmlns="http://www.w3.org/2000/svg" xmlns:xlink="http://www.w3.org/1999/xlink">
<g id="graph0" class="graph" transform="scale(1 1) rotate(0) translate(4 99)">
<title>WFSA</title>
<polygon fill="#ffffff" stroke="transparent" points="-4,4 -4,-99 241,-99 241,4 -4,4"/>
<text text-anchor="middle" x="118.5" y="-7.8" font-family="Times,serif" font-size="14.00" fill="#000000">before sort</text>
<!-- 0 -->
<g id="node1" class="node">
<title>0</title>
<ellipse fill="none" stroke="#000000" stroke-width="2" cx="18" cy="-65" rx="18" ry="18"/>
<text text-anchor="middle" x="18" y="-61.3" font-family="Times,serif" font-size="14.00" fill="#000000">0</text>
</g>
<!-- 2 -->
<g id="node2" class="node">
<title>2</title>
<ellipse fill="none" stroke="#000000" stroke-width="2" cx="215" cy="-68" rx="18" ry="18"/>
<ellipse fill="none" stroke="#000000" stroke-width="2" cx="215" cy="-68" rx="22" ry="22"/>
<text text-anchor="middle" x="215" y="-64.3" font-family="Times,serif" font-size="14.00" fill="#000000">2</text>
</g>
<!-- 0&#45;&gt;2 -->
<g id="edge1" class="edge">
<title>0&#45;&gt;2</title>
<path fill="none" stroke="#000000" d="M35.2552,-71.2339C40.2664,-72.7684 45.793,-74.2001 51,-75 106.7916,-83.5712 121.8734,-81.9984 178,-76 179.7522,-75.8127 181.5432,-75.577 183.3456,-75.3048"/>
<polygon fill="#000000" stroke="#000000" points="184.3943,-78.6714 193.6043,-73.4344 183.1387,-71.785 184.3943,-78.6714"/>
<text text-anchor="middle" x="112" y="-83.8" font-family="Times,serif" font-size="14.00" fill="#000000">&#45;1/0</text>
</g>
<!-- 1 -->
<g id="node3" class="node">
<title>1</title>
<ellipse fill="none" stroke="#000000" stroke-width="2" cx="112" cy="-41" rx="18" ry="18"/>
<text text-anchor="middle" x="112" y="-37.3" font-family="Times,serif" font-size="14.00" fill="#000000">1</text>
</g>
<!-- 0&#45;&gt;1 -->
<g id="edge2" class="edge">
<title>0&#45;&gt;1</title>
<path fill="none" stroke="#000000" d="M35.6807,-60.4858C49.4666,-56.966 68.8559,-52.0155 84.6411,-47.9853"/>
<polygon fill="#000000" stroke="#000000" points="85.5753,-51.3591 94.3986,-45.494 83.8436,-44.5767 85.5753,-51.3591"/>
<text text-anchor="middle" x="65" y="-59.8" font-family="Times,serif" font-size="14.00" fill="#000000">2/0.2</text>
</g>
<!-- 0&#45;&gt;1 -->
<g id="edge3" class="edge">
<title>0&#45;&gt;1</title>
<path fill="none" stroke="#000000" d="M27.97,-49.5887C33.712,-42.1752 41.6452,-34.037 51,-30 61.9687,-25.2665 74.8956,-26.707 86.0196,-29.857"/>
<polygon fill="#000000" stroke="#000000" points="85.0265,-33.2158 95.6207,-33.1023 87.268,-26.5844 85.0265,-33.2158"/>
<text text-anchor="middle" x="65" y="-33.8" font-family="Times,serif" font-size="14.00" fill="#000000">1/0.3</text>
</g>
<!-- 1&#45;&gt;2 -->
<g id="edge4" class="edge">
<title>1&#45;&gt;2</title>
<path fill="none" stroke="#000000" d="M129.4725,-45.5802C144.25,-49.4539 165.7932,-55.1011 183.5606,-59.7586"/>
<polygon fill="#000000" stroke="#000000" points="182.9451,-63.2154 193.5058,-62.3656 184.7201,-56.4442 182.9451,-63.2154"/>
<text text-anchor="middle" x="161.5" y="-60.8" font-family="Times,serif" font-size="14.00" fill="#000000">&#45;1/0.4</text>
</g>
</g>
</svg>
