<?xml version="1.0" encoding="UTF-8" standalone="no"?>
<!DOCTYPE svg PUBLIC "-//W3C//DTD SVG 1.1//EN"
 "http://www.w3.org/Graphics/SVG/1.1/DTD/svg11.dtd">
<!-- Generated by graphviz version 2.40.1 (20161225.0304)
 -->
<!-- Title: WFST Pages: 1 -->
<svg width="481pt" height="143pt"
 viewBox="0.00 0.00 481.00 143.00" xmlns="http://www.w3.org/2000/svg" xmlns:xlink="http://www.w3.org/1999/xlink">
<g id="graph0" class="graph" transform="scale(1 1) rotate(0) translate(4 139)">
<title>WFST</title>
<polygon fill="#ffffff" stroke="transparent" points="-4,4 -4,-139 477,-139 477,4 -4,4"/>
<text text-anchor="middle" x="236.5" y="-7.8" font-family="Times,serif" font-size="14.00" fill="#000000">c_fsa</text>
<!-- 0 -->
<g id="node1" class="node">
<title>0</title>
<ellipse fill="none" stroke="#000000" stroke-width="2" cx="18" cy="-79" rx="18" ry="18"/>
<text text-anchor="middle" x="18" y="-75.3" font-family="Times,serif" font-size="14.00" fill="#000000">0</text>
</g>
<!-- 1 -->
<g id="node2" class="node">
<title>1</title>
<ellipse fill="none" stroke="#000000" stroke-width="2" cx="123" cy="-106" rx="18" ry="18"/>
<text text-anchor="middle" x="123" y="-102.3" font-family="Times,serif" font-size="14.00" fill="#000000">1</text>
</g>
<!-- 0&#45;&gt;1 -->
<g id="edge1" class="edge">
<title>0&#45;&gt;1</title>
<path fill="none" stroke="#000000" d="M33.7188,-87.8102C39.0636,-90.4809 45.1634,-93.1847 51,-95 65.1008,-99.3855 81.3197,-102.059 94.7899,-103.6697"/>
<polygon fill="#000000" stroke="#000000" points="94.5963,-107.1688 104.9104,-104.7461 95.3367,-100.2081 94.5963,-107.1688"/>
<text text-anchor="middle" x="70.5" y="-106.8" font-family="Times,serif" font-size="14.00" fill="#000000">1:1/0.3</text>
</g>
<!-- 0&#45;&gt;1 -->
<g id="edge2" class="edge">
<title>0&#45;&gt;1</title>
<path fill="none" stroke="#000000" d="M35.5086,-74.462C50.4958,-71.4556 72.3796,-69.1878 90,-76 95.1049,-77.9736 99.9067,-81.1446 104.1836,-84.7013"/>
<polygon fill="#000000" stroke="#000000" points="102.0294,-87.481 111.7028,-91.8026 106.8357,-82.3919 102.0294,-87.481"/>
<text text-anchor="middle" x="70.5" y="-79.8" font-family="Times,serif" font-size="14.00" fill="#000000">1:2/0.4</text>
</g>
<!-- 2 -->
<g id="node3" class="node">
<title>2</title>
<ellipse fill="none" stroke="#000000" stroke-width="2" cx="123" cy="-41" rx="18" ry="18"/>
<text text-anchor="middle" x="123" y="-37.3" font-family="Times,serif" font-size="14.00" fill="#000000">2</text>
</g>
<!-- 0&#45;&gt;2 -->
<g id="edge3" class="edge">
<title>0&#45;&gt;2</title>
<path fill="none" stroke="#000000" d="M30.6984,-65.9013C36.4216,-60.7609 43.5606,-55.3104 51,-52 64.5828,-45.956 80.8757,-43.1434 94.5246,-41.8689"/>
<polygon fill="#000000" stroke="#000000" points="95.0725,-45.3391 104.8015,-41.1442 94.5801,-38.3564 95.0725,-45.3391"/>
<text text-anchor="middle" x="70.5" y="-55.8" font-family="Times,serif" font-size="14.00" fill="#000000">2:3/0.4</text>
</g>
<!-- 3 -->
<g id="node4" class="node">
<title>3</title>
<ellipse fill="none" stroke="#000000" stroke-width="2" cx="228" cy="-117" rx="18" ry="18"/>
<text text-anchor="middle" x="228" y="-113.3" font-family="Times,serif" font-size="14.00" fill="#000000">3</text>
</g>
<!-- 1&#45;&gt;3 -->
<g id="edge4" class="edge">
<title>1&#45;&gt;3</title>
<path fill="none" stroke="#000000" d="M141.2896,-107.9161C157.4751,-109.6117 181.3443,-112.1123 199.944,-114.0608"/>
<polygon fill="#000000" stroke="#000000" points="199.6097,-117.5448 209.92,-115.1059 200.3391,-110.5829 199.6097,-117.5448"/>
<text text-anchor="middle" x="175.5" y="-116.8" font-family="Times,serif" font-size="14.00" fill="#000000">1:1/0.5</text>
</g>
<!-- 4 -->
<g id="node5" class="node">
<title>4</title>
<ellipse fill="none" stroke="#000000" stroke-width="2" cx="228" cy="-52" rx="18" ry="18"/>
<text text-anchor="middle" x="228" y="-48.3" font-family="Times,serif" font-size="14.00" fill="#000000">4</text>
</g>
<!-- 1&#45;&gt;4 -->
<g id="edge5" class="edge">
<title>1&#45;&gt;4</title>
<path fill="none" stroke="#000000" d="M139.4063,-97.5625C156.3582,-88.8443 183.0413,-75.1216 202.6975,-65.0127"/>
<polygon fill="#000000" stroke="#000000" points="204.4168,-68.0643 211.709,-60.3783 201.2153,-61.8393 204.4168,-68.0643"/>
<text text-anchor="middle" x="175.5" y="-91.8" font-family="Times,serif" font-size="14.00" fill="#000000">2:2/0.3</text>
</g>
<!-- 2&#45;&gt;4 -->
<g id="edge6" class="edge">
<title>2&#45;&gt;4</title>
<path fill="none" stroke="#000000" d="M141.1671,-39.8558C155.796,-39.2689 176.8409,-39.18 195,-42 196.9521,-42.3031 198.9493,-42.6943 200.9475,-43.1458"/>
<polygon fill="#000000" stroke="#000000" points="200.1774,-46.5629 210.7431,-45.777 201.9934,-39.8025 200.1774,-46.5629"/>
<text text-anchor="middle" x="175.5" y="-45.8" font-family="Times,serif" font-size="14.00" fill="#000000">3:3/0.4</text>
</g>
<!-- 5 -->
<g id="node6" class="node">
<title>5</title>
<ellipse fill="none" stroke="#000000" stroke-width="2" cx="333" cy="-79" rx="18" ry="18"/>
<text text-anchor="middle" x="333" y="-75.3" font-family="Times,serif" font-size="14.00" fill="#000000">5</text>
</g>
<!-- 3&#45;&gt;5 -->
<g id="edge7" class="edge">
<title>3&#45;&gt;5</title>
<path fill="none" stroke="#000000" d="M245.3386,-110.7251C261.9284,-104.7212 287.1872,-95.5799 306.3369,-88.6495"/>
<polygon fill="#000000" stroke="#000000" points="307.7719,-91.8524 315.984,-85.1582 305.3898,-85.2702 307.7719,-91.8524"/>
<text text-anchor="middle" x="280.5" y="-107.8" font-family="Times,serif" font-size="14.00" fill="#000000">2:1/0.3</text>
</g>
<!-- 4&#45;&gt;5 -->
<g id="edge8" class="edge">
<title>4&#45;&gt;5</title>
<path fill="none" stroke="#000000" d="M245.8118,-56.5802C262.2018,-60.7948 286.7561,-67.1087 305.6349,-71.9632"/>
<polygon fill="#000000" stroke="#000000" points="304.8946,-75.3867 315.4512,-74.4875 306.638,-68.6072 304.8946,-75.3867"/>
<text text-anchor="middle" x="280.5" y="-73.8" font-family="Times,serif" font-size="14.00" fill="#000000">3:2/0.4</text>
</g>
<!-- 4&#45;&gt;5 -->
<g id="edge9" class="edge">
<title>4&#45;&gt;5</title>
<path fill="none" stroke="#000000" d="M244.4509,-44.4169C259.5339,-38.6156 282.1669,-32.8677 300,-41 306.7302,-44.0691 312.6179,-49.2639 317.4844,-54.8428"/>
<polygon fill="#000000" stroke="#000000" points="314.9758,-57.3203 323.8627,-63.0886 320.5127,-53.0374 314.9758,-57.3203"/>
<text text-anchor="middle" x="280.5" y="-44.8" font-family="Times,serif" font-size="14.00" fill="#000000">3:3/0.6</text>
</g>
<!-- 6 -->
<g id="node7" class="node">
<title>6</title>
<ellipse fill="none" stroke="#000000" stroke-width="2" cx="451" cy="-79" rx="18" ry="18"/>
<ellipse fill="none" stroke="#000000" stroke-width="2" cx="451" cy="-79" rx="22" ry="22"/>
<text text-anchor="middle" x="451" y="-75.3" font-family="Times,serif" font-size="14.00" fill="#000000">6</text>
</g>
<!-- 5&#45;&gt;6 -->
<g id="edge10" class="edge">
<title>5&#45;&gt;6</title>
<path fill="none" stroke="#000000" d="M351.1789,-79C369.1794,-79 397.1232,-79 418.8719,-79"/>
<polygon fill="#000000" stroke="#000000" points="418.9803,-82.5001 428.9802,-79 418.9802,-75.5001 418.9803,-82.5001"/>
<text text-anchor="middle" x="390" y="-82.8" font-family="Times,serif" font-size="14.00" fill="#000000">&#45;1:&#45;1/0.8</text>
</g>
</g>
</svg>
