<?xml version="1.0" encoding="UTF-8" standalone="no"?>
<!DOCTYPE svg PUBLIC "-//W3C//DTD SVG 1.1//EN"
 "http://www.w3.org/Graphics/SVG/1.1/DTD/svg11.dtd">
<!-- Generated by graphviz version 2.40.1 (20161225.0304)
 -->
<!-- Title: WFST Pages: 1 -->
<svg width="532pt" height="139pt"
 viewBox="0.00 0.00 532.00 139.00" xmlns="http://www.w3.org/2000/svg" xmlns:xlink="http://www.w3.org/1999/xlink">
<g id="graph0" class="graph" transform="scale(1 1) rotate(0) translate(4 135)">
<title>WFST</title>
<polygon fill="#ffffff" stroke="transparent" points="-4,4 -4,-135 528,-135 528,4 -4,4"/>
<text text-anchor="middle" x="262" y="-7.8" font-family="Times,serif" font-size="14.00" fill="#000000">c_fsa</text>
<!-- 0 -->
<g id="node1" class="node">
<title>0</title>
<ellipse fill="none" stroke="#000000" stroke-width="2" cx="18" cy="-45" rx="18" ry="18"/>
<text text-anchor="middle" x="18" y="-41.3" font-family="Times,serif" font-size="14.00" fill="#000000">0</text>
</g>
<!-- 0&#45;&gt;0 -->
<g id="edge1" class="edge">
<title>0&#45;&gt;0</title>
<path fill="none" stroke="#000000" d="M9.9836,-61.2903C8.0505,-71.3892 10.7227,-81 18,-81 22.662,-81 25.4341,-77.0557 26.3162,-71.5656"/>
<polygon fill="#000000" stroke="#000000" points="29.8067,-71.1839 26.0164,-61.2903 22.8097,-71.3881 29.8067,-71.1839"/>
<text text-anchor="middle" x="18" y="-84.8" font-family="Times,serif" font-size="14.00" fill="#000000">0:0/0</text>
</g>
<!-- 1 -->
<g id="node2" class="node">
<title>1</title>
<ellipse fill="none" stroke="#000000" stroke-width="2" cx="112" cy="-45" rx="18" ry="18"/>
<text text-anchor="middle" x="112" y="-41.3" font-family="Times,serif" font-size="14.00" fill="#000000">1</text>
</g>
<!-- 0&#45;&gt;1 -->
<g id="edge2" class="edge">
<title>0&#45;&gt;1</title>
<path fill="none" stroke="#000000" d="M36.1241,-45C49.6484,-45 68.3808,-45 83.8486,-45"/>
<polygon fill="#000000" stroke="#000000" points="83.9315,-48.5001 93.9315,-45 83.9315,-41.5001 83.9315,-48.5001"/>
<text text-anchor="middle" x="65" y="-48.8" font-family="Times,serif" font-size="14.00" fill="#000000">1:1/0</text>
</g>
<!-- 1&#45;&gt;1 -->
<g id="edge4" class="edge">
<title>1&#45;&gt;1</title>
<path fill="none" stroke="#000000" d="M103.9836,-61.2903C102.0505,-71.3892 104.7227,-81 112,-81 116.662,-81 119.4341,-77.0557 120.3162,-71.5656"/>
<polygon fill="#000000" stroke="#000000" points="123.8067,-71.1839 120.0164,-61.2903 116.8097,-71.3881 123.8067,-71.1839"/>
<text text-anchor="middle" x="112" y="-84.8" font-family="Times,serif" font-size="14.00" fill="#000000">1:0/0</text>
</g>
<!-- 2 -->
<g id="node3" class="node">
<title>2</title>
<ellipse fill="none" stroke="#000000" stroke-width="2" cx="206" cy="-80" rx="18" ry="18"/>
<text text-anchor="middle" x="206" y="-76.3" font-family="Times,serif" font-size="14.00" fill="#000000">2</text>
</g>
<!-- 1&#45;&gt;2 -->
<g id="edge3" class="edge">
<title>1&#45;&gt;2</title>
<path fill="none" stroke="#000000" d="M129.241,-51.4195C143.2866,-56.6493 163.3555,-64.1217 179.4501,-70.1144"/>
<polygon fill="#000000" stroke="#000000" points="178.2755,-73.4117 188.8683,-73.6212 180.7181,-66.8517 178.2755,-73.4117"/>
<text text-anchor="middle" x="159" y="-70.8" font-family="Times,serif" font-size="14.00" fill="#000000">0:0/0</text>
</g>
<!-- 3 -->
<g id="node4" class="node">
<title>3</title>
<ellipse fill="none" stroke="#000000" stroke-width="2" cx="300" cy="-45" rx="18" ry="18"/>
<text text-anchor="middle" x="300" y="-41.3" font-family="Times,serif" font-size="14.00" fill="#000000">3</text>
</g>
<!-- 1&#45;&gt;3 -->
<g id="edge5" class="edge">
<title>1&#45;&gt;3</title>
<path fill="none" stroke="#000000" d="M130.0876,-42.8628C145.4655,-41.1589 168.1455,-38.9124 188,-38 203.9831,-37.2655 208.0169,-37.2655 224,-38 239.8215,-38.7271 257.4373,-40.3013 271.7225,-41.773"/>
<polygon fill="#000000" stroke="#000000" points="271.5969,-45.2795 281.9124,-42.8628 272.3413,-38.3191 271.5969,-45.2795"/>
<text text-anchor="middle" x="206" y="-41.8" font-family="Times,serif" font-size="14.00" fill="#000000">2:2/0</text>
</g>
<!-- 2&#45;&gt;2 -->
<g id="edge6" class="edge">
<title>2&#45;&gt;2</title>
<path fill="none" stroke="#000000" d="M197.9836,-96.2903C196.0505,-106.3892 198.7227,-116 206,-116 210.662,-116 213.4341,-112.0557 214.3162,-106.5656"/>
<polygon fill="#000000" stroke="#000000" points="217.8067,-106.1839 214.0164,-96.2903 210.8097,-106.3881 217.8067,-106.1839"/>
<text text-anchor="middle" x="206" y="-119.8" font-family="Times,serif" font-size="14.00" fill="#000000">0:0/0</text>
</g>
<!-- 2&#45;&gt;3 -->
<g id="edge7" class="edge">
<title>2&#45;&gt;3</title>
<path fill="none" stroke="#000000" d="M223.241,-73.5805C237.2866,-68.3507 257.3555,-60.8783 273.4501,-54.8856"/>
<polygon fill="#000000" stroke="#000000" points="274.7181,-58.1483 282.8683,-51.3788 272.2755,-51.5883 274.7181,-58.1483"/>
<text text-anchor="middle" x="253" y="-70.8" font-family="Times,serif" font-size="14.00" fill="#000000">2:2/0</text>
</g>
<!-- 3&#45;&gt;3 -->
<g id="edge9" class="edge">
<title>3&#45;&gt;3</title>
<path fill="none" stroke="#000000" d="M291.9836,-61.2903C290.0505,-71.3892 292.7227,-81 300,-81 304.662,-81 307.4341,-77.0557 308.3162,-71.5656"/>
<polygon fill="#000000" stroke="#000000" points="311.8067,-71.1839 308.0164,-61.2903 304.8097,-71.3881 311.8067,-71.1839"/>
<text text-anchor="middle" x="300" y="-84.8" font-family="Times,serif" font-size="14.00" fill="#000000">2:0/0</text>
</g>
<!-- 4 -->
<g id="node5" class="node">
<title>4</title>
<ellipse fill="none" stroke="#000000" stroke-width="2" cx="394.5" cy="-80" rx="18" ry="18"/>
<text text-anchor="middle" x="394.5" y="-76.3" font-family="Times,serif" font-size="14.00" fill="#000000">4</text>
</g>
<!-- 3&#45;&gt;4 -->
<g id="edge8" class="edge">
<title>3&#45;&gt;4</title>
<path fill="none" stroke="#000000" d="M316.8947,-51.2573C331.0512,-56.5004 351.5121,-64.0785 367.8706,-70.1373"/>
<polygon fill="#000000" stroke="#000000" points="366.8398,-73.4878 377.4329,-73.6789 369.2711,-66.9235 366.8398,-73.4878"/>
<text text-anchor="middle" x="347" y="-69.8" font-family="Times,serif" font-size="14.00" fill="#000000">0:0/0</text>
</g>
<!-- 5 -->
<g id="node6" class="node">
<title>5</title>
<ellipse fill="none" stroke="#000000" stroke-width="2" cx="502" cy="-45" rx="18" ry="18"/>
<ellipse fill="none" stroke="#000000" stroke-width="2" cx="502" cy="-45" rx="22" ry="22"/>
<text text-anchor="middle" x="502" y="-41.3" font-family="Times,serif" font-size="14.00" fill="#000000">5</text>
</g>
<!-- 3&#45;&gt;5 -->
<g id="edge10" class="edge">
<title>3&#45;&gt;5</title>
<path fill="none" stroke="#000000" d="M318.0876,-42.8628C333.4655,-41.1589 356.1455,-38.9124 376,-38 407.7889,-36.5391 444.0672,-38.9895 469.5068,-41.383"/>
<polygon fill="#000000" stroke="#000000" points="469.4047,-44.8899 479.7013,-42.3937 470.0954,-37.9241 469.4047,-44.8899"/>
<text text-anchor="middle" x="394.5" y="-41.8" font-family="Times,serif" font-size="14.00" fill="#000000">&#45;1:&#45;1/0</text>
</g>
<!-- 4&#45;&gt;4 -->
<g id="edge11" class="edge">
<title>4&#45;&gt;4</title>
<path fill="none" stroke="#000000" d="M386.4836,-96.2903C384.5505,-106.3892 387.2227,-116 394.5,-116 399.162,-116 401.9341,-112.0557 402.8162,-106.5656"/>
<polygon fill="#000000" stroke="#000000" points="406.3067,-106.1839 402.5164,-96.2903 399.3097,-106.3881 406.3067,-106.1839"/>
<text text-anchor="middle" x="394.5" y="-119.8" font-family="Times,serif" font-size="14.00" fill="#000000">0:0/0</text>
</g>
<!-- 4&#45;&gt;5 -->
<g id="edge12" class="edge">
<title>4&#45;&gt;5</title>
<path fill="none" stroke="#000000" d="M411.7717,-74.3766C427.7427,-69.1768 451.8494,-61.3281 471.1283,-55.0512"/>
<polygon fill="#000000" stroke="#000000" points="472.2761,-58.3585 480.7012,-51.9345 470.1089,-51.7024 472.2761,-58.3585"/>
<text text-anchor="middle" x="446.5" y="-71.8" font-family="Times,serif" font-size="14.00" fill="#000000">&#45;1:&#45;1/0</text>
</g>
</g>
</svg>
