<?xml version="1.0" encoding="UTF-8" standalone="no"?>
<!DOCTYPE svg PUBLIC "-//W3C//DTD SVG 1.1//EN"
 "http://www.w3.org/Graphics/SVG/1.1/DTD/svg11.dtd">
<!-- Generated by graphviz version 2.40.1 (20161225.0304)
 -->
<!-- Title: WFST Pages: 1 -->
<svg width="481pt" height="187pt"
 viewBox="0.00 0.00 481.00 187.00" xmlns="http://www.w3.org/2000/svg" xmlns:xlink="http://www.w3.org/1999/xlink">
<g id="graph0" class="graph" transform="scale(1 1) rotate(0) translate(4 183)">
<title>WFST</title>
<polygon fill="#ffffff" stroke="transparent" points="-4,4 -4,-183 477,-183 477,4 -4,4"/>
<text text-anchor="middle" x="236.5" y="-7.8" font-family="Times,serif" font-size="14.00" fill="#000000">c_fsa</text>
<!-- 0 -->
<g id="node1" class="node">
<title>0</title>
<ellipse fill="none" stroke="#000000" stroke-width="2" cx="18" cy="-90" rx="18" ry="18"/>
<text text-anchor="middle" x="18" y="-86.3" font-family="Times,serif" font-size="14.00" fill="#000000">0</text>
</g>
<!-- 0&#45;&gt;0 -->
<g id="edge1" class="edge">
<title>0&#45;&gt;0</title>
<path fill="none" stroke="#000000" d="M9.0212,-105.916C6.679,-116.1504 9.6719,-126 18,-126 23.4653,-126 26.633,-121.7581 27.503,-115.9494"/>
<polygon fill="#000000" stroke="#000000" points="30.9958,-115.7198 26.9788,-105.916 24.0054,-116.0851 30.9958,-115.7198"/>
<text text-anchor="middle" x="18" y="-129.8" font-family="Times,serif" font-size="14.00" fill="#000000">0:0/0</text>
</g>
<!-- 1 -->
<g id="node2" class="node">
<title>1</title>
<ellipse fill="none" stroke="#000000" stroke-width="2" cx="123" cy="-128" rx="18" ry="18"/>
<text text-anchor="middle" x="123" y="-124.3" font-family="Times,serif" font-size="14.00" fill="#000000">1</text>
</g>
<!-- 0&#45;&gt;1 -->
<g id="edge2" class="edge">
<title>0&#45;&gt;1</title>
<path fill="none" stroke="#000000" d="M34.2265,-98.4857C39.4995,-101.0754 45.4287,-103.8134 51,-106 65.4464,-111.6698 81.9805,-116.8128 95.5581,-120.698"/>
<polygon fill="#000000" stroke="#000000" points="94.7083,-124.0945 105.2811,-123.4117 96.5901,-117.3522 94.7083,-124.0945"/>
<text text-anchor="middle" x="70.5" y="-122.8" font-family="Times,serif" font-size="14.00" fill="#000000">1:1/0.3</text>
</g>
<!-- 0&#45;&gt;1 -->
<g id="edge3" class="edge">
<title>0&#45;&gt;1</title>
<path fill="none" stroke="#000000" d="M35.5015,-84.8509C50.6813,-81.3851 72.8482,-78.7877 90,-87 94.404,-89.1086 100.8824,-96.6025 106.9355,-104.6177"/>
<polygon fill="#000000" stroke="#000000" points="104.2793,-106.9166 112.9849,-112.9551 109.9451,-102.8057 104.2793,-106.9166"/>
<text text-anchor="middle" x="70.5" y="-90.8" font-family="Times,serif" font-size="14.00" fill="#000000">1:2/0.4</text>
</g>
<!-- 2 -->
<g id="node3" class="node">
<title>2</title>
<ellipse fill="none" stroke="#000000" stroke-width="2" cx="123" cy="-41" rx="18" ry="18"/>
<text text-anchor="middle" x="123" y="-37.3" font-family="Times,serif" font-size="14.00" fill="#000000">2</text>
</g>
<!-- 0&#45;&gt;2 -->
<g id="edge4" class="edge">
<title>0&#45;&gt;2</title>
<path fill="none" stroke="#000000" d="M30.8559,-76.8881C36.6057,-71.6371 43.722,-65.9167 51,-62 64.7054,-54.6244 81.3091,-49.5581 95.1166,-46.2526"/>
<polygon fill="#000000" stroke="#000000" points="96.0277,-49.6358 105.036,-44.059 94.5161,-42.8009 96.0277,-49.6358"/>
<text text-anchor="middle" x="70.5" y="-65.8" font-family="Times,serif" font-size="14.00" fill="#000000">2:3/0.4</text>
</g>
<!-- 1&#45;&gt;1 -->
<g id="edge5" class="edge">
<title>1&#45;&gt;1</title>
<path fill="none" stroke="#000000" d="M114.0212,-143.916C111.679,-154.1504 114.6719,-164 123,-164 128.4653,-164 131.633,-159.7581 132.503,-153.9494"/>
<polygon fill="#000000" stroke="#000000" points="135.9958,-153.7198 131.9788,-143.916 129.0054,-154.0851 135.9958,-153.7198"/>
<text text-anchor="middle" x="123" y="-167.8" font-family="Times,serif" font-size="14.00" fill="#000000">0:0/0</text>
</g>
<!-- 3 -->
<g id="node4" class="node">
<title>3</title>
<ellipse fill="none" stroke="#000000" stroke-width="2" cx="228" cy="-128" rx="18" ry="18"/>
<text text-anchor="middle" x="228" y="-124.3" font-family="Times,serif" font-size="14.00" fill="#000000">3</text>
</g>
<!-- 1&#45;&gt;3 -->
<g id="edge6" class="edge">
<title>1&#45;&gt;3</title>
<path fill="none" stroke="#000000" d="M141.2896,-128C157.3998,-128 181.1225,-128 199.6841,-128"/>
<polygon fill="#000000" stroke="#000000" points="199.92,-131.5001 209.92,-128 199.92,-124.5001 199.92,-131.5001"/>
<text text-anchor="middle" x="175.5" y="-131.8" font-family="Times,serif" font-size="14.00" fill="#000000">1:1/0.5</text>
</g>
<!-- 4 -->
<g id="node5" class="node">
<title>4</title>
<ellipse fill="none" stroke="#000000" stroke-width="2" cx="228" cy="-41" rx="18" ry="18"/>
<text text-anchor="middle" x="228" y="-37.3" font-family="Times,serif" font-size="14.00" fill="#000000">4</text>
</g>
<!-- 1&#45;&gt;4 -->
<g id="edge7" class="edge">
<title>1&#45;&gt;4</title>
<path fill="none" stroke="#000000" d="M137.1608,-116.2668C154.8724,-101.5914 185.3847,-76.3098 206.1124,-59.1354"/>
<polygon fill="#000000" stroke="#000000" points="208.5964,-61.6226 214.0636,-52.5473 204.1303,-56.2324 208.5964,-61.6226"/>
<text text-anchor="middle" x="175.5" y="-102.8" font-family="Times,serif" font-size="14.00" fill="#000000">2:2/0.3</text>
</g>
<!-- 2&#45;&gt;2 -->
<g id="edge8" class="edge">
<title>2&#45;&gt;2</title>
<path fill="none" stroke="#000000" d="M114.0212,-56.916C111.679,-67.1504 114.6719,-77 123,-77 128.4653,-77 131.633,-72.7581 132.503,-66.9494"/>
<polygon fill="#000000" stroke="#000000" points="135.9958,-66.7198 131.9788,-56.916 129.0054,-67.0851 135.9958,-66.7198"/>
<text text-anchor="middle" x="123" y="-80.8" font-family="Times,serif" font-size="14.00" fill="#000000">0:0/0</text>
</g>
<!-- 2&#45;&gt;4 -->
<g id="edge9" class="edge">
<title>2&#45;&gt;4</title>
<path fill="none" stroke="#000000" d="M141.2896,-41C157.3998,-41 181.1225,-41 199.6841,-41"/>
<polygon fill="#000000" stroke="#000000" points="199.92,-44.5001 209.92,-41 199.92,-37.5001 199.92,-44.5001"/>
<text text-anchor="middle" x="175.5" y="-44.8" font-family="Times,serif" font-size="14.00" fill="#000000">3:3/0.4</text>
</g>
<!-- 3&#45;&gt;3 -->
<g id="edge10" class="edge">
<title>3&#45;&gt;3</title>
<path fill="none" stroke="#000000" d="M219.0212,-143.916C216.679,-154.1504 219.6719,-164 228,-164 233.4653,-164 236.633,-159.7581 237.503,-153.9494"/>
<polygon fill="#000000" stroke="#000000" points="240.9958,-153.7198 236.9788,-143.916 234.0054,-154.0851 240.9958,-153.7198"/>
<text text-anchor="middle" x="228" y="-167.8" font-family="Times,serif" font-size="14.00" fill="#000000">0:0/0</text>
</g>
<!-- 5 -->
<g id="node6" class="node">
<title>5</title>
<ellipse fill="none" stroke="#000000" stroke-width="2" cx="333" cy="-79" rx="18" ry="18"/>
<text text-anchor="middle" x="333" y="-75.3" font-family="Times,serif" font-size="14.00" fill="#000000">5</text>
</g>
<!-- 3&#45;&gt;5 -->
<g id="edge11" class="edge">
<title>3&#45;&gt;5</title>
<path fill="none" stroke="#000000" d="M244.4063,-120.3438C261.1825,-112.5148 287.4891,-100.2384 307.0839,-91.0942"/>
<polygon fill="#000000" stroke="#000000" points="308.7807,-94.1648 316.3624,-86.7642 305.8205,-87.8215 308.7807,-94.1648"/>
<text text-anchor="middle" x="280.5" y="-115.8" font-family="Times,serif" font-size="14.00" fill="#000000">2:1/0.3</text>
</g>
<!-- 4&#45;&gt;4 -->
<g id="edge12" class="edge">
<title>4&#45;&gt;4</title>
<path fill="none" stroke="#000000" d="M219.0212,-56.916C216.679,-67.1504 219.6719,-77 228,-77 233.4653,-77 236.633,-72.7581 237.503,-66.9494"/>
<polygon fill="#000000" stroke="#000000" points="240.9958,-66.7198 236.9788,-56.916 234.0054,-67.0851 240.9958,-66.7198"/>
<text text-anchor="middle" x="228" y="-80.8" font-family="Times,serif" font-size="14.00" fill="#000000">0:0/0</text>
</g>
<!-- 4&#45;&gt;5 -->
<g id="edge13" class="edge">
<title>4&#45;&gt;5</title>
<path fill="none" stroke="#000000" d="M244.2265,-49.4857C249.4995,-52.0754 255.4287,-54.8134 261,-57 275.4464,-62.6698 291.9805,-67.8128 305.5581,-71.698"/>
<polygon fill="#000000" stroke="#000000" points="304.7083,-75.0945 315.2811,-74.4117 306.5901,-68.3522 304.7083,-75.0945"/>
<text text-anchor="middle" x="280.5" y="-73.8" font-family="Times,serif" font-size="14.00" fill="#000000">3:2/0.4</text>
</g>
<!-- 4&#45;&gt;5 -->
<g id="edge14" class="edge">
<title>4&#45;&gt;5</title>
<path fill="none" stroke="#000000" d="M245.5015,-35.8509C260.6813,-32.3851 282.8482,-29.7877 300,-38 307.5331,-41.6068 313.8938,-47.865 318.9591,-54.4214"/>
<polygon fill="#000000" stroke="#000000" points="316.1149,-56.4624 324.6728,-62.7084 321.8779,-52.4889 316.1149,-56.4624"/>
<text text-anchor="middle" x="280.5" y="-41.8" font-family="Times,serif" font-size="14.00" fill="#000000">3:3/0.6</text>
</g>
<!-- 5&#45;&gt;5 -->
<g id="edge15" class="edge">
<title>5&#45;&gt;5</title>
<path fill="none" stroke="#000000" d="M324.0212,-94.916C321.679,-105.1504 324.6719,-115 333,-115 338.4653,-115 341.633,-110.7581 342.503,-104.9494"/>
<polygon fill="#000000" stroke="#000000" points="345.9958,-104.7198 341.9788,-94.916 339.0054,-105.0851 345.9958,-104.7198"/>
<text text-anchor="middle" x="333" y="-118.8" font-family="Times,serif" font-size="14.00" fill="#000000">0:0/0</text>
</g>
<!-- 6 -->
<g id="node7" class="node">
<title>6</title>
<ellipse fill="none" stroke="#000000" stroke-width="2" cx="451" cy="-79" rx="18" ry="18"/>
<ellipse fill="none" stroke="#000000" stroke-width="2" cx="451" cy="-79" rx="22" ry="22"/>
<text text-anchor="middle" x="451" y="-75.3" font-family="Times,serif" font-size="14.00" fill="#000000">6</text>
</g>
<!-- 5&#45;&gt;6 -->
<g id="edge16" class="edge">
<title>5&#45;&gt;6</title>
<path fill="none" stroke="#000000" d="M351.1789,-79C369.1794,-79 397.1232,-79 418.8719,-79"/>
<polygon fill="#000000" stroke="#000000" points="418.9803,-82.5001 428.9802,-79 418.9802,-75.5001 418.9803,-82.5001"/>
<text text-anchor="middle" x="390" y="-82.8" font-family="Times,serif" font-size="14.00" fill="#000000">&#45;1:&#45;1/0.8</text>
</g>
</g>
</svg>
