<?xml version="1.0" encoding="UTF-8" standalone="no"?>
<!DOCTYPE svg PUBLIC "-//W3C//DTD SVG 1.1//EN"
 "http://www.w3.org/Graphics/SVG/1.1/DTD/svg11.dtd">
<!-- Generated by graphviz version 2.40.1 (20161225.0304)
 -->
<!-- Title: WFST Pages: 1 -->
<svg width="470pt" height="149pt"
 viewBox="0.00 0.00 470.00 148.59" xmlns="http://www.w3.org/2000/svg" xmlns:xlink="http://www.w3.org/1999/xlink">
<g id="graph0" class="graph" transform="scale(1 1) rotate(0) translate(4 144.5855)">
<title>WFST</title>
<polygon fill="#ffffff" stroke="transparent" points="-4,4 -4,-144.5855 466,-144.5855 466,4 -4,4"/>
<text text-anchor="middle" x="231" y="-7.8" font-family="Times,serif" font-size="14.00" fill="#000000">c_fsa</text>
<!-- 0 -->
<g id="node1" class="node">
<title>0</title>
<ellipse fill="none" stroke="#000000" stroke-width="2" cx="18" cy="-83.5855" rx="18" ry="18"/>
<text text-anchor="middle" x="18" y="-79.8855" font-family="Times,serif" font-size="14.00" fill="#000000">0</text>
</g>
<!-- 1 -->
<g id="node2" class="node">
<title>1</title>
<ellipse fill="none" stroke="#000000" stroke-width="2" cx="123" cy="-110.5855" rx="18" ry="18"/>
<text text-anchor="middle" x="123" y="-106.8855" font-family="Times,serif" font-size="14.00" fill="#000000">1</text>
</g>
<!-- 0&#45;&gt;1 -->
<g id="edge1" class="edge">
<title>0&#45;&gt;1</title>
<path fill="none" stroke="#000000" d="M35.8118,-88.1657C52.2018,-92.3802 76.7561,-98.6942 95.6349,-103.5487"/>
<polygon fill="#000000" stroke="#000000" points="94.8946,-106.9722 105.4512,-106.0729 96.638,-100.1927 94.8946,-106.9722"/>
<text text-anchor="middle" x="70.5" y="-105.3855" font-family="Times,serif" font-size="14.00" fill="#000000">0:0/0.5</text>
</g>
<!-- 2 -->
<g id="node3" class="node">
<title>2</title>
<ellipse fill="none" stroke="#000000" stroke-width="2" cx="123" cy="-56.5855" rx="18" ry="18"/>
<text text-anchor="middle" x="123" y="-52.8855" font-family="Times,serif" font-size="14.00" fill="#000000">2</text>
</g>
<!-- 0&#45;&gt;2 -->
<g id="edge2" class="edge">
<title>0&#45;&gt;2</title>
<path fill="none" stroke="#000000" d="M35.0246,-77.5383C40.1284,-75.8266 45.7621,-74.0363 51,-72.5855 65.4112,-68.5938 81.6572,-64.9144 95.0652,-62.093"/>
<polygon fill="#000000" stroke="#000000" points="96.0307,-65.4678 105.1204,-60.0247 94.6203,-58.6113 96.0307,-65.4678"/>
<text text-anchor="middle" x="70.5" y="-76.3855" font-family="Times,serif" font-size="14.00" fill="#000000">1:1/0.2</text>
</g>
<!-- 3 -->
<g id="node4" class="node">
<title>3</title>
<ellipse fill="none" stroke="#000000" stroke-width="2" cx="228" cy="-121.5855" rx="18" ry="18"/>
<text text-anchor="middle" x="228" y="-117.8855" font-family="Times,serif" font-size="14.00" fill="#000000">3</text>
</g>
<!-- 1&#45;&gt;3 -->
<g id="edge3" class="edge">
<title>1&#45;&gt;3</title>
<path fill="none" stroke="#000000" d="M140.3455,-115.4659C145.3581,-116.6918 150.8629,-117.8629 156,-118.5855 170.3701,-120.6067 186.4994,-121.4122 199.8436,-121.6887"/>
<polygon fill="#000000" stroke="#000000" points="199.8198,-125.1886 209.8615,-121.8102 199.9047,-118.1891 199.8198,-125.1886"/>
<text text-anchor="middle" x="175.5" y="-124.3855" font-family="Times,serif" font-size="14.00" fill="#000000">0:0/0.2</text>
</g>
<!-- 4 -->
<g id="node5" class="node">
<title>4</title>
<ellipse fill="none" stroke="#000000" stroke-width="2" cx="228" cy="-56.5855" rx="18" ry="18"/>
<text text-anchor="middle" x="228" y="-52.8855" font-family="Times,serif" font-size="14.00" fill="#000000">4</text>
</g>
<!-- 1&#45;&gt;4 -->
<g id="edge4" class="edge">
<title>1&#45;&gt;4</title>
<path fill="none" stroke="#000000" d="M140.1083,-104.7458C155.0361,-99.3521 177.0541,-90.666 195,-80.5855 198.5128,-78.6123 202.0936,-76.3312 205.5388,-73.9765"/>
<polygon fill="#000000" stroke="#000000" points="207.6302,-76.7836 213.7073,-68.1049 203.5445,-71.0996 207.6302,-76.7836"/>
<text text-anchor="middle" x="175.5" y="-101.3855" font-family="Times,serif" font-size="14.00" fill="#000000">1:1/0.3</text>
</g>
<!-- 2&#45;&gt;3 -->
<g id="edge5" class="edge">
<title>2&#45;&gt;3</title>
<path fill="none" stroke="#000000" d="M140.7421,-53.3489C156.2831,-51.4924 178.8458,-51.2621 195,-61.5855 198.422,-63.7723 207.5924,-80.7182 215.3999,-96.0447"/>
<polygon fill="#000000" stroke="#000000" points="212.4008,-97.8715 220.0214,-105.232 218.6542,-94.7257 212.4008,-97.8715"/>
<text text-anchor="middle" x="175.5" y="-65.3855" font-family="Times,serif" font-size="14.00" fill="#000000">0:0/0.2</text>
</g>
<!-- 2&#45;&gt;4 -->
<g id="edge6" class="edge">
<title>2&#45;&gt;4</title>
<path fill="none" stroke="#000000" d="M134.6865,-42.5469C140.4301,-36.7386 147.864,-30.6524 156,-27.5855 172.2192,-21.4715 178.7808,-21.4715 195,-27.5855 199.9579,-29.4544 204.655,-32.4445 208.8678,-35.8096"/>
<polygon fill="#000000" stroke="#000000" points="206.5502,-38.4326 216.3135,-42.5469 211.2469,-33.2421 206.5502,-38.4326"/>
<text text-anchor="middle" x="175.5" y="-31.3855" font-family="Times,serif" font-size="14.00" fill="#000000">1:0/0.2</text>
</g>
<!-- 5 -->
<g id="node6" class="node">
<title>5</title>
<ellipse fill="none" stroke="#000000" stroke-width="2" cx="333" cy="-116.5855" rx="18" ry="18"/>
<text text-anchor="middle" x="333" y="-112.8855" font-family="Times,serif" font-size="14.00" fill="#000000">5</text>
</g>
<!-- 3&#45;&gt;5 -->
<g id="edge7" class="edge">
<title>3&#45;&gt;5</title>
<path fill="none" stroke="#000000" d="M246.1116,-123.9406C260.7092,-125.4543 281.7389,-126.7673 300,-124.5855 301.7707,-124.3739 303.5837,-124.1006 305.4042,-123.7832"/>
<polygon fill="#000000" stroke="#000000" points="306.6169,-127.1039 315.6725,-121.6043 305.1638,-120.2564 306.6169,-127.1039"/>
<text text-anchor="middle" x="280.5" y="-129.3855" font-family="Times,serif" font-size="14.00" fill="#000000">0:0/0.2</text>
</g>
<!-- 6 -->
<g id="node7" class="node">
<title>6</title>
<ellipse fill="none" stroke="#000000" stroke-width="2" cx="333" cy="-62.5855" rx="18" ry="18"/>
<text text-anchor="middle" x="333" y="-58.8855" font-family="Times,serif" font-size="14.00" fill="#000000">6</text>
</g>
<!-- 3&#45;&gt;6 -->
<g id="edge8" class="edge">
<title>3&#45;&gt;6</title>
<path fill="none" stroke="#000000" d="M244.5072,-113.5831C265.5591,-103.3743 299.3446,-86.9789 300,-86.5855 303.4545,-84.5118 307.0028,-82.1749 310.4328,-79.7941"/>
<polygon fill="#000000" stroke="#000000" points="312.5292,-82.5975 318.5944,-73.9106 308.4357,-76.9192 312.5292,-82.5975"/>
<text text-anchor="middle" x="280.5" y="-108.3855" font-family="Times,serif" font-size="14.00" fill="#000000">1:1/0.5</text>
</g>
<!-- 4&#45;&gt;5 -->
<g id="edge9" class="edge">
<title>4&#45;&gt;5</title>
<path fill="none" stroke="#000000" d="M246.2617,-55.4607C261.72,-55.3741 283.8719,-57.3646 300,-67.5855 300.3541,-67.8099 308.9629,-80.5992 317.2978,-93.0538"/>
<polygon fill="#000000" stroke="#000000" points="314.4526,-95.0955 322.9196,-101.4643 320.2722,-91.2055 314.4526,-95.0955"/>
<text text-anchor="middle" x="280.5" y="-71.3855" font-family="Times,serif" font-size="14.00" fill="#000000">0:0/0.2</text>
</g>
<!-- 4&#45;&gt;6 -->
<g id="edge10" class="edge">
<title>4&#45;&gt;6</title>
<path fill="none" stroke="#000000" d="M241.4382,-44.4346C247.0662,-40.1283 253.9378,-35.8037 261,-33.5855 277.5368,-28.3912 283.7808,-27.4715 300,-33.5855 304.9579,-35.4544 309.655,-38.4445 313.8678,-41.8096"/>
<polygon fill="#000000" stroke="#000000" points="311.5502,-44.4326 321.3135,-48.5469 316.2469,-39.2421 311.5502,-44.4326"/>
<text text-anchor="middle" x="280.5" y="-37.3855" font-family="Times,serif" font-size="14.00" fill="#000000">1:0/0.2</text>
</g>
<!-- 7 -->
<g id="node8" class="node">
<title>7</title>
<ellipse fill="none" stroke="#000000" stroke-width="2" cx="440" cy="-89.5855" rx="18" ry="18"/>
<ellipse fill="none" stroke="#000000" stroke-width="2" cx="440" cy="-89.5855" rx="22" ry="22"/>
<text text-anchor="middle" x="440" y="-85.8855" font-family="Times,serif" font-size="14.00" fill="#000000">7</text>
</g>
<!-- 5&#45;&gt;7 -->
<g id="edge11" class="edge">
<title>5&#45;&gt;7</title>
<path fill="none" stroke="#000000" d="M350.6689,-112.127C366.4677,-108.1404 389.9818,-102.2069 408.92,-97.4281"/>
<polygon fill="#000000" stroke="#000000" points="409.7764,-100.8218 418.6161,-94.9814 408.0637,-94.0345 409.7764,-100.8218"/>
<text text-anchor="middle" x="384.5" y="-111.3855" font-family="Times,serif" font-size="14.00" fill="#000000">&#45;1:&#45;1/1</text>
</g>
<!-- 6&#45;&gt;7 -->
<g id="edge12" class="edge">
<title>6&#45;&gt;7</title>
<path fill="none" stroke="#000000" d="M350.5794,-66.7225C364.7551,-70.0903 385.1927,-75.0176 403,-79.5855 404.8853,-80.0691 406.8228,-80.5727 408.7759,-81.0855"/>
<polygon fill="#000000" stroke="#000000" points="407.9393,-84.4846 418.5032,-83.6752 409.7402,-77.7203 407.9393,-84.4846"/>
<text text-anchor="middle" x="384.5" y="-83.3855" font-family="Times,serif" font-size="14.00" fill="#000000">&#45;1:&#45;1/1</text>
</g>
</g>
</svg>
