<?xml version="1.0" encoding="UTF-8" standalone="no"?>
<!DOCTYPE svg PUBLIC "-//W3C//DTD SVG 1.1//EN"
 "http://www.w3.org/Graphics/SVG/1.1/DTD/svg11.dtd">
<!-- Generated by graphviz version 2.40.1 (20161225.0304)
 -->
<!-- Title: WFSA Pages: 1 -->
<svg width="339pt" height="115pt"
 viewBox="0.00 0.00 339.00 115.00" xmlns="http://www.w3.org/2000/svg" xmlns:xlink="http://www.w3.org/1999/xlink">
<g id="graph0" class="graph" transform="scale(1 1) rotate(0) translate(4 111)">
<title>WFSA</title>
<polygon fill="#ffffff" stroke="transparent" points="-4,4 -4,-111 335,-111 335,4 -4,4"/>
<text text-anchor="middle" x="165.5" y="-7.8" font-family="Times,serif" font-size="14.00" fill="#000000">get_forward_scores example</text>
<!-- 0 -->
<g id="node1" class="node">
<title>0</title>
<ellipse fill="none" stroke="#000000" stroke-width="2" cx="18" cy="-65" rx="18" ry="18"/>
<text text-anchor="middle" x="18" y="-61.3" font-family="Times,serif" font-size="14.00" fill="#000000">0</text>
</g>
<!-- 1 -->
<g id="node2" class="node">
<title>1</title>
<ellipse fill="none" stroke="#000000" stroke-width="2" cx="112" cy="-89" rx="18" ry="18"/>
<text text-anchor="middle" x="112" y="-85.3" font-family="Times,serif" font-size="14.00" fill="#000000">1</text>
</g>
<!-- 0&#45;&gt;1 -->
<g id="edge1" class="edge">
<title>0&#45;&gt;1</title>
<path fill="none" stroke="#000000" d="M33.6967,-73.8829C39.04,-76.5584 45.1445,-79.2467 51,-81 61.404,-84.1152 73.1665,-86.0178 83.5671,-87.1797"/>
<polygon fill="#000000" stroke="#000000" points="83.5147,-90.6901 93.7985,-88.1421 84.1703,-83.7209 83.5147,-90.6901"/>
<text text-anchor="middle" x="65" y="-89.8" font-family="Times,serif" font-size="14.00" fill="#000000">1/1.2</text>
</g>
<!-- 0&#45;&gt;1 -->
<g id="edge2" class="edge">
<title>0&#45;&gt;1</title>
<path fill="none" stroke="#000000" d="M35.6121,-60.6364C48.0869,-58.3746 65.0197,-57.0095 79,-62 83.5141,-63.6114 87.8558,-66.1349 91.8236,-69.0061"/>
<polygon fill="#000000" stroke="#000000" points="89.8964,-71.954 99.834,-75.6276 94.3563,-66.5587 89.8964,-71.954"/>
<text text-anchor="middle" x="65" y="-65.8" font-family="Times,serif" font-size="14.00" fill="#000000">3/0.8</text>
</g>
<!-- 2 -->
<g id="node3" class="node">
<title>2</title>
<ellipse fill="none" stroke="#000000" stroke-width="2" cx="206" cy="-41" rx="18" ry="18"/>
<text text-anchor="middle" x="206" y="-37.3" font-family="Times,serif" font-size="14.00" fill="#000000">2</text>
</g>
<!-- 0&#45;&gt;2 -->
<g id="edge3" class="edge">
<title>0&#45;&gt;2</title>
<path fill="none" stroke="#000000" d="M34.9749,-58.7628C40.0773,-57.0458 45.7226,-55.3002 51,-54 94.1567,-43.3673 145.8922,-41.0332 177.3351,-40.7219"/>
<polygon fill="#000000" stroke="#000000" points="177.5756,-44.2212 187.5632,-40.6859 177.5509,-37.2212 177.5756,-44.2212"/>
<text text-anchor="middle" x="112" y="-48.8" font-family="Times,serif" font-size="14.00" fill="#000000">2/0.5</text>
</g>
<!-- 1&#45;&gt;2 -->
<g id="edge4" class="edge">
<title>1&#45;&gt;2</title>
<path fill="none" stroke="#000000" d="M126.341,-77.9782C131.9801,-73.9218 138.6223,-69.4744 145,-66 155.8499,-60.0893 168.3964,-54.7179 179.2793,-50.4822"/>
<polygon fill="#000000" stroke="#000000" points="180.5862,-53.73 188.7097,-46.9285 178.1178,-47.1797 180.5862,-53.73"/>
<text text-anchor="middle" x="159" y="-69.8" font-family="Times,serif" font-size="14.00" fill="#000000">5/0.1</text>
</g>
<!-- 3 -->
<g id="node4" class="node">
<title>3</title>
<ellipse fill="none" stroke="#000000" stroke-width="2" cx="309" cy="-68" rx="18" ry="18"/>
<ellipse fill="none" stroke="#000000" stroke-width="2" cx="309" cy="-68" rx="22" ry="22"/>
<text text-anchor="middle" x="309" y="-64.3" font-family="Times,serif" font-size="14.00" fill="#000000">3</text>
</g>
<!-- 1&#45;&gt;3 -->
<g id="edge5" class="edge">
<title>1&#45;&gt;3</title>
<path fill="none" stroke="#000000" d="M130.3256,-88.2975C160.1526,-86.978 220.9979,-83.5521 272,-76 273.7431,-75.7419 275.527,-75.4501 277.3239,-75.1345"/>
<polygon fill="#000000" stroke="#000000" points="278.4219,-78.4863 287.5662,-73.1355 277.0809,-71.6159 278.4219,-78.4863"/>
<text text-anchor="middle" x="206" y="-87.8" font-family="Times,serif" font-size="14.00" fill="#000000">&#45;1/0.6</text>
</g>
<!-- 2&#45;&gt;3 -->
<g id="edge6" class="edge">
<title>2&#45;&gt;3</title>
<path fill="none" stroke="#000000" d="M223.4725,-45.5802C238.25,-49.4539 259.7932,-55.1011 277.5606,-59.7586"/>
<polygon fill="#000000" stroke="#000000" points="276.9451,-63.2154 287.5058,-62.3656 278.7201,-56.4442 276.9451,-63.2154"/>
<text text-anchor="middle" x="255.5" y="-60.8" font-family="Times,serif" font-size="14.00" fill="#000000">&#45;1/0.4</text>
</g>
</g>
</svg>
